<?xml version="1.0" encoding="UTF-8"?>
<svg xmlns="http://www.w3.org/2000/svg" xmlns:xlink="http://www.w3.org/1999/xlink" width="54px" height="54px" viewBox="0 0 54 54" version="1.1">
<g id="surface1">
<path style=" stroke:none;fill-rule:nonzero;fill:rgb(100%,100%,100%);fill-opacity:1;" d="M 8.289062 25.191406 L 9.097656 24 L 9.71875 24.917969 L 9.535156 25.191406 Z M 5.933594 30.542969 L 4.589844 30.542969 L 0.980469 25.183594 L 2.261719 25.183594 L 4.214844 28.089844 L 4.558594 27.585938 L 5.84375 27.582031 L 5.839844 27.589844 L 4.859375 29.042969 L 5.269531 29.652344 L 7.128906 26.90625 L 6.304688 26.90625 L 6.304688 26.910156 L 4.226562 26.910156 L 3.066406 25.183594 L 4.355469 25.183594 L 4.820312 25.859375 L 9.089844 25.859375 Z M 1.789062 23.460938 L 8.65625 23.460938 L 7.484375 25.191406 L 6.171875 25.183594 L 6.617188 24.515625 L 1.078125 24.515625 Z M 9.085938 22.792969 L 1.429688 22.792969 L 1.429688 22.796875 L 0 24.925781 L 4.234375 31.207031 L 6.289062 31.207031 L 10.523438 24.917969 Z M 9.085938 22.792969 "/>
<path style=" stroke:none;fill-rule:nonzero;fill:rgb(100%,100%,100%);fill-opacity:1;" d="M 17.089844 28.359375 L 13.382812 28.359375 L 13.382812 27.597656 L 17.089844 27.597656 C 17.261719 27.597656 17.34375 27.722656 17.34375 27.976562 C 17.34375 28.230469 17.261719 28.359375 17.089844 28.359375 M 13.382812 25.667969 L 17 25.667969 C 17.171875 25.667969 17.253906 25.796875 17.253906 26.050781 C 17.253906 26.304688 17.171875 26.433594 17 26.433594 L 13.382812 26.433594 Z M 17.890625 26.980469 C 18.234375 26.722656 18.429688 26.3125 18.410156 25.886719 C 18.421875 25.53125 18.292969 25.1875 18.058594 24.925781 C 17.785156 24.632812 17.402344 24.476562 17.003906 24.496094 L 12.210938 24.496094 L 12.210938 29.535156 L 17.089844 29.535156 C 17.464844 29.550781 17.832031 29.414062 18.101562 29.148438 C 18.371094 28.886719 18.519531 28.523438 18.507812 28.144531 C 18.535156 27.671875 18.296875 27.226562 17.890625 26.980469 "/>
<path style=" stroke:none;fill-rule:nonzero;fill:rgb(100%,100%,100%);fill-opacity:1;" d="M 19.207031 24.492188 L 20.382812 24.492188 L 20.382812 29.53125 L 19.207031 29.53125 Z M 19.207031 24.492188 "/>
<path style=" stroke:none;fill-rule:nonzero;fill:rgb(100%,100%,100%);fill-opacity:1;" d="M 26.722656 25.667969 L 24.453125 25.667969 L 24.453125 29.53125 L 23.277344 29.53125 L 23.277344 25.667969 L 21.011719 25.667969 L 21.011719 24.496094 L 26.722656 24.496094 Z M 26.722656 25.667969 "/>
<path style=" stroke:none;fill-rule:nonzero;fill:rgb(100%,100%,100%);fill-opacity:1;" d="M 33.144531 27.976562 C 33.15625 28.371094 33.019531 28.757812 32.765625 29.0625 C 32.507812 29.367188 32.128906 29.539062 31.726562 29.53125 L 27.382812 29.53125 L 27.382812 28.355469 L 31.726562 28.355469 C 31.890625 28.355469 31.972656 28.230469 31.972656 27.976562 C 31.972656 27.722656 31.890625 27.59375 31.726562 27.59375 L 28.566406 27.59375 C 28.167969 27.601562 27.789062 27.429688 27.53125 27.125 C 27.269531 26.828125 27.128906 26.445312 27.140625 26.050781 C 27.132812 25.644531 27.277344 25.253906 27.542969 24.953125 C 27.796875 24.652344 28.175781 24.484375 28.570312 24.492188 L 32.914062 24.492188 L 32.914062 25.667969 L 28.566406 25.667969 C 28.40625 25.667969 28.324219 25.792969 28.324219 26.046875 C 28.324219 26.296875 28.40625 26.421875 28.566406 26.421875 L 31.726562 26.421875 C 32.125 26.410156 32.507812 26.585938 32.765625 26.890625 C 33.019531 27.191406 33.15625 27.578125 33.144531 27.976562 "/>
<path style=" stroke:none;fill-rule:nonzero;fill:rgb(100%,100%,100%);fill-opacity:1;" d="M 39.921875 24.492188 L 41.09375 24.492188 L 41.09375 29.53125 L 39.921875 29.53125 Z M 39.921875 24.492188 "/>
<path style=" stroke:none;fill-rule:nonzero;fill:rgb(100%,100%,100%);fill-opacity:1;" d="M 47.332031 29.53125 L 46.15625 29.53125 L 43.132812 26.136719 L 43.132812 29.53125 L 41.960938 29.53125 L 41.960938 24.496094 L 43.132812 24.496094 L 46.15625 27.859375 L 46.15625 24.496094 L 47.332031 24.496094 Z M 47.332031 29.53125 "/>
<path style=" stroke:none;fill-rule:nonzero;fill:rgb(100%,100%,100%);fill-opacity:1;" d="M 53.996094 27.976562 C 54.003906 28.371094 53.871094 28.757812 53.613281 29.0625 C 53.359375 29.367188 52.976562 29.539062 52.578125 29.53125 L 48.234375 29.53125 L 48.234375 28.355469 L 52.578125 28.355469 C 52.742188 28.355469 52.824219 28.230469 52.820312 27.976562 C 52.820312 27.722656 52.742188 27.59375 52.578125 27.59375 L 49.417969 27.59375 C 49.019531 27.601562 48.640625 27.429688 48.382812 27.125 C 48.121094 26.828125 47.980469 26.445312 47.992188 26.050781 C 47.984375 25.644531 48.125 25.253906 48.390625 24.953125 C 48.648438 24.652344 49.023438 24.484375 49.417969 24.492188 L 53.761719 24.492188 L 53.761719 25.667969 L 49.417969 25.667969 C 49.257812 25.667969 49.175781 25.792969 49.175781 26.046875 C 49.175781 26.296875 49.257812 26.421875 49.417969 26.421875 L 52.578125 26.421875 C 52.976562 26.410156 53.359375 26.585938 53.617188 26.890625 C 53.871094 27.191406 54.003906 27.578125 53.996094 27.976562 "/>
<path style=" stroke:none;fill-rule:nonzero;fill:rgb(100%,100%,100%);fill-opacity:1;" d="M 37.160156 27.007812 L 39.492188 24.496094 L 37.886719 24.496094 L 36.117188 26.421875 L 36.117188 26.425781 L 34.953125 26.425781 L 34.953125 24.496094 L 33.78125 24.496094 L 33.78125 29.535156 L 34.953125 29.535156 L 34.953125 27.609375 L 36.117188 27.609375 L 37.886719 29.535156 L 39.492188 29.535156 L 37.160156 27.019531 Z M 37.160156 27.007812 "/>
</g>
</svg>
