<?xml version="1.0" encoding="UTF-8"?>
<svg xmlns="http://www.w3.org/2000/svg" xmlns:xlink="http://www.w3.org/1999/xlink" width="150px" height="23px" viewBox="0 0 149 23" version="1.1">
<g id="surface1">
<path style=" stroke:none;fill-rule:nonzero;fill:rgb(100%,100%,100%);fill-opacity:1;" d="M 22.925781 6.636719 L 25.160156 3.335938 L 26.878906 5.878906 L 26.371094 6.636719 Z M 16.402344 21.449219 L 12.683594 21.449219 L 2.707031 6.621094 L 6.246094 6.621094 L 11.652344 14.660156 L 12.605469 13.273438 L 16.164062 13.261719 L 16.152344 13.277344 L 13.429688 17.304688 L 14.566406 18.992188 L 19.710938 11.390625 L 17.429688 11.390625 L 17.429688 11.394531 L 11.6875 11.394531 L 8.476562 6.621094 L 12.042969 6.621094 L 13.324219 8.484375 L 25.132812 8.484375 Z M 4.945312 1.847656 L 23.9375 1.847656 L 20.691406 6.636719 L 17.0625 6.621094 L 18.292969 4.773438 L 2.980469 4.773438 Z M 25.128906 0 L 3.949219 0 L 3.949219 0.0117188 L -0.00390625 5.90625 L 11.703125 23.296875 L 17.386719 23.296875 L 29.105469 5.875 Z M 25.128906 0 "/>
<path style=" stroke:none;fill-rule:nonzero;fill:rgb(100%,100%,100%);fill-opacity:1;" d="M 47.269531 15.414062 L 37.011719 15.414062 L 37.011719 13.300781 L 47.269531 13.300781 C 47.738281 13.300781 47.96875 13.652344 47.96875 14.355469 C 47.96875 15.058594 47.738281 15.410156 47.269531 15.414062 M 37.011719 7.964844 L 47.019531 7.964844 C 47.488281 7.964844 47.722656 8.316406 47.722656 9.019531 C 47.726562 9.722656 47.488281 10.078125 47.019531 10.078125 L 37.011719 10.078125 Z M 49.488281 11.59375 C 49.621094 9.683594 51.230469 8.21875 53.140625 8.265625 C 55.050781 8.308594 56.589844 9.847656 56.632812 11.761719 C 56.679688 13.671875 55.214844 15.28125 53.308594 15.417969 L 57.0625 15.417969 L 33.765625 15.417969 L 33.765625 29.363281 L 47.269531 29.363281 C 47.179688 27.8125 48.0625 26.371094 49.476562 25.734375 C 50.894531 25.101562 52.558594 25.40625 53.65625 26.507812 C 54.753906 27.605469 55.058594 29.269531 54.425781 30.6875 C 53.792969 32.105469 52.347656 32.984375 50.796875 32.898438 "/>
<path style=" stroke:none;fill-rule:nonzero;fill:rgb(100%,100%,100%);fill-opacity:1;" d="M 53.125 4.714844 L 56.371094 4.714844 L 56.371094 18.664062 L 53.125 18.664062 Z M 53.125 4.714844 "/>
<path style=" stroke:none;fill-rule:nonzero;fill:rgb(100%,100%,100%);fill-opacity:1;" d="M 73.910156 7.964844 L 67.632812 7.964844 L 67.632812 18.660156 L 64.386719 18.660156 L 64.386719 7.964844 L 58.109375 7.964844 L 58.109375 4.714844 L 73.910156 4.714844 Z M 73.910156 7.964844 "/>
<path style=" stroke:none;fill-rule:nonzero;fill:rgb(100%,100%,100%);fill-opacity:1;" d="M 91.675781 14.355469 C 91.410156 12.367188 92.492188 10.441406 94.328125 9.640625 C 96.167969 8.839844 98.3125 9.355469 99.585938 10.902344 C 100.859375 12.453125 100.953125 14.660156 99.8125 16.308594 C 98.675781 17.960938 96.578125 18.652344 94.679688 18.007812 L 75.738281 18.007812 L 75.738281 14.757812 L 87.753906 14.757812 C 88.203125 14.757812 88.429688 14.40625 88.429688 13.703125 C 88.429688 12.996094 88.207031 12.644531 87.753906 12.644531 L 79.015625 12.644531 C 80.285156 11.753906 81.984375 11.761719 83.246094 12.675781 C 84.503906 13.585938 85.046875 15.195312 84.601562 16.683594 C 84.152344 18.171875 82.8125 19.214844 81.257812 19.277344 C 79.707031 19.34375 78.285156 18.414062 77.714844 16.96875 L 82.175781 21.429688 L 82.175781 31.695312 L 94.1875 31.695312 L 94.1875 34.945312 L 79.015625 34.945312 C 78.5625 34.945312 78.339844 35.296875 78.339844 36 C 78.339844 36.683594 78.5625 37.027344 79.015625 37.027344 L 87.753906 37.027344 C 88.222656 35.328125 89.84375 34.207031 91.597656 34.363281 C 93.355469 34.523438 94.746094 35.914062 94.902344 37.671875 C 95.0625 39.429688 93.941406 41.050781 92.242188 41.519531 "/>
<path style=" stroke:none;fill-rule:nonzero;fill:rgb(100%,100%,100%);fill-opacity:1;" d="M 110.410156 4.714844 L 113.65625 4.714844 L 113.65625 18.664062 L 110.410156 18.664062 Z M 110.410156 4.714844 "/>
<path style=" stroke:none;fill-rule:nonzero;fill:rgb(100%,100%,100%);fill-opacity:1;" d="M 130.910156 18.660156 L 127.664062 18.660156 L 119.304688 9.261719 L 119.304688 18.660156 L 116.054688 18.660156 L 116.054688 4.710938 L 119.304688 4.710938 L 127.664062 14.03125 L 127.664062 4.714844 L 130.910156 4.714844 Z M 130.910156 18.660156 "/>
<path style=" stroke:none;fill-rule:nonzero;fill:rgb(100%,100%,100%);fill-opacity:1;" d="M 149.351562 14.355469 C 149.082031 12.367188 150.164062 10.441406 152.003906 9.640625 C 153.839844 8.835938 155.984375 9.351562 157.261719 10.902344 C 158.535156 12.449219 158.628906 14.65625 157.488281 16.308594 C 156.347656 17.957031 154.253906 18.652344 152.355469 18.007812 L 140.34375 18.007812 L 140.34375 14.757812 L 152.355469 14.757812 C 152.804688 14.757812 153.03125 14.40625 153.03125 13.699219 C 153.03125 12.996094 152.804688 12.644531 152.355469 12.644531 L 136.691406 12.644531 C 137.960938 11.75 139.660156 11.761719 140.921875 12.671875 C 142.183594 13.582031 142.726562 15.191406 142.277344 16.683594 C 141.832031 18.171875 140.488281 19.214844 138.933594 19.277344 C 137.382812 19.339844 135.960938 18.410156 135.390625 16.960938 L 139.847656 21.421875 L 139.847656 31.6875 L 151.859375 31.6875 L 151.859375 34.933594 L 139.847656 34.933594 C 139.398438 34.933594 139.171875 35.289062 139.171875 35.992188 C 139.171875 36.675781 139.398438 37.019531 139.847656 37.019531 L 148.589844 37.019531 C 147.117188 39.4375 143.96875 40.199219 141.554688 38.726562 C 139.140625 37.253906 138.378906 34.101562 139.847656 31.6875 "/>
<path style=" stroke:none;fill-rule:nonzero;fill:rgb(100%,100%,100%);fill-opacity:1;" d="M 102.78125 11.675781 L 109.230469 4.714844 L 104.792969 4.714844 L 99.894531 10.046875 L 99.894531 10.0625 L 96.679688 10.0625 L 96.679688 4.714844 L 93.433594 4.714844 L 93.433594 18.664062 L 96.679688 18.664062 L 96.679688 13.332031 L 99.894531 13.332031 L 104.796875 18.664062 L 109.230469 18.664062 L 102.78125 11.703125 Z M 102.78125 11.675781 "/>
</g>
</svg>
