<?xml version="1.0" encoding="UTF-8"?>
<svg xmlns="http://www.w3.org/2000/svg" xmlns:xlink="http://www.w3.org/1999/xlink" width="150px" height="150px" viewBox="0 0 150 150" version="1.1">
<g id="surface1">
<path style=" stroke:none;fill-rule:nonzero;fill:rgb(100%,100%,100%);fill-opacity:1;" d="M 23.023438 69.976562 L 25.269531 66.667969 L 26.996094 69.214844 L 26.488281 69.976562 Z M 16.480469 84.839844 L 12.75 84.839844 L 2.722656 69.953125 L 6.28125 69.953125 L 11.707031 78.027344 L 12.664062 76.628906 L 16.234375 76.617188 L 16.222656 76.636719 L 13.5 80.675781 L 14.636719 82.367188 L 19.800781 74.738281 L 17.511719 74.738281 L 17.511719 74.75 L 11.742188 74.75 L 8.519531 69.953125 L 12.097656 69.953125 L 13.390625 71.832031 L 25.25 71.832031 Z M 4.96875 65.167969 L 24.046875 65.167969 L 20.789062 69.976562 L 17.144531 69.953125 L 18.382812 68.097656 L 2.996094 68.097656 Z M 25.238281 63.3125 L 3.972656 63.3125 L 3.972656 63.324219 L 0 69.238281 L 11.761719 86.6875 L 17.46875 86.6875 L 29.230469 69.214844 Z M 25.238281 63.3125 "/>
<path style=" stroke:none;fill-rule:nonzero;fill:rgb(100%,100%,100%);fill-opacity:1;" d="M 47.472656 78.777344 L 37.175781 78.777344 L 37.175781 76.660156 L 47.472656 76.660156 C 47.949219 76.660156 48.175781 77.007812 48.175781 77.710938 C 48.175781 78.417969 47.949219 78.777344 47.472656 78.777344 M 37.175781 71.300781 L 47.222656 71.300781 C 47.699219 71.300781 47.925781 71.65625 47.925781 72.363281 C 47.925781 73.070312 47.699219 73.425781 47.222656 73.425781 L 37.175781 73.425781 Z M 49.695312 74.945312 C 50.652344 74.230469 51.195312 73.089844 51.140625 71.90625 C 51.171875 70.921875 50.8125 69.964844 50.164062 69.238281 C 49.402344 68.425781 48.339844 67.992188 47.234375 68.042969 L 33.917969 68.042969 L 33.917969 82.042969 L 47.472656 82.042969 C 48.511719 82.085938 49.535156 81.707031 50.28125 80.96875 C 51.03125 80.242188 51.441406 79.230469 51.410156 78.179688 C 51.488281 76.867188 50.824219 75.628906 49.695312 74.945312 "/>
<path style=" stroke:none;fill-rule:nonzero;fill:rgb(100%,100%,100%);fill-opacity:1;" d="M 53.351562 68.035156 L 56.617188 68.035156 L 56.617188 82.03125 L 53.351562 82.03125 Z M 53.351562 68.035156 "/>
<path style=" stroke:none;fill-rule:nonzero;fill:rgb(100%,100%,100%);fill-opacity:1;" d="M 74.230469 71.300781 L 67.925781 71.300781 L 67.925781 82.03125 L 64.660156 82.03125 L 64.660156 71.300781 L 58.367188 71.300781 L 58.367188 68.042969 L 74.230469 68.042969 Z M 74.230469 71.300781 "/>
<path style=" stroke:none;fill-rule:nonzero;fill:rgb(100%,100%,100%);fill-opacity:1;" d="M 92.066406 77.710938 C 92.101562 78.808594 91.722656 79.882812 91.015625 80.730469 C 90.300781 81.574219 89.246094 82.054688 88.128906 82.03125 L 76.0625 82.03125 L 76.0625 78.765625 L 88.128906 78.765625 C 88.585938 78.765625 88.8125 78.417969 88.8125 77.710938 C 88.8125 77.007812 88.585938 76.648438 88.128906 76.648438 L 79.351562 76.648438 C 78.246094 76.671875 77.191406 76.195312 76.476562 75.347656 C 75.75 74.523438 75.359375 73.460938 75.390625 72.363281 C 75.367188 71.234375 75.769531 70.148438 76.507812 69.3125 C 77.214844 68.480469 78.265625 68.011719 79.363281 68.035156 L 91.429688 68.035156 L 91.429688 71.300781 L 79.351562 71.300781 C 78.90625 71.300781 78.679688 71.648438 78.679688 72.351562 C 78.679688 73.046875 78.90625 73.394531 79.351562 73.394531 L 88.128906 73.394531 C 89.234375 73.363281 90.300781 73.851562 91.015625 74.695312 C 91.722656 75.53125 92.101562 76.605469 92.066406 77.710938 "/>
<path style=" stroke:none;fill-rule:nonzero;fill:rgb(100%,100%,100%);fill-opacity:1;" d="M 110.894531 68.035156 L 114.148438 68.035156 L 114.148438 82.03125 L 110.894531 82.03125 Z M 110.894531 68.035156 "/>
<path style=" stroke:none;fill-rule:nonzero;fill:rgb(100%,100%,100%);fill-opacity:1;" d="M 131.476562 82.03125 L 128.210938 82.03125 L 119.8125 72.601562 L 119.8125 82.03125 L 116.558594 82.03125 L 116.558594 68.042969 L 119.8125 68.042969 L 128.210938 77.386719 L 128.210938 68.042969 L 131.476562 68.042969 Z M 131.476562 82.03125 "/>
<path style=" stroke:none;fill-rule:nonzero;fill:rgb(100%,100%,100%);fill-opacity:1;" d="M 149.988281 77.710938 C 150.011719 78.808594 149.640625 79.882812 148.925781 80.730469 C 148.21875 81.574219 147.15625 82.054688 146.050781 82.03125 L 133.984375 82.03125 L 133.984375 78.765625 L 146.050781 78.765625 C 146.507812 78.765625 146.734375 78.417969 146.722656 77.710938 C 146.722656 77.007812 146.507812 76.648438 146.050781 76.648438 L 137.273438 76.648438 C 136.164062 76.671875 135.113281 76.195312 134.398438 75.347656 C 133.667969 74.523438 133.277344 73.460938 133.3125 72.363281 C 133.289062 71.234375 133.679688 70.148438 134.417969 69.3125 C 135.132812 68.480469 136.175781 68.011719 137.273438 68.035156 L 149.339844 68.035156 L 149.339844 71.300781 L 137.273438 71.300781 C 136.828125 71.300781 136.597656 71.648438 136.597656 72.351562 C 136.597656 73.046875 136.828125 73.394531 137.273438 73.394531 L 146.050781 73.394531 C 147.15625 73.363281 148.21875 73.851562 148.9375 74.695312 C 149.640625 75.53125 150.011719 76.605469 149.988281 77.710938 "/>
<path style=" stroke:none;fill-rule:nonzero;fill:rgb(100%,100%,100%);fill-opacity:1;" d="M 103.222656 75.023438 L 109.699219 68.042969 L 105.242188 68.042969 L 100.324219 73.394531 L 100.324219 73.40625 L 97.09375 73.40625 L 97.09375 68.042969 L 93.835938 68.042969 L 93.835938 82.042969 L 97.09375 82.042969 L 97.09375 76.691406 L 100.324219 76.691406 L 105.242188 82.042969 L 109.699219 82.042969 L 103.222656 75.054688 Z M 103.222656 75.023438 "/>
</g>
</svg>
