<?xml version="1.0" encoding="UTF-8" standalone="no" ?>
<!DOCTYPE svg PUBLIC "-//W3C//DTD SVG 1.1//EN" "http://www.w3.org/Graphics/SVG/1.1/DTD/svg11.dtd">
<svg xmlns="http://www.w3.org/2000/svg" xmlns:xlink="http://www.w3.org/1999/xlink" version="1.1" width="1080" height="1080" viewBox="0 0 1080 1080" xml:space="preserve">
<desc>Created with Fabric.js 5.2.4</desc>
<defs>
</defs>
<g transform="matrix(1 0 0 1 540 540)" id="3e5c52fe-7e97-4a9c-afb4-8e37fb986e7e"  >
<rect style="stroke: none; stroke-width: 1; stroke-dasharray: none; stroke-linecap: butt; stroke-dashoffset: 0; stroke-linejoin: miter; stroke-miterlimit: 4; fill: rgb(255,255,255); fill-rule: nonzero; opacity: 1; visibility: hidden;" vector-effect="non-scaling-stroke"  x="-540" y="-540" rx="0" ry="0" width="1080" height="1080" />
</g>
<g transform="matrix(1 0 0 1 540 540)" id="56d38f46-b54b-4406-8a0c-4b0d7319ad87"  >
</g>
<g transform="matrix(5.36 0 0 5.36 540 540)"  >
<g style=""   >
		<g transform="matrix(1 0 0 1 -81.11 0)" id="path420"  >
<path style="stroke: none; stroke-width: 1; stroke-dasharray: none; stroke-linecap: butt; stroke-dashoffset: 0; stroke-linejoin: miter; stroke-miterlimit: 4; fill: rgb(255,255,255); fill-rule: nonzero; opacity: 1;" vector-effect="non-scaling-stroke"  transform=" translate(-228.5, -270.24)" d="M 239.8 263.486 L 242.81300000000002 259.041 L 245.13400000000001 262.468 L 244.448 263.486 z M 231 283.454 L 225.983 283.454 L 212.526 263.467 L 217.3 263.467 L 224.59 274.3 L 225.876 272.432 L 230.67600000000002 272.418 L 230.66100000000003 272.44100000000003 L 226.99000000000004 277.865 L 228.52100000000004 280.139 L 235.46300000000005 269.894 L 232.38500000000005 269.894 L 232.38500000000005 269.9 L 224.63700000000006 269.9 L 220.30900000000005 263.467 L 225.12100000000007 263.467 L 226.84600000000006 265.978 L 242.77900000000005 265.978 z M 215.542 257.033 L 241.163 257.033 L 236.788 263.486 L 231.888 263.467 L 233.55 260.977 L 212.892 260.977 z M 242.773 254.543 L 214.203 254.543 L 214.203 254.561 L 208.867 262.50100000000003 L 224.658 285.94500000000005 L 232.326 285.94500000000005 L 248.137 262.46400000000006 z" stroke-linecap="round" />
</g>
		<g transform="matrix(1 0 0 1 -43.43 0.06)" id="path434"  >
<path style="stroke: none; stroke-width: 1; stroke-dasharray: none; stroke-linecap: butt; stroke-dashoffset: 0; stroke-linejoin: miter; stroke-miterlimit: 4; fill: rgb(255,255,255); fill-rule: nonzero; opacity: 1;" vector-effect="non-scaling-stroke"  transform=" translate(-320.71, -277.91)" d="M 327.164 282.924 L 313.33 282.924 L 313.33 280.07599999999996 L 327.164 280.07599999999996 Q 328.11199999999997 280.07599999999996 328.11199999999997 281.49899999999997 Q 328.11199999999997 282.92199999999997 327.164 282.924 M 313.33 272.886 L 326.83 272.886 Q 327.779 272.886 327.78 274.309 Q 327.78099999999995 275.732 326.83 275.732 L 313.33 275.732 z M 330.157 277.776 C 331.43901205714104 276.81870307130663 332.1633622253423 275.288354163721 332.091 273.69 C 332.1263160655869 272.37324123897156 331.65613039742254 271.09293353677066 330.777 270.112 C 329.76244757540803 269.0240809619286 328.3209365534787 268.4371643738523 326.835 268.507 L 308.95 268.507 L 308.95 287.307 L 327.164 287.307 C 328.5678315048615 287.3742746491919 329.93623713484146 286.8537191775485 330.9404167791583 285.87041250391854 C 331.9445964234751 284.88710583028853 332.4937764354772 283.52993477193365 332.45599999999996 282.125 C 332.5534150402017 280.3626969886462 331.6683122737808 278.69100724197995 330.15599999999995 277.781" stroke-linecap="round" />
</g>
		<g transform="matrix(1 0 0 1 -26.88 0.05)" id="path436"  >
<path style="stroke: none; stroke-width: 1; stroke-dasharray: none; stroke-linecap: butt; stroke-dashoffset: 0; stroke-linejoin: miter; stroke-miterlimit: 4; fill: rgb(255,255,255); fill-rule: nonzero; opacity: 1;" vector-effect="non-scaling-stroke"  transform=" translate(-368.52, -277.91)" d="M 366.328 268.506 L 370.70799999999997 268.506 L 370.70799999999997 287.306 L 366.328 287.306 z" stroke-linecap="round" />
</g>
		<g transform="matrix(1 0 0 1 -11.69 0.05)" id="path438"  >
<path style="stroke: none; stroke-width: 1; stroke-dasharray: none; stroke-linecap: butt; stroke-dashoffset: 0; stroke-linejoin: miter; stroke-miterlimit: 4; fill: rgb(255,255,255); fill-rule: nonzero; opacity: 1;" vector-effect="non-scaling-stroke"  transform=" translate(-391.76, -277.9)" d="M 402.414 272.886 L 393.945 272.886 L 393.945 287.3 L 389.565 287.3 L 389.565 272.886 L 381.1 272.886 L 381.1 268.50600000000003 L 402.415 268.50600000000003 z" stroke-linecap="round" />
</g>
		<g transform="matrix(1 0 0 1 11.73 0.05)" id="path440"  >
<path style="stroke: none; stroke-width: 1; stroke-dasharray: none; stroke-linecap: butt; stroke-dashoffset: 0; stroke-linejoin: miter; stroke-miterlimit: 4; fill: rgb(255,255,255); fill-rule: nonzero; opacity: 1;" vector-effect="non-scaling-stroke"  transform=" translate(-442.56, -277.91)" d="M 453.764 281.5 C 453.8009579265892 282.97920787156033 453.29472627621476 284.4207051641233 452.341 285.552 C 451.38294198795086 286.6909868080846 449.96103282337776 287.3354042758965 448.473 287.305 L 432.265 287.305 L 432.265 282.925 L 448.472 282.925 Q 449.383 282.925 449.38399999999996 281.5 Q 449.38499999999993 280.075 448.472 280.077 L 436.68199999999996 280.077 C 435.1936658052429 280.1085369601497 433.7711152822072 279.4643631383977 432.81299999999993 278.325 C 431.83608725117665 277.2199277806604 431.314685732247 275.78544820767655 431.3539999999999 274.311 C 431.3257425674228 272.808492788224 431.86084147372515 271.34981316964394 432.8539999999999 270.222 C 433.8055398023199 269.0992993255572 435.21480688805036 268.4685861073871 436.6859999999999 268.507 L 452.89199999999994 268.507 L 452.89199999999994 272.887 L 436.682 272.887 Q 435.771 272.887 435.77000000000004 274.31 Q 435.77000000000004 275.696 436.682 275.697 L 448.47200000000004 275.697 C 449.9601091410297 275.66550719404177 451.38251137206737 276.3092462239066 452.34100000000007 277.448 C 453.2943314899276 278.5791284345501 453.80052562495837 280.0201631787595 453.76400000000007 281.49899999999997" stroke-linecap="round" />
</g>
		<g transform="matrix(1 0 0 1 50.4 0.05)" id="path442"  >
<path style="stroke: none; stroke-width: 1; stroke-dasharray: none; stroke-linecap: butt; stroke-dashoffset: 0; stroke-linejoin: miter; stroke-miterlimit: 4; fill: rgb(255,255,255); fill-rule: nonzero; opacity: 1;" vector-effect="non-scaling-stroke"  transform=" translate(-538.3, -277.91)" d="M 536.113 268.506 L 540.493 268.506 L 540.493 287.306 L 536.113 287.306 z" stroke-linecap="round" />
</g>
		<g transform="matrix(1 0 0 1 65.84 0.05)" id="path444"  >
<path style="stroke: none; stroke-width: 1; stroke-dasharray: none; stroke-linecap: butt; stroke-dashoffset: 0; stroke-linejoin: miter; stroke-miterlimit: 4; fill: rgb(255,255,255); fill-rule: nonzero; opacity: 1;" vector-effect="non-scaling-stroke"  transform=" translate(-562.86, -277.9)" d="M 572.879 287.3 L 568.5 287.3 L 557.223 274.636 L 557.223 287.3 L 552.843 287.3 L 552.843 268.5 L 557.223 268.5 L 568.5 281.063 L 568.5 268.506 L 572.88 268.506 z" stroke-linecap="round" />
</g>
		<g transform="matrix(1 0 0 1 89.53 0.05)" id="path446"  >
<path style="stroke: none; stroke-width: 1; stroke-dasharray: none; stroke-linecap: butt; stroke-dashoffset: 0; stroke-linejoin: miter; stroke-miterlimit: 4; fill: rgb(255,255,255); fill-rule: nonzero; opacity: 1;" vector-effect="non-scaling-stroke"  transform=" translate(-613.5, -277.91)" d="M 624.7 281.5 C 624.7369579265893 282.97920787156033 624.2307262762148 284.4207051641233 623.277 285.552 C 622.3190315226884 286.6911049492279 620.8970626391474 287.3355494820219 619.409 287.305 L 603.209 287.305 L 603.209 282.925 L 619.409 282.925 Q 620.323 282.925 620.321 281.5 Q 620.3190000000001 280.075 619.409 280.077 L 607.622 280.077 C 606.1340134168998 280.10823216958386 604.7118937407628 279.4640869595031 603.7539999999999 278.325 C 602.7753894583643 277.2207445156193 602.2528066966735 275.78596530534094 602.2919999999999 274.311 C 602.263450421513 272.80844373733083 602.79858691096 271.349661667098 603.7919999999999 270.222 C 604.7436292211008 269.099418365787 606.1528360839907 268.46873210016696 607.6239999999999 268.507 L 623.824 268.507 L 623.824 272.887 L 607.6239999999999 272.887 Q 606.7109999999999 272.887 606.7119999999999 274.31 Q 606.7119999999999 275.696 607.6239999999999 275.697 L 619.4129999999999 275.697 C 620.9008210734105 275.66552115024376 622.322912151727 276.3092857516223 623.281 277.448 C 624.2332030829938 278.57991762443527 624.737979533586 280.0213229646746 624.7 281.5" stroke-linecap="round" />
</g>
		<g transform="matrix(1 0 0 1 35.96 0.05)" id="path448"  >
<path style="stroke: none; stroke-width: 1; stroke-dasharray: none; stroke-linecap: butt; stroke-dashoffset: 0; stroke-linejoin: miter; stroke-miterlimit: 4; fill: rgb(255,255,255); fill-rule: nonzero; opacity: 1;" vector-effect="non-scaling-stroke"  transform=" translate(-496.45, -277.9)" d="M 498.4 277.886 L 507.09999999999997 268.50600000000003 L 501.116 268.50600000000003 L 494.506 275.692 L 494.506 275.713 L 490.17 275.713 L 490.17 268.505 L 485.79 268.505 L 485.79 287.305 L 490.17 287.305 L 490.17 280.119 L 494.509 280.119 L 501.119 287.305 L 507.1 287.305 L 498.40000000000003 277.925 z" stroke-linecap="round" />
</g>
</g>
</g>
</svg>