<?xml version="1.0" encoding="UTF-8"?>
<svg xmlns="http://www.w3.org/2000/svg" xmlns:xlink="http://www.w3.org/1999/xlink" width="150px" height="54px" viewBox="0 0 150 54" version="1.1">
<g id="surface1">
<path style=" stroke:none;fill-rule:nonzero;fill:rgb(100%,100%,100%);fill-opacity:1;" d="M 138 20.828125 L 134.363281 29.789062 L 130.726562 20.828125 L 125.734375 20.828125 L 131.785156 33.855469 C 132.078125 34.460938 131.871094 34.945312 131.058594 34.945312 L 126.484375 34.945312 L 126.484375 38.71875 L 131.453125 38.71875 C 133.957031 38.71875 135.097656 37.859375 135.753906 36.480469 L 142.683594 20.859375 Z M 138 20.828125 "/>
<path style=" stroke:none;fill-rule:nonzero;fill:rgb(100%,100%,100%);fill-opacity:1;" d="M 15.1875 31.136719 C 13.007812 31.136719 11.707031 29.789062 11.707031 27.871094 C 11.707031 25.949219 13.007812 24.605469 15.1875 24.605469 C 16.847656 24.605469 18.019531 25.40625 18.441406 26.683594 L 22.929688 26.683594 C 22.410156 22.972656 19.425781 20.539062 15.1875 20.539062 C 10.535156 20.539062 7.316406 23.515625 7.316406 27.875 C 7.316406 32.230469 10.535156 35.207031 15.1875 35.207031 C 19.417969 35.207031 22.441406 32.742188 22.960938 29.03125 L 18.472656 29.03125 C 18.050781 30.300781 16.878906 31.136719 15.1875 31.136719 Z M 15.1875 31.136719 "/>
<path style=" stroke:none;fill-rule:nonzero;fill:rgb(100%,100%,100%);fill-opacity:1;" d="M 68.875 20.636719 C 67.972656 20.648438 67.082031 20.84375 66.261719 21.207031 C 65.441406 21.574219 64.707031 22.101562 64.101562 22.757812 C 63.257812 21.445312 61.804688 20.636719 59.375 20.636719 C 58.582031 20.628906 57.796875 20.792969 57.074219 21.125 C 56.355469 21.453125 55.71875 21.9375 55.214844 22.542969 L 55.214844 20.828125 L 50.886719 20.828125 L 50.886719 34.945312 L 55.214844 34.945312 L 55.214844 27.742188 C 55.214844 25.277344 56.449219 24.667969 58.105469 24.667969 C 59.863281 24.667969 60.835938 25.46875 60.835938 27.742188 L 60.835938 34.945312 L 65.160156 34.945312 L 65.160156 27.742188 C 65.160156 25.277344 66.398438 24.667969 68.054688 24.667969 C 69.8125 24.667969 70.78125 25.46875 70.78125 27.742188 L 70.78125 34.945312 L 75.109375 34.945312 L 75.109375 27.742188 C 75.121094 23.777344 73.65625 20.636719 68.875 20.636719 Z M 68.875 20.636719 "/>
<path style=" stroke:none;fill-rule:nonzero;fill:rgb(100%,100%,100%);fill-opacity:1;" d="M 84.792969 20.539062 C 80.140625 20.539062 76.921875 23.515625 76.921875 27.875 C 76.921875 32.230469 80.140625 35.207031 84.792969 35.207031 C 89.445312 35.207031 92.632812 32.230469 92.632812 27.875 C 92.632812 23.515625 89.445312 20.539062 84.792969 20.539062 Z M 84.792969 31.136719 C 82.613281 31.136719 81.3125 29.789062 81.3125 27.871094 C 81.3125 25.949219 82.613281 24.605469 84.792969 24.605469 C 86.941406 24.605469 88.246094 25.949219 88.246094 27.871094 C 88.246094 29.792969 86.941406 31.136719 84.792969 31.136719 Z M 84.792969 31.136719 "/>
<path style=" stroke:none;fill-rule:nonzero;fill:rgb(100%,100%,100%);fill-opacity:1;" d="M 102.46875 20.636719 C 101.769531 20.617188 101.074219 20.753906 100.433594 21.03125 C 99.789062 21.308594 99.222656 21.726562 98.761719 22.246094 L 98.761719 20.828125 L 94.4375 20.828125 L 94.4375 34.945312 L 98.761719 34.945312 L 98.761719 27.742188 C 98.761719 25.277344 100 24.667969 101.65625 24.667969 C 103.414062 24.667969 104.382812 25.46875 104.382812 27.742188 L 104.382812 34.945312 L 108.710938 34.945312 L 108.710938 27.742188 C 108.714844 23.777344 107.253906 20.636719 102.46875 20.636719 Z M 102.46875 20.636719 "/>
<path style=" stroke:none;fill-rule:nonzero;fill:rgb(100%,100%,100%);fill-opacity:1;" d="M 121.304688 30.296875 C 120.824219 31.050781 119.820312 31.359375 118.371094 31.359375 C 116.617188 31.359375 115.28125 30.398438 114.84375 28.925781 L 126.210938 28.925781 L 126.210938 27.871094 C 126.210938 23.515625 123.023438 20.535156 118.371094 20.535156 C 113.722656 20.535156 110.5 23.511719 110.5 27.871094 C 110.5 32.230469 113.71875 35.207031 118.371094 35.207031 C 122.125 35.207031 125.28125 33.296875 125.96875 30.300781 Z M 118.371094 24.011719 C 119.917969 24.011719 121.347656 24.816406 121.816406 26.308594 L 114.894531 26.308594 C 115.316406 24.859375 116.804688 24.011719 118.371094 24.011719 Z M 118.371094 24.011719 "/>
<path style=" stroke:none;fill-rule:nonzero;fill:rgb(100%,8.235294%,60.392157%);fill-opacity:1;" d="M 41.367188 29.378906 L 41.902344 29.417969 C 43.5 34.34375 41.253906 40.25 36.667969 42.609375 L 36.667969 42.660156 C 41.183594 42.257812 47.058594 37.730469 47.402344 30.753906 L 48.070312 30.667969 L 48.070312 29.578125 C 46.710938 28.84375 45.824219 25.777344 47.726562 24.144531 C 47.402344 20.066406 45.601562 15.996094 43.316406 13.144531 L 39.21875 10.800781 L 38.59375 12.09375 C 38.046875 12.398438 37.605469 12.859375 37.324219 13.414062 C 37.042969 13.964844 36.933594 14.589844 37.011719 15.203125 C 37.207031 16.683594 38.28125 17.59375 40.257812 17.886719 C 41.273438 18.035156 41.644531 18.464844 41.828125 19.039062 C 42.007812 19.644531 41.957031 20.257812 41.464844 20.613281 L 41.542969 20.871094 C 42.433594 20.929688 42.894531 21.410156 43.078125 22.113281 C 43.296875 22.945312 43.226562 23.628906 42.53125 24.101562 L 42.5625 24.320312 C 43.386719 24.59375 43.835938 25.394531 43.863281 26.191406 C 43.890625 27.027344 43.265625 27.875 42.324219 28.234375 C 42.015625 28.355469 41.09375 28.542969 41.09375 28.542969 Z M 40.332031 16.652344 C 39.101562 16.820312 38.28125 16.113281 38.136719 15.082031 C 37.976562 13.941406 38.574219 13.054688 39.804688 12.886719 C 40.988281 12.726562 41.855469 13.421875 42.015625 14.554688 C 42.167969 15.59375 41.523438 16.492188 40.332031 16.652344 Z M 40.332031 16.652344 "/>
<path style=" stroke:none;fill-rule:nonzero;fill:rgb(100%,100%,100%);fill-opacity:1;" d="M 38.839844 30.394531 C 38.839844 27.835938 37.046875 26.203125 33.730469 26.203125 L 29.304688 26.203125 C 28.785156 26.203125 28.238281 25.863281 28.238281 25.226562 C 28.238281 24.648438 28.761719 24.347656 29.285156 24.347656 L 38.433594 24.347656 L 38.433594 20.828125 L 29.664062 20.828125 C 26.027344 20.828125 24.425781 22.75 24.425781 25.246094 C 24.425781 27.550781 26.023438 29.472656 29.664062 29.472656 L 34.078125 29.472656 C 34.210938 29.464844 34.34375 29.488281 34.46875 29.539062 C 34.59375 29.585938 34.707031 29.660156 34.800781 29.75 C 34.894531 29.84375 34.96875 29.957031 35.015625 30.078125 C 35.0625 30.199219 35.085938 30.332031 35.078125 30.460938 C 35.078125 30.59375 35.046875 30.722656 34.992188 30.839844 C 34.941406 30.960938 34.863281 31.070312 34.765625 31.15625 C 34.667969 31.246094 34.554688 31.316406 34.429688 31.359375 C 34.304688 31.40625 34.171875 31.425781 34.039062 31.417969 L 24.878906 31.417969 L 24.878906 34.945312 L 33.726562 34.945312 C 37.046875 34.945312 38.839844 33.277344 38.839844 30.394531 Z M 38.839844 30.394531 "/>
</g>
</svg>
