<?xml version="1.0" encoding="UTF-8"?>
<svg xmlns="http://www.w3.org/2000/svg" xmlns:xlink="http://www.w3.org/1999/xlink" width="150px" height="36px" viewBox="0 0 148 36" version="1.1">
<defs>
<filter id="alpha" filterUnits="objectBoundingBox" x="0%" y="0%" width="100%" height="100%">
  <feColorMatrix type="matrix" in="SourceGraphic" values="0 0 0 0 1 0 0 0 0 1 0 0 0 0 1 0 0 0 1 0"/>
</filter>
<mask id="mask0">
  <g filter="url(#alpha)">
<rect x="0" y="0" width="148" height="36" style="fill:rgb(0%,0%,0%);fill-opacity:0.25098;stroke:none;"/>
  </g>
</mask>
<linearGradient id="linear0" gradientUnits="userSpaceOnUse" x1="4.316" y1="51.9" x2="45.105" y2="51.9" gradientTransform="matrix(0.359747,0,0,-0.359811,0,36.710181)">
<stop offset="0" style="stop-color:rgb(0%,72.941176%,58.823529%);stop-opacity:1;"/>
<stop offset="0.525" style="stop-color:rgb(0%,85.098039%,68.627451%);stop-opacity:1;"/>
<stop offset="1" style="stop-color:rgb(0%,85.098039%,68.627451%);stop-opacity:1;"/>
</linearGradient>
<clipPath id="clip1">
  <rect x="0" y="0" width="148" height="36"/>
</clipPath>
<g id="surface5" clip-path="url(#clip1)">
<path style=" stroke:none;fill-rule:nonzero;fill:url(#linear0);" d="M 15.828125 16.453125 L 11.546875 9.039062 L 7.195312 1.554688 C 6.941406 1.125 6.582031 0.765625 6.1875 0.511719 L 6.152344 0.511719 C 5.71875 0.765625 5.359375 1.125 5.109375 1.59375 L 1.871094 7.207031 C 1.402344 7.996094 1.402344 9.003906 1.871094 9.796875 L 5.757812 16.523438 C 6.042969 16.992188 6.152344 17.53125 6.152344 18.070312 C 6.152344 18.613281 6.007812 19.152344 5.757812 19.621094 L 1.90625 26.277344 C 1.4375 27.066406 1.4375 28.074219 1.90625 28.867188 L 5.144531 34.480469 C 5.394531 34.910156 5.757812 35.308594 6.1875 35.558594 L 6.222656 35.558594 C 6.65625 35.308594 6.980469 34.945312 7.230469 34.515625 L 11.546875 27.03125 L 15.828125 19.546875 C 16.367188 18.574219 16.367188 17.425781 15.828125 16.453125 Z M 15.828125 16.453125 "/>
</g>
<mask id="mask1">
  <g filter="url(#alpha)">
<rect x="0" y="0" width="148" height="36" style="fill:rgb(0%,0%,0%);fill-opacity:0.25098;stroke:none;"/>
  </g>
</mask>
<linearGradient id="linear1" gradientUnits="userSpaceOnUse" x1="-1720.072" y1="1965.776" x2="-1676.102" y2="1965.776" gradientTransform="matrix(0.359747,0,0,-0.359811,639.927321,725.308165)">
<stop offset="0" style="stop-color:rgb(0%,55.294118%,52.156863%);stop-opacity:1;"/>
<stop offset="1" style="stop-color:rgb(0%,100%,87.843137%);stop-opacity:1;"/>
</linearGradient>
<clipPath id="clip2">
  <rect x="0" y="0" width="148" height="36"/>
</clipPath>
<g id="surface8" clip-path="url(#clip2)">
<path style=" stroke:none;fill-rule:nonzero;fill:url(#linear1);" d="M 36.476562 16.238281 L 32.160156 8.789062 L 27.738281 1.125 C 27.519531 0.765625 27.269531 0.476562 26.945312 0.226562 C 26.765625 0.0820312 26.585938 0.0078125 26.371094 0.0078125 C 24.101562 0.0078125 22.554688 0.0820312 21.40625 0.0820312 C 21.226562 0.0820312 21.117188 0.296875 21.152344 0.476562 L 22.269531 6.738281 C 22.269531 6.808594 22.269531 6.882812 22.230469 6.953125 C 21.800781 7.746094 21.835938 8.71875 22.304688 9.507812 L 26.261719 16.417969 C 26.550781 16.921875 26.691406 17.460938 26.691406 18 C 26.691406 18.539062 26.550781 19.078125 26.261719 19.582031 L 22.269531 26.492188 C 21.800781 27.28125 21.800781 28.253906 22.195312 29.046875 C 22.230469 29.117188 22.230469 29.191406 22.230469 29.261719 L 21.117188 35.488281 C 21.082031 35.667969 21.1875 35.882812 21.367188 35.882812 C 22.414062 35.882812 20.9375 35.992188 26.476562 35.992188 C 26.585938 35.992188 26.730469 35.953125 26.835938 35.917969 C 27.234375 35.773438 27.484375 35.308594 27.699219 34.910156 L 32.125 27.210938 L 36.40625 19.761719 C 37.089844 18.683594 37.089844 17.351562 36.476562 16.238281 Z M 36.476562 16.238281 "/>
</g>
<linearGradient id="linear2" gradientUnits="userSpaceOnUse" x1="12.9" y1="52" x2="97.726" y2="52" gradientTransform="matrix(0.359747,0,0,-0.359811,0,36.710181)">
<stop offset="0" style="stop-color:rgb(0%,55.294118%,58.039216%);stop-opacity:1;"/>
<stop offset="1" style="stop-color:rgb(0%,100%,87.843137%);stop-opacity:1;"/>
</linearGradient>
<linearGradient id="linear3" gradientUnits="userSpaceOnUse" x1="0.025" y1="51.9" x2="40.813" y2="51.9" gradientTransform="matrix(0.359747,0,0,-0.359811,0,36.710181)">
<stop offset="0" style="stop-color:rgb(0%,72.941176%,58.823529%);stop-opacity:1;"/>
<stop offset="0.525" style="stop-color:rgb(0%,85.098039%,68.627451%);stop-opacity:1;"/>
<stop offset="1" style="stop-color:rgb(0%,98.039216%,68.627451%);stop-opacity:1;"/>
</linearGradient>
</defs>
<g id="surface1">
<use xlink:href="#surface5" mask="url(#mask0)"/>
<use xlink:href="#surface8" mask="url(#mask1)"/>
<path style=" stroke:none;fill-rule:nonzero;fill:url(#linear2);" d="M 34.714844 16.453125 L 26.117188 1.554688 C 25.578125 0.621094 24.570312 0.0078125 23.457031 0.0078125 L 6.257812 0.0078125 C 5.683594 0.0078125 5.144531 0.1875 4.640625 0.476562 L 4.640625 0.511719 C 5.035156 0.765625 5.394531 1.125 5.648438 1.554688 L 9.964844 9.039062 C 10.359375 8.859375 10.828125 8.753906 11.261719 8.753906 L 18.382812 8.753906 C 19.5 8.753906 20.503906 9.328125 21.046875 10.300781 L 24.605469 16.453125 C 25.144531 17.386719 25.144531 18.574219 24.605469 19.546875 L 21.046875 25.699219 C 20.503906 26.636719 19.460938 27.246094 18.382812 27.246094 L 11.296875 27.246094 C 10.828125 27.246094 10.398438 27.140625 10 26.960938 L 5.683594 34.445312 C 5.433594 34.875 5.074219 35.234375 4.675781 35.488281 L 4.675781 35.523438 C 5.144531 35.8125 5.71875 35.992188 6.296875 35.992188 L 23.527344 35.992188 C 24.644531 35.992188 25.648438 35.414062 26.191406 34.445312 L 34.789062 19.546875 C 35.292969 18.574219 35.292969 17.425781 34.714844 16.453125 Z M 34.714844 16.453125 "/>
<path style=" stroke:none;fill-rule:nonzero;fill:url(#linear3);" d="M 14.246094 16.453125 L 9.964844 9.039062 L 5.648438 1.554688 C 5.394531 1.125 5.035156 0.765625 4.640625 0.511719 L 4.605469 0.511719 C 4.171875 0.765625 3.8125 1.125 3.5625 1.59375 L 0.359375 7.167969 C -0.109375 7.960938 -0.109375 8.96875 0.359375 9.761719 L 4.246094 16.488281 C 4.53125 16.957031 4.640625 17.496094 4.640625 18.035156 C 4.640625 18.574219 4.496094 19.117188 4.246094 19.582031 L 0.359375 26.277344 C -0.109375 27.066406 -0.109375 28.074219 0.359375 28.867188 L 3.597656 34.480469 C 3.847656 34.910156 4.210938 35.308594 4.640625 35.558594 L 4.675781 35.558594 C 5.109375 35.308594 5.433594 34.945312 5.683594 34.515625 L 10 27.03125 L 14.28125 19.621094 C 14.820312 18.574219 14.820312 17.425781 14.246094 16.453125 Z M 14.246094 16.453125 "/>
<path style=" stroke:none;fill-rule:nonzero;fill:rgb(23.529412%,27.058824%,38.431373%);fill-opacity:1;" d="M 60.222656 12.53125 C 59.429688 11.773438 58.53125 11.199219 57.488281 10.804688 C 56.480469 10.40625 55.402344 10.191406 54.285156 10.191406 L 48.53125 10.191406 C 47.378906 10.191406 46.445312 11.089844 46.445312 12.207031 L 46.445312 25.734375 C 46.445312 26.851562 47.378906 27.75 48.53125 27.75 L 54.285156 27.75 C 55.363281 27.75 56.445312 27.535156 57.488281 27.140625 C 58.53125 26.742188 59.429688 26.167969 60.222656 25.414062 C 61.949219 23.757812 62.8125 21.5625 62.8125 18.972656 C 62.847656 16.378906 61.949219 14.222656 60.222656 12.53125 Z M 58.53125 23.398438 C 57.453125 24.621094 56.011719 25.230469 54.25 25.230469 L 49.175781 25.230469 L 49.175781 12.675781 L 54.25 12.675781 C 56.011719 12.675781 57.453125 13.285156 58.53125 14.511719 C 59.609375 15.695312 60.148438 17.207031 60.148438 18.933594 C 60.113281 20.734375 59.574219 22.210938 58.53125 23.398438 Z M 84.359375 15.660156 C 83.605469 14.941406 82.707031 14.4375 81.664062 14.222656 C 81.484375 14.1875 81.265625 14.148438 81.050781 14.148438 C 80.1875 14.113281 79.433594 14.1875 78.75 14.4375 C 77.597656 14.832031 76.664062 15.515625 76.015625 16.378906 C 75.582031 15.734375 75.007812 15.195312 74.289062 14.796875 C 73.316406 14.257812 72.128906 14.042969 70.941406 14.1875 C 69.753906 14.328125 68.746094 14.796875 67.957031 15.625 C 67.957031 14.941406 67.34375 14.367188 66.589844 14.367188 C 65.832031 14.367188 65.222656 14.941406 65.222656 15.660156 L 65.222656 26.492188 C 65.222656 27.210938 65.832031 27.785156 66.589844 27.785156 C 67.34375 27.785156 67.957031 27.210938 67.957031 26.492188 L 67.957031 19.800781 C 67.957031 18.792969 68.28125 17.964844 68.925781 17.386719 C 69.539062 16.8125 70.332031 16.523438 71.230469 16.523438 C 72.09375 16.523438 72.8125 16.8125 73.351562 17.386719 C 73.929688 18 74.214844 18.792969 74.214844 19.761719 L 74.214844 26.457031 C 74.214844 27.175781 74.828125 27.75 75.582031 27.75 C 76.339844 27.75 76.949219 27.175781 76.949219 26.457031 L 76.949219 19.800781 C 76.949219 18.792969 77.273438 17.964844 77.921875 17.386719 C 78.53125 16.8125 79.324219 16.523438 80.222656 16.523438 C 81.085938 16.523438 81.804688 16.8125 82.347656 17.386719 C 82.921875 18 83.210938 18.792969 83.210938 19.761719 L 83.210938 26.457031 C 83.210938 27.175781 83.820312 27.75 84.578125 27.75 C 85.332031 27.75 85.945312 27.175781 85.945312 26.457031 L 85.945312 19.726562 C 85.980469 18.109375 85.441406 16.742188 84.359375 15.660156 Z M 100.332031 14.113281 C 99.578125 14.113281 98.964844 14.691406 98.964844 15.410156 L 98.964844 15.589844 C 97.851562 14.472656 96.414062 13.933594 94.648438 13.933594 C 92.527344 13.933594 90.800781 14.617188 89.542969 15.949219 C 88.316406 17.28125 87.671875 18.898438 87.671875 20.84375 C 87.671875 22.785156 88.28125 24.40625 89.542969 25.734375 C 90.835938 27.066406 92.492188 27.75 94.542969 27.75 C 96.414062 27.75 97.886719 27.210938 99.003906 26.097656 L 99.003906 26.238281 C 99.003906 26.960938 99.613281 27.535156 100.371094 27.535156 C 101.125 27.535156 101.738281 26.960938 101.738281 26.238281 L 101.738281 15.410156 C 101.664062 14.691406 101.089844 14.113281 100.332031 14.113281 Z M 97.960938 24.007812 C 97.203125 24.871094 96.125 25.304688 94.792969 25.304688 C 93.460938 25.304688 92.382812 24.871094 91.554688 23.972656 C 90.765625 23.144531 90.367188 22.066406 90.367188 20.769531 C 90.367188 19.476562 90.765625 18.433594 91.554688 17.566406 C 92.382812 16.703125 93.460938 16.238281 94.792969 16.238281 C 96.125 16.238281 97.203125 16.667969 97.960938 17.53125 C 98.714844 18.359375 99.074219 19.4375 99.074219 20.734375 C 99.074219 22.101562 98.714844 23.179688 97.960938 24.007812 Z M 111.628906 14.113281 C 110.730469 14.113281 109.976562 14.257812 109.328125 14.546875 C 108.355469 14.976562 107.5625 15.589844 107.023438 16.34375 L 107.023438 15.625 C 107.023438 14.90625 106.414062 14.328125 105.65625 14.328125 C 104.902344 14.328125 104.289062 14.90625 104.289062 15.625 L 104.289062 26.457031 C 104.289062 27.175781 104.902344 27.75 105.65625 27.75 C 106.414062 27.75 107.023438 27.175781 107.023438 26.457031 L 107.023438 21.8125 C 107.023438 20.445312 107.421875 19.257812 108.246094 18.25 C 109.074219 17.246094 110.191406 16.703125 111.523438 16.703125 L 112.097656 16.703125 L 112.097656 14.113281 Z M 124.6875 25.734375 L 120.15625 19.726562 L 123.609375 16.523438 C 124.003906 16.164062 124.113281 15.625 123.898438 15.121094 C 123.679688 14.652344 123.214844 14.328125 122.671875 14.328125 C 122.3125 14.328125 121.953125 14.472656 121.738281 14.726562 L 116.125 20.160156 L 116.125 10.515625 C 116.125 9.832031 115.515625 9.257812 114.796875 9.257812 L 114.757812 9.257812 C 114.039062 9.257812 113.429688 9.832031 113.429688 10.515625 L 113.429688 26.492188 C 113.429688 27.175781 114.039062 27.75 114.757812 27.75 L 114.796875 27.75 C 115.515625 27.75 116.125 27.175781 116.125 26.492188 L 116.125 23.542969 L 118.25 21.527344 L 122.421875 27.210938 C 122.671875 27.535156 123.070312 27.75 123.5 27.75 L 123.539062 27.75 C 124.039062 27.75 124.472656 27.5 124.722656 27.066406 C 125.011719 26.636719 124.976562 26.132812 124.6875 25.734375 Z M 137.421875 15.949219 C 136.09375 14.617188 134.367188 13.933594 132.277344 13.933594 C 130.191406 13.933594 128.464844 14.617188 127.132812 15.949219 C 125.910156 17.246094 125.265625 18.863281 125.265625 20.84375 C 125.265625 22.785156 125.910156 24.441406 127.207031 25.734375 C 128.539062 27.066406 130.300781 27.75 132.386719 27.75 C 134.042969 27.75 135.445312 27.355469 136.488281 26.597656 C 137.0625 26.203125 137.53125 25.734375 137.964844 25.195312 C 138.25 24.800781 138.285156 24.296875 138.070312 23.863281 C 137.855469 23.433594 137.386719 23.179688 136.882812 23.179688 C 136.453125 23.179688 136.019531 23.398438 135.769531 23.757812 C 135.050781 24.800781 133.898438 25.304688 132.421875 25.304688 C 131.199219 25.304688 130.15625 24.945312 129.363281 24.226562 C 128.679688 23.613281 128.25 22.820312 128.070312 21.921875 L 138.863281 21.921875 C 139.113281 21.921875 139.292969 21.742188 139.292969 21.488281 L 139.292969 20.804688 C 139.292969 18.863281 138.648438 17.207031 137.421875 15.949219 Z M 128.105469 19.476562 C 128.320312 18.613281 128.753906 17.890625 129.363281 17.351562 C 130.15625 16.667969 131.128906 16.34375 132.242188 16.34375 C 133.394531 16.34375 134.367188 16.667969 135.121094 17.351562 C 135.769531 17.890625 136.164062 18.613281 136.378906 19.476562 Z M 146.777344 14.328125 L 144.90625 14.328125 L 144.90625 11.054688 C 144.90625 10.335938 144.292969 9.761719 143.539062 9.761719 C 142.785156 9.761719 142.171875 10.335938 142.171875 11.054688 L 142.171875 14.328125 L 140.660156 14.328125 C 139.976562 14.328125 139.4375 14.871094 139.4375 15.515625 C 139.4375 16.164062 139.976562 16.703125 140.660156 16.703125 L 142.171875 16.703125 L 142.171875 26.457031 C 142.171875 27.175781 142.785156 27.75 143.539062 27.75 C 144.292969 27.75 144.90625 27.175781 144.90625 26.457031 L 144.90625 16.703125 L 146.777344 16.703125 C 147.460938 16.703125 148 16.164062 148 15.515625 C 148 14.871094 147.460938 14.328125 146.777344 14.328125 Z M 146.777344 14.328125 "/>
</g>
</svg>
