<?xml version="1.0" encoding="UTF-8" standalone="no" ?>
<!DOCTYPE svg PUBLIC "-//W3C//DTD SVG 1.1//EN" "http://www.w3.org/Graphics/SVG/1.1/DTD/svg11.dtd">
<svg xmlns="http://www.w3.org/2000/svg" xmlns:xlink="http://www.w3.org/1999/xlink" version="1.1" width="75" height="75" viewBox="0 0 75 75" xml:space="preserve">
<desc>Created with Fabric.js 5.2.4</desc>
<defs>
</defs>
<g transform="matrix(Infinity NaN NaN Infinity 0 0)" id="27941972-e69d-4d86-ad23-388505068d58"  >
</g>
<g transform="matrix(1 0 0 1 37.5 37.5)" id="1de177ed-8f1f-441b-bf48-f5673eccda45"  >
<rect style="stroke: none; stroke-width: 1; stroke-dasharray: none; stroke-linecap: butt; stroke-dashoffset: 0; stroke-linejoin: miter; stroke-miterlimit: 4; fill: rgb(255,255,255); fill-rule: nonzero; opacity: 1; visibility: hidden;" vector-effect="non-scaling-stroke"  x="-37.5" y="-37.5" rx="0" ry="0" width="75" height="75" />
</g>
<g transform="matrix(2.18 0 0 2.18 37.5 37.5)"  >
<path style="stroke: rgb(0,0,0); stroke-width: 0; stroke-dasharray: none; stroke-linecap: butt; stroke-dashoffset: 0; stroke-linejoin: miter; stroke-miterlimit: 4; fill: rgb(71,186,114); fill-rule: nonzero; opacity: 1;" vector-effect="non-scaling-stroke"  transform=" translate(-38.55, -33.16)" d="M 45.113281 16.871094 C 45.539062 16.871094 45.933594 17.105469 46.148438 17.480469 L 54.679688 32.554688 C 54.890625 32.933594 54.890625 33.394531 54.679688 33.769531 L 46.148438 48.847656 C 45.9375 49.222656 45.542969 49.453125 45.113281 49.453125 L 28.015625 49.453125 L 32.667969 41.308594 L 40.503906 41.308594 C 40.929688 41.304688 41.328125 41.074219 41.535156 40.699219 L 44.199219 35.992188 L 45.457031 33.773438 C 45.667969 33.394531 45.667969 32.933594 45.457031 32.554688 L 44.199219 30.332031 C 43.238281 28.632812 42.09375 26.617188 41.535156 25.628906 C 41.328125 25.253906 40.929688 25.019531 40.503906 25.019531 L 32.667969 25.019531 L 28.015625 16.871094 Z M 26.769531 17.039062 L 35.519531 32.542969 C 35.628906 32.734375 35.683594 32.949219 35.679688 33.164062 C 35.683594 33.378906 35.628906 33.59375 35.519531 33.785156 L 26.769531 49.292969 C 26.605469 49.195312 26.464844 49.0625 26.363281 48.90625 L 22.414062 41.929688 C 22.203125 41.554688 22.203125 41.09375 22.414062 40.714844 L 26.339844 33.785156 C 26.445312 33.59375 26.5 33.382812 26.5 33.167969 L 26.5 33.160156 C 26.5 32.945312 26.445312 32.734375 26.339844 32.542969 L 22.414062 25.613281 C 22.203125 25.238281 22.203125 24.773438 22.414062 24.398438 L 26.363281 17.421875 C 26.484375 17.242188 26.628906 17.117188 26.769531 17.039062 Z M 26.769531 17.039062" stroke-linecap="round" />
</g>
</svg>