<svg xmlns="http://www.w3.org/2000/svg" xmlns:xlink="http://www.w3.org/1999/xlink" version="1.1" style="shape-rendering:geometricPrecision; text-rendering:geometricPrecision; image-rendering:optimizeQuality; fill-rule:evenodd; clip-rule:evenodd" viewBox="139.38 544.82 3875.91 564.68"><g><path style="opacity:0.987" fill="#fefffe" d="M 955.5,545.5 C 996.802,542.699 1036.8,548.532 1075.5,563C 1120.96,580.797 1152.8,612.297 1171,657.5C 1176.28,672.673 1178.78,688.173 1178.5,704C 1144.16,704.833 1109.83,704.667 1075.5,703.5C 1068.42,670.248 1048.42,649.082 1015.5,640C 991.919,634.399 968.252,634.065 944.5,639C 927.295,643.015 912.795,651.515 901,664.5C 886.904,683.831 885.238,704.165 896,725.5C 904.193,736.351 914.693,744.184 927.5,749C 933.679,751.727 940.013,754.06 946.5,756C 984.424,764.981 1022.42,773.647 1060.5,782C 1091.37,789.104 1119.37,802.104 1144.5,821C 1171.37,844.246 1185.87,873.746 1188,909.5C 1192.12,1000.37 1150.62,1058.87 1063.5,1085C 998.882,1101.89 934.882,1099.89 871.5,1079C 806.966,1053.79 771.632,1006.62 765.5,937.5C 801.162,936.333 836.829,936.167 872.5,937C 878.178,964.694 894.178,984.028 920.5,995C 957.95,1009.22 995.617,1009.89 1033.5,997C 1052.81,990.019 1066.65,977.185 1075,958.5C 1082.78,935.103 1077.28,915.603 1058.5,900C 1046.79,892.092 1034.13,886.092 1020.5,882C 981.321,872.364 941.988,863.364 902.5,855C 872.847,847.839 846.18,834.839 822.5,816C 791.855,786.946 776.855,751.112 777.5,708.5C 780.909,638.807 814.576,590.307 878.5,563C 903.497,553.637 929.164,547.804 955.5,545.5 Z"></path></g><g><path style="opacity:0.993" fill="#877dfe" d="M 140.5,557.5 C 324.167,557.5 507.833,557.5 691.5,557.5C 691.5,741.5 691.5,925.5 691.5,1109.5C 507.5,1109.5 323.5,1109.5 139.5,1109.5C 139.168,925.43 139.501,741.43 140.5,557.5 Z"></path></g><g><path style="opacity:0.99" fill="#fefffe" d="M 1261.5,558.5 C 1298.17,558.5 1334.83,558.5 1371.5,558.5C 1371.5,636.167 1371.5,713.833 1371.5,791.5C 1374.12,791.768 1376.62,791.435 1379,790.5C 1442.83,713.333 1506.67,636.167 1570.5,559C 1611.5,558.167 1652.5,558.333 1693.5,559.5C 1630.17,635.833 1566.83,712.167 1503.5,788.5C 1570.92,886.747 1638.92,984.58 1707.5,1082C 1663.17,1082.67 1618.83,1082.67 1574.5,1082C 1524,1009.5 1473.5,937 1423,864.5C 1406,884.833 1389,905.167 1372,925.5C 1371.5,977.832 1371.33,1030.17 1371.5,1082.5C 1334.83,1082.5 1298.17,1082.5 1261.5,1082.5C 1261.5,907.833 1261.5,733.167 1261.5,558.5 Z"></path></g><g><path style="opacity:0.994" fill="#fefffe" d="M 1759.5,558.5 C 1796.17,558.5 1832.83,558.5 1869.5,558.5C 1869.5,733.167 1869.5,907.833 1869.5,1082.5C 1832.83,1082.5 1796.17,1082.5 1759.5,1082.5C 1759.5,907.833 1759.5,733.167 1759.5,558.5 Z"></path></g><g><path style="opacity:0.988" fill="#fefffe" d="M 1966.5,558.5 C 1997.51,558.167 2028.51,558.5 2059.5,559.5C 2139.31,667.807 2219.31,775.974 2299.5,884C 2301.47,884.495 2303.47,884.662 2305.5,884.5C 2305.5,775.833 2305.5,667.167 2305.5,558.5C 2340.83,558.5 2376.17,558.5 2411.5,558.5C 2411.5,733.167 2411.5,907.833 2411.5,1082.5C 2380.5,1082.67 2349.5,1082.5 2318.5,1082C 2238.69,973.359 2158.69,864.859 2078.5,756.5C 2076.6,755.534 2074.6,755.201 2072.5,755.5C 2072.5,864.5 2072.5,973.5 2072.5,1082.5C 2037.17,1082.5 2001.83,1082.5 1966.5,1082.5C 1966.5,907.833 1966.5,733.167 1966.5,558.5 Z"></path></g><g><path style="opacity:0.99" fill="#fefffe" d="M 2507.5,558.5 C 2544.17,558.5 2580.83,558.5 2617.5,558.5C 2617.5,628.833 2617.5,699.167 2617.5,769.5C 2695.83,769.5 2774.17,769.5 2852.5,769.5C 2852.5,699.167 2852.5,628.833 2852.5,558.5C 2889.5,558.5 2926.5,558.5 2963.5,558.5C 2963.5,733.167 2963.5,907.833 2963.5,1082.5C 2926.5,1082.5 2889.5,1082.5 2852.5,1082.5C 2852.5,1009.83 2852.5,937.167 2852.5,864.5C 2774.17,864.5 2695.83,864.5 2617.5,864.5C 2617.5,937.167 2617.5,1009.83 2617.5,1082.5C 2580.83,1082.5 2544.17,1082.5 2507.5,1082.5C 2507.5,907.833 2507.5,733.167 2507.5,558.5 Z"></path></g><g><path style="opacity:0.987" fill="#fefffe" d="M 3061.5,558.5 C 3098.5,558.5 3135.5,558.5 3172.5,558.5C 3172.33,674.5 3172.5,790.5 3173,906.5C 3177.94,951.761 3202.11,980.927 3245.5,994C 3276.6,1001.25 3306.94,998.915 3336.5,987C 3370.05,969.052 3387.89,940.886 3390,902.5C 3390.5,787.834 3390.67,673.167 3390.5,558.5C 3427.5,558.5 3464.5,558.5 3501.5,558.5C 3501.67,673.5 3501.5,788.5 3501,903.5C 3498.8,990.457 3457.3,1049.62 3376.5,1081C 3321.18,1098.85 3265.18,1101.18 3208.5,1088C 3169.43,1078.22 3135.93,1059.06 3108,1030.5C 3079.58,997.597 3064.24,959.264 3062,915.5C 3061.5,796.5 3061.33,677.5 3061.5,558.5 Z"></path></g><g><path style="opacity:0.991" fill="#fefffe" d="M 3598.5,558.5 C 3683.85,558.044 3769.18,558.544 3854.5,560C 3887.82,562.507 3918.15,573.174 3945.5,592C 3982.66,624.212 3996.83,664.712 3988,713.5C 3975.45,762.22 3944.62,791.553 3895.5,801.5C 3895.5,803.5 3895.5,805.5 3895.5,807.5C 3952.06,812.591 3990.23,841.591 4010,894.5C 4021.07,937.99 4014.74,978.656 3991,1016.5C 3967.95,1046.63 3937.78,1066.13 3900.5,1075C 3886.36,1078.52 3872.03,1080.86 3857.5,1082C 3771.17,1082.5 3684.83,1082.67 3598.5,1082.5C 3598.5,907.833 3598.5,733.167 3598.5,558.5 Z M 3708.5,643.5 C 3743.17,643.333 3777.83,643.5 3812.5,644C 3865.19,649.001 3887.36,677.501 3879,729.5C 3873.07,746.429 3861.91,758.596 3845.5,766C 3832.35,771.297 3818.68,774.297 3804.5,775C 3772.5,775.5 3740.5,775.667 3708.5,775.5C 3708.5,731.5 3708.5,687.5 3708.5,643.5 Z M 3708.5,850.5 C 3744.83,850.333 3781.17,850.5 3817.5,851C 3839.16,851.744 3859.16,857.744 3877.5,869C 3894.86,882.895 3903.19,901.061 3902.5,923.5C 3901.05,963.792 3880.39,987.625 3840.5,995C 3831.92,996.756 3823.26,997.756 3814.5,998C 3779.17,998.5 3743.83,998.667 3708.5,998.5C 3708.5,949.167 3708.5,899.833 3708.5,850.5 Z"></path></g><g><path style="opacity:1" fill="#fcfcfe" d="M 221.5,598.5 C 238.466,596.691 252.966,601.691 265,613.5C 268.758,618.937 270.591,624.937 270.5,631.5C 263.5,631.5 256.5,631.5 249.5,631.5C 246.649,621.305 239.816,616.638 229,617.5C 218.542,616.308 212.376,620.808 210.5,631C 210.744,634.487 212.077,637.487 214.5,640C 228.376,644.424 242.376,648.424 256.5,652C 270.426,659.364 275.593,670.864 272,686.5C 268.402,699.749 259.902,708.249 246.5,712C 230.201,716.147 214.534,714.481 199.5,707C 190.728,700.288 186.061,691.454 185.5,680.5C 192.508,680.334 199.508,680.5 206.5,681C 208.663,689.156 213.996,693.823 222.5,695C 228.569,695.804 234.569,695.471 240.5,694C 251.495,688.673 253.162,681.34 245.5,672C 231.581,667.749 217.581,663.749 203.5,660C 190.509,651.731 185.676,639.897 189,624.5C 191.53,615.301 197.03,608.468 205.5,604C 210.715,601.429 216.048,599.596 221.5,598.5 Z"></path></g><g><path style="opacity:1" fill="#c1ade6" d="M 347.5,602.5 C 355.676,601.179 364.009,601.179 372.5,602.5C 372.376,603.107 372.043,603.44 371.5,603.5C 363.684,602.508 355.684,602.174 347.5,602.5 Z"></path></g><g><path style="opacity:1" fill="#dfd4f2" d="M 305.5,602.5 C 298.167,602.5 290.833,602.5 283.5,602.5C 283.5,638.833 283.5,675.167 283.5,711.5C 282.502,675.004 282.168,638.337 282.5,601.5C 290.352,601.175 298.018,601.508 305.5,602.5 Z"></path></g><g><path style="opacity:1" fill="#fdfdfe" d="M 305.5,602.5 C 305.167,618.514 305.501,634.514 306.5,650.5C 320.648,634.841 334.315,618.841 347.5,602.5C 355.684,602.174 363.684,602.508 371.5,603.5C 358.306,618.532 345.639,634.032 333.5,650C 346.9,670.57 360.9,690.736 375.5,710.5C 366.518,711.665 357.518,711.832 348.5,711C 338.028,695.695 327.361,680.528 316.5,665.5C 312.843,669.327 309.343,673.327 306,677.5C 305.5,688.828 305.333,700.162 305.5,711.5C 298.167,711.5 290.833,711.5 283.5,711.5C 283.5,675.167 283.5,638.833 283.5,602.5C 290.833,602.5 298.167,602.5 305.5,602.5 Z"></path></g><g><path style="opacity:1" fill="#fefefe" d="M 381.5,602.5 C 388.833,602.5 396.167,602.5 403.5,602.5C 403.5,638.833 403.5,675.167 403.5,711.5C 396.167,711.5 388.833,711.5 381.5,711.5C 381.5,675.167 381.5,638.833 381.5,602.5 Z"></path></g><g><path style="opacity:1" fill="#a98ddb" d="M 381.5,602.5 C 388.982,601.508 396.648,601.175 404.5,601.5C 404.832,638.337 404.498,675.004 403.5,711.5C 403.5,675.167 403.5,638.833 403.5,602.5C 396.167,602.5 388.833,602.5 381.5,602.5 Z"></path></g><g><path style="opacity:1" fill="#fdfdfe" d="M 487.5,669.5 C 488.209,670.404 489.209,670.737 490.5,670.5C 490.5,647.833 490.5,625.167 490.5,602.5C 497.5,602.5 504.5,602.5 511.5,602.5C 511.5,638.833 511.5,675.167 511.5,711.5C 505.132,711.83 498.798,711.496 492.5,710.5C 475.777,688.124 459.111,665.791 442.5,643.5C 442.44,642.957 442.107,642.624 441.5,642.5C 440.5,665.49 440.167,688.49 440.5,711.5C 433.5,711.5 426.5,711.5 419.5,711.5C 419.5,674.833 419.5,638.167 419.5,601.5C 425.868,601.17 432.202,601.504 438.5,602.5C 455.087,624.685 471.42,647.019 487.5,669.5 Z"></path></g><g><path style="opacity:1" fill="#a48de0" d="M 511.5,602.5 C 504.5,602.5 497.5,602.5 490.5,602.5C 490.5,625.167 490.5,647.833 490.5,670.5C 489.209,670.737 488.209,670.404 487.5,669.5C 489.49,647.191 490.156,624.525 489.5,601.5C 497.019,601.175 504.352,601.508 511.5,602.5 Z"></path></g><g><path style="opacity:1" fill="#a58adb" d="M 442.5,643.5 C 441.833,666.167 441.167,688.833 440.5,711.5C 440.167,688.49 440.5,665.49 441.5,642.5C 442.107,642.624 442.44,642.957 442.5,643.5 Z"></path></g><g><path style="opacity:0.018" fill="#fefffe" d="M 764.5,682.5 C 766.76,683.238 766.927,684.238 765,685.5C 764.517,684.552 764.351,683.552 764.5,682.5 Z"></path></g><g><path style="opacity:1" fill="#9d83df" d="M 262.5,764.5 C 246.008,765.497 229.342,765.83 212.5,765.5C 212.5,750.833 212.5,736.167 212.5,721.5C 205.167,721.5 197.833,721.5 190.5,721.5C 190.5,757.833 190.5,794.167 190.5,830.5C 189.502,794.004 189.168,757.337 189.5,720.5C 197.5,720.5 205.5,720.5 213.5,720.5C 213.5,735.167 213.5,749.833 213.5,764.5C 229.833,764.5 246.167,764.5 262.5,764.5 Z"></path></g><g><path style="opacity:1" fill="#fdfdfe" d="M 262.5,764.5 C 262.5,750.167 262.5,735.833 262.5,721.5C 270.167,721.5 277.833,721.5 285.5,721.5C 285.5,757.833 285.5,794.167 285.5,830.5C 277.833,830.5 270.167,830.5 262.5,830.5C 262.5,815.5 262.5,800.5 262.5,785.5C 246.008,784.503 229.342,784.17 212.5,784.5C 212.5,799.833 212.5,815.167 212.5,830.5C 205.167,830.5 197.833,830.5 190.5,830.5C 190.5,794.167 190.5,757.833 190.5,721.5C 197.833,721.5 205.167,721.5 212.5,721.5C 212.5,736.167 212.5,750.833 212.5,765.5C 229.342,765.83 246.008,765.497 262.5,764.5 Z"></path></g><g><path style="opacity:1" fill="#fdfcfe" d="M 299.5,721.5 C 307.167,721.5 314.833,721.5 322.5,721.5C 322.333,746.836 322.5,772.169 323,797.5C 323.232,798.737 323.732,799.737 324.5,800.5C 328.544,809.014 335.378,813.348 345,813.5C 357.267,813.708 365.1,808.041 368.5,796.5C 369.498,771.672 369.831,746.672 369.5,721.5C 376.833,721.5 384.167,721.5 391.5,721.5C 391.5,746.833 391.5,772.167 391.5,797.5C 387.127,819.218 373.794,831.052 351.5,833C 328.386,836.032 311.886,827.199 302,806.5C 301.012,803.576 300.346,800.576 300,797.5C 299.5,772.169 299.333,746.836 299.5,721.5 Z"></path></g><g><path style="opacity:1" fill="#9e84df" d="M 299.5,721.5 C 307.316,720.508 315.316,720.174 323.5,720.5C 323.202,747.192 323.535,773.859 324.5,800.5C 323.732,799.737 323.232,798.737 323,797.5C 322.5,772.169 322.333,746.836 322.5,721.5C 314.833,721.5 307.167,721.5 299.5,721.5 Z"></path></g><g><path style="opacity:1" fill="#a890e0" d="M 391.5,797.5 C 391.5,772.167 391.5,746.833 391.5,721.5C 384.167,721.5 376.833,721.5 369.5,721.5C 369.831,746.672 369.498,771.672 368.5,796.5C 368.5,771.167 368.5,745.833 368.5,720.5C 376.5,720.5 384.5,720.5 392.5,720.5C 392.831,746.339 392.498,772.005 391.5,797.5 Z"></path></g><g><path style="opacity:1" fill="#a18bea" d="M 463.5,721.5 C 444.833,721.5 426.167,721.5 407.5,721.5C 407.5,757.833 407.5,794.167 407.5,830.5C 405.506,794.182 404.84,757.515 405.5,720.5C 425.007,720.17 444.341,720.503 463.5,721.5 Z"></path></g><g><path style="opacity:1" fill="#fdfdfe" d="M 463.5,721.5 C 469.462,723.107 475.128,725.607 480.5,729C 491.46,742.006 491.126,754.673 479.5,767C 475.727,768.887 472.06,770.72 468.5,772.5C 493.061,779.625 499.561,794.625 488,817.5C 481.808,824.68 473.975,828.847 464.5,830C 445.503,830.5 426.503,830.667 407.5,830.5C 407.5,794.167 407.5,757.833 407.5,721.5C 426.167,721.5 444.833,721.5 463.5,721.5 Z"></path></g><g><path style="opacity:1" fill="#887efd" d="M 429.5,738.5 C 438.173,738.334 446.84,738.5 455.5,739C 465.789,743.199 468.622,750.365 464,760.5C 460.845,763.667 457.012,765.501 452.5,766C 444.841,766.5 437.174,766.666 429.5,766.5C 429.5,757.167 429.5,747.833 429.5,738.5 Z"></path></g><g><path style="opacity:1" fill="#887efd" d="M 429.5,781.5 C 437.507,781.334 445.507,781.5 453.5,782C 466.964,783.124 472.464,790.291 470,803.5C 466.671,809.585 461.504,812.751 454.5,813C 446.173,813.5 437.84,813.666 429.5,813.5C 429.5,802.833 429.5,792.167 429.5,781.5 Z"></path></g><g><path style="opacity:1" fill="#9b83e1" d="M 262.5,785.5 C 246.167,785.5 229.833,785.5 213.5,785.5C 213.829,800.676 213.496,815.676 212.5,830.5C 212.5,815.167 212.5,799.833 212.5,784.5C 229.342,784.17 246.008,784.503 262.5,785.5 Z"></path></g><g><path style="opacity:0.004" fill="#211060" d="M 729.5,805.5 C 730.653,811.653 730.82,817.986 730,824.5C 729.5,818.175 729.334,811.842 729.5,805.5 Z"></path></g><g><path style="opacity:1" fill="#fbfafd" d="M 341.5,973.5 C 342.75,973.577 343.583,974.244 344,975.5C 345.11,973.963 346.61,973.297 348.5,973.5C 347.683,977.815 349.349,980.149 353.5,980.5C 357.989,979.33 362.489,979.33 367,980.5C 373.838,979.083 380.671,977.583 387.5,976C 392.155,975.501 396.821,975.334 401.5,975.5C 401.031,982.019 401.031,988.686 401.5,995.5C 396.489,995.666 391.489,995.499 386.5,995C 378.463,993.094 370.463,991.261 362.5,989.5C 362.5,992.5 362.5,995.5 362.5,998.5C 368.882,998.876 375.216,999.709 381.5,1001C 390.833,1001.17 400.167,1001.33 409.5,1001.5C 474.043,1001.26 538.543,1000.26 603,998.5C 610.312,1000.11 617.812,1000.95 625.5,1001C 626.982,1003.59 626.648,1005.93 624.5,1008C 617.307,1008.05 610.307,1008.88 603.5,1010.5C 601.611,1010.56 599.944,1010.06 598.5,1009C 550.501,1008.5 502.501,1008.33 454.5,1008.5C 455.013,1013.08 454.346,1017.42 452.5,1021.5C 457.698,1023.04 462.698,1022.7 467.5,1020.5C 481.429,1022.29 495.429,1022.79 509.5,1022C 510.6,1020.98 511.933,1020.48 513.5,1020.5C 516.076,1021.37 518.576,1022.37 521,1023.5C 521.112,1026.06 519.779,1027.39 517,1027.5C 514.24,1026.26 511.406,1025.26 508.5,1024.5C 500.882,1025.3 493.216,1025.8 485.5,1026C 484.4,1027.02 483.067,1027.52 481.5,1027.5C 475.573,1025.14 469.906,1025.14 464.5,1027.5C 459.361,1026.65 454.195,1025.98 449,1025.5C 445.811,1026.04 442.811,1027.04 440,1028.5C 436.271,1027.11 433.437,1024.61 431.5,1021C 415.833,1020.33 400.167,1020.33 384.5,1021C 378.768,1023.18 373.102,1025.52 367.5,1028C 364.568,1028.95 361.568,1029.45 358.5,1029.5C 358.958,1032.39 358.291,1034.89 356.5,1037C 348.869,1038.07 341.202,1038.57 333.5,1038.5C 333.007,1036.19 332.674,1033.86 332.5,1031.5C 329.092,1030.83 326.425,1031.83 324.5,1034.5C 324.957,1030.54 324.457,1026.54 323,1022.5C 319.606,1021.54 316.106,1021.21 312.5,1021.5C 311.198,1026.64 312.865,1030.14 317.5,1032C 314.692,1032.92 312.525,1032.09 311,1029.5C 310.503,1026.85 310.336,1024.19 310.5,1021.5C 304.499,1021.46 302.332,1024.46 304,1030.5C 306.253,1034.54 309.753,1036.38 314.5,1036C 310.628,1036.89 306.962,1036.39 303.5,1034.5C 302.914,1034.71 302.414,1035.04 302,1035.5C 300.404,1041.7 298.904,1047.87 297.5,1054C 285.385,1051.37 273.052,1049.71 260.5,1049C 256.199,1046.44 252.533,1043.1 249.5,1039C 243.804,1038.17 238.137,1038.34 232.5,1039.5C 231.935,1042.51 230.935,1045.34 229.5,1048C 220.167,1048.33 210.833,1048.67 201.5,1049C 198.57,1049.61 195.737,1050.44 193,1051.5C 191.881,1043.57 191.381,1035.57 191.5,1027.5C 191.508,1020.26 191.842,1013.09 192.5,1006C 214.111,1005.46 235.777,1005.63 257.5,1006.5C 257.5,1007.5 257.5,1008.5 257.5,1009.5C 272.504,1009.67 287.504,1009.5 302.5,1009C 303.444,1006.28 303.777,1003.45 303.5,1000.5C 311.823,999.732 320.157,999.066 328.5,998.5C 328.768,995.881 328.435,993.381 327.5,991C 315.548,991.908 303.548,992.408 291.5,992.5C 291.5,988.167 291.5,983.833 291.5,979.5C 306.559,979.703 321.559,980.037 336.5,980.5C 340.85,980.122 342.517,977.789 341.5,973.5 Z"></path></g><g><path style="opacity:1" fill="#8f81f6" d="M 351.5,989.5 C 353.167,989.5 354.833,989.5 356.5,989.5C 356.5,992.5 356.5,995.5 356.5,998.5C 349.315,998.098 341.982,998.098 334.5,998.5C 334.5,995.833 334.5,993.167 334.5,990.5C 339.805,991.442 345.139,991.609 350.5,991C 351.056,990.617 351.389,990.117 351.5,989.5 Z"></path></g><g><path style="opacity:1" fill="#8d80f8" d="M 276.5,1021.5 C 281.849,1020.46 286.349,1021.79 290,1025.5C 290.153,1031.72 287.32,1036.22 281.5,1039C 271.628,1040.13 267.795,1035.97 270,1026.5C 272.326,1024.93 274.492,1023.27 276.5,1021.5 Z"></path></g><g><path style="opacity:0.012" fill="#615cff" d="M 773.5,1033.5 C 776.674,1033.95 777.007,1034.95 774.5,1036.5C 772.481,1035.87 772.147,1034.87 773.5,1033.5 Z"></path></g></svg>