<svg xmlns="http://www.w3.org/2000/svg" xmlns:xlink="http://www.w3.org/1999/xlink" version="1.1" style="shape-rendering:geometricPrecision; text-rendering:geometricPrecision; image-rendering:optimizeQuality; fill-rule:evenodd; clip-rule:evenodd" viewBox="-0.5 630.09 4096 455.19"><g><path style="opacity:0.968" fill="#fefffe" d="M -0.5,955.5 C -0.5,954.5 -0.5,953.5 -0.5,952.5C 29.5,952.5 59.5,952.5 89.5,952.5C 91.7655,969.206 99.7655,982.372 113.5,992C 143.164,1008.92 174.83,1013.59 208.5,1006C 213.009,1004.03 217.676,1002.37 222.5,1001C 237.502,993.998 248.502,982.998 255.5,968C 258.167,959.667 258.167,951.333 255.5,943C 253.192,938.883 251.025,934.716 249,930.5C 235.263,918.467 219.429,910.3 201.5,906C 168.032,898.814 134.698,891.314 101.5,883.5C 24.9652,857.132 -3.53483,804.132 16,724.5C 27.8628,691.97 49.0294,667.47 79.5,651C 124.678,631.268 171.678,625.768 220.5,634.5C 249.05,640.447 274.717,652.28 297.5,670C 325.452,694.408 340.119,725.242 341.5,762.5C 312.498,762.667 283.498,762.5 254.5,762C 253.21,754.13 250.71,746.63 247,739.5C 242.88,733.379 238.046,727.879 232.5,723C 207.123,706.394 179.456,701.561 149.5,708.5C 130.14,712.744 115.64,723.411 106,740.5C 98.3182,762.452 103.985,779.786 123,792.5C 130.833,796 138.667,799.5 146.5,803C 177.728,810.427 209.061,817.427 240.5,824C 254.494,827.665 268.16,832.331 281.5,838C 306.526,848.691 325.526,866.024 338.5,890C 351.675,924.206 352.509,958.706 341,993.5C 328.689,1024.97 307.522,1048.31 277.5,1063.5C 233.791,1082.57 188.124,1089.07 140.5,1083C 105.822,1079.78 74.4887,1068.11 46.5,1048C 41.0319,1043.53 35.8653,1038.7 31,1033.5C 29.0628,1029.56 26.3961,1026.23 23,1023.5C 20.7299,1018.9 18.0632,1014.57 15,1010.5C 6.27434,993.599 1.60767,975.599 1,956.5C 0.617425,955.944 0.117425,955.611 -0.5,955.5 Z"></path></g><g><path style="opacity:0.972" fill="#fefffe" d="M 4095.5,827.5 C 4095.5,847.833 4095.5,868.167 4095.5,888.5C 4092.19,925.075 4082.02,959.742 4065,992.5C 4040.06,1032.76 4004.89,1060.26 3959.5,1075C 3920.01,1085.48 3880.01,1087.32 3839.5,1080.5C 3791.4,1070.5 3752.57,1046.17 3723,1007.5C 3693.49,962.093 3679.65,912.093 3681.5,857.5C 3679.58,801.827 3694.08,751.161 3725,705.5C 3759.93,662.108 3805.43,637.608 3861.5,632C 3911.34,625.769 3958,634.769 4001.5,659C 4033.45,679.622 4057.62,707.122 4074,741.5C 4085.76,769.122 4092.93,797.788 4095.5,827.5 Z M 3874.5,712.5 C 3906.78,708.766 3935.11,717.266 3959.5,738C 3979.26,757.688 3992.09,781.188 3998,808.5C 4006.03,850.092 4003.53,890.925 3990.5,931C 3966.83,986.919 3924.83,1010.25 3864.5,1001C 3841.41,995.195 3822.25,983.361 3807,965.5C 3801.5,957.84 3796.5,949.84 3792,941.5C 3768.69,885.753 3768.69,830.087 3792,774.5C 3805.89,746.282 3827.73,726.782 3857.5,716C 3863.27,714.635 3868.94,713.468 3874.5,712.5 Z"></path></g><g><path style="opacity:0.97" fill="#fefffe" d="M 406.5,641.5 C 437.167,641.5 467.833,641.5 498.5,641.5C 498.5,705.5 498.5,769.5 498.5,833.5C 500.288,833.785 501.955,833.452 503.5,832.5C 555.528,768.526 607.861,705.026 660.5,642C 694.498,641.5 728.498,641.333 762.5,641.5C 762.657,642.873 762.49,644.207 762,645.5C 741.349,669.826 721.016,694.493 701,719.5C 669.129,756.239 637.963,793.572 607.5,831.5C 663.582,911.658 719.249,991.991 774.5,1072.5C 737.505,1073.67 700.505,1073.83 663.5,1073C 622.958,1013.42 581.791,954.255 540,895.5C 526.793,911.721 513.127,927.721 499,943.5C 498.5,986.832 498.333,1030.17 498.5,1073.5C 467.833,1073.5 437.167,1073.5 406.5,1073.5C 406.5,929.5 406.5,785.5 406.5,641.5 Z"></path></g><g><path style="opacity:0.974" fill="#fefffe" d="M 815.5,641.5 C 846.167,641.5 876.833,641.5 907.5,641.5C 907.5,785.5 907.5,929.5 907.5,1073.5C 876.833,1073.5 846.167,1073.5 815.5,1073.5C 815.5,929.5 815.5,785.5 815.5,641.5 Z"></path></g><g><path style="opacity:0.977" fill="#fefffe" d="M 986.5,641.5 C 1012.17,641.333 1037.84,641.5 1063.5,642C 1129.57,730.691 1195.24,819.524 1260.5,908.5C 1262.05,909.452 1263.71,909.785 1265.5,909.5C 1265.5,820.167 1265.5,730.833 1265.5,641.5C 1294.5,641.5 1323.5,641.5 1352.5,641.5C 1352.5,785.5 1352.5,929.5 1352.5,1073.5C 1326.82,1073.83 1301.16,1073.5 1275.5,1072.5C 1209.94,983.183 1144.27,894.016 1078.5,805C 1077.21,804.51 1075.87,804.343 1074.5,804.5C 1074.5,894.167 1074.5,983.833 1074.5,1073.5C 1045.17,1073.5 1015.83,1073.5 986.5,1073.5C 986.5,929.5 986.5,785.5 986.5,641.5 Z"></path></g><g><path style="opacity:0.974" fill="#fefffe" d="M 1430.5,641.5 C 1461.17,641.5 1491.83,641.5 1522.5,641.5C 1522.5,699.167 1522.5,756.833 1522.5,814.5C 1586.17,814.5 1649.83,814.5 1713.5,814.5C 1713.5,756.833 1713.5,699.167 1713.5,641.5C 1744.17,641.5 1774.83,641.5 1805.5,641.5C 1805.5,785.5 1805.5,929.5 1805.5,1073.5C 1774.83,1073.5 1744.17,1073.5 1713.5,1073.5C 1713.5,1013.83 1713.5,954.167 1713.5,894.5C 1649.83,894.5 1586.17,894.5 1522.5,894.5C 1522.5,954.167 1522.5,1013.83 1522.5,1073.5C 1491.83,1073.5 1461.17,1073.5 1430.5,1073.5C 1430.5,929.5 1430.5,785.5 1430.5,641.5 Z"></path></g><g><path style="opacity:0.973" fill="#fefffe" d="M 1885.5,641.5 C 1916.17,641.5 1946.83,641.5 1977.5,641.5C 1977.33,736.167 1977.5,830.834 1978,925.5C 1982.63,967.311 2005.47,992.478 2046.5,1001C 2072.08,1005.26 2096.41,1001.6 2119.5,990C 2126.29,985.213 2132.45,979.713 2138,973.5C 2141.37,968.782 2144.37,963.782 2147,958.5C 2151.5,949.341 2154.16,939.674 2155,929.5C 2155.5,833.501 2155.67,737.501 2155.5,641.5C 2186.17,641.5 2216.83,641.5 2247.5,641.5C 2247.67,742.501 2247.5,843.501 2247,944.5C 2242.87,984.601 2225.7,1017.77 2195.5,1044C 2164.28,1068.76 2128.61,1082.09 2088.5,1084C 2042.79,1088.72 1999.79,1080.39 1959.5,1059C 1914.19,1030.61 1889.69,989.439 1886,935.5C 1885.5,837.501 1885.33,739.501 1885.5,641.5 Z"></path></g><g><path style="opacity:0.971" fill="#fefffe" d="M 2326.5,641.5 C 2399.19,641.035 2471.85,641.535 2544.5,643C 2565.95,645.687 2585.95,652.354 2604.5,663C 2644.52,691.633 2658.35,730.133 2646,778.5C 2637.48,803.503 2621.65,822.336 2598.5,835C 2590.27,838.138 2581.94,840.805 2573.5,843C 2572.66,844.011 2572.33,845.178 2572.5,846.5C 2614.48,849.907 2644.65,870.574 2663,908.5C 2675.5,945.189 2672.5,980.523 2654,1014.5C 2649.75,1021.2 2644.91,1027.36 2639.5,1033C 2633.79,1038.37 2627.79,1043.37 2621.5,1048C 2608.73,1055.15 2595.39,1061.15 2581.5,1066C 2572.44,1067.88 2563.44,1069.88 2554.5,1072C 2478.52,1073.47 2402.52,1073.97 2326.5,1073.5C 2326.5,929.5 2326.5,785.5 2326.5,641.5 Z M 2418.5,712.5 C 2444.84,712.333 2471.17,712.5 2497.5,713C 2517.6,712.809 2534.76,719.642 2549,733.5C 2552.51,738.363 2555.18,743.696 2557,749.5C 2564.41,785.191 2550.58,807.691 2515.5,817C 2511.21,817.912 2506.87,818.579 2502.5,819C 2474.5,819.5 2446.5,819.667 2418.5,819.5C 2418.5,783.833 2418.5,748.167 2418.5,712.5 Z M 2418.5,883.5 C 2449.84,883.333 2481.17,883.5 2512.5,884C 2528,884.787 2542.33,889.121 2555.5,897C 2557.45,899.737 2559.95,901.904 2563,903.5C 2564.95,907.282 2567.45,910.615 2570.5,913.5C 2579.65,935.695 2578.15,957.029 2566,977.5C 2562.04,981.627 2557.87,985.627 2553.5,989.5C 2540.62,997.387 2526.62,1001.55 2511.5,1002C 2480.5,1002.5 2449.5,1002.67 2418.5,1002.5C 2418.5,962.833 2418.5,923.167 2418.5,883.5 Z"></path></g><g><path style="opacity:0.967" fill="#fefffe" d="M 2912.5,641.5 C 2978.17,641.333 3043.83,641.5 3109.5,642C 3145.88,645.432 3177.38,659.266 3204,683.5C 3235.52,720.198 3248.52,762.865 3243,811.5C 3233.53,878.308 3196.03,919.808 3130.5,936C 3122.69,937.065 3115.03,938.398 3107.5,940C 3073.5,940.5 3039.5,940.667 3005.5,940.5C 3005.5,984.833 3005.5,1029.17 3005.5,1073.5C 2974.5,1073.5 2943.5,1073.5 2912.5,1073.5C 2912.5,929.5 2912.5,785.5 2912.5,641.5 Z M 3005.5,718.5 C 3031.5,718.333 3057.5,718.5 3083.5,719C 3127.27,723.272 3149.27,747.439 3149.5,791.5C 3149.28,835.547 3127.28,859.714 3083.5,864C 3057.5,864.5 3031.5,864.667 3005.5,864.5C 3005.5,815.833 3005.5,767.167 3005.5,718.5 Z"></path></g><g><path style="opacity:0.969" fill="#fefffe" d="M 3300.5,641.5 C 3367.17,641.333 3433.83,641.5 3500.5,642C 3533.06,643.851 3562.4,654.184 3588.5,673C 3597.71,681.539 3606.21,690.706 3614,700.5C 3630.91,728.327 3637.91,758.661 3635,791.5C 3631.44,844.32 3605.94,881.82 3558.5,904C 3588.22,960.32 3618.22,1016.49 3648.5,1072.5C 3613.5,1073.83 3578.5,1073.83 3543.5,1072.5C 3516.78,1021.73 3490.61,970.728 3465,919.5C 3440.91,918.506 3416.74,918.172 3392.5,918.5C 3392.5,970.167 3392.5,1021.83 3392.5,1073.5C 3361.59,1073.83 3330.76,1073.5 3300,1072.5C 3299.17,928.764 3299.34,785.097 3300.5,641.5 Z M 3392.5,716.5 C 3422.5,716.333 3452.5,716.5 3482.5,717C 3519.63,722.802 3539.3,744.468 3541.5,782C 3541.02,787.855 3540.35,793.688 3539.5,799.5C 3530.8,828.561 3511.14,844.061 3480.5,846C 3451.17,846.5 3421.84,846.667 3392.5,846.5C 3392.5,803.167 3392.5,759.833 3392.5,716.5 Z"></path></g><g><path style="opacity:0.008" fill="#9981ff" d="M 3516.5,767.5 C 3521.54,768.505 3521.54,769.838 3516.5,771.5C 3516.5,770.167 3516.5,768.833 3516.5,767.5 Z"></path></g><g><path style="opacity:0.977" fill="#877dff" d="M 2769.5,976.5 C 2792.87,972.781 2811.71,980.114 2826,998.5C 2837.29,1018.82 2837.29,1039.16 2826,1059.5C 2814.47,1074.18 2799.3,1081.85 2780.5,1082.5C 2764.58,1081.59 2750.74,1075.92 2739,1065.5C 2737.23,1062.06 2735.06,1058.9 2732.5,1056C 2724.38,1037.74 2724.55,1019.58 2733,1001.5C 2741.49,987.836 2753.65,979.503 2769.5,976.5 Z"></path></g></svg>