<?xml version="1.0" encoding="UTF-8"?>
<svg xmlns="http://www.w3.org/2000/svg" xmlns:xlink="http://www.w3.org/1999/xlink" width="75px" height="75px" viewBox="0 0 75 75" version="1.1">
<g id="surface1">
<path style=" stroke:none;fill-rule:nonzero;fill:rgb(0.392157%,60.392157%,99.215686%);fill-opacity:1;" d="M 17.394531 1.527344 L 57.605469 1.527344 L 57.605469 9.457031 L 65.542969 9.457031 L 65.542969 17.394531 L 73.472656 17.394531 L 73.472656 57.605469 L 65.542969 57.605469 L 65.542969 65.542969 L 57.605469 65.542969 L 57.605469 73.472656 L 17.394531 73.472656 L 17.394531 65.542969 L 9.457031 65.542969 L 9.457031 57.605469 L 1.527344 57.605469 L 1.527344 17.394531 L 9.457031 17.394531 L 9.457031 9.457031 L 17.394531 9.457031 Z M 17.394531 1.527344 "/>
<path style=" stroke:none;fill-rule:nonzero;fill:rgb(6.27451%,8.235294%,14.509804%);fill-opacity:1;" d="M 26.46875 17.738281 L 29.042969 17.738281 C 29.695312 17.738281 30.347656 17.738281 31 17.746094 L 36.925781 17.746094 C 38.390625 17.753906 39.859375 17.753906 41.335938 17.753906 C 44.355469 17.753906 47.382812 17.761719 50.410156 17.761719 L 50.410156 26.066406 L 26.066406 26.066406 L 26.066406 49.492188 L 50.410156 49.492188 L 50.410156 41.378906 L 34.179688 41.378906 L 34.179688 33.261719 L 58.527344 33.261719 L 58.527344 49.679688 L 50.410156 49.679688 L 50.410156 57.796875 L 25.875 57.796875 L 25.878906 49.679688 L 17.761719 49.679688 L 17.761719 25.875 L 25.878906 25.875 L 25.867188 20.675781 L 25.867188 19.703125 C 25.867188 19.53125 25.867188 19.359375 25.859375 19.1875 L 25.859375 18.269531 C 25.898438 17.777344 25.980469 17.769531 26.472656 17.738281 Z M 26.46875 17.738281 "/>
<path style=" stroke:none;fill-rule:nonzero;fill:rgb(3.529412%,48.235294%,81.960784%);fill-opacity:1;" d="M 57.605469 9.457031 L 65.542969 9.457031 L 65.542969 17.394531 L 73.472656 17.394531 L 73.472656 57.605469 L 65.542969 57.605469 L 65.542969 17.578125 L 58.347656 17.578125 C 58.101562 17.511719 57.855469 17.453125 57.605469 17.394531 Z M 57.605469 9.457031 "/>
<path style=" stroke:none;fill-rule:nonzero;fill:rgb(6.666667%,8.235294%,14.509804%);fill-opacity:1;" d="M 26.066406 49.679688 L 50.410156 49.679688 L 50.410156 57.605469 L 26.066406 57.605469 Z M 26.066406 49.679688 "/>
<path style=" stroke:none;fill-rule:nonzero;fill:rgb(6.27451%,8.235294%,14.901961%);fill-opacity:1;" d="M 26.242188 17.949219 C 29.292969 17.9375 32.335938 17.9375 35.378906 17.929688 L 39.621094 17.929688 C 40.855469 17.929688 42.085938 17.929688 43.324219 17.921875 L 49.246094 17.921875 C 49.683594 17.945312 49.683594 17.945312 50.230469 18.125 L 50.230469 25.695312 L 26.246094 25.695312 L 26.246094 17.945312 Z M 26.242188 17.945312 "/>
<path style=" stroke:none;fill-rule:nonzero;fill:rgb(3.921569%,47.843137%,81.176471%);fill-opacity:1;" d="M 59.992188 57.53125 C 60.132812 57.539062 60.273438 57.539062 60.417969 57.539062 C 60.941406 57.539062 61.464844 57.554688 61.988281 57.5625 L 65.542969 57.609375 L 65.542969 65.542969 C 64.261719 65.542969 62.988281 65.550781 61.675781 65.550781 C 61.273438 65.554688 60.875 65.5625 60.453125 65.5625 L 59 65.5625 C 58.597656 65.5625 58.1875 65.554688 57.792969 65.546875 C 57.410156 65.164062 57.566406 64.355469 57.5625 63.832031 L 57.5625 63.367188 C 57.550781 63.046875 57.550781 62.714844 57.550781 62.394531 L 57.53125 60.890625 L 57.53125 59.953125 C 57.527344 59.800781 57.527344 59.652344 57.519531 59.5 C 57.527344 58.871094 57.5625 58.429688 57.878906 57.890625 C 58.578125 57.476562 59.199219 57.523438 59.996094 57.535156 Z M 59.992188 57.53125 "/>
<path style=" stroke:none;fill-rule:nonzero;fill:rgb(1.568627%,28.235294%,49.803922%);fill-opacity:1;" d="M 26.46875 17.738281 L 29.042969 17.738281 C 29.695312 17.738281 30.347656 17.738281 31 17.746094 L 36.925781 17.746094 C 38.390625 17.753906 39.859375 17.753906 41.335938 17.753906 C 44.355469 17.753906 47.382812 17.761719 50.410156 17.761719 L 50.410156 26.066406 L 26.066406 26.066406 L 26.066406 49.492188 C 36.714844 49.433594 47.371094 49.375 58.347656 49.304688 L 58.347656 33.4375 L 34.179688 33.4375 L 34.179688 33.261719 L 58.527344 33.261719 L 58.527344 49.679688 L 26.066406 49.679688 L 26.066406 57.605469 L 50.410156 57.605469 L 50.410156 57.792969 L 25.875 57.792969 L 25.878906 49.679688 L 17.761719 49.679688 L 17.761719 25.875 L 25.878906 25.875 L 25.867188 20.675781 L 25.867188 19.703125 C 25.867188 19.53125 25.867188 19.359375 25.859375 19.1875 L 25.859375 18.269531 C 25.898438 17.777344 25.980469 17.769531 26.472656 17.738281 Z M 26.242188 17.949219 L 26.242188 25.695312 L 50.226562 25.695312 L 50.226562 18.125 C 49.667969 17.945312 49.304688 17.921875 48.71875 17.921875 L 42.925781 17.921875 C 41.683594 17.929688 40.445312 17.929688 39.203125 17.929688 C 37.785156 17.929688 36.378906 17.929688 34.96875 17.941406 C 32.0625 17.941406 29.152344 17.941406 26.246094 17.949219 Z M 17.949219 26.0625 L 17.945312 49.488281 L 25.871094 49.488281 L 25.875 26.0625 Z M 17.945312 26.0625 "/>
<path style=" stroke:none;fill-rule:nonzero;fill:rgb(8.627451%,58.039216%,90.588235%);fill-opacity:1;" d="M 25.699219 17.394531 L 50.410156 17.394531 L 50.410156 17.757812 C 42.378906 17.820312 34.34375 17.878906 26.066406 17.949219 C 26.003906 20.5625 25.945312 23.175781 25.875 25.875 L 17.761719 25.875 L 17.761719 49.683594 C 17.359375 49.070312 17.351562 48.878906 17.351562 48.167969 L 17.351562 46.21875 C 17.351562 45.589844 17.359375 44.96875 17.359375 44.335938 L 17.359375 42.371094 C 17.359375 41.125 17.363281 39.890625 17.363281 38.648438 C 17.371094 37.238281 17.371094 35.820312 17.371094 34.414062 L 17.394531 25.699219 C 17.996094 25.398438 18.65625 25.480469 19.3125 25.472656 C 19.628906 25.46875 19.945312 25.460938 20.257812 25.460938 L 21.753906 25.4375 L 23.195312 25.417969 L 23.652344 25.417969 C 24.417969 25.417969 24.417969 25.417969 25.09375 25.09375 C 25.503906 24.539062 25.414062 23.863281 25.414062 23.199219 C 25.417969 22.976562 25.417969 22.976562 25.417969 22.734375 L 25.441406 21.257812 L 25.464844 19.785156 L 25.472656 18.867188 C 25.484375 17.8125 25.484375 17.8125 25.699219 17.402344 Z M 25.699219 17.394531 "/>
<path style=" stroke:none;fill-rule:nonzero;fill:rgb(0%,10.980392%,25.098039%);fill-opacity:1;" d="M 34.179688 33.4375 L 58.347656 33.4375 L 58.347656 49.304688 C 57.710938 49.625 56.988281 49.515625 56.289062 49.507812 L 54.171875 49.507812 C 52.929688 49.5 51.691406 49.5 50.410156 49.492188 L 50.410156 41.5625 L 50.601562 41.5625 L 50.601562 49.125 L 57.792969 49.121094 L 57.792969 33.808594 L 34.367188 33.808594 L 34.367188 41.183594 L 50.226562 41.183594 L 50.226562 41.371094 L 34.179688 41.371094 L 34.179688 33.433594 Z M 34.179688 33.4375 "/>
<path style=" stroke:none;fill-rule:nonzero;fill:rgb(1.176471%,11.372549%,23.529412%);fill-opacity:1;" d="M 26.066406 49.679688 L 50.410156 49.679688 L 50.410156 57.605469 L 26.066406 57.605469 Z M 28.46875 49.933594 L 27.972656 49.949219 C 27.109375 49.953125 27.109375 49.953125 26.429688 50.410156 C 26.390625 50.898438 26.378906 51.363281 26.378906 51.851562 C 26.378906 51.996094 26.371094 52.128906 26.371094 52.277344 L 26.371094 53.179688 C 26.371094 53.640625 26.371094 54.097656 26.359375 54.558594 L 26.359375 55.4375 C 26.359375 55.578125 26.359375 55.710938 26.351562 55.855469 C 26.355469 56.28125 26.355469 56.28125 26.429688 56.875 C 27.042969 57.277344 27.226562 57.289062 27.9375 57.289062 L 28.527344 57.289062 C 28.746094 57.289062 28.957031 57.289062 29.179688 57.28125 L 29.871094 57.277344 L 31.738281 57.277344 C 32.382812 57.273438 33.035156 57.273438 33.6875 57.265625 C 34.914062 57.265625 36.140625 57.265625 37.378906 57.257812 C 38.78125 57.257812 40.183594 57.257812 41.585938 57.253906 C 44.460938 57.253906 47.347656 57.246094 50.222656 57.238281 L 50.222656 49.855469 C 47.742188 49.855469 45.261719 49.851562 42.78125 49.851562 C 41.628906 49.851562 40.472656 49.851562 39.320312 49.84375 L 34.699219 49.84375 C 32.625 49.835938 30.542969 49.84375 28.464844 49.933594 Z M 28.46875 49.933594 "/>
<path style=" stroke:none;fill-rule:nonzero;fill:rgb(0.392157%,10.588235%,22.745098%);fill-opacity:1;" d="M 17.929688 26.066406 L 25.855469 26.066406 L 25.855469 49.492188 L 17.929688 49.492188 Z M 18.105469 26.429688 L 18.105469 49.125 L 25.488281 49.125 L 25.488281 26.429688 C 21.304688 26.183594 21.304688 26.183594 18.105469 26.429688 Z M 18.105469 26.429688 "/>
<path style=" stroke:none;fill-rule:nonzero;fill:rgb(7.058824%,54.117647%,87.058824%);fill-opacity:1;" d="M 58.527344 33.4375 C 58.648438 33.6875 58.777344 33.925781 58.894531 34.179688 C 59.023438 34.300781 59.144531 34.421875 59.269531 34.546875 C 59.300781 35.035156 59.308594 35.5 59.300781 35.984375 C 59.292969 36.128906 59.292969 36.277344 59.292969 36.425781 C 59.292969 36.753906 59.28125 37.066406 59.28125 37.382812 C 59.277344 38.222656 59.269531 39.0625 59.269531 39.898438 C 59.269531 40.074219 59.261719 40.238281 59.261719 40.417969 C 59.261719 42.3125 59.320312 44.203125 59.402344 46.097656 C 59.492188 48.59375 59.492188 48.59375 59.269531 49.492188 C 58.445312 50.203125 57.582031 50.113281 56.554688 50.097656 L 56.097656 50.097656 L 54.410156 50.078125 L 50.597656 50.046875 L 50.597656 57.792969 L 50.410156 57.792969 L 50.410156 49.679688 L 58.523438 49.679688 L 58.523438 33.4375 Z M 58.527344 33.4375 "/>
<path style=" stroke:none;fill-rule:nonzero;fill:rgb(0.784314%,54.509804%,92.941176%);fill-opacity:1;" d="M 57.421875 9.277344 L 57.605469 9.277344 L 57.605469 17.394531 C 60.222656 17.453125 62.84375 17.511719 65.542969 17.578125 L 65.542969 57.605469 C 63.167969 57.667969 60.792969 57.726562 58.347656 57.792969 C 57.71875 58.304688 57.71875 58.304688 57.726562 59.066406 C 57.726562 59.367188 57.734375 59.675781 57.734375 59.976562 C 57.742188 60.132812 57.742188 60.289062 57.742188 60.453125 C 57.742188 60.964844 57.75 61.464844 57.757812 61.976562 C 57.757812 62.320312 57.761719 62.667969 57.761719 63.011719 C 57.769531 63.847656 57.777344 64.695312 57.792969 65.542969 L 57.421875 65.542969 L 57.421875 57.792969 L 57.792969 57.792969 L 57.792969 57.421875 L 65.355469 57.421875 L 65.355469 17.757812 L 57.605469 17.757812 C 57.421875 17.578125 57.421875 17.578125 57.40625 17.242188 L 57.40625 15.183594 C 57.40625 14.597656 57.414062 14.007812 57.414062 13.414062 L 57.410156 12.214844 C 57.417969 11.242188 57.417969 10.257812 57.417969 9.28125 Z M 57.421875 9.277344 "/>
<path style=" stroke:none;fill-rule:nonzero;fill:rgb(7.058824%,47.45098%,74.901961%);fill-opacity:1;" d="M 57.792969 9.457031 L 65.542969 9.457031 L 65.542969 17.207031 L 65.355469 17.207031 L 65.355469 9.644531 C 63.101562 9.703125 60.851562 9.765625 58.527344 9.832031 L 58.527344 17.207031 L 58.164062 17.207031 L 58.164062 9.644531 C 58.042969 9.585938 57.914062 9.523438 57.792969 9.457031 Z M 57.792969 9.457031 "/>
<path style=" stroke:none;fill-rule:nonzero;fill:rgb(0.392157%,65.098039%,92.156863%);fill-opacity:1;" d="M 17.394531 1.527344 C 17.632812 1.585938 17.878906 1.648438 18.125 1.714844 L 17.761719 1.714844 C 17.820312 1.894531 17.882812 2.074219 17.949219 2.261719 C 17.960938 2.792969 17.96875 3.316406 17.960938 3.851562 L 17.960938 4.324219 C 17.960938 4.820312 17.960938 5.316406 17.957031 5.808594 L 17.957031 6.8125 C 17.957031 7.636719 17.949219 8.453125 17.949219 9.277344 L 17.390625 9.457031 L 17.390625 1.527344 Z M 17.394531 1.527344 "/>
<path style=" stroke:none;fill-rule:nonzero;fill:rgb(7.45098%,57.647059%,90.588235%);fill-opacity:1;" d="M 17.394531 66.089844 C 17.859375 67.019531 17.96875 67.550781 17.960938 68.570312 L 17.960938 68.976562 C 17.960938 69.402344 17.960938 69.839844 17.957031 70.265625 L 17.957031 71.140625 C 17.957031 71.851562 17.949219 72.574219 17.949219 73.285156 C 17.667969 73.382812 17.667969 73.382812 17.390625 73.472656 L 17.390625 66.089844 Z M 17.394531 66.089844 "/>
<path style=" stroke:none;fill-rule:nonzero;fill:rgb(9.411765%,46.666667%,73.333333%);fill-opacity:1;" d="M 65.910156 17.394531 L 73.46875 17.394531 C 73.410156 17.632812 73.351562 17.878906 73.28125 18.125 L 73.28125 17.761719 C 73.15625 17.796875 73.019531 17.828125 72.886719 17.867188 C 72.339844 17.949219 71.972656 17.882812 71.4375 17.761719 C 71.382812 17.824219 71.320312 17.882812 71.261719 17.953125 C 70.921875 17.964844 70.578125 17.96875 70.234375 17.957031 L 69.664062 17.957031 C 69.445312 17.949219 69.445312 17.949219 69.230469 17.949219 L 69.230469 17.578125 L 68.929688 17.761719 C 68.371094 17.996094 67.9375 17.988281 67.339844 17.972656 C 67.136719 17.964844 66.9375 17.964844 66.734375 17.957031 C 66.507812 17.957031 66.507812 17.957031 66.277344 17.949219 L 66.277344 17.578125 C 66.15625 17.511719 66.035156 17.453125 65.910156 17.394531 Z M 65.910156 17.394531 "/>
<path style=" stroke:none;fill-rule:nonzero;fill:rgb(1.176471%,51.372549%,89.411765%);fill-opacity:1;" d="M 65.355469 57.050781 C 65.445312 57.332031 65.445312 57.332031 65.542969 57.609375 C 65.328125 57.609375 65.109375 57.617188 64.890625 57.617188 C 64.089844 57.632812 63.292969 57.640625 62.492188 57.660156 C 62.148438 57.660156 61.800781 57.667969 61.457031 57.675781 C 60.964844 57.675781 60.46875 57.691406 59.976562 57.699219 C 59.742188 57.699219 59.742188 57.699219 59.503906 57.707031 C 58.714844 57.699219 58.714844 57.699219 58.027344 58.03125 C 57.605469 58.59375 57.726562 59.304688 57.734375 59.980469 C 57.742188 60.136719 57.742188 60.292969 57.742188 60.457031 C 57.742188 60.96875 57.75 61.46875 57.757812 61.980469 C 57.753906 62.324219 57.761719 62.671875 57.761719 63.015625 C 57.769531 63.851562 57.777344 64.699219 57.792969 65.546875 L 57.417969 65.546875 L 57.417969 57.796875 L 57.792969 57.796875 L 57.792969 57.421875 L 65.355469 57.421875 Z M 65.355469 57.054688 "/>
<path style=" stroke:none;fill-rule:nonzero;fill:rgb(0.784314%,64.705882%,92.156863%);fill-opacity:1;" d="M 1.527344 17.394531 L 6.511719 17.394531 C 6.136719 17.949219 6.136719 17.949219 5.449219 18.097656 C 4.742188 18.164062 4.210938 18.035156 3.558594 17.761719 L 3.367188 17.949219 C 3.085938 17.933594 2.808594 17.90625 2.527344 17.867188 L 2.066406 17.804688 L 1.714844 17.761719 C 1.648438 17.882812 1.585938 18.011719 1.527344 18.128906 Z M 1.527344 17.394531 "/>
<path style=" stroke:none;fill-rule:nonzero;fill:rgb(3.921569%,58.823529%,94.901961%);fill-opacity:1;" d="M 38.976562 26.242188 L 50.410156 26.242188 L 50.410156 26.796875 C 50.234375 26.738281 50.046875 26.675781 49.855469 26.617188 C 49.507812 26.59375 49.152344 26.582031 48.800781 26.578125 C 48.578125 26.574219 48.359375 26.574219 48.136719 26.566406 C 47.902344 26.566406 47.671875 26.5625 47.425781 26.5625 C 47.183594 26.554688 46.945312 26.554688 46.695312 26.546875 L 44.777344 26.519531 C 44.125 26.507812 43.472656 26.5 42.820312 26.492188 C 41.539062 26.46875 40.261719 26.445312 38.980469 26.429688 L 38.980469 26.242188 Z M 38.976562 26.242188 "/>
<path style=" stroke:none;fill-rule:nonzero;fill:rgb(3.921569%,58.431373%,94.509804%);fill-opacity:1;" d="M 17.757812 67.199219 L 17.949219 67.199219 L 17.945312 73.285156 C 17.667969 73.382812 17.667969 73.382812 17.390625 73.472656 L 17.476562 73.179688 C 17.597656 72.601562 17.613281 72.046875 17.628906 71.449219 C 17.636719 71.328125 17.636719 71.207031 17.644531 71.082031 C 17.652344 70.691406 17.667969 70.308594 17.675781 69.917969 C 17.683594 69.65625 17.695312 69.394531 17.703125 69.132812 C 17.71875 68.488281 17.742188 67.84375 17.757812 67.199219 Z M 17.757812 67.199219 "/>
<path style=" stroke:none;fill-rule:nonzero;fill:rgb(0%,64.705882%,90.980392%);fill-opacity:1;" d="M 6.691406 17.394531 L 9.457031 17.394531 C 9.398438 17.574219 9.339844 17.757812 9.277344 17.949219 C 8.984375 17.960938 8.691406 17.96875 8.398438 17.976562 L 7.90625 18 C 7.433594 17.945312 7.433594 17.945312 6.691406 17.390625 Z M 6.691406 17.394531 "/>
</g>
</svg>
