<?xml version="1.0" encoding="UTF-8"?>
<svg xmlns="http://www.w3.org/2000/svg" xmlns:xlink="http://www.w3.org/1999/xlink" width="75px" height="75px" viewBox="0 0 75 75" version="1.1">
<g id="surface1">
<path style=" stroke:none;fill-rule:nonzero;fill:rgb(0.392157%,60.392157%,99.215686%);fill-opacity:1;" d="M 27.019531 18.75 C 33.9375 18.75 40.855469 18.75 47.980469 18.75 C 47.980469 20.113281 47.980469 21.480469 47.980469 22.882812 C 49.34375 22.882812 50.710938 22.882812 52.117188 22.882812 C 52.117188 24.25 52.117188 25.613281 52.117188 27.019531 C 53.480469 27.019531 54.84375 27.019531 56.25 27.019531 C 56.25 33.9375 56.25 40.855469 56.25 47.980469 C 54.886719 47.980469 53.519531 47.980469 52.117188 47.980469 C 52.117188 49.34375 52.117188 50.710938 52.117188 52.117188 C 50.75 52.117188 49.386719 52.117188 47.980469 52.117188 C 47.980469 53.480469 47.980469 54.84375 47.980469 56.25 C 41.0625 56.25 34.144531 56.25 27.019531 56.25 C 27.019531 54.886719 27.019531 53.519531 27.019531 52.117188 C 25.65625 52.117188 24.289062 52.117188 22.882812 52.117188 C 22.882812 50.75 22.882812 49.386719 22.882812 47.980469 C 21.519531 47.980469 20.15625 47.980469 18.75 47.980469 C 18.75 41.0625 18.75 34.144531 18.75 27.019531 C 20.113281 27.019531 21.480469 27.019531 22.882812 27.019531 C 22.882812 25.65625 22.882812 24.289062 22.882812 22.882812 C 24.25 22.882812 25.613281 22.882812 27.019531 22.882812 C 27.019531 21.519531 27.019531 20.15625 27.019531 18.75 Z M 27.019531 18.75 "/>
<path style=" stroke:none;fill-rule:nonzero;fill:rgb(6.27451%,8.235294%,14.509804%);fill-opacity:1;" d="M 31.75 27.199219 C 31.84375 27.199219 31.933594 27.199219 32.03125 27.199219 C 32.140625 27.199219 32.246094 27.199219 32.355469 27.199219 C 32.472656 27.199219 32.59375 27.199219 32.714844 27.199219 C 32.839844 27.199219 32.960938 27.199219 33.089844 27.199219 C 33.429688 27.199219 33.769531 27.199219 34.109375 27.203125 C 34.464844 27.203125 34.820312 27.203125 35.175781 27.203125 C 35.851562 27.203125 36.523438 27.203125 37.199219 27.203125 C 37.964844 27.207031 38.730469 27.207031 39.5 27.207031 C 41.074219 27.207031 42.652344 27.210938 44.230469 27.210938 C 44.230469 28.640625 44.230469 30.066406 44.230469 31.539062 C 40.042969 31.539062 35.855469 31.539062 31.539062 31.539062 C 31.539062 35.566406 31.539062 39.597656 31.539062 43.75 C 35.726562 43.75 39.914062 43.75 44.230469 43.75 C 44.230469 42.355469 44.230469 40.957031 44.230469 39.519531 C 41.4375 39.519531 38.644531 39.519531 35.769531 39.519531 C 35.769531 38.125 35.769531 36.726562 35.769531 35.289062 C 39.957031 35.289062 44.144531 35.289062 48.460938 35.289062 C 48.460938 38.113281 48.460938 40.9375 48.460938 43.847656 C 47.066406 43.847656 45.667969 43.847656 44.230469 43.847656 C 44.230469 45.242188 44.230469 46.636719 44.230469 48.078125 C 40.011719 48.078125 35.789062 48.078125 31.441406 48.078125 C 31.441406 46.679688 31.441406 45.285156 31.441406 43.847656 C 30.046875 43.847656 28.648438 43.847656 27.210938 43.847656 C 27.210938 39.753906 27.210938 35.660156 27.210938 31.441406 C 28.609375 31.441406 30.003906 31.441406 31.441406 31.441406 C 31.4375 30.085938 31.4375 30.085938 31.433594 28.730469 C 31.433594 28.558594 31.433594 28.390625 31.433594 28.222656 C 31.433594 28.132812 31.433594 28.042969 31.429688 27.953125 C 31.429688 27.828125 31.429688 27.828125 31.429688 27.699219 C 31.429688 27.625 31.429688 27.550781 31.429688 27.476562 C 31.449219 27.21875 31.492188 27.214844 31.75 27.199219 Z M 31.75 27.199219 "/>
<path style=" stroke:none;fill-rule:nonzero;fill:rgb(3.529412%,48.235294%,81.960784%);fill-opacity:1;" d="M 47.980469 22.882812 C 49.34375 22.882812 50.710938 22.882812 52.117188 22.882812 C 52.117188 24.25 52.117188 25.613281 52.117188 27.019531 C 53.480469 27.019531 54.84375 27.019531 56.25 27.019531 C 56.25 33.9375 56.25 40.855469 56.25 47.980469 C 54.886719 47.980469 53.519531 47.980469 52.117188 47.980469 C 52.117188 41.09375 52.117188 34.210938 52.117188 27.117188 C 50.878906 27.117188 49.640625 27.117188 48.367188 27.117188 C 48.238281 27.082031 48.113281 27.050781 47.980469 27.019531 C 47.980469 25.65625 47.980469 24.289062 47.980469 22.882812 Z M 47.980469 22.882812 "/>
<path style=" stroke:none;fill-rule:nonzero;fill:rgb(6.666667%,8.235294%,14.509804%);fill-opacity:1;" d="M 31.539062 43.847656 C 35.726562 43.847656 39.914062 43.847656 44.230469 43.847656 C 44.230469 45.210938 44.230469 46.574219 44.230469 47.980469 C 40.042969 47.980469 35.855469 47.980469 31.539062 47.980469 C 31.539062 46.617188 31.539062 45.25 31.539062 43.847656 Z M 31.539062 43.847656 "/>
<path style=" stroke:none;fill-rule:nonzero;fill:rgb(6.27451%,8.235294%,14.901961%);fill-opacity:1;" d="M 31.632812 27.308594 C 33.222656 27.304688 34.808594 27.304688 36.394531 27.300781 C 37.132812 27.300781 37.871094 27.300781 38.605469 27.300781 C 39.25 27.300781 39.890625 27.300781 40.535156 27.296875 C 40.875 27.296875 41.214844 27.296875 41.554688 27.296875 C 41.933594 27.296875 42.3125 27.296875 42.691406 27.296875 C 42.804688 27.296875 42.917969 27.296875 43.035156 27.296875 C 43.191406 27.296875 43.191406 27.296875 43.347656 27.296875 C 43.4375 27.296875 43.527344 27.296875 43.621094 27.296875 C 43.847656 27.308594 43.847656 27.308594 44.132812 27.402344 C 44.132812 28.703125 44.132812 30.003906 44.132812 31.347656 C 40.007812 31.347656 35.882812 31.347656 31.632812 31.347656 C 31.632812 30.011719 31.632812 28.679688 31.632812 27.308594 Z M 31.632812 27.308594 "/>
<path style=" stroke:none;fill-rule:nonzero;fill:rgb(4.313725%,47.843137%,81.176471%);fill-opacity:1;" d="M 49.222656 47.941406 C 49.296875 47.945312 49.371094 47.945312 49.445312 47.945312 C 49.71875 47.945312 49.992188 47.953125 50.265625 47.957031 C 51.179688 47.96875 51.179688 47.96875 52.117188 47.980469 C 52.117188 49.34375 52.117188 50.710938 52.117188 52.117188 C 51.449219 52.117188 50.785156 52.121094 50.101562 52.121094 C 49.890625 52.121094 49.683594 52.125 49.464844 52.125 C 49.300781 52.125 49.136719 52.125 48.96875 52.125 C 48.839844 52.125 48.839844 52.125 48.707031 52.125 C 48.496094 52.125 48.285156 52.121094 48.078125 52.117188 C 47.878906 51.917969 47.960938 51.496094 47.957031 51.222656 C 47.957031 51.105469 47.957031 51.105469 47.957031 50.980469 C 47.953125 50.8125 47.953125 50.640625 47.953125 50.472656 C 47.949219 50.210938 47.945312 49.953125 47.941406 49.691406 C 47.941406 49.527344 47.941406 49.363281 47.941406 49.199219 C 47.9375 49.121094 47.9375 49.042969 47.933594 48.964844 C 47.9375 48.636719 47.957031 48.40625 48.121094 48.125 C 48.484375 47.910156 48.808594 47.933594 49.222656 47.941406 Z M 49.222656 47.941406 "/>
<path style=" stroke:none;fill-rule:nonzero;fill:rgb(1.960784%,28.235294%,49.803922%);fill-opacity:1;" d="M 31.75 27.199219 C 31.84375 27.199219 31.933594 27.199219 32.03125 27.199219 C 32.140625 27.199219 32.246094 27.199219 32.355469 27.199219 C 32.472656 27.199219 32.59375 27.199219 32.714844 27.199219 C 32.839844 27.199219 32.960938 27.199219 33.089844 27.199219 C 33.429688 27.199219 33.769531 27.199219 34.109375 27.203125 C 34.464844 27.203125 34.820312 27.203125 35.175781 27.203125 C 35.851562 27.203125 36.523438 27.203125 37.199219 27.203125 C 37.964844 27.207031 38.730469 27.207031 39.5 27.207031 C 41.074219 27.207031 42.652344 27.210938 44.230469 27.210938 C 44.230469 28.640625 44.230469 30.066406 44.230469 31.539062 C 40.042969 31.539062 35.855469 31.539062 31.539062 31.539062 C 31.539062 35.566406 31.539062 39.597656 31.539062 43.75 C 37.089844 43.71875 42.644531 43.6875 48.367188 43.652344 C 48.367188 40.925781 48.367188 38.195312 48.367188 35.382812 C 44.207031 35.382812 40.050781 35.382812 35.769531 35.382812 C 35.769531 35.351562 35.769531 35.320312 35.769531 35.289062 C 39.957031 35.289062 44.144531 35.289062 48.460938 35.289062 C 48.460938 38.113281 48.460938 40.9375 48.460938 43.847656 C 42.875 43.847656 37.292969 43.847656 31.539062 43.847656 C 31.539062 45.210938 31.539062 46.574219 31.539062 47.980469 C 35.726562 47.980469 39.914062 47.980469 44.230469 47.980469 C 44.230469 48.011719 44.230469 48.042969 44.230469 48.078125 C 40.011719 48.078125 35.789062 48.078125 31.441406 48.078125 C 31.441406 46.679688 31.441406 45.285156 31.441406 43.847656 C 30.046875 43.847656 28.648438 43.847656 27.210938 43.847656 C 27.210938 39.753906 27.210938 35.660156 27.210938 31.441406 C 28.609375 31.441406 30.003906 31.441406 31.441406 31.441406 C 31.4375 30.085938 31.4375 30.085938 31.433594 28.730469 C 31.433594 28.558594 31.433594 28.390625 31.433594 28.222656 C 31.433594 28.132812 31.433594 28.042969 31.429688 27.953125 C 31.429688 27.828125 31.429688 27.828125 31.429688 27.699219 C 31.429688 27.625 31.429688 27.550781 31.429688 27.476562 C 31.449219 27.21875 31.492188 27.214844 31.75 27.199219 Z M 31.632812 27.308594 C 31.632812 28.640625 31.632812 29.972656 31.632812 31.347656 C 35.757812 31.347656 39.882812 31.347656 44.132812 31.347656 C 44.132812 30.046875 44.132812 28.746094 44.132812 27.402344 C 43.84375 27.308594 43.652344 27.296875 43.347656 27.296875 C 43.246094 27.296875 43.140625 27.296875 43.035156 27.296875 C 42.921875 27.296875 42.808594 27.296875 42.691406 27.296875 C 42.574219 27.296875 42.453125 27.296875 42.332031 27.296875 C 42.003906 27.296875 41.679688 27.296875 41.351562 27.296875 C 41.007812 27.296875 40.667969 27.296875 40.328125 27.296875 C 39.679688 27.300781 39.035156 27.300781 38.386719 27.300781 C 37.648438 27.300781 36.914062 27.300781 36.179688 27.304688 C 34.664062 27.304688 33.148438 27.304688 31.632812 27.308594 Z M 27.308594 31.539062 C 27.308594 35.566406 27.308594 39.597656 27.308594 43.75 C 28.671875 43.75 30.035156 43.75 31.441406 43.75 C 31.441406 39.71875 31.441406 35.691406 31.441406 31.539062 C 30.078125 31.539062 28.714844 31.539062 27.308594 31.539062 Z M 27.308594 31.539062 "/>
<path style=" stroke:none;fill-rule:nonzero;fill:rgb(8.627451%,58.039216%,90.588235%);fill-opacity:1;" d="M 31.347656 27.019531 C 35.597656 27.019531 39.851562 27.019531 44.230469 27.019531 C 44.230469 27.082031 44.230469 27.144531 44.230469 27.210938 C 40.042969 27.242188 35.855469 27.273438 31.539062 27.308594 C 31.507812 28.671875 31.476562 30.035156 31.441406 31.441406 C 30.046875 31.441406 28.648438 31.441406 27.210938 31.441406 C 27.210938 35.535156 27.210938 39.628906 27.210938 43.847656 C 27 43.527344 26.996094 43.429688 26.996094 43.058594 C 26.996094 42.90625 26.996094 42.90625 26.996094 42.746094 C 26.996094 42.632812 26.996094 42.519531 26.996094 42.402344 C 26.996094 42.285156 26.996094 42.164062 26.996094 42.042969 C 26.996094 41.714844 27 41.390625 27 41.0625 C 27 40.722656 27 40.378906 27 40.039062 C 27 39.390625 27.003906 38.746094 27.003906 38.097656 C 27.007812 37.363281 27.007812 36.625 27.007812 35.890625 C 27.011719 34.375 27.015625 32.859375 27.019531 31.347656 C 27.332031 31.191406 27.675781 31.234375 28.019531 31.230469 C 28.183594 31.226562 28.347656 31.222656 28.511719 31.222656 C 28.773438 31.21875 29.03125 31.214844 29.292969 31.210938 C 29.542969 31.207031 29.792969 31.203125 30.042969 31.199219 C 30.121094 31.199219 30.199219 31.199219 30.28125 31.199219 C 30.679688 31.199219 30.679688 31.199219 31.03125 31.03125 C 31.246094 30.742188 31.199219 30.390625 31.199219 30.042969 C 31.203125 29.925781 31.203125 29.925781 31.203125 29.800781 C 31.207031 29.546875 31.210938 29.289062 31.214844 29.03125 C 31.21875 28.777344 31.222656 28.519531 31.226562 28.261719 C 31.226562 28.101562 31.230469 27.941406 31.230469 27.78125 C 31.238281 27.234375 31.238281 27.234375 31.347656 27.019531 Z M 31.347656 27.019531 "/>
<path style=" stroke:none;fill-rule:nonzero;fill:rgb(0%,10.980392%,25.098039%);fill-opacity:1;" d="M 35.769531 35.382812 C 39.925781 35.382812 44.082031 35.382812 48.367188 35.382812 C 48.367188 38.113281 48.367188 40.84375 48.367188 43.652344 C 48.035156 43.820312 47.65625 43.761719 47.292969 43.757812 C 47.214844 43.757812 47.136719 43.757812 47.058594 43.757812 C 46.769531 43.757812 46.480469 43.757812 46.191406 43.757812 C 45.542969 43.753906 44.898438 43.753906 44.230469 43.75 C 44.230469 42.386719 44.230469 41.019531 44.230469 39.617188 C 44.261719 39.617188 44.292969 39.617188 44.328125 39.617188 C 44.328125 40.917969 44.328125 42.21875 44.328125 43.558594 C 45.5625 43.558594 46.800781 43.558594 48.078125 43.558594 C 48.078125 40.925781 48.078125 38.289062 48.078125 35.578125 C 44.046875 35.578125 40.015625 35.578125 35.867188 35.578125 C 35.867188 36.847656 35.867188 38.117188 35.867188 39.421875 C 38.59375 39.421875 41.324219 39.421875 44.132812 39.421875 C 44.132812 39.453125 44.132812 39.488281 44.132812 39.519531 C 41.375 39.519531 38.613281 39.519531 35.769531 39.519531 C 35.769531 38.15625 35.769531 36.789062 35.769531 35.382812 Z M 35.769531 35.382812 "/>
<path style=" stroke:none;fill-rule:nonzero;fill:rgb(1.568627%,11.372549%,23.529412%);fill-opacity:1;" d="M 31.539062 43.847656 C 35.726562 43.847656 39.914062 43.847656 44.230469 43.847656 C 44.230469 45.210938 44.230469 46.574219 44.230469 47.980469 C 40.042969 47.980469 35.855469 47.980469 31.539062 47.980469 C 31.539062 46.617188 31.539062 45.25 31.539062 43.847656 Z M 32.792969 43.980469 C 32.664062 43.984375 32.664062 43.984375 32.535156 43.988281 C 32.085938 43.992188 32.085938 43.992188 31.730469 44.230469 C 31.710938 44.484375 31.703125 44.726562 31.703125 44.980469 C 31.703125 45.054688 31.699219 45.125 31.699219 45.203125 C 31.699219 45.359375 31.699219 45.515625 31.699219 45.671875 C 31.699219 45.914062 31.699219 46.152344 31.695312 46.390625 C 31.695312 46.542969 31.695312 46.695312 31.695312 46.847656 C 31.695312 46.921875 31.695312 46.992188 31.691406 47.066406 C 31.691406 47.289062 31.691406 47.289062 31.730469 47.597656 C 32.050781 47.808594 32.144531 47.8125 32.515625 47.8125 C 32.667969 47.8125 32.667969 47.8125 32.824219 47.8125 C 32.9375 47.8125 33.046875 47.8125 33.164062 47.808594 C 33.339844 47.808594 33.339844 47.808594 33.523438 47.808594 C 33.847656 47.808594 34.171875 47.808594 34.496094 47.808594 C 34.832031 47.808594 35.171875 47.808594 35.511719 47.804688 C 36.152344 47.804688 36.792969 47.804688 37.4375 47.800781 C 38.167969 47.800781 38.898438 47.800781 39.628906 47.796875 C 41.128906 47.796875 42.632812 47.792969 44.132812 47.789062 C 44.132812 46.519531 44.132812 45.25 44.132812 43.941406 C 42.839844 43.941406 41.546875 43.9375 40.253906 43.9375 C 39.652344 43.9375 39.050781 43.9375 38.449219 43.933594 C 37.867188 43.933594 37.285156 43.933594 36.703125 43.933594 C 36.484375 43.933594 36.261719 43.933594 36.042969 43.933594 C 34.960938 43.929688 33.875 43.933594 32.792969 43.980469 Z M 32.792969 43.980469 "/>
<path style=" stroke:none;fill-rule:nonzero;fill:rgb(0.392157%,10.588235%,22.745098%);fill-opacity:1;" d="M 27.308594 31.539062 C 28.671875 31.539062 30.035156 31.539062 31.441406 31.539062 C 31.441406 35.566406 31.441406 39.597656 31.441406 43.75 C 30.078125 43.75 28.714844 43.75 27.308594 43.75 C 27.308594 39.71875 27.308594 35.691406 27.308594 31.539062 Z M 27.402344 31.730469 C 27.402344 35.632812 27.402344 39.535156 27.402344 43.558594 C 28.671875 43.558594 29.941406 43.558594 31.25 43.558594 C 31.25 39.65625 31.25 35.75 31.25 31.730469 C 29.070312 31.601562 29.070312 31.601562 27.402344 31.730469 Z M 27.402344 31.730469 "/>
<path style=" stroke:none;fill-rule:nonzero;fill:rgb(7.058824%,54.117647%,87.058824%);fill-opacity:1;" d="M 48.460938 35.382812 C 48.523438 35.511719 48.589844 35.636719 48.652344 35.769531 C 48.71875 35.832031 48.78125 35.894531 48.847656 35.960938 C 48.863281 36.214844 48.867188 36.457031 48.863281 36.710938 C 48.859375 36.785156 48.859375 36.863281 48.859375 36.941406 C 48.859375 37.109375 48.855469 37.273438 48.855469 37.4375 C 48.851562 37.875 48.847656 38.3125 48.847656 38.75 C 48.847656 38.839844 48.84375 38.925781 48.84375 39.019531 C 48.84375 40.007812 48.875 40.992188 48.917969 41.980469 C 48.964844 43.28125 48.964844 43.28125 48.847656 43.75 C 48.417969 44.121094 47.96875 44.074219 47.433594 44.066406 C 47.316406 44.066406 47.316406 44.066406 47.195312 44.066406 C 46.902344 44.0625 46.609375 44.058594 46.316406 44.054688 C 45.332031 44.046875 45.332031 44.046875 44.328125 44.039062 C 44.328125 45.371094 44.328125 46.703125 44.328125 48.078125 C 44.296875 48.078125 44.261719 48.078125 44.230469 48.078125 C 44.230469 46.679688 44.230469 45.285156 44.230469 43.847656 C 45.625 43.847656 47.023438 43.847656 48.460938 43.847656 C 48.460938 41.054688 48.460938 38.261719 48.460938 35.382812 Z M 48.460938 35.382812 "/>
<path style=" stroke:none;fill-rule:nonzero;fill:rgb(0.784314%,54.509804%,92.941176%);fill-opacity:1;" d="M 47.882812 22.789062 C 47.917969 22.789062 47.949219 22.789062 47.980469 22.789062 C 47.980469 24.183594 47.980469 25.582031 47.980469 27.019531 C 49.34375 27.050781 50.710938 27.082031 52.117188 27.117188 C 52.117188 34 52.117188 40.886719 52.117188 47.980469 C 50.878906 48.011719 49.640625 48.042969 48.367188 48.078125 C 48.039062 48.34375 48.039062 48.34375 48.042969 48.742188 C 48.042969 48.898438 48.046875 49.058594 48.046875 49.214844 C 48.050781 49.296875 48.050781 49.378906 48.050781 49.464844 C 48.050781 49.730469 48.054688 49.992188 48.058594 50.257812 C 48.058594 50.4375 48.0625 50.617188 48.0625 50.796875 C 48.066406 51.234375 48.070312 51.675781 48.078125 52.117188 C 48.011719 52.117188 47.949219 52.117188 47.882812 52.117188 C 47.882812 50.78125 47.882812 49.449219 47.882812 48.078125 C 47.949219 48.078125 48.011719 48.078125 48.078125 48.078125 C 48.078125 48.011719 48.078125 47.949219 48.078125 47.882812 C 49.378906 47.882812 50.679688 47.882812 52.019531 47.882812 C 52.019531 41.0625 52.019531 34.242188 52.019531 27.210938 C 50.6875 27.210938 49.355469 27.210938 47.980469 27.210938 C 47.882812 27.117188 47.882812 27.117188 47.875 26.941406 C 47.875 26.863281 47.875 26.785156 47.875 26.707031 C 47.875 26.621094 47.875 26.535156 47.875 26.445312 C 47.875 26.351562 47.875 26.257812 47.875 26.160156 C 47.875 26.0625 47.875 25.96875 47.875 25.867188 C 47.875 25.5625 47.878906 25.253906 47.878906 24.945312 C 47.878906 24.738281 47.878906 24.53125 47.878906 24.320312 C 47.882812 23.8125 47.882812 23.300781 47.882812 22.789062 Z M 47.882812 22.789062 "/>
<path style=" stroke:none;fill-rule:nonzero;fill:rgb(7.058824%,47.45098%,74.901961%);fill-opacity:1;" d="M 48.078125 22.882812 C 49.410156 22.882812 50.742188 22.882812 52.117188 22.882812 C 52.117188 24.21875 52.117188 25.550781 52.117188 26.921875 C 52.082031 26.921875 52.050781 26.921875 52.019531 26.921875 C 52.019531 25.621094 52.019531 24.320312 52.019531 22.980469 C 50.84375 23.011719 49.671875 23.042969 48.460938 23.078125 C 48.460938 24.347656 48.460938 25.617188 48.460938 26.921875 C 48.398438 26.921875 48.335938 26.921875 48.269531 26.921875 C 48.269531 25.621094 48.269531 24.320312 48.269531 22.980469 C 48.207031 22.949219 48.140625 22.917969 48.078125 22.882812 Z M 48.078125 22.882812 "/>
<path style=" stroke:none;fill-rule:nonzero;fill:rgb(0.392157%,65.098039%,92.156863%);fill-opacity:1;" d="M 27.019531 18.75 C 27.144531 18.78125 27.273438 18.8125 27.402344 18.847656 C 27.339844 18.847656 27.277344 18.847656 27.210938 18.847656 C 27.242188 18.941406 27.273438 19.035156 27.308594 19.132812 C 27.316406 19.410156 27.320312 19.683594 27.316406 19.960938 C 27.316406 20.042969 27.316406 20.125 27.316406 20.207031 C 27.316406 20.464844 27.316406 20.722656 27.3125 20.980469 C 27.3125 21.152344 27.3125 21.328125 27.3125 21.503906 C 27.3125 21.933594 27.308594 22.359375 27.308594 22.789062 C 27.164062 22.835938 27.164062 22.835938 27.019531 22.882812 C 27.019531 21.519531 27.019531 20.15625 27.019531 18.75 Z M 27.019531 18.75 "/>
<path style=" stroke:none;fill-rule:nonzero;fill:rgb(7.45098%,57.647059%,90.588235%);fill-opacity:1;" d="M 27.019531 52.402344 C 27.261719 52.886719 27.320312 53.164062 27.316406 53.695312 C 27.316406 53.800781 27.316406 53.800781 27.316406 53.90625 C 27.316406 54.128906 27.316406 54.355469 27.3125 54.578125 C 27.3125 54.730469 27.3125 54.882812 27.3125 55.035156 C 27.3125 55.40625 27.308594 55.78125 27.308594 56.152344 C 27.164062 56.203125 27.164062 56.203125 27.019531 56.25 C 27.019531 54.980469 27.019531 53.710938 27.019531 52.402344 Z M 27.019531 52.402344 "/>
<path style=" stroke:none;fill-rule:nonzero;fill:rgb(9.411765%,46.666667%,73.333333%);fill-opacity:1;" d="M 52.308594 27.019531 C 53.609375 27.019531 54.910156 27.019531 56.25 27.019531 C 56.21875 27.144531 56.1875 27.273438 56.152344 27.402344 C 56.152344 27.339844 56.152344 27.277344 56.152344 27.210938 C 56.085938 27.230469 56.015625 27.246094 55.945312 27.265625 C 55.660156 27.308594 55.46875 27.273438 55.191406 27.210938 C 55.160156 27.242188 55.128906 27.273438 55.097656 27.308594 C 54.917969 27.316406 54.738281 27.316406 54.5625 27.3125 C 54.464844 27.3125 54.367188 27.3125 54.265625 27.3125 C 54.152344 27.308594 54.152344 27.308594 54.039062 27.308594 C 54.039062 27.246094 54.039062 27.179688 54.039062 27.117188 C 53.960938 27.164062 53.960938 27.164062 53.882812 27.210938 C 53.59375 27.332031 53.367188 27.328125 53.054688 27.320312 C 52.949219 27.316406 52.84375 27.316406 52.738281 27.3125 C 52.621094 27.3125 52.621094 27.3125 52.5 27.308594 C 52.5 27.246094 52.5 27.179688 52.5 27.117188 C 52.4375 27.082031 52.375 27.050781 52.308594 27.019531 Z M 52.308594 27.019531 "/>
<path style=" stroke:none;fill-rule:nonzero;fill:rgb(1.568627%,51.372549%,89.411765%);fill-opacity:1;" d="M 52.019531 47.691406 C 52.066406 47.835938 52.066406 47.835938 52.117188 47.980469 C 52.003906 47.980469 51.890625 47.984375 51.777344 47.984375 C 51.359375 47.992188 50.945312 47.996094 50.527344 48.007812 C 50.347656 48.007812 50.167969 48.011719 49.988281 48.015625 C 49.730469 48.015625 49.472656 48.023438 49.214844 48.027344 C 49.09375 48.027344 49.09375 48.027344 48.96875 48.03125 C 48.558594 48.027344 48.558594 48.027344 48.199219 48.199219 C 47.980469 48.492188 48.042969 48.863281 48.046875 49.214844 C 48.050781 49.296875 48.050781 49.378906 48.050781 49.464844 C 48.050781 49.730469 48.054688 49.992188 48.058594 50.257812 C 48.058594 50.4375 48.0625 50.617188 48.0625 50.796875 C 48.066406 51.234375 48.070312 51.675781 48.078125 52.117188 C 48.011719 52.117188 47.949219 52.117188 47.882812 52.117188 C 47.882812 50.78125 47.882812 49.449219 47.882812 48.078125 C 47.949219 48.078125 48.011719 48.078125 48.078125 48.078125 C 48.078125 48.011719 48.078125 47.949219 48.078125 47.882812 C 49.378906 47.882812 50.679688 47.882812 52.019531 47.882812 C 52.019531 47.820312 52.019531 47.757812 52.019531 47.691406 Z M 52.019531 47.691406 "/>
<path style=" stroke:none;fill-rule:nonzero;fill:rgb(0.784314%,64.705882%,92.156863%);fill-opacity:1;" d="M 18.75 27.019531 C 19.605469 27.019531 20.464844 27.019531 21.347656 27.019531 C 21.152344 27.308594 21.152344 27.308594 20.792969 27.386719 C 20.425781 27.421875 20.148438 27.355469 19.808594 27.210938 C 19.777344 27.242188 19.746094 27.273438 19.710938 27.308594 C 19.566406 27.300781 19.417969 27.285156 19.273438 27.265625 C 19.152344 27.25 19.152344 27.25 19.03125 27.234375 C 18.972656 27.226562 18.910156 27.21875 18.847656 27.210938 C 18.8125 27.273438 18.78125 27.339844 18.75 27.402344 C 18.75 27.277344 18.75 27.148438 18.75 27.019531 Z M 18.75 27.019531 "/>
<path style=" stroke:none;fill-rule:nonzero;fill:rgb(4.313725%,58.823529%,94.901961%);fill-opacity:1;" d="M 38.269531 31.632812 C 40.238281 31.632812 42.203125 31.632812 44.230469 31.632812 C 44.230469 31.730469 44.230469 31.824219 44.230469 31.921875 C 44.136719 31.890625 44.039062 31.859375 43.941406 31.828125 C 43.757812 31.816406 43.574219 31.808594 43.390625 31.808594 C 43.273438 31.804688 43.160156 31.804688 43.042969 31.800781 C 42.921875 31.800781 42.800781 31.796875 42.671875 31.796875 C 42.546875 31.792969 42.421875 31.792969 42.292969 31.789062 C 41.960938 31.785156 41.625 31.78125 41.292969 31.777344 C 40.953125 31.769531 40.613281 31.765625 40.273438 31.761719 C 39.605469 31.75 38.9375 31.738281 38.269531 31.730469 C 38.269531 31.699219 38.269531 31.667969 38.269531 31.632812 Z M 38.269531 31.632812 "/>
<path style=" stroke:none;fill-rule:nonzero;fill:rgb(4.313725%,58.431373%,94.509804%);fill-opacity:1;" d="M 27.210938 52.980469 C 27.242188 52.980469 27.273438 52.980469 27.308594 52.980469 C 27.308594 54.027344 27.308594 55.074219 27.308594 56.152344 C 27.164062 56.203125 27.164062 56.203125 27.019531 56.25 C 27.035156 56.199219 27.050781 56.152344 27.066406 56.097656 C 27.128906 55.796875 27.136719 55.507812 27.144531 55.195312 C 27.148438 55.132812 27.148438 55.070312 27.152344 55.003906 C 27.15625 54.800781 27.164062 54.601562 27.167969 54.398438 C 27.171875 54.261719 27.179688 54.125 27.183594 53.988281 C 27.191406 53.652344 27.203125 53.316406 27.210938 52.980469 Z M 27.210938 52.980469 "/>
<path style=" stroke:none;fill-rule:nonzero;fill:rgb(0%,64.705882%,90.980392%);fill-opacity:1;" d="M 21.441406 27.019531 C 21.917969 27.019531 22.394531 27.019531 22.882812 27.019531 C 22.851562 27.113281 22.820312 27.210938 22.789062 27.308594 C 22.636719 27.316406 22.484375 27.320312 22.332031 27.324219 C 22.246094 27.328125 22.164062 27.332031 22.074219 27.335938 C 21.828125 27.308594 21.828125 27.308594 21.441406 27.019531 Z M 21.441406 27.019531 "/>
</g>
</svg>
