<!--version="1.0" encoding="UTF-8"--><svg xmlns="http://www.w3.org/2000/svg" width="75" height="75" viewBox="0 0 75 75" version="1.1"><g id="surface1"><path style="stroke: none; fill-rule: nonzero; fill: rgb(1, 154, 253); fill-opacity: 1;" d="M27.02 18.75h20.96v4.133h4.137v4.137h4.133v20.96h-4.133v4.137H47.98v4.133H27.02v-4.133h-4.137V47.98H18.75V27.02h4.133v-4.137h4.137V18.75zm0 0"/><path style="stroke: none; fill-rule: nonzero; fill: rgb(16, 21, 37); fill-opacity: 1;" d="M31.75 27.2h1.341c.34 0 .68 0 1.02.003h3.089c.765.004 1.53.004 2.3.004 1.574 0 3.152.004 4.73.004v4.33H31.54v12.21h12.69v-4.23h-8.46v-4.23h12.69v8.558h-4.23v4.23H31.441l.001-4.23h-4.23V31.44l4.231.001-.006-2.71v-.507c0-.09 0-.18-.004-.27v-.477c.02-.258.062-.262.32-.278zm0 0"/><path style="stroke: none; fill-rule: nonzero; fill: rgb(9, 123, 209); fill-opacity: 1;" d="M47.98 22.883h4.137v4.137h4.133v20.96h-4.133V27.117h-3.75a11.18 11.18 0 0 0-.387-.097v-4.137zm0 0"/><path style="stroke: none; fill-rule: nonzero; fill: rgb(17, 21, 37); fill-opacity: 1;" d="M31.54 43.848h12.69v4.132H31.54v-4.132zm0 0"/><path style="stroke: none; fill-rule: nonzero; fill: rgb(16, 21, 38); fill-opacity: 1;" d="M31.633 27.309c1.59-.005 3.176-.005 4.762-.01h2.21c.645 0 1.286 0 1.93-.003H43.622c.228.012.228.012.513.105v3.946h-12.5v-4.04zm0-.001"/><path style="stroke: none; fill-rule: nonzero; fill: rgb(10, 122, 207); fill-opacity: 1;" d="M49.223 47.941c.074.005.148.005.222.005.274 0 .547.008.82.012l1.852.023v4.137c-.668 0-1.332.004-2.015.004-.211.001-.418.005-.637.005h-.759c-.21 0-.422-.004-.629-.008-.2-.2-.117-.62-.12-.894v-.243c-.005-.167-.005-.34-.005-.507l-.012-.782.001-.49c-.002-.079-.002-.157-.006-.235.004-.328.023-.559.187-.84.364-.215.689-.191 1.103-.184zm0 .001"/><path style="stroke: none; fill-rule: nonzero; fill: rgb(4, 72, 127); fill-opacity: 1;" d="M31.75 27.2h1.341c.34 0 .68 0 1.02.003h3.089c.765.004 1.53.004 2.3.004 1.574 0 3.152.004 4.73.004v4.33H31.54v12.21c5.55-.031 11.105-.062 16.827-.098v-8.27H35.77v-.093h12.69v8.558H31.54v4.132h12.69v.098H31.441l.001-4.23h-4.23V31.44l4.231.001-.006-2.71v-.507c0-.09 0-.18-.004-.27v-.477c.02-.258.062-.262.32-.278zm-.117.109v4.038h12.5v-3.946c-.29-.093-.48-.105-.785-.105h-3.019c-.648.004-1.293.004-1.941.004-.739 0-1.473 0-2.207.005-1.516 0-3.032 0-4.547.004zm-4.324 4.23-.001 12.21h4.131l.001-12.21H27.31zm-.001 0"/><path style="stroke: none; fill-rule: nonzero; fill: rgb(22, 148, 231); fill-opacity: 1;" d="M31.348 27.02H44.23v.19c-4.187.032-8.375.063-12.69.099-.032 1.362-.063 2.725-.099 4.131l-4.23.001V43.85c-.21-.32-.214-.418-.214-.79v-1.016c0-.327.004-.651.004-.98V40.04c0-.65.004-1.294.004-1.942.004-.735.004-1.473.004-2.207l.012-4.542c.312-.157.656-.114 1-.118.164-.003.328-.007.492-.007l.78-.012.75-.01h.24c.398 0 .398 0 .75-.169.214-.288.167-.64.167-.987.003-.117.003-.117.003-.242l.012-.769.012-.768.003-.48c.008-.548.008-.548.118-.762zm0 0"/><path style="stroke: none; fill-rule: nonzero; fill: rgb(0, 28, 64); fill-opacity: 1;" d="M35.77 35.383h12.597v8.27c-.332.167-.71.109-1.074.105H46.19c-.647-.004-1.292-.004-1.96-.008v-4.133h.098v3.942l3.75-.001v-7.982h-12.21v3.844h8.265v.098H35.77v-4.137zm0 0"/><path style="stroke: none; fill-rule: nonzero; fill: rgb(3, 29, 60); fill-opacity: 1;" d="M31.54 43.848h12.69v4.132H31.54v-4.132zm1.253.132-.258.008c-.45.004-.45.004-.805.242-.02.254-.027.497-.027.75 0 .075-.004.145-.004.223v.469c0 .242 0 .48-.005.719v.458c0 .074 0 .144-.004.218.001.223.001.223.04.532.32.21.415.215.786.215h.308c.113 0 .223 0 .34-.004l.36-.001.972-.001c.336-.001.676-.001 1.016-.005.64 0 1.28 0 1.925-.004.73 0 1.461 0 2.192-.003 1.499 0 3.003-.004 4.503-.008V43.94c-1.293.001-2.586-.002-3.88-.002-.6 0-1.202 0-1.804-.004h-2.407c-1.082-.004-2.168 0-3.25.046zm0 0"/><path style="stroke: none; fill-rule: nonzero; fill: rgb(1, 27, 58); fill-opacity: 1;" d="M27.309 31.54h4.131l.001 12.21H27.31l-.001-12.21zm.092.19V43.56l3.848-.001v-11.83c-2.18-.128-2.18-.128-3.848 0zm0 0"/><path style="stroke: none; fill-rule: nonzero; fill: rgb(18, 138, 222); fill-opacity: 1;" d="M48.46 35.383c.063.129.13.254.192.387.067.062.13.125.196.19.015.255.02.497.015.75-.004.075-.004.153-.004.231 0 .17-.005.333-.005.498-.003.437-.007.875-.007 1.312 0 .09-.004.176-.004.27 0 .988.03 1.972.074 2.96.047 1.301.047 1.301-.07 1.77-.43.371-.88.324-1.414.316h-.239l-.879-.011-1.988-.016v4.038h-.098v-4.23h4.23v-8.465zm0 0"/><path style="stroke: none; fill-rule: nonzero; fill: rgb(2, 139, 237); fill-opacity: 1;" d="M47.883 22.79h.097v4.23c1.364.03 2.73.062 4.137.097V47.98c-1.238.032-2.476.063-3.75.098-.328.266-.328.266-.324.664 0 .156.004.317.004.473.004.082.004.164.004.25 0 .265.005.527.009.793-.001.18.002.36.002.539.004.437.008.879.016 1.32h-.195v-4.039h.195v-.195h3.942V27.21h-4.04c-.097-.093-.097-.093-.105-.269v-1.073c0-.305.004-.613.004-.922l-.001-.625c.003-.507.003-1.02.003-1.53zm0 0"/><path style="stroke: none; fill-rule: nonzero; fill: rgb(18, 121, 191); fill-opacity: 1;" d="M48.078 22.883h4.04v4.039h-.098V22.98c-1.176.032-2.348.063-3.56.098v3.844h-.19V22.98c-.063-.03-.13-.062-.192-.097zm0 0"/><path style="stroke: none; fill-rule: nonzero; fill: rgb(1, 166, 235); fill-opacity: 1;" d="M27.02 18.75c.125.031.253.062.382.098h-.191c.032.093.063.187.099.285.006.277.01.55.006.828v.247c0 .258 0 .516-.003.773v.524c0 .43-.004.855-.004 1.285l-.29.093V18.75zm0 0"/><path style="stroke: none; fill-rule: nonzero; fill: rgb(19, 147, 231); fill-opacity: 1;" d="M27.02 52.402c.242.485.3.762.296 1.293v.211c0 .223 0 .45-.003.672v.457c0 .371-.004.746-.004 1.117-.146.051-.146.051-.29.098v-3.848zm0 0"/><path style="stroke: none; fill-rule: nonzero; fill: rgb(24, 119, 187); fill-opacity: 1;" d="M52.309 27.02h3.94c-.031.125-.062.253-.098.382v-.191c-.066.02-.136.036-.207.056-.285.043-.476.007-.754-.055-.03.032-.061.063-.092.099a8.17 8.17 0 0 1-.535.003h-.297c-.114-.004-.114-.004-.227-.004v-.193l-.157.094c-.29.122-.516.118-.828.11-.106-.004-.211-.004-.317-.007-.117 0-.117 0-.238-.004v-.193a2.93 2.93 0 0 0-.191-.097zm-.001 0"/><path style="stroke: none; fill-rule: nonzero; fill: rgb(3, 131, 228); fill-opacity: 1;" d="M52.02 47.691c.046.146.046.146.097.29-.113 0-.226.004-.34.004-.418.008-.832.012-1.25.024-.18 0-.36.004-.539.008-.258 0-.515.007-.773.011-.121 0-.121 0-.246.004-.411-.003-.411-.003-.77.17-.22.292-.157.663-.153 1.015.004.082.004.164.004.25 0 .265.005.527.009.793-.001.18.002.36.002.539.004.437.008.879.016 1.32h-.195v-4.039h.195v-.195h3.942v-.192zm0 .001"/><path style="stroke: none; fill-rule: nonzero; fill: rgb(2, 165, 235); fill-opacity: 1;" d="M18.75 27.02h2.598c-.196.289-.196.289-.555.367-.367.035-.645-.032-.984-.176l-.1.099a5.526 5.526 0 0 1-.437-.044l-.242-.032-.182-.023c-.035.063-.067.13-.098.192v-.382zm0 0"/><path style="stroke: none; fill-rule: nonzero; fill: rgb(10, 150, 242); fill-opacity: 1;" d="M38.27 31.633h5.96v.289c-.093-.031-.19-.063-.289-.094a8.647 8.647 0 0 0-.55-.02c-.117-.003-.23-.003-.347-.007-.121 0-.242-.003-.371-.003-.125-.004-.25-.004-.38-.008l-1-.013c-.339-.007-.679-.011-1.019-.015-.668-.012-1.335-.024-2.003-.032v-.097zm0 0"/><path style="stroke: none; fill-rule: nonzero; fill: rgb(10, 149, 241); fill-opacity: 1;" d="M27.21 52.98h.099l-.001 3.172c-.146.051-.146.051-.29.098l.046-.152c.063-.301.07-.59.079-.903.003-.062.003-.125.007-.191.004-.203.012-.402.016-.606.004-.136.012-.273.016-.41.007-.336.02-.672.027-1.008zm0 0"/><path style="stroke: none; fill-rule: nonzero; fill: rgb(0, 165, 232); fill-opacity: 1;" d="M21.441 27.02h1.443c-.031.093-.063.19-.094.289-.153.006-.306.01-.458.014l-.258.012c-.246-.027-.246-.027-.633-.316zm.001 0"/></g></svg>