<?xml version="1.0" encoding="UTF-8" standalone="no" ?>
<!DOCTYPE svg PUBLIC "-//W3C//DTD SVG 1.1//EN" "http://www.w3.org/Graphics/SVG/1.1/DTD/svg11.dtd">
<svg xmlns="http://www.w3.org/2000/svg" xmlns:xlink="http://www.w3.org/1999/xlink" version="1.1" width="1080" height="1080" viewBox="0 0 1080 1080" xml:space="preserve">
<desc>Created with Fabric.js 5.2.4</desc>
<defs>
</defs>
<g transform="matrix(1 0 0 1 540 540)" id="892f8414-507e-46b1-a106-c32a64fa5057"  >
<rect style="stroke: none; stroke-width: 1; stroke-dasharray: none; stroke-linecap: butt; stroke-dashoffset: 0; stroke-linejoin: miter; stroke-miterlimit: 4; fill: rgb(255,255,255); fill-rule: nonzero; opacity: 1; visibility: hidden;" vector-effect="non-scaling-stroke"  x="-540" y="-540" rx="0" ry="0" width="1080" height="1080" />
</g>
<g transform="matrix(1 0 0 1 540 540)" id="86d4ceaf-cb87-4deb-84e9-472e456370d9"  >
</g>
<g transform="matrix(2.84 0 0 2.84 540 540)"  >
<g style="" vector-effect="non-scaling-stroke"   >
		<g transform="matrix(1 0 0 1 0 0)"  >
<path style="stroke: none; stroke-width: 1; stroke-dasharray: none; stroke-linecap: butt; stroke-dashoffset: 0; stroke-linejoin: miter; stroke-miterlimit: 4; fill: rgb(1,154,253); fill-rule: nonzero; opacity: 1;" vector-effect="non-scaling-stroke"  transform=" translate(-37.5, -37.5)" d="M 27.02 18.75 L 47.980000000000004 18.75 L 47.980000000000004 22.883 L 52.117000000000004 22.883 L 52.117000000000004 27.02 L 56.25000000000001 27.02 L 56.25000000000001 47.980000000000004 L 52.117000000000004 47.980000000000004 L 52.117000000000004 52.117000000000004 L 47.98 52.117000000000004 L 47.98 56.25000000000001 L 27.02 56.25000000000001 L 27.02 52.117000000000004 L 22.883 52.117000000000004 L 22.883 47.98 L 18.75 47.98 L 18.75 27.02 L 22.883 27.02 L 22.883 22.883 L 27.02 22.883 L 27.02 18.75 z M 27.02 18.75" stroke-linecap="round" />
</g>
		<g transform="matrix(1 0 0 1 0.34 0.14)"  >
<path style="stroke: none; stroke-width: 1; stroke-dasharray: none; stroke-linecap: butt; stroke-dashoffset: 0; stroke-linejoin: miter; stroke-miterlimit: 4; fill: rgb(16,21,37); fill-rule: nonzero; opacity: 1;" vector-effect="non-scaling-stroke"  transform=" translate(-37.84, -37.64)" d="M 31.75 27.2 L 33.091 27.2 C 33.431000000000004 27.2 33.771 27.2 34.111000000000004 27.203 L 37.2 27.203 C 37.965 27.207 38.730000000000004 27.207 39.5 27.207 C 41.074 27.207 42.652 27.211000000000002 44.230000000000004 27.211000000000002 L 44.230000000000004 31.541000000000004 L 31.54 31.541000000000004 L 31.54 43.751000000000005 L 44.23 43.751000000000005 L 44.23 39.521 L 35.769999999999996 39.521 L 35.769999999999996 35.291 L 48.459999999999994 35.291 L 48.459999999999994 43.849 L 44.22999999999999 43.849 L 44.22999999999999 48.07899999999999 L 31.441 48.07899999999999 L 31.442 43.84899999999999 L 27.212 43.84899999999999 L 27.212 31.44 L 31.442999999999998 31.441000000000003 L 31.436999999999998 28.731 L 31.436999999999998 28.224 C 31.436999999999998 28.134 31.436999999999998 28.044 31.432999999999996 27.954 L 31.432999999999996 27.477 C 31.452999999999996 27.219 31.494999999999997 27.215 31.752999999999997 27.199 z M 31.75 27.2" stroke-linecap="round" />
</g>
		<g transform="matrix(1 0 0 1 14.61 -2.07)"  >
<path style="stroke: none; stroke-width: 1; stroke-dasharray: none; stroke-linecap: butt; stroke-dashoffset: 0; stroke-linejoin: miter; stroke-miterlimit: 4; fill: rgb(9,123,209); fill-rule: nonzero; opacity: 1;" vector-effect="non-scaling-stroke"  transform=" translate(-52.11, -35.43)" d="M 47.98 22.883 L 52.117 22.883 L 52.117 27.02 L 56.25 27.02 L 56.25 47.980000000000004 L 52.117 47.980000000000004 L 52.117 27.117 L 48.367 27.117 C 48.2385872412876 27.0823673005859 48.10956670280745 27.05002881936478 47.98 27.02 L 47.98 22.883 z M 47.98 22.883" stroke-linecap="round" />
</g>
		<g transform="matrix(1 0 0 1 0.38 8.41)"  >
<path style="stroke: none; stroke-width: 1; stroke-dasharray: none; stroke-linecap: butt; stroke-dashoffset: 0; stroke-linejoin: miter; stroke-miterlimit: 4; fill: rgb(17,21,37); fill-rule: nonzero; opacity: 1;" vector-effect="non-scaling-stroke"  transform=" translate(-37.88, -45.91)" d="M 31.54 43.848 L 44.23 43.848 L 44.23 47.98 L 31.54 47.98 L 31.54 43.848 z M 31.54 43.848" stroke-linecap="round" />
</g>
		<g transform="matrix(1 0 0 1 0.38 -8.18)"  >
<path style="stroke: none; stroke-width: 1; stroke-dasharray: none; stroke-linecap: butt; stroke-dashoffset: 0; stroke-linejoin: miter; stroke-miterlimit: 4; fill: rgb(16,21,38); fill-rule: nonzero; opacity: 1;" vector-effect="non-scaling-stroke"  transform=" translate(-37.88, -29.32)" d="M 31.633 27.309 C 33.223 27.304000000000002 34.809 27.304000000000002 36.394999999999996 27.299 L 38.605 27.299 C 39.25 27.299 39.891 27.299 40.535 27.296 L 43.622 27.296 C 43.85 27.308 43.85 27.308 44.135 27.401 L 44.135 31.347 L 31.634999999999998 31.347 L 31.634999999999998 27.307000000000002 z M 31.633 27.308" stroke-linecap="round" />
</g>
		<g transform="matrix(1 0 0 1 12.53 12.53)"  >
<path style="stroke: none; stroke-width: 1; stroke-dasharray: none; stroke-linecap: butt; stroke-dashoffset: 0; stroke-linejoin: miter; stroke-miterlimit: 4; fill: rgb(10,122,207); fill-rule: nonzero; opacity: 1;" vector-effect="non-scaling-stroke"  transform=" translate(-50.03, -50.03)" d="M 49.223 47.941 C 49.297 47.946000000000005 49.371 47.946000000000005 49.445 47.946000000000005 C 49.719 47.946000000000005 49.992 47.95400000000001 50.265 47.958000000000006 L 52.117 47.98100000000001 L 52.117 52.11800000000001 C 51.449 52.11800000000001 50.785 52.12200000000001 50.102 52.12200000000001 C 49.891 52.123000000000005 49.684 52.12700000000001 49.464999999999996 52.12700000000001 L 48.705999999999996 52.12700000000001 C 48.495999999999995 52.12700000000001 48.284 52.12300000000001 48.077 52.11900000000001 C 47.876999999999995 51.919000000000004 47.96 51.49900000000001 47.957 51.22500000000001 L 47.957 50.982000000000006 C 47.952 50.815000000000005 47.952 50.642 47.952 50.47500000000001 L 47.94 49.69300000000001 L 47.940999999999995 49.20300000000001 C 47.93899999999999 49.12400000000001 47.93899999999999 49.046000000000014 47.934999999999995 48.96800000000001 C 47.93899999999999 48.64000000000001 47.958 48.40900000000001 48.12199999999999 48.12800000000001 C 48.48599999999999 47.913000000000004 48.81099999999999 47.937000000000005 49.224999999999994 47.94400000000001 z M 49.223 47.942" stroke-linecap="round" />
</g>
		<g transform="matrix(1 0 0 1 0.34 0.14)"  >
<path style="stroke: none; stroke-width: 1; stroke-dasharray: none; stroke-linecap: butt; stroke-dashoffset: 0; stroke-linejoin: miter; stroke-miterlimit: 4; fill: rgb(4,72,127); fill-rule: nonzero; opacity: 1;" vector-effect="non-scaling-stroke"  transform=" translate(-37.84, -37.64)" d="M 31.75 27.2 L 33.091 27.2 C 33.431000000000004 27.2 33.771 27.2 34.111000000000004 27.203 L 37.2 27.203 C 37.965 27.207 38.730000000000004 27.207 39.5 27.207 C 41.074 27.207 42.652 27.211000000000002 44.230000000000004 27.211000000000002 L 44.230000000000004 31.541000000000004 L 31.54 31.541000000000004 L 31.54 43.751000000000005 C 37.089999999999996 43.720000000000006 42.644999999999996 43.68900000000001 48.367000000000004 43.653000000000006 L 48.367000000000004 35.38300000000001 L 35.77 35.38300000000001 L 35.77 35.290000000000006 L 48.46 35.290000000000006 L 48.46 43.848000000000006 L 31.54 43.848000000000006 L 31.54 47.980000000000004 L 44.23 47.980000000000004 L 44.23 48.078 L 31.441 48.078 L 31.442 43.848 L 27.212 43.848 L 27.212 31.44 L 31.442999999999998 31.441000000000003 L 31.436999999999998 28.731 L 31.436999999999998 28.224 C 31.436999999999998 28.134 31.436999999999998 28.044 31.432999999999996 27.954 L 31.432999999999996 27.477 C 31.452999999999996 27.219 31.494999999999997 27.215 31.752999999999997 27.199 z M 31.633 27.309 L 31.633 31.347 L 44.132999999999996 31.347 L 44.132999999999996 27.401 C 43.842999999999996 27.308 43.653 27.296 43.348 27.296 L 40.329 27.296 C 39.681 27.3 39.036 27.3 38.388 27.3 C 37.649 27.3 36.915 27.3 36.181 27.305 C 34.665 27.305 33.149 27.305 31.633999999999997 27.309 z M 27.308999999999997 31.539 L 27.307999999999996 43.749 L 31.438999999999997 43.749 L 31.439999999999998 31.539 L 27.31 31.539 z M 27.307999999999996 31.539" stroke-linecap="round" />
</g>
		<g transform="matrix(1 0 0 1 -1.89 -2.06)"  >
<path style="stroke: none; stroke-width: 1; stroke-dasharray: none; stroke-linecap: butt; stroke-dashoffset: 0; stroke-linejoin: miter; stroke-miterlimit: 4; fill: rgb(22,148,231); fill-rule: nonzero; opacity: 1;" vector-effect="non-scaling-stroke"  transform=" translate(-35.61, -35.44)" d="M 31.348 27.02 L 44.23 27.02 L 44.23 27.21 C 40.043 27.242 35.855 27.273 31.54 27.309 C 31.508 28.671 31.477 30.034000000000002 31.441 31.44 L 27.211 31.441000000000003 L 27.211 43.85 C 27.000999999999998 43.53 26.997 43.432 26.997 43.06 L 26.997 42.044000000000004 C 26.997 41.717000000000006 27.001 41.393 27.001 41.06400000000001 L 27.001 40.04 C 27.001 39.39 27.005000000000003 38.746 27.005000000000003 38.098 C 27.009000000000004 37.363 27.009000000000004 36.625 27.009000000000004 35.891 L 27.021000000000004 31.348999999999997 C 27.333000000000006 31.191999999999997 27.677000000000003 31.234999999999996 28.021000000000004 31.230999999999998 C 28.185000000000006 31.227999999999998 28.349000000000004 31.223999999999997 28.513000000000005 31.223999999999997 L 29.293000000000006 31.211999999999996 L 30.043000000000006 31.201999999999995 L 30.283000000000005 31.201999999999995 C 30.681000000000004 31.201999999999995 30.681000000000004 31.201999999999995 31.033000000000005 31.032999999999994 C 31.247000000000003 30.744999999999994 31.200000000000006 30.392999999999994 31.200000000000006 30.045999999999996 C 31.203000000000007 29.928999999999995 31.203000000000007 29.928999999999995 31.203000000000007 29.803999999999995 L 31.215000000000007 29.034999999999997 L 31.227000000000007 28.266999999999996 L 31.230000000000008 27.786999999999995 C 31.238000000000007 27.238999999999997 31.238000000000007 27.238999999999997 31.348000000000006 27.024999999999995 z M 31.348 27.02" stroke-linecap="round" />
</g>
		<g transform="matrix(1 0 0 1 4.57 2.08)"  >
<path style="stroke: none; stroke-width: 1; stroke-dasharray: none; stroke-linecap: butt; stroke-dashoffset: 0; stroke-linejoin: miter; stroke-miterlimit: 4; fill: rgb(0,28,64); fill-rule: nonzero; opacity: 1;" vector-effect="non-scaling-stroke"  transform=" translate(-42.07, -39.58)" d="M 35.77 35.383 L 48.367000000000004 35.383 L 48.367000000000004 43.653000000000006 C 48.035000000000004 43.82000000000001 47.657000000000004 43.76200000000001 47.293000000000006 43.758 L 46.19 43.758 C 45.543 43.754000000000005 44.897999999999996 43.754000000000005 44.23 43.75 L 44.23 39.617 L 44.327999999999996 39.617 L 44.327999999999996 43.559 L 48.077999999999996 43.558 L 48.077999999999996 35.576 L 35.867999999999995 35.576 L 35.867999999999995 39.42 L 44.132999999999996 39.42 L 44.132999999999996 39.518 L 35.77 39.518 L 35.77 35.381 z M 35.77 35.383" stroke-linecap="round" />
</g>
		<g transform="matrix(1 0 0 1 0.38 8.41)"  >
<path style="stroke: none; stroke-width: 1; stroke-dasharray: none; stroke-linecap: butt; stroke-dashoffset: 0; stroke-linejoin: miter; stroke-miterlimit: 4; fill: rgb(3,29,60); fill-rule: nonzero; opacity: 1;" vector-effect="non-scaling-stroke"  transform=" translate(-37.88, -45.91)" d="M 31.54 43.848 L 44.23 43.848 L 44.23 47.98 L 31.54 47.98 L 31.54 43.848 z M 32.793 43.98 L 32.535 43.988 C 32.084999999999994 43.992 32.084999999999994 43.992 31.729999999999997 44.23 C 31.709999999999997 44.483999999999995 31.702999999999996 44.727 31.702999999999996 44.98 C 31.702999999999996 45.055 31.698999999999995 45.125 31.698999999999995 45.202999999999996 L 31.698999999999995 45.672 C 31.698999999999995 45.913999999999994 31.698999999999995 46.151999999999994 31.693999999999996 46.391 L 31.693999999999996 46.849 C 31.693999999999996 46.922999999999995 31.693999999999996 46.992999999999995 31.689999999999994 47.067 C 31.690999999999995 47.29 31.690999999999995 47.29 31.729999999999993 47.599000000000004 C 32.04999999999999 47.809000000000005 32.144999999999996 47.81400000000001 32.51599999999999 47.81400000000001 L 32.82399999999999 47.81400000000001 C 32.93699999999999 47.81400000000001 33.04699999999999 47.81400000000001 33.163999999999994 47.81000000000001 L 33.523999999999994 47.80900000000001 L 34.495999999999995 47.808000000000014 C 34.831999999999994 47.807000000000016 35.172 47.807000000000016 35.51199999999999 47.80300000000001 C 36.151999999999994 47.80300000000001 36.791999999999994 47.80300000000001 37.43699999999999 47.799000000000014 C 38.16699999999999 47.799000000000014 38.89799999999999 47.799000000000014 39.62899999999999 47.796000000000014 C 41.12799999999999 47.796000000000014 42.63199999999999 47.792000000000016 44.13199999999999 47.78800000000001 L 44.13199999999999 43.94 C 42.83899999999999 43.940999999999995 41.54599999999999 43.937999999999995 40.25199999999999 43.937999999999995 C 39.65199999999999 43.937999999999995 39.04999999999999 43.937999999999995 38.447999999999986 43.934 L 36.04099999999998 43.934 C 34.95899999999998 43.93 33.87299999999998 43.934 32.79099999999998 43.98 z M 32.793 43.98" stroke-linecap="round" />
</g>
		<g transform="matrix(1 0 0 1 -8.13 0.14)"  >
<path style="stroke: none; stroke-width: 1; stroke-dasharray: none; stroke-linecap: butt; stroke-dashoffset: 0; stroke-linejoin: miter; stroke-miterlimit: 4; fill: rgb(1,27,58); fill-rule: nonzero; opacity: 1;" vector-effect="non-scaling-stroke"  transform=" translate(-29.38, -37.64)" d="M 27.309 31.54 L 31.44 31.54 L 31.441000000000003 43.75 L 27.31 43.75 L 27.308999999999997 31.54 z M 27.401 31.73 L 27.401 43.56 L 31.249 43.559000000000005 L 31.249 31.729000000000006 C 29.069 31.601000000000006 29.069 31.601000000000006 27.401 31.729000000000006 z M 27.401 31.73" stroke-linecap="round" />
</g>
		<g transform="matrix(1 0 0 1 9.09 4.23)"  >
<path style="stroke: none; stroke-width: 1; stroke-dasharray: none; stroke-linecap: butt; stroke-dashoffset: 0; stroke-linejoin: miter; stroke-miterlimit: 4; fill: rgb(18,138,222); fill-rule: nonzero; opacity: 1;" vector-effect="non-scaling-stroke"  transform=" translate(-46.59, -41.73)" d="M 48.46 35.383 C 48.523 35.512 48.59 35.637 48.652 35.77 C 48.719 35.832 48.782000000000004 35.895 48.848 35.96 C 48.863 36.215 48.868 36.457 48.863 36.71 C 48.859 36.785000000000004 48.859 36.863 48.859 36.941 C 48.859 37.111000000000004 48.854 37.274 48.854 37.439 C 48.851 37.876 48.847 38.314 48.847 38.751 C 48.847 38.841 48.843 38.927 48.843 39.021 C 48.843 40.009 48.873000000000005 40.993 48.917 41.981 C 48.964 43.282000000000004 48.964 43.282000000000004 48.847 43.751000000000005 C 48.417 44.12200000000001 47.967 44.075 47.433 44.06700000000001 L 47.194 44.06700000000001 L 46.315000000000005 44.056000000000004 L 44.327000000000005 44.040000000000006 L 44.327000000000005 48.078 L 44.229000000000006 48.078 L 44.229000000000006 43.848 L 48.459 43.848 L 48.459 35.382999999999996 z M 48.46 35.383" stroke-linecap="round" />
</g>
		<g transform="matrix(1 0 0 1 12.5 -0.05)"  >
<path style="stroke: none; stroke-width: 1; stroke-dasharray: none; stroke-linecap: butt; stroke-dashoffset: 0; stroke-linejoin: miter; stroke-miterlimit: 4; fill: rgb(2,139,237); fill-rule: nonzero; opacity: 1;" vector-effect="non-scaling-stroke"  transform=" translate(-50, -37.45)" d="M 47.883 22.79 L 47.980000000000004 22.79 L 47.980000000000004 27.02 C 49.344 27.05 50.71 27.082 52.117000000000004 27.117 L 52.117000000000004 47.98 C 50.879000000000005 48.01199999999999 49.641000000000005 48.043 48.367000000000004 48.077999999999996 C 48.039 48.343999999999994 48.039 48.343999999999994 48.043000000000006 48.742 C 48.043000000000006 48.897999999999996 48.047000000000004 49.059 48.047000000000004 49.214999999999996 C 48.051 49.297 48.051 49.379 48.051 49.464999999999996 C 48.051 49.73 48.056000000000004 49.992 48.06 50.257999999999996 C 48.059000000000005 50.437999999999995 48.062000000000005 50.617999999999995 48.062000000000005 50.797 C 48.066 51.233999999999995 48.07000000000001 51.675999999999995 48.078 52.117 L 47.883 52.117 L 47.883 48.077999999999996 L 48.078 48.077999999999996 L 48.078 47.882999999999996 L 52.02 47.882999999999996 L 52.02 27.21 L 47.980000000000004 27.21 C 47.883 27.117 47.883 27.117 47.87500000000001 26.941000000000003 L 47.87500000000001 25.868000000000002 C 47.87500000000001 25.563000000000002 47.879000000000005 25.255000000000003 47.879000000000005 24.946 L 47.87800000000001 24.321 C 47.88100000000001 23.814 47.88100000000001 23.301000000000002 47.88100000000001 22.791 z M 47.883 22.79" stroke-linecap="round" />
</g>
		<g transform="matrix(1 0 0 1 12.6 -12.6)"  >
<path style="stroke: none; stroke-width: 1; stroke-dasharray: none; stroke-linecap: butt; stroke-dashoffset: 0; stroke-linejoin: miter; stroke-miterlimit: 4; fill: rgb(18,121,191); fill-rule: nonzero; opacity: 1;" vector-effect="non-scaling-stroke"  transform=" translate(-50.1, -24.9)" d="M 48.078 22.883 L 52.118 22.883 L 52.118 26.921999999999997 L 52.02 26.921999999999997 L 52.02 22.98 C 50.844 23.012 49.672000000000004 23.043 48.46 23.078 L 48.46 26.922 L 48.27 26.922 L 48.27 22.98 C 48.207 22.95 48.14 22.918 48.078 22.883 z M 48.078 22.883" stroke-linecap="round" />
</g>
		<g transform="matrix(1 0 0 1 -10.29 -16.68)"  >
<path style="stroke: none; stroke-width: 1; stroke-dasharray: none; stroke-linecap: butt; stroke-dashoffset: 0; stroke-linejoin: miter; stroke-miterlimit: 4; fill: rgb(1,166,235); fill-rule: nonzero; opacity: 1;" vector-effect="non-scaling-stroke"  transform=" translate(-27.21, -20.82)" d="M 27.02 18.75 C 27.145 18.781 27.273 18.812 27.402 18.848 L 27.211000000000002 18.848 C 27.243000000000002 18.941 27.274 19.035 27.310000000000002 19.133 C 27.316000000000003 19.41 27.320000000000004 19.683 27.316000000000003 19.961 L 27.316000000000003 20.208 C 27.316000000000003 20.465999999999998 27.316000000000003 20.723999999999997 27.313000000000002 20.980999999999998 L 27.313000000000002 21.505 C 27.313000000000002 21.935 27.309 22.36 27.309 22.79 L 27.019000000000002 22.883 L 27.019000000000002 18.75 z M 27.02 18.75" stroke-linecap="round" />
</g>
		<g transform="matrix(1 0 0 1 -10.33 16.83)"  >
<path style="stroke: none; stroke-width: 1; stroke-dasharray: none; stroke-linecap: butt; stroke-dashoffset: 0; stroke-linejoin: miter; stroke-miterlimit: 4; fill: rgb(19,147,231); fill-rule: nonzero; opacity: 1;" vector-effect="non-scaling-stroke"  transform=" translate(-27.17, -54.33)" d="M 27.02 52.402 C 27.262 52.887 27.32 53.164 27.316 53.695 L 27.316 53.906 C 27.316 54.129 27.316 54.356 27.313 54.577999999999996 L 27.313 55.035 C 27.313 55.406 27.308999999999997 55.781 27.308999999999997 56.151999999999994 C 27.162999999999997 56.202999999999996 27.162999999999997 56.202999999999996 27.019 56.24999999999999 L 27.019 52.401999999999994 z M 27.02 52.402" stroke-linecap="round" />
</g>
		<g transform="matrix(1 0 0 1 16.78 -10.29)"  >
<path style="stroke: none; stroke-width: 1; stroke-dasharray: none; stroke-linecap: butt; stroke-dashoffset: 0; stroke-linejoin: miter; stroke-miterlimit: 4; fill: rgb(24,119,187); fill-rule: nonzero; opacity: 1;" vector-effect="non-scaling-stroke"  transform=" translate(-54.28, -27.21)" d="M 52.309 27.02 L 56.248999999999995 27.02 C 56.217999999999996 27.145 56.187 27.273 56.150999999999996 27.402 L 56.150999999999996 27.211000000000002 C 56.084999999999994 27.231 56.01499999999999 27.247000000000003 55.943999999999996 27.267000000000003 C 55.659 27.310000000000002 55.467999999999996 27.274000000000004 55.19 27.212000000000003 C 55.16 27.244000000000003 55.129 27.275000000000002 55.098 27.311000000000003 C 54.91974723912738 27.31784033271074 54.741318262938435 27.318840869025824 54.563 27.314000000000007 L 54.266000000000005 27.314000000000004 C 54.15200000000001 27.310000000000002 54.15200000000001 27.310000000000002 54.03900000000001 27.310000000000002 L 54.03900000000001 27.117 L 53.88200000000001 27.211000000000002 C 53.59200000000001 27.333000000000002 53.366000000000014 27.329 53.05400000000001 27.321 C 52.94800000000001 27.317 52.84300000000001 27.317 52.73700000000001 27.314 C 52.62000000000001 27.314 52.62000000000001 27.314 52.49900000000001 27.31 L 52.49900000000001 27.116999999999997 C 52.43653699787756 27.082349284660673 52.372827762031875 27.049994332424905 52.30800000000001 27.019999999999996 z M 52.308 27.02" stroke-linecap="round" />
</g>
		<g transform="matrix(1 0 0 1 12.5 12.41)"  >
<path style="stroke: none; stroke-width: 1; stroke-dasharray: none; stroke-linecap: butt; stroke-dashoffset: 0; stroke-linejoin: miter; stroke-miterlimit: 4; fill: rgb(3,131,228); fill-rule: nonzero; opacity: 1;" vector-effect="non-scaling-stroke"  transform=" translate(-50, -49.91)" d="M 52.02 47.691 C 52.066 47.837 52.066 47.837 52.117000000000004 47.981 C 52.004000000000005 47.981 51.891000000000005 47.985 51.777 47.985 C 51.359 47.993 50.945 47.997 50.527 48.009 C 50.347 48.009 50.167 48.013 49.988 48.017 C 49.73 48.017 49.473 48.024 49.214999999999996 48.028000000000006 C 49.093999999999994 48.028000000000006 49.093999999999994 48.028000000000006 48.968999999999994 48.032000000000004 C 48.55799999999999 48.029 48.55799999999999 48.029 48.19899999999999 48.202000000000005 C 47.97899999999999 48.49400000000001 48.041999999999994 48.865 48.04599999999999 49.217000000000006 C 48.04999999999999 49.29900000000001 48.04999999999999 49.38100000000001 48.04999999999999 49.467000000000006 C 48.04999999999999 49.732000000000006 48.05499999999999 49.99400000000001 48.05899999999999 50.260000000000005 C 48.05799999999999 50.440000000000005 48.06099999999999 50.620000000000005 48.06099999999999 50.79900000000001 C 48.06499999999999 51.236000000000004 48.068999999999996 51.678000000000004 48.07699999999999 52.11900000000001 L 47.88199999999999 52.11900000000001 L 47.88199999999999 48.080000000000005 L 48.07699999999999 48.080000000000005 L 48.07699999999999 47.885000000000005 L 52.01899999999999 47.885000000000005 L 52.01899999999999 47.693000000000005 z M 52.02 47.692" stroke-linecap="round" />
</g>
		<g transform="matrix(1 0 0 1 -17.45 -10.29)"  >
<path style="stroke: none; stroke-width: 1; stroke-dasharray: none; stroke-linecap: butt; stroke-dashoffset: 0; stroke-linejoin: miter; stroke-miterlimit: 4; fill: rgb(2,165,235); fill-rule: nonzero; opacity: 1;" vector-effect="non-scaling-stroke"  transform=" translate(-20.05, -27.21)" d="M 18.75 27.02 L 21.348 27.02 C 21.151999999999997 27.309 21.151999999999997 27.309 20.793 27.387 C 20.426 27.422 20.148 27.355 19.808999999999997 27.211000000000002 L 19.708999999999996 27.310000000000002 C 19.562807803578895 27.301130249369844 19.4170260210793 27.286451992093 19.271999999999995 27.266000000000002 L 19.029999999999994 27.234 L 18.847999999999995 27.211000000000002 C 18.812999999999995 27.274 18.780999999999995 27.341 18.749999999999996 27.403000000000002 L 18.749999999999996 27.021 z M 18.75 27.02" stroke-linecap="round" />
</g>
		<g transform="matrix(1 0 0 1 3.75 -5.72)"  >
<path style="stroke: none; stroke-width: 1; stroke-dasharray: none; stroke-linecap: butt; stroke-dashoffset: 0; stroke-linejoin: miter; stroke-miterlimit: 4; fill: rgb(10,150,242); fill-rule: nonzero; opacity: 1;" vector-effect="non-scaling-stroke"  transform=" translate(-41.25, -31.78)" d="M 38.27 31.633 L 44.230000000000004 31.633 L 44.230000000000004 31.922 C 44.137 31.891000000000002 44.040000000000006 31.859 43.941 31.828 C 43.757925322007594 31.815499152006833 43.574499104910394 31.808829107748753 43.391000000000005 31.808 C 43.27400000000001 31.805 43.16100000000001 31.805 43.044000000000004 31.801 C 42.923 31.801 42.80200000000001 31.798 42.673 31.798 C 42.548 31.793999999999997 42.423 31.793999999999997 42.293 31.79 L 41.293 31.776999999999997 C 40.954 31.769999999999996 40.614 31.766 40.274 31.761999999999997 C 39.606 31.749999999999996 38.939 31.737999999999996 38.271 31.729999999999997 L 38.271 31.632999999999996 z M 38.27 31.633" stroke-linecap="round" />
</g>
		<g transform="matrix(1 0 0 1 -10.34 17.11)"  >
<path style="stroke: none; stroke-width: 1; stroke-dasharray: none; stroke-linecap: butt; stroke-dashoffset: 0; stroke-linejoin: miter; stroke-miterlimit: 4; fill: rgb(10,149,241); fill-rule: nonzero; opacity: 1;" vector-effect="non-scaling-stroke"  transform=" translate(-27.16, -54.61)" d="M 27.21 52.98 L 27.309 52.98 L 27.308 56.151999999999994 C 27.162 56.202999999999996 27.162 56.202999999999996 27.018 56.24999999999999 L 27.064 56.09799999999999 C 27.127 55.79699999999999 27.134 55.50799999999999 27.143 55.19499999999999 C 27.146 55.132999999999996 27.146 55.06999999999999 27.150000000000002 55.00399999999999 C 27.154000000000003 54.80099999999999 27.162000000000003 54.60199999999999 27.166 54.39799999999999 C 27.17 54.261999999999986 27.178 54.124999999999986 27.182 53.98799999999999 C 27.189 53.651999999999994 27.201999999999998 53.315999999999995 27.209 52.97999999999999 z M 27.21 52.98" stroke-linecap="round" />
</g>
		<g transform="matrix(1 0 0 1 -15.34 -10.32)"  >
<path style="stroke: none; stroke-width: 1; stroke-dasharray: none; stroke-linecap: butt; stroke-dashoffset: 0; stroke-linejoin: miter; stroke-miterlimit: 4; fill: rgb(0,165,232); fill-rule: nonzero; opacity: 1;" vector-effect="non-scaling-stroke"  transform=" translate(-22.16, -27.18)" d="M 21.441 27.02 L 22.884 27.02 C 22.853 27.113 22.821 27.21 22.79 27.309 C 22.637 27.315 22.483999999999998 27.319000000000003 22.332 27.323 L 22.074 27.335 C 21.828000000000003 27.308 21.828000000000003 27.308 21.441000000000003 27.019000000000002 z M 21.442 27.02" stroke-linecap="round" />
</g>
</g>
</g>
</svg>