<svg id="svg" version="1.1" xmlns="http://www.w3.org/2000/svg" xmlns:xlink="http://www.w3.org/1999/xlink" width="400" height="98.79518072289156" viewBox="0, 0, 400,98.79518072289156"><g id="svgg"><path id="path0" d="M36.833 0.396 C 36.833 1.437,36.647 1.813,36.106 1.866 C 35.651 1.910,35.577 1.987,35.531 2.458 C 35.491 2.875,35.383 3.023,35.061 3.104 C 34.565 3.228,34.333 3.752,34.333 4.750 C 34.333 5.450,34.312 5.481,33.792 5.531 L 33.250 5.583 33.201 6.708 L 33.151 7.833 32.576 7.833 L 32.000 7.833 32.000 9.000 C 32.000 10.167,32.000 10.167,31.533 10.167 C 30.942 10.167,30.667 10.441,30.667 11.030 C 30.667 11.385,30.569 11.518,30.253 11.597 C 29.824 11.705,29.503 12.449,29.501 13.341 C 29.500 13.675,29.385 13.798,28.958 13.924 C 28.424 14.081,28.416 14.098,28.367 15.208 L 28.318 16.333 27.742 16.333 L 27.167 16.333 27.167 17.500 L 27.167 18.667 26.603 18.667 C 25.957 18.667,25.839 18.903,25.836 20.208 C 25.834 20.877,25.784 21.000,25.514 21.000 C 24.876 21.000,24.667 21.190,24.667 21.768 C 24.667 22.258,24.612 22.333,24.256 22.333 C 23.723 22.333,23.500 22.770,23.500 23.812 C 23.500 24.631,23.490 24.646,22.958 24.698 L 22.417 24.750 22.368 25.958 L 22.319 27.167 21.743 27.167 L 21.167 27.167 21.167 28.323 L 21.167 29.480 20.542 29.532 C 19.971 29.579,19.912 29.631,19.864 30.124 C 19.824 30.542,19.717 30.690,19.394 30.771 C 18.775 30.926,18.667 31.432,18.667 34.178 L 18.667 36.667 19.250 36.667 L 19.833 36.667 19.833 37.570 C 19.833 38.774,19.932 38.972,20.592 39.096 L 21.152 39.201 21.201 40.309 L 21.250 41.417 21.792 41.469 L 22.333 41.521 22.333 42.477 C 22.333 43.507,22.519 43.833,23.107 43.833 C 23.418 43.833,23.489 43.938,23.532 44.458 C 23.579 45.027,23.632 45.088,24.118 45.135 L 24.652 45.187 24.701 46.302 L 24.750 47.417 25.283 47.468 C 25.812 47.519,25.816 47.527,25.927 48.657 L 26.039 49.793 26.793 49.897 C 27.207 49.954,31.905 50.001,37.232 50.003 C 42.558 50.004,46.829 50.061,46.721 50.129 C 46.614 50.198,46.473 50.722,46.408 51.294 C 46.312 52.140,46.235 52.333,45.990 52.333 C 45.421 52.333,45.167 52.800,45.167 53.845 L 45.167 54.833 44.583 54.833 L 44.000 54.833 44.000 56.000 L 44.000 57.167 43.417 57.167 C 42.847 57.167,42.833 57.183,42.833 57.833 C 42.833 58.431,42.791 58.500,42.423 58.500 C 41.922 58.500,41.741 58.816,41.587 59.958 C 41.481 60.742,41.426 60.833,41.064 60.833 C 40.575 60.833,40.333 61.357,40.333 62.417 C 40.333 63.117,40.312 63.148,39.792 63.198 L 39.250 63.250 39.201 64.458 L 39.152 65.667 38.576 65.667 L 38.000 65.667 38.000 68.320 C 38.000 71.361,38.030 71.500,38.674 71.500 C 39.100 71.500,39.152 71.562,39.198 72.125 C 39.245 72.694,39.298 72.755,39.784 72.802 L 40.319 72.853 40.368 73.968 C 40.417 75.083,40.417 75.083,40.936 75.134 C 41.450 75.184,41.457 75.197,41.544 76.280 C 41.635 77.420,41.793 77.660,42.458 77.664 C 42.808 77.666,42.833 77.739,42.833 78.732 C 42.833 79.842,42.939 80.000,43.680 80.000 C 43.921 80.000,44.000 80.118,44.000 80.479 C 44.000 81.523,44.204 82.043,44.684 82.224 C 45.057 82.365,45.161 82.519,45.200 82.992 C 45.245 83.525,45.303 83.588,45.792 83.636 C 46.329 83.687,46.333 83.695,46.333 84.580 C 46.333 85.818,46.432 86.000,47.101 86.000 L 47.667 86.000 47.667 87.156 L 47.667 88.312 48.208 88.364 C 48.724 88.414,48.752 88.453,48.794 89.167 C 48.868 90.427,48.959 90.631,49.500 90.750 C 49.937 90.846,50.000 90.932,50.000 91.430 C 50.000 91.970,50.030 92.000,50.583 92.000 L 51.167 92.000 51.167 93.149 C 51.167 94.346,51.262 94.500,52.006 94.500 C 52.326 94.500,52.444 94.867,52.540 96.167 C 52.579 96.692,52.637 96.755,53.125 96.802 C 53.663 96.854,53.667 96.860,53.667 97.761 L 53.667 98.667 55.417 98.667 C 57.056 98.667,57.167 98.646,57.167 98.333 C 57.167 98.066,57.278 98.000,57.728 98.000 L 58.290 98.000 58.405 96.833 C 58.518 95.691,58.530 95.667,58.992 95.667 C 59.567 95.667,59.667 95.443,59.667 94.153 L 59.667 93.167 60.250 93.167 C 60.805 93.167,60.833 93.138,60.833 92.587 C 60.833 92.102,60.904 91.989,61.262 91.899 C 61.755 91.775,62.000 91.258,62.000 90.341 C 62.000 89.745,62.037 89.697,62.583 89.594 C 63.129 89.492,63.167 89.444,63.167 88.847 C 63.167 87.574,63.329 87.167,63.836 87.167 C 64.391 87.167,64.500 86.933,64.500 85.747 C 64.500 84.862,64.504 84.854,65.042 84.802 L 65.583 84.750 65.632 83.542 L 65.681 82.333 66.257 82.333 C 66.805 82.333,66.833 82.304,66.833 81.750 C 66.833 81.252,66.890 81.167,67.217 81.167 C 67.815 81.167,68.000 80.845,68.000 79.800 C 68.000 78.835,68.001 78.833,68.504 78.833 C 69.112 78.833,69.333 78.388,69.333 77.166 C 69.333 76.372,69.345 76.353,69.875 76.302 L 70.417 76.250 70.466 75.125 L 70.515 74.000 71.091 74.000 C 71.652 74.000,71.667 73.982,71.667 73.333 C 71.667 72.709,71.697 72.667,72.149 72.667 C 72.726 72.667,72.833 72.444,72.833 71.247 C 72.833 70.362,72.838 70.354,73.375 70.302 C 73.911 70.251,73.918 70.238,74.061 69.125 C 74.200 68.041,74.222 68.000,74.668 68.000 C 75.233 68.000,75.333 67.771,75.333 66.486 L 75.333 65.500 75.917 65.500 C 76.472 65.500,76.500 65.472,76.500 64.920 C 76.500 64.436,76.571 64.322,76.929 64.232 C 77.421 64.109,77.667 63.592,77.667 62.680 C 77.667 62.110,77.720 62.033,78.208 61.893 C 78.743 61.741,78.751 61.724,78.799 60.619 L 78.849 59.500 79.405 59.500 C 80.041 59.500,80.161 59.259,80.164 57.969 C 80.167 57.210,80.182 57.186,80.708 57.136 L 81.250 57.083 81.299 55.875 L 81.348 54.667 81.924 54.667 C 82.471 54.667,82.500 54.637,82.500 54.083 C 82.500 53.586,82.556 53.500,82.883 53.500 C 83.480 53.500,83.667 53.179,83.667 52.152 C 83.667 51.206,83.668 51.204,84.234 51.097 C 84.799 50.991,84.801 50.987,84.916 49.838 C 85.031 48.695,85.036 48.685,85.558 48.634 L 86.083 48.583 86.132 47.468 L 86.181 46.353 86.716 46.302 L 87.250 46.250 87.296 43.558 C 87.345 40.683,87.257 40.333,86.488 40.333 C 86.232 40.333,86.167 40.215,86.167 39.750 C 86.167 39.194,86.139 39.167,85.583 39.167 L 85.000 39.167 85.000 38.180 C 85.000 36.847,84.909 36.667,84.240 36.667 L 83.682 36.667 83.633 35.542 L 83.583 34.417 83.042 34.364 C 82.546 34.317,82.500 34.264,82.500 33.739 L 82.500 33.167 69.250 33.167 L 56.000 33.167 56.000 32.511 C 56.000 31.892,56.031 31.851,56.542 31.802 L 57.083 31.750 57.132 30.635 L 57.181 29.520 57.709 29.468 C 58.310 29.409,58.456 29.093,58.483 27.792 C 58.500 27.004,58.503 27.000,59.073 27.000 C 59.614 27.000,59.649 26.965,59.698 26.382 C 59.740 25.879,59.828 25.745,60.167 25.668 C 60.532 25.584,60.602 25.447,60.735 24.552 C 60.876 23.606,60.924 23.522,61.402 23.386 C 61.904 23.242,61.918 23.212,61.966 22.119 L 62.015 21.000 62.591 21.000 C 63.148 21.000,63.167 20.980,63.167 20.354 C 63.167 19.055,63.321 18.690,63.894 18.634 C 64.361 18.589,64.422 18.520,64.466 17.992 C 64.507 17.514,64.609 17.365,64.998 17.219 C 65.435 17.053,65.490 16.943,65.595 16.018 C 65.696 15.120,65.752 15.000,66.072 15.000 C 66.648 15.000,66.833 14.668,66.833 13.633 C 66.833 12.792,66.875 12.667,67.153 12.667 C 67.905 12.667,68.000 12.515,68.000 11.316 L 68.000 10.167 68.564 10.167 C 69.209 10.167,69.327 9.930,69.331 8.636 C 69.333 7.877,69.349 7.853,69.875 7.802 C 70.370 7.755,70.421 7.696,70.468 7.125 C 70.513 6.590,70.578 6.500,70.921 6.500 C 71.443 6.500,71.667 6.056,71.667 5.022 C 71.667 4.203,71.676 4.187,72.208 4.136 L 72.750 4.083 72.799 2.958 C 72.848 1.840,72.851 1.833,73.331 1.833 C 73.910 1.833,73.935 1.799,74.086 0.792 L 74.205 0.000 55.519 0.000 L 36.833 0.000 36.833 0.396 M316.542 23.610 C 316.427 23.657,316.333 23.913,316.333 24.181 C 316.333 24.622,316.281 24.667,315.768 24.667 C 315.199 24.667,315.000 24.877,315.000 25.479 C 315.000 25.657,314.796 25.824,314.458 25.924 L 313.917 26.083 313.870 29.750 C 313.815 34.009,313.828 34.102,314.495 34.249 C 314.894 34.337,315.010 34.467,315.097 34.929 C 315.194 35.446,315.257 35.500,315.769 35.500 C 316.258 35.500,316.333 35.555,316.333 35.911 C 316.333 36.600,316.751 36.677,320.204 36.629 L 323.417 36.583 323.469 36.042 C 323.521 35.504,323.529 35.500,324.414 35.500 C 325.798 35.500,325.833 35.467,325.833 34.149 L 325.833 33.000 326.399 33.000 C 327.144 33.000,327.167 32.915,327.167 30.083 C 327.167 27.474,327.113 27.167,326.662 27.167 C 325.943 27.167,325.833 27.002,325.833 25.917 C 325.833 24.711,325.783 24.667,324.403 24.667 L 323.500 24.667 323.500 24.083 L 323.500 23.500 320.125 23.513 C 318.269 23.520,316.656 23.564,316.542 23.610 M252.672 27.124 C 251.381 27.185,251.174 27.300,251.169 27.958 C 251.167 28.326,251.127 28.333,249.204 28.333 C 247.111 28.333,246.500 28.521,246.500 29.166 C 246.500 29.408,246.358 29.492,245.875 29.532 C 245.304 29.579,245.245 29.630,245.198 30.125 C 245.148 30.646,245.117 30.667,244.417 30.667 C 243.286 30.667,242.833 30.901,242.833 31.485 C 242.833 31.920,242.769 31.985,242.292 32.031 C 241.818 32.077,241.744 32.150,241.699 32.614 C 241.657 33.047,241.558 33.164,241.161 33.251 C 240.635 33.367,240.336 34.044,240.334 35.125 C 240.334 35.543,240.262 35.667,240.020 35.667 C 239.290 35.667,239.253 35.932,239.200 41.520 C 239.146 47.158,239.187 47.500,239.912 47.500 C 240.242 47.500,240.321 47.595,240.364 48.042 C 240.410 48.514,240.484 48.590,240.940 48.634 C 241.453 48.684,241.465 48.706,241.578 49.757 C 241.712 51.007,241.675 50.971,242.977 51.107 C 243.954 51.209,243.984 51.227,244.033 51.731 C 244.078 52.196,244.146 52.255,244.689 52.301 C 245.203 52.344,245.309 52.422,245.389 52.820 C 245.506 53.405,245.908 53.500,248.260 53.500 L 249.979 53.500 250.031 54.042 L 250.083 54.583 252.458 54.630 C 254.787 54.675,254.833 54.683,254.836 55.046 C 254.841 55.825,255.009 55.886,257.402 55.967 L 259.667 56.043 259.667 56.504 C 259.667 56.971,259.916 57.167,260.514 57.167 C 260.798 57.167,260.833 57.294,260.833 58.333 L 260.833 59.500 259.857 59.500 C 257.757 59.500,257.336 59.635,257.311 60.314 L 257.289 60.917 257.186 60.333 C 257.072 59.685,256.614 59.547,254.458 59.515 C 253.511 59.500,253.500 59.494,253.500 59.008 C 253.500 58.578,253.426 58.501,252.926 58.407 C 252.432 58.315,252.345 58.227,252.301 57.775 C 252.257 57.320,252.180 57.243,251.718 57.199 C 251.255 57.154,251.180 57.078,251.135 56.615 L 251.083 56.083 244.770 56.040 C 240.248 56.008,238.391 56.050,238.228 56.185 C 238.057 56.327,238.000 56.909,238.000 58.520 L 238.000 60.667 238.578 60.667 L 239.155 60.667 239.203 62.458 L 239.250 64.250 239.769 64.301 C 240.273 64.350,240.291 64.379,240.393 65.356 C 240.521 66.584,240.568 66.667,241.142 66.667 C 241.512 66.667,241.628 66.768,241.757 67.208 C 241.908 67.719,241.976 67.759,242.958 67.904 C 243.996 68.058,244.000 68.060,244.000 68.613 L 244.000 69.167 245.156 69.167 L 246.312 69.167 246.364 69.708 L 246.417 70.250 248.208 70.297 L 250.000 70.345 250.000 70.898 L 250.000 71.452 251.125 71.558 C 252.537 71.691,261.710 71.664,263.167 71.522 C 264.239 71.418,264.251 71.411,264.302 70.881 L 264.354 70.344 266.135 70.297 L 267.917 70.250 267.967 69.731 C 268.016 69.232,268.054 69.208,268.937 69.117 C 269.941 69.013,270.333 68.790,270.333 68.323 C 270.333 68.093,270.484 68.008,270.958 67.968 C 271.527 67.921,271.588 67.869,271.635 67.381 C 271.680 66.916,271.764 66.830,272.260 66.737 C 272.777 66.640,272.833 66.575,272.833 66.075 C 272.833 65.572,272.883 65.516,273.375 65.469 C 273.910 65.417,273.918 65.403,274.059 64.309 C 274.192 63.271,274.231 63.195,274.673 63.107 C 275.324 62.977,275.358 62.610,275.299 56.417 L 275.250 51.250 274.726 51.199 C 274.226 51.150,274.198 51.108,274.089 50.241 C 273.969 49.274,273.676 48.833,273.155 48.833 C 272.900 48.833,272.833 48.715,272.833 48.268 C 272.833 47.599,272.651 47.500,271.414 47.500 C 270.529 47.500,270.521 47.496,270.469 46.958 C 270.421 46.464,270.362 46.412,269.792 46.365 C 269.271 46.322,269.167 46.251,269.167 45.940 C 269.167 45.252,268.889 45.167,266.633 45.167 C 264.641 45.167,264.500 45.145,264.500 44.847 C 264.500 44.020,264.441 44.000,262.001 44.000 L 259.704 44.000 259.598 43.439 C 259.474 42.775,259.025 42.667,256.393 42.667 C 254.877 42.667,254.833 42.656,254.833 42.283 C 254.833 41.795,254.538 41.500,254.050 41.500 C 253.687 41.500,253.667 41.440,253.667 40.333 L 253.667 39.167 256.656 39.167 L 259.645 39.167 259.697 39.625 C 259.738 39.977,259.874 40.120,260.284 40.241 C 260.714 40.367,260.827 40.496,260.867 40.907 C 260.910 41.345,260.991 41.424,261.449 41.468 C 261.912 41.513,261.987 41.588,262.032 42.051 L 262.083 42.583 268.490 42.627 C 275.601 42.675,275.160 42.757,275.286 41.369 C 275.428 39.800,275.255 39.167,274.684 39.167 L 274.216 39.167 274.124 37.187 C 274.025 35.022,273.889 34.592,273.254 34.433 C 272.905 34.345,272.833 34.228,272.833 33.747 C 272.833 33.195,272.805 33.167,272.250 33.167 C 271.698 33.167,271.667 33.136,271.667 32.601 C 271.667 32.026,271.457 31.833,270.830 31.833 C 270.603 31.833,270.507 31.689,270.469 31.292 C 270.423 30.817,270.351 30.744,269.881 30.698 C 269.416 30.653,269.330 30.570,269.237 30.073 L 269.130 29.500 267.981 29.500 L 266.833 29.500 266.833 28.917 L 266.833 28.333 265.011 28.333 L 263.188 28.333 263.136 27.792 L 263.083 27.250 261.333 27.145 C 259.503 27.036,254.805 27.025,252.672 27.124 M186.167 48.750 L 186.167 70.333 192.750 70.333 L 199.333 70.333 199.333 48.750 L 199.333 27.167 192.750 27.167 L 186.167 27.167 186.167 48.750 M279.000 48.748 L 279.000 70.333 285.583 70.333 L 292.167 70.333 292.186 65.792 C 292.197 63.294,292.239 61.377,292.280 61.532 C 292.321 61.688,292.553 61.836,292.802 61.865 C 293.173 61.908,293.264 62.016,293.333 62.500 C 293.406 63.010,293.482 63.090,293.939 63.134 C 294.512 63.190,294.667 63.555,294.667 64.854 C 294.667 65.480,294.685 65.500,295.242 65.500 L 295.818 65.500 295.867 66.625 C 295.916 67.735,295.924 67.752,296.458 67.909 C 296.928 68.048,297.000 68.142,297.000 68.618 C 297.000 69.134,297.035 69.167,297.583 69.167 C 298.139 69.167,298.167 69.194,298.167 69.750 L 298.167 70.333 312.667 70.333 L 327.167 70.333 327.167 54.170 L 327.167 38.006 326.792 37.915 C 326.585 37.865,323.604 37.845,320.167 37.870 L 313.917 37.917 313.874 53.008 L 313.832 68.100 313.249 68.032 C 312.692 67.966,312.666 67.934,312.650 67.273 C 312.623 66.130,312.457 65.756,311.952 65.697 C 311.584 65.654,311.500 65.560,311.500 65.189 C 311.500 64.609,311.223 64.333,310.641 64.333 C 310.190 64.333,310.181 64.313,310.133 63.208 L 310.083 62.083 309.542 62.031 C 309.046 61.983,309.000 61.930,309.000 61.406 C 309.000 60.864,308.969 60.833,308.424 60.833 L 307.848 60.833 307.799 59.625 L 307.750 58.417 307.229 58.366 C 306.721 58.317,306.705 58.288,306.591 57.285 C 306.469 56.208,306.331 56.007,305.708 56.003 C 305.391 56.000,305.333 55.910,305.333 55.417 C 305.333 54.861,305.306 54.833,304.750 54.833 L 304.167 54.833 304.167 53.684 C 304.167 52.485,304.072 52.333,303.320 52.333 C 302.676 52.333,302.887 51.199,303.542 51.136 C 304.018 51.090,304.090 51.018,304.136 50.542 C 304.174 50.144,304.270 50.000,304.497 50.000 C 305.123 50.000,305.333 49.807,305.333 49.232 C 305.333 48.698,305.366 48.667,305.909 48.667 C 306.435 48.667,306.494 48.616,306.594 48.084 C 306.670 47.683,306.839 47.435,307.136 47.292 C 307.589 47.074,307.789 46.612,307.817 45.719 C 307.832 45.246,307.892 45.182,308.375 45.136 C 308.870 45.088,308.921 45.029,308.968 44.458 C 309.017 43.867,309.051 43.833,309.593 43.833 C 310.135 43.833,310.167 43.802,310.167 43.261 C 310.167 42.736,310.212 42.683,310.708 42.636 C 311.244 42.584,311.252 42.570,311.393 41.468 C 311.534 40.374,311.547 40.351,312.060 40.301 L 312.583 40.250 312.632 39.136 L 312.681 38.023 311.966 37.916 C 311.572 37.857,308.116 37.833,304.285 37.863 C 296.402 37.924,297.007 37.798,297.003 39.375 L 297.000 40.333 296.417 40.333 C 295.861 40.333,295.833 40.361,295.833 40.917 C 295.833 41.381,295.768 41.500,295.514 41.500 C 294.857 41.500,294.667 41.687,294.667 42.330 C 294.667 43.611,294.510 43.977,293.939 44.033 C 293.484 44.077,293.410 44.153,293.364 44.625 C 293.319 45.101,293.253 45.167,292.823 45.167 C 292.554 45.167,292.316 45.260,292.294 45.375 C 292.272 45.490,292.216 41.458,292.169 36.417 L 292.083 27.250 285.542 27.206 L 279.000 27.163 279.000 48.748 M107.833 49.332 L 107.833 70.333 115.083 70.333 L 122.333 70.333 122.333 62.500 L 122.333 54.667 128.333 54.667 L 134.333 54.667 134.333 62.502 L 134.333 70.337 141.542 70.293 L 148.750 70.250 148.750 49.333 L 148.750 28.417 141.542 28.373 L 134.333 28.330 134.333 36.165 L 134.333 44.000 128.335 44.000 L 122.337 44.000 122.293 36.208 L 122.250 28.417 115.042 28.373 L 107.833 28.330 107.833 49.332 M161.386 36.783 C 161.145 36.830,160.986 37.020,160.914 37.343 C 160.816 37.792,160.747 37.833,160.095 37.833 C 159.703 37.833,158.921 37.882,158.358 37.940 L 157.333 38.047 157.333 38.599 L 157.333 39.151 156.208 39.201 C 155.098 39.249,155.081 39.257,154.924 39.792 C 154.810 40.179,154.665 40.333,154.416 40.333 C 153.961 40.333,153.667 40.639,153.667 41.112 C 153.667 41.399,153.536 41.524,153.125 41.630 C 152.589 41.769,152.583 41.781,152.534 42.885 L 152.485 44.000 151.988 44.000 C 151.276 44.000,151.167 44.442,151.167 47.325 C 151.167 50.287,150.747 49.995,154.995 49.998 C 157.830 50.000,158.045 50.021,157.704 50.259 C 157.500 50.402,157.333 50.661,157.333 50.835 C 157.333 51.113,157.184 51.158,156.125 51.201 L 154.917 51.250 154.864 51.792 C 154.813 52.329,154.805 52.333,153.920 52.333 C 152.687 52.333,152.500 52.433,152.500 53.091 C 152.500 53.595,152.451 53.650,151.958 53.698 C 151.423 53.749,151.415 53.764,151.265 54.875 L 151.114 56.000 150.557 56.000 L 150.000 56.000 150.000 60.750 L 150.000 65.500 150.583 65.500 L 151.167 65.500 151.167 66.428 C 151.167 67.612,151.371 68.000,151.995 68.000 C 152.419 68.000,152.485 68.067,152.531 68.542 C 152.577 69.018,152.649 69.090,153.124 69.136 C 153.542 69.176,153.690 69.283,153.771 69.606 C 153.911 70.164,154.429 70.333,156.000 70.333 L 157.312 70.333 157.364 70.875 L 157.417 71.417 159.125 71.500 C 160.065 71.546,161.598 71.546,162.532 71.500 L 164.230 71.417 164.370 70.875 L 164.510 70.333 166.055 70.333 C 167.700 70.333,168.000 70.213,168.000 69.550 C 168.000 69.225,168.086 69.167,168.571 69.167 C 168.975 69.167,169.165 69.081,169.218 68.875 C 169.260 68.715,169.303 68.977,169.314 69.458 L 169.333 70.333 175.917 70.333 L 182.500 70.333 182.500 57.167 L 182.500 44.000 181.917 44.000 L 181.333 44.000 181.333 42.950 C 181.333 41.829,181.160 41.500,180.569 41.500 C 180.284 41.500,180.180 41.372,180.094 40.917 C 179.995 40.386,179.934 40.333,179.420 40.333 C 178.904 40.333,178.850 40.286,178.802 39.792 L 178.750 39.250 177.625 39.201 L 176.500 39.151 176.500 38.598 C 176.500 37.968,176.040 37.833,173.893 37.833 C 172.835 37.833,172.833 37.832,172.833 37.351 C 172.833 37.065,172.726 36.828,172.570 36.768 C 172.278 36.656,161.967 36.670,161.386 36.783 M213.667 36.789 C 213.115 36.890,212.833 37.138,212.833 37.520 C 212.833 37.771,212.708 37.834,212.208 37.835 C 210.714 37.840,210.333 37.994,210.333 38.598 L 210.333 39.152 209.125 39.201 L 207.917 39.250 207.864 39.792 C 207.817 40.288,207.764 40.333,207.239 40.333 C 206.696 40.333,206.667 40.363,206.667 40.917 C 206.667 41.472,206.639 41.500,206.083 41.500 C 205.531 41.500,205.500 41.530,205.500 42.065 C 205.500 42.577,205.446 42.640,204.923 42.738 C 204.435 42.829,204.330 42.930,204.244 43.391 C 204.170 43.786,204.014 43.985,203.680 44.111 C 203.163 44.306,203.005 44.863,203.002 46.507 C 203.000 47.405,202.985 47.436,202.458 47.591 L 201.917 47.750 201.917 54.167 L 201.917 60.583 202.458 60.636 L 203.000 60.688 203.000 62.188 C 203.000 63.882,203.159 64.333,203.756 64.333 C 204.050 64.333,204.167 64.424,204.167 64.653 C 204.167 65.287,204.357 65.500,204.924 65.500 C 205.446 65.500,205.483 65.538,205.532 66.125 C 205.579 66.693,205.632 66.755,206.115 66.801 C 206.578 66.846,206.654 66.922,206.699 67.385 C 206.743 67.848,206.819 67.923,207.282 67.968 C 207.745 68.013,207.820 68.088,207.865 68.551 C 207.912 69.031,207.976 69.088,208.523 69.134 C 209.037 69.177,209.143 69.256,209.222 69.654 C 209.337 70.226,209.654 70.328,211.341 70.331 L 212.598 70.333 212.757 70.875 L 212.917 71.417 214.333 71.525 C 216.136 71.663,221.765 71.662,223.833 71.523 C 225.412 71.417,225.417 71.415,225.667 70.884 C 225.909 70.368,225.954 70.350,227.083 70.301 L 228.250 70.250 228.302 69.716 L 228.353 69.181 229.468 69.132 L 230.583 69.083 230.636 68.542 C 230.683 68.046,230.736 68.000,231.261 68.000 C 231.714 68.000,231.833 67.933,231.833 67.680 C 231.833 67.146,232.020 66.833,232.338 66.833 C 232.953 66.833,233.167 66.638,233.167 66.076 C 233.167 65.572,233.216 65.516,233.708 65.469 L 234.250 65.417 234.299 64.302 L 234.348 63.187 234.882 63.135 L 235.417 63.083 235.466 61.875 C 235.509 60.816,235.554 60.667,235.831 60.667 C 236.618 60.667,236.667 60.304,236.667 54.390 L 236.667 48.854 236.125 48.802 L 235.583 48.750 235.500 47.000 L 235.417 45.250 234.875 45.198 C 234.338 45.146,234.333 45.138,234.333 44.253 C 234.333 43.056,234.226 42.833,233.649 42.833 C 233.250 42.833,233.167 42.764,233.167 42.430 C 233.167 41.707,232.996 41.500,232.399 41.500 C 231.864 41.500,231.833 41.469,231.833 40.917 C 231.833 40.361,231.806 40.333,231.250 40.333 C 230.752 40.333,230.667 40.277,230.667 39.950 C 230.667 39.351,230.345 39.167,229.300 39.167 C 228.341 39.167,228.333 39.163,228.333 38.677 C 228.333 38.031,228.311 38.022,226.353 37.894 L 224.667 37.783 224.667 37.326 C 224.667 37.063,224.555 36.826,224.403 36.768 C 224.103 36.653,214.303 36.672,213.667 36.789 M348.250 36.812 C 347.868 36.893,347.738 37.022,347.699 37.357 C 347.652 37.766,347.570 37.807,346.538 37.940 C 345.473 38.077,345.422 38.105,345.273 38.625 C 345.145 39.074,345.037 39.167,344.643 39.167 C 344.381 39.167,344.155 39.260,344.140 39.375 C 344.126 39.490,344.070 39.208,344.015 38.750 L 343.917 37.917 337.667 37.870 C 334.229 37.845,331.248 37.865,331.042 37.915 L 330.667 38.006 330.667 54.170 L 330.667 70.333 337.332 70.333 L 343.997 70.333 344.040 60.711 C 344.083 51.235,344.088 51.087,344.417 51.030 C 344.946 50.938,345.167 50.503,345.167 49.551 L 345.167 48.667 346.989 48.667 L 348.812 48.667 348.864 49.208 C 348.910 49.685,348.982 49.756,349.458 49.802 L 350.000 49.854 350.003 59.886 C 350.004 65.403,350.065 70.011,350.139 70.127 C 350.243 70.292,351.797 70.328,357.344 70.293 L 364.417 70.250 364.459 58.139 C 364.504 45.450,364.489 45.167,363.781 45.167 C 363.402 45.167,363.381 45.101,363.235 43.458 L 363.083 41.750 362.542 41.591 C 362.072 41.452,362.000 41.358,362.000 40.882 C 362.000 40.366,361.965 40.333,361.417 40.333 C 360.861 40.333,360.833 40.306,360.833 39.750 C 360.833 39.194,360.806 39.167,360.250 39.167 C 359.757 39.167,359.666 39.109,359.664 38.792 C 359.660 38.172,359.467 38.050,358.310 37.928 C 357.270 37.818,357.198 37.783,357.111 37.346 C 357.029 36.938,356.923 36.868,356.236 36.774 C 355.253 36.639,348.923 36.669,348.250 36.812 M375.625 36.847 C 375.465 36.940,375.333 37.189,375.333 37.400 C 375.333 37.767,375.263 37.788,373.647 37.894 C 371.692 38.022,371.667 38.032,371.667 38.669 C 371.667 39.149,371.660 39.152,370.542 39.201 L 369.417 39.250 369.365 39.782 C 369.320 40.245,369.245 40.320,368.782 40.365 C 368.320 40.410,368.243 40.486,368.199 40.942 C 368.156 41.389,368.067 41.482,367.594 41.570 C 366.990 41.684,366.833 42.051,366.833 43.354 C 366.833 43.934,366.790 44.000,366.413 44.000 C 365.732 44.000,365.637 44.562,365.697 48.266 C 365.753 51.779,365.834 52.167,366.520 52.167 C 366.762 52.167,366.834 52.290,366.834 52.708 C 366.836 53.808,367.144 54.504,367.676 54.610 C 368.098 54.695,368.167 54.784,368.167 55.249 C 368.167 55.828,368.561 55.993,369.948 55.998 C 370.425 56.000,370.484 56.055,370.531 56.542 L 370.583 57.083 371.708 57.133 C 372.446 57.165,372.834 57.251,372.836 57.383 C 372.837 57.493,372.883 57.751,372.938 57.955 L 373.037 58.327 369.394 58.372 L 365.750 58.417 365.704 61.375 L 365.659 64.333 366.246 64.333 L 366.833 64.333 366.833 65.236 C 366.833 66.440,366.932 66.639,367.590 66.762 C 368.067 66.852,368.155 66.943,368.199 67.392 C 368.243 67.847,368.320 67.923,368.782 67.968 C 369.245 68.013,369.320 68.088,369.365 68.551 L 369.417 69.083 370.542 69.133 C 371.512 69.175,371.667 69.225,371.667 69.494 C 371.667 70.286,371.776 70.333,373.591 70.333 L 375.312 70.333 375.364 70.875 L 375.417 71.417 376.750 71.549 C 377.483 71.622,380.305 71.658,383.020 71.629 C 388.307 71.572,388.500 71.541,388.500 70.730 C 388.500 70.341,388.530 70.333,390.042 70.331 C 391.755 70.328,391.926 70.271,392.083 69.645 C 392.180 69.258,392.293 69.200,393.134 69.113 C 394.105 69.013,394.500 68.731,394.500 68.135 C 394.500 67.925,394.626 67.833,394.911 67.833 C 395.416 67.833,395.652 67.427,395.782 66.329 C 395.877 65.522,395.894 65.500,396.430 65.500 C 396.944 65.500,396.983 65.460,397.032 64.882 C 397.073 64.383,397.162 64.245,397.491 64.168 C 398.097 64.026,398.179 63.432,398.128 59.547 L 398.083 56.083 397.549 56.032 L 397.015 55.980 396.966 54.871 C 396.918 53.784,396.906 53.758,396.390 53.611 C 395.968 53.490,395.842 53.348,395.757 52.897 L 395.652 52.333 394.492 52.333 L 393.333 52.333 393.333 51.750 L 393.333 51.167 392.186 51.167 C 391.137 51.167,391.030 51.135,390.938 50.792 C 390.724 49.991,390.694 50.001,393.375 49.980 C 394.773 49.969,396.142 49.912,396.417 49.854 L 396.917 49.747 396.917 46.915 L 396.917 44.083 396.375 44.031 C 395.845 43.980,395.833 43.961,395.833 43.167 C 395.833 41.946,395.612 41.500,395.004 41.500 C 394.539 41.500,394.500 41.455,394.500 40.917 C 394.500 40.363,394.471 40.333,393.927 40.333 C 393.403 40.333,393.350 40.288,393.302 39.792 L 393.250 39.250 392.135 39.201 L 391.020 39.152 390.968 38.618 C 390.907 37.983,390.602 37.883,388.625 37.853 L 387.333 37.833 387.333 37.351 C 387.333 37.065,387.226 36.828,387.070 36.768 C 386.606 36.590,375.940 36.663,375.625 36.847 M381.554 46.811 C 381.654 47.310,382.104 47.500,383.188 47.500 C 383.459 47.500,383.668 47.591,383.669 47.708 C 383.670 47.823,383.716 48.085,383.772 48.292 C 383.871 48.664,383.859 48.667,382.038 48.667 L 380.204 48.667 380.124 48.125 C 379.938 46.863,380.147 46.333,380.834 46.333 C 381.388 46.333,381.469 46.387,381.554 46.811 M168.066 47.764 C 168.121 47.909,168.167 48.471,168.167 49.014 L 168.167 50.000 165.458 49.987 C 163.969 49.980,162.844 49.936,162.958 49.890 C 163.073 49.843,163.167 49.554,163.167 49.246 C 163.167 48.720,163.204 48.684,163.792 48.635 C 164.362 48.588,164.421 48.536,164.469 48.042 L 164.521 47.500 166.243 47.500 C 167.659 47.500,167.982 47.547,168.066 47.764 M219.833 47.820 C 219.833 48.457,220.023 48.667,220.601 48.667 C 221.133 48.667,221.167 48.700,221.167 49.232 C 221.167 49.810,221.376 50.000,222.014 50.000 C 222.320 50.000,222.333 50.170,222.333 54.167 L 222.333 58.333 221.760 58.333 C 221.218 58.333,221.184 58.367,221.135 58.958 C 221.088 59.527,221.035 59.588,220.547 59.635 C 220.083 59.680,219.997 59.764,219.904 60.260 C 219.776 60.942,218.667 61.169,218.667 60.514 C 218.667 59.915,218.472 59.667,218.001 59.667 C 217.602 59.667,217.522 59.584,217.427 59.077 C 217.337 58.601,217.226 58.470,216.841 58.393 L 216.367 58.298 216.266 55.774 C 216.111 51.904,216.300 49.933,216.833 49.858 C 217.314 49.791,217.494 49.570,217.497 49.042 C 217.500 48.740,217.594 48.667,217.982 48.667 C 218.472 48.667,218.667 48.426,218.667 47.820 C 218.667 47.565,218.786 47.500,219.250 47.500 C 219.714 47.500,219.833 47.565,219.833 47.820 M168.562 58.497 C 168.271 58.615,168.187 58.836,168.091 59.737 L 167.973 60.833 165.653 60.833 C 164.377 60.833,163.333 60.768,163.333 60.688 C 163.333 60.607,163.288 60.313,163.232 60.033 C 163.136 59.554,163.163 59.521,163.680 59.470 C 164.144 59.425,164.253 59.331,164.370 58.875 L 164.510 58.333 166.713 58.344 C 168.113 58.351,168.788 58.407,168.562 58.497 M382.594 60.083 C 382.688 60.580,382.771 60.667,383.157 60.667 C 383.747 60.667,383.780 60.713,383.699 61.412 L 383.630 62.000 382.516 62.000 C 381.403 62.000,381.402 62.000,381.243 61.458 C 381.085 60.924,381.069 60.916,379.958 60.867 L 378.833 60.818 378.833 60.159 L 378.833 59.500 380.659 59.500 L 382.485 59.500 382.594 60.083 " stroke="none" fill="#fcfcfc" fill-rule="evenodd"></path><path id="path1" d="M14.300 39.339 C 14.109 39.453,13.979 39.829,13.904 40.491 C 13.805 41.372,13.748 41.485,13.357 41.584 C 12.764 41.732,12.672 41.927,12.669 43.042 L 12.667 44.000 12.083 44.000 L 11.500 44.000 11.500 45.167 L 11.500 46.333 10.917 46.333 C 10.370 46.333,10.333 46.367,10.331 46.875 C 10.327 48.232,10.163 48.630,9.564 48.743 C 9.052 48.839,9.000 48.902,9.000 49.424 C 9.000 49.876,8.933 50.000,8.687 50.000 C 8.209 50.000,7.988 50.387,7.882 51.405 C 7.799 52.216,7.741 52.333,7.427 52.333 C 6.840 52.333,6.667 52.665,6.667 53.783 L 6.667 54.833 6.083 54.833 L 5.500 54.833 5.500 55.990 L 5.500 57.147 4.875 57.198 C 4.286 57.247,4.247 57.285,4.199 57.865 C 4.155 58.393,4.085 58.487,3.699 58.532 C 3.279 58.580,3.240 58.655,3.099 59.708 C 2.965 60.700,2.905 60.833,2.590 60.833 C 2.020 60.833,1.833 61.167,1.833 62.189 L 1.833 63.146 1.292 63.198 L 0.750 63.250 0.701 64.458 C 0.658 65.530,0.615 65.667,0.326 65.667 C 0.023 65.667,0.000 65.791,0.000 67.417 L 0.000 69.167 16.482 69.167 C 34.837 69.167,33.167 69.283,33.167 68.000 C 33.167 67.072,33.029 66.833,32.495 66.833 C 32.039 66.833,32.023 66.803,31.908 65.708 C 31.784 64.533,31.662 64.340,31.042 64.336 C 30.696 64.334,30.667 64.257,30.667 63.367 C 30.667 62.322,30.482 62.000,29.883 62.000 C 29.556 62.000,29.500 61.914,29.500 61.417 C 29.500 60.861,29.472 60.833,28.917 60.833 L 28.333 60.833 28.333 59.783 C 28.333 58.653,28.160 58.333,27.550 58.333 C 27.204 58.333,27.166 58.256,27.164 57.542 C 27.161 56.236,27.043 56.000,26.397 56.000 L 25.833 56.000 25.833 54.833 C 25.833 53.794,25.798 53.667,25.514 53.667 C 24.812 53.667,24.667 53.492,24.667 52.649 C 24.667 51.799,24.275 51.167,23.750 51.167 C 23.575 51.167,23.500 50.991,23.500 50.583 C 23.500 50.028,23.472 50.000,22.917 50.000 L 22.333 50.000 22.333 48.950 C 22.333 47.784,22.164 47.500,21.467 47.500 C 21.000 47.500,21.000 47.500,21.000 46.333 L 21.000 45.167 20.417 45.167 L 19.833 45.167 19.833 44.322 C 19.833 43.277,19.611 42.833,19.088 42.833 C 18.745 42.833,18.679 42.743,18.635 42.208 C 18.588 41.640,18.535 41.579,18.049 41.532 L 17.515 41.480 17.466 40.365 L 17.417 39.250 16.000 39.210 C 15.221 39.188,14.456 39.246,14.300 39.339 " stroke="none" fill="#fc5c04" fill-rule="evenodd"></path></g></svg>