<?xml version="1.0" encoding="UTF-8"?>
<svg xmlns="http://www.w3.org/2000/svg" xmlns:xlink="http://www.w3.org/1999/xlink" width="150px" height="37px" viewBox="0 0 149 37" version="1.1">
<g id="surface1">
<path style=" stroke:none;fill-rule:nonzero;fill:rgb(99.607843%,99.607843%,99.607843%);fill-opacity:1;" d="M 13.914062 0 C 15.25 -0.152344 15.25 -0.152344 16.945312 -0.132812 C 17.242188 -0.128906 17.539062 -0.128906 17.847656 -0.125 C 18.796875 -0.117188 19.75 -0.101562 20.699219 -0.0859375 C 21.34375 -0.078125 21.988281 -0.0703125 22.632812 -0.0664062 C 24.214844 -0.0507812 25.796875 -0.0273438 27.375 0 C 25.28125 4.308594 23.054688 8.496094 20.644531 12.632812 C 20.933594 12.621094 21.222656 12.605469 21.523438 12.589844 C 22.835938 12.535156 24.152344 12.5 25.46875 12.464844 C 25.925781 12.441406 26.382812 12.417969 26.851562 12.394531 C 30.203125 12.328125 30.203125 12.328125 31.757812 13.828125 C 32.539062 15.957031 32.195312 17.328125 31.257812 19.367188 C 31.003906 19.820312 30.75 20.273438 30.488281 20.738281 C 30.207031 21.246094 29.925781 21.753906 29.636719 22.277344 C 29.332031 22.8125 29.027344 23.351562 28.722656 23.886719 C 28.414062 24.433594 28.109375 24.980469 27.800781 25.53125 C 26.917969 27.101562 26.027344 28.667969 25.132812 30.230469 C 24.902344 30.636719 24.671875 31.042969 24.433594 31.460938 C 23.878906 32.4375 23.316406 33.40625 22.75 34.378906 C 22.589844 34.652344 22.429688 34.929688 22.265625 35.210938 C 21.902344 35.824219 21.5 36.414062 21.09375 37 C 20.796875 37 20.5 37 20.195312 37 C 19.203125 35.332031 18.226562 33.65625 17.25 31.980469 C 16.96875 31.507812 16.6875 31.035156 16.394531 30.550781 C 16.132812 30.089844 15.867188 29.628906 15.59375 29.15625 C 15.222656 28.527344 15.222656 28.527344 14.847656 27.882812 C 14.253906 26.339844 14.390625 25.496094 14.808594 23.914062 C 15.441406 22.566406 15.441406 22.566406 16.183594 21.265625 C 16.429688 20.828125 16.675781 20.390625 16.929688 19.941406 C 17.117188 19.613281 17.308594 19.289062 17.503906 18.953125 C 16.984375 18.976562 16.464844 19 15.929688 19.027344 C 10.527344 19.113281 10.527344 19.113281 8.75 17.445312 C 7.515625 15.21875 6.972656 13.769531 7.628906 11.28125 C 8 10.484375 8.398438 9.703125 8.820312 8.9375 C 9.058594 8.5 9.292969 8.066406 9.539062 7.621094 C 9.789062 7.171875 10.039062 6.722656 10.292969 6.261719 C 10.542969 5.808594 10.789062 5.355469 11.042969 4.890625 C 11.960938 3.226562 12.863281 1.585938 13.914062 0 Z M 13.914062 0 "/>
<path style=" stroke:none;fill-rule:nonzero;fill:rgb(100%,100%,100%);fill-opacity:1;" d="M 40.390625 10.828125 C 42.019531 10.828125 43.648438 10.828125 45.328125 10.828125 C 45.328125 12.765625 45.328125 14.699219 45.328125 16.695312 C 46.957031 16.695312 48.585938 16.695312 50.265625 16.695312 C 50.265625 14.757812 50.265625 12.824219 50.265625 10.828125 C 51.894531 10.828125 53.523438 10.828125 55.203125 10.828125 C 55.203125 15.890625 55.203125 20.953125 55.203125 26.171875 C 53.574219 26.171875 51.945312 26.171875 50.265625 26.171875 C 50.265625 24.234375 50.265625 22.300781 50.265625 20.304688 C 48.636719 20.304688 47.007812 20.304688 45.328125 20.304688 C 45.328125 22.242188 45.328125 24.175781 45.328125 26.171875 C 43.699219 26.171875 42.070312 26.171875 40.390625 26.171875 C 40.390625 21.109375 40.390625 16.046875 40.390625 10.828125 Z M 40.390625 10.828125 "/>
<path style=" stroke:none;fill-rule:nonzero;fill:rgb(100%,100%,100%);fill-opacity:1;" d="M 99.351562 10.96875 C 101.257812 12.203125 101.257812 12.203125 101.875 13.085938 C 102.183594 14.523438 102.183594 14.523438 102.324219 15.792969 C 101.597656 15.816406 100.867188 15.835938 100.136719 15.847656 C 99.527344 15.863281 99.527344 15.863281 98.90625 15.878906 C 97.835938 15.792969 97.835938 15.792969 96.941406 14.890625 C 96.046875 14.710938 95.148438 14.558594 94.246094 14.4375 C 94.394531 14.886719 94.542969 15.332031 94.695312 15.792969 C 95.875 16.175781 95.875 16.175781 97.277344 16.414062 C 98.988281 16.816406 100.050781 17.128906 101.539062 18.105469 C 102.636719 19.914062 102.726562 21.394531 102.324219 23.464844 C 101.261719 25.324219 100.273438 25.957031 98.285156 26.621094 C 95.453125 26.988281 92.945312 26.8125 90.445312 25.363281 C 89.4375 24.5625 89.117188 23.8125 88.863281 22.5625 C 88.863281 22.113281 88.863281 21.667969 88.863281 21.207031 C 93.351562 20.96875 93.351562 20.96875 95.59375 22.5625 C 96.1875 22.5625 96.777344 22.5625 97.386719 22.5625 C 97.242188 22.113281 97.09375 21.667969 96.941406 21.207031 C 95.757812 20.824219 95.757812 20.824219 94.359375 20.585938 C 92.644531 20.183594 91.582031 19.871094 90.09375 18.894531 C 89.003906 17.089844 88.84375 15.597656 89.308594 13.535156 C 91.796875 10.175781 95.566406 9.488281 99.351562 10.96875 Z M 99.351562 10.96875 "/>
<path style=" stroke:none;fill-rule:nonzero;fill:rgb(99.607843%,99.607843%,99.607843%);fill-opacity:1;" d="M 104.121094 10.378906 C 105.601562 10.378906 107.082031 10.378906 108.609375 10.378906 C 108.757812 12.613281 108.90625 14.84375 109.058594 17.144531 C 109.648438 16.253906 110.242188 15.359375 110.851562 14.4375 C 112.207031 14.175781 112.207031 14.175781 113.65625 14.269531 C 114.382812 14.304688 114.382812 14.304688 115.121094 14.34375 C 115.675781 14.390625 115.675781 14.390625 116.238281 14.4375 C 114.378906 17.855469 114.378906 17.855469 113.097656 18.953125 C 113.738281 20.660156 114.515625 22.230469 115.394531 23.828125 C 115.636719 24.269531 115.878906 24.710938 116.128906 25.164062 C 116.3125 25.496094 116.496094 25.828125 116.6875 26.171875 C 111.890625 26.65625 111.890625 26.65625 110.445312 25.46875 C 109.84375 24.589844 109.84375 24.589844 109.058594 23.011719 C 108.910156 24.054688 108.761719 25.097656 108.609375 26.171875 C 107.128906 26.171875 105.644531 26.171875 104.121094 26.171875 C 104.121094 20.960938 104.121094 15.746094 104.121094 10.378906 Z M 104.121094 10.378906 "/>
<path style=" stroke:none;fill-rule:nonzero;fill:rgb(100%,100%,100%);fill-opacity:1;" d="M 65.71875 14.578125 C 66.871094 15.339844 66.871094 15.339844 67.769531 16.695312 C 67.871094 17.71875 67.871094 17.71875 67.855469 18.898438 C 67.851562 19.324219 67.851562 19.746094 67.847656 20.183594 C 67.839844 20.621094 67.832031 21.0625 67.824219 21.515625 C 67.820312 21.964844 67.816406 22.410156 67.8125 22.867188 C 67.800781 23.96875 67.785156 25.070312 67.769531 26.171875 C 65.972656 26.171875 64.175781 26.171875 62.382812 26.171875 C 61.816406 26.273438 61.253906 26.375 60.671875 26.480469 C 59.253906 26.667969 58.835938 26.640625 57.472656 26.03125 C 56.546875 25.269531 56.546875 25.269531 56.097656 24.367188 C 55.839844 21.539062 55.839844 21.539062 56.941406 20.136719 C 58.355469 19.046875 59.113281 18.898438 60.867188 18.921875 C 61.417969 18.929688 61.417969 18.929688 61.980469 18.933594 C 62.402344 18.941406 62.402344 18.941406 62.832031 18.953125 C 62.832031 18.503906 62.832031 18.058594 62.832031 17.597656 C 62.542969 17.746094 62.257812 17.894531 61.960938 18.046875 C 60.132812 18.648438 58.453125 18.574219 56.546875 18.5 C 56.769531 16.015625 56.769531 16.015625 57.839844 14.976562 C 60.359375 13.558594 63.0625 13.558594 65.71875 14.578125 Z M 61.035156 21.660156 C 60.886719 22.105469 60.738281 22.550781 60.585938 23.011719 C 61.328125 23.011719 62.070312 23.011719 62.832031 23.011719 C 62.980469 22.566406 63.128906 22.117188 63.28125 21.660156 C 62.539062 21.660156 61.800781 21.660156 61.035156 21.660156 Z M 61.035156 21.660156 "/>
<path style=" stroke:none;fill-rule:nonzero;fill:rgb(99.607843%,99.607843%,99.607843%);fill-opacity:1;" d="M 132.84375 13.988281 C 134.363281 14.953125 134.964844 15.421875 135.535156 17.144531 C 135.574219 17.847656 135.585938 18.550781 135.578125 19.253906 C 135.578125 19.65625 135.578125 20.058594 135.574219 20.472656 C 135.570312 20.890625 135.566406 21.3125 135.5625 21.742188 C 135.5625 22.167969 135.558594 22.589844 135.558594 23.027344 C 135.554688 24.078125 135.542969 25.125 135.535156 26.171875 C 133.90625 26.171875 132.277344 26.171875 130.597656 26.171875 C 130.453125 23.640625 130.304688 21.109375 130.152344 18.5 C 129.558594 18.351562 128.964844 18.203125 128.355469 18.046875 C 128.207031 20.730469 128.058594 23.410156 127.90625 26.171875 C 126.425781 26.171875 124.945312 26.171875 123.417969 26.171875 C 123.417969 22.300781 123.417969 18.429688 123.417969 14.4375 C 125.214844 14.4375 127.007812 14.4375 128.804688 14.4375 C 130.195312 13.738281 131.308594 13.855469 132.84375 13.988281 Z M 132.84375 13.988281 "/>
<path style=" stroke:none;fill-rule:nonzero;fill:rgb(99.607843%,99.607843%,99.607843%);fill-opacity:1;" d="M 83.476562 13.988281 C 85.363281 14.691406 86.484375 15.398438 87.515625 17.144531 C 88.125 18.984375 88.199219 20.640625 87.964844 22.5625 C 86.980469 24.539062 85.988281 25.808594 83.925781 26.621094 C 81.835938 26.871094 80.054688 26.898438 78.117188 26.03125 C 75.957031 24.253906 75.957031 24.253906 75.398438 22.5625 C 75.21875 20.527344 75.15625 18.667969 75.902344 16.75 C 78.136719 14.203125 80.203125 13.5 83.476562 13.988281 Z M 81.230469 17.597656 C 80.253906 18.390625 80.253906 18.390625 80.246094 19.378906 C 80.261719 19.863281 80.261719 19.863281 80.277344 20.359375 C 80.296875 20.9375 80.316406 21.515625 80.335938 22.109375 C 81.222656 22.554688 81.222656 22.554688 82.128906 23.011719 C 83.109375 22.21875 83.109375 22.21875 83.113281 21.230469 C 83.105469 20.90625 83.09375 20.582031 83.082031 20.25 C 83.066406 19.671875 83.046875 19.09375 83.027344 18.5 C 82.433594 18.203125 81.84375 17.90625 81.230469 17.597656 Z M 81.230469 17.597656 "/>
<path style=" stroke:none;fill-rule:nonzero;fill:rgb(99.607843%,99.607843%,99.607843%);fill-opacity:1;" d="M 145.605469 14.578125 C 146.757812 15.339844 146.757812 15.339844 147.652344 16.695312 C 147.652344 17.289062 147.652344 17.886719 147.652344 18.5 C 146.914062 18.648438 146.171875 18.796875 145.410156 18.953125 C 145.769531 19.15625 146.132812 19.359375 146.503906 19.570312 C 147.652344 20.304688 147.652344 20.304688 148.101562 21.207031 C 148.269531 22.476562 148.269531 22.476562 148.101562 23.914062 C 146.957031 25.3125 146.226562 26.046875 144.511719 26.621094 C 141.820312 26.863281 139.636719 26.835938 137.332031 25.269531 C 136.433594 23.914062 136.433594 23.914062 136.433594 22.109375 C 137.324219 21.960938 138.210938 21.8125 139.125 21.660156 C 138.765625 21.453125 138.40625 21.25 138.03125 21.039062 C 136.882812 20.304688 136.882812 20.304688 136.433594 19.402344 C 136.265625 18.132812 136.265625 18.132812 136.433594 16.695312 C 138.910156 13.667969 142.035156 13.207031 145.605469 14.578125 Z M 141.371094 17.144531 C 141.371094 17.59375 141.371094 18.039062 141.371094 18.5 C 142.109375 18.5 142.851562 18.5 143.613281 18.5 C 142.996094 17.804688 142.996094 17.804688 142.269531 17.144531 C 141.972656 17.144531 141.675781 17.144531 141.371094 17.144531 Z M 140.921875 22.109375 C 140.921875 22.40625 140.921875 22.707031 140.921875 23.011719 C 142.03125 23.234375 142.03125 23.234375 143.164062 23.464844 C 143.015625 23.015625 142.871094 22.570312 142.71875 22.109375 C 142.125 22.109375 141.53125 22.109375 140.921875 22.109375 Z M 140.921875 22.109375 "/>
<path style=" stroke:none;fill-rule:nonzero;fill:rgb(100%,100%,100%);fill-opacity:1;" d="M 69.5625 10.378906 C 71.042969 10.378906 72.523438 10.378906 74.050781 10.378906 C 74.050781 15.589844 74.050781 20.800781 74.050781 26.171875 C 72.570312 26.171875 71.089844 26.171875 69.5625 26.171875 C 69.5625 20.960938 69.5625 15.746094 69.5625 10.378906 Z M 69.5625 10.378906 "/>
<path style=" stroke:none;fill-rule:nonzero;fill:rgb(98.431373%,36.078431%,1.176471%);fill-opacity:1;" d="M 5.386719 14.890625 C 5.683594 14.890625 5.976562 14.890625 6.28125 14.890625 C 7.257812 16.609375 8.230469 18.332031 9.199219 20.050781 C 9.480469 20.542969 9.757812 21.035156 10.042969 21.539062 C 10.308594 22.007812 10.570312 22.472656 10.839844 22.953125 C 11.207031 23.601562 11.207031 23.601562 11.582031 24.265625 C 12.117188 25.269531 12.117188 25.269531 12.117188 25.71875 C 8.117188 25.71875 4.121094 25.71875 0 25.71875 C 0.601562 23.898438 1.0625 22.578125 1.96875 20.972656 C 2.265625 20.433594 2.265625 20.433594 2.570312 19.886719 C 2.882812 19.339844 2.882812 19.339844 3.199219 18.78125 C 3.511719 18.21875 3.511719 18.21875 3.835938 17.644531 C 4.347656 16.726562 4.867188 15.808594 5.386719 14.890625 Z M 5.386719 14.890625 "/>
<path style=" stroke:none;fill-rule:nonzero;fill:rgb(100%,100%,100%);fill-opacity:1;" d="M 117.136719 14.4375 C 118.617188 14.4375 120.097656 14.4375 121.625 14.4375 C 121.625 18.308594 121.625 22.183594 121.625 26.171875 C 120.140625 26.171875 118.660156 26.171875 117.136719 26.171875 C 117.136719 22.300781 117.136719 18.429688 117.136719 14.4375 Z M 117.136719 14.4375 "/>
<path style=" stroke:none;fill-rule:nonzero;fill:rgb(100%,100%,100%);fill-opacity:1;" d="M 118.03125 9.023438 C 119.660156 9.195312 119.660156 9.195312 121.175781 9.476562 C 121.773438 11.933594 121.773438 11.933594 121.117188 13.027344 C 120.011719 13.699219 119.304688 13.699219 118.03125 13.535156 C 117.136719 12.632812 117.136719 12.632812 117.023438 11.28125 C 117.136719 9.925781 117.136719 9.925781 118.03125 9.023438 Z M 118.03125 9.023438 "/>
</g>
</svg>
