<?xml version="1.0" encoding="UTF-8"?>
<svg xmlns="http://www.w3.org/2000/svg" xmlns:xlink="http://www.w3.org/1999/xlink" width="218px" height="54px" viewBox="0 0 218 54" version="1.1">
<g id="surface1">
<path style=" stroke:none;fill-rule:evenodd;fill:rgb(98.823529%,98.823529%,98.823529%);fill-opacity:1;" d="M 20.074219 0.214844 C 20.074219 0.785156 19.972656 0.988281 19.679688 1.019531 C 19.429688 1.042969 19.390625 1.082031 19.363281 1.339844 C 19.34375 1.566406 19.285156 1.648438 19.109375 1.691406 C 18.839844 1.761719 18.710938 2.046875 18.710938 2.589844 C 18.710938 2.972656 18.699219 2.988281 18.417969 3.015625 L 18.121094 3.046875 L 18.066406 4.273438 L 17.441406 4.273438 L 17.441406 4.910156 C 17.441406 5.546875 17.441406 5.546875 17.183594 5.546875 C 16.863281 5.546875 16.714844 5.695312 16.714844 6.015625 C 16.714844 6.210938 16.660156 6.28125 16.488281 6.324219 C 16.253906 6.382812 16.078125 6.789062 16.078125 7.277344 C 16.078125 7.460938 16.015625 7.527344 15.78125 7.59375 C 15.492188 7.679688 15.488281 7.691406 15.460938 8.296875 L 15.433594 8.910156 L 14.804688 8.910156 L 14.804688 10.183594 L 14.5 10.183594 C 14.148438 10.183594 14.082031 10.3125 14.082031 11.023438 C 14.078125 11.386719 14.050781 11.453125 13.90625 11.453125 C 13.558594 11.453125 13.445312 11.558594 13.445312 11.875 C 13.445312 12.140625 13.414062 12.179688 13.21875 12.179688 C 12.929688 12.179688 12.808594 12.421875 12.808594 12.988281 C 12.808594 13.433594 12.800781 13.441406 12.511719 13.472656 L 12.21875 13.5 L 12.164062 14.820312 L 11.535156 14.820312 L 11.535156 16.078125 L 11.195312 16.109375 C 10.882812 16.132812 10.851562 16.164062 10.824219 16.429688 C 10.804688 16.660156 10.746094 16.738281 10.570312 16.785156 C 10.230469 16.867188 10.171875 17.144531 10.171875 18.640625 L 10.171875 20 L 10.808594 20 L 10.808594 20.492188 C 10.808594 21.148438 10.863281 21.257812 11.222656 21.324219 L 11.527344 21.382812 L 11.554688 21.988281 L 11.582031 22.589844 L 11.875 22.621094 L 12.171875 22.648438 L 12.171875 23.167969 C 12.171875 23.730469 12.273438 23.910156 12.59375 23.910156 C 12.761719 23.910156 12.800781 23.964844 12.824219 24.25 C 12.851562 24.558594 12.878906 24.59375 13.144531 24.617188 L 13.433594 24.648438 L 13.460938 25.253906 L 13.488281 25.863281 L 13.777344 25.890625 C 14.066406 25.917969 14.070312 25.921875 14.128906 26.539062 L 14.191406 27.160156 L 14.601562 27.214844 C 14.828125 27.246094 17.386719 27.273438 20.292969 27.273438 C 23.195312 27.273438 25.523438 27.304688 25.464844 27.34375 C 25.40625 27.378906 25.328125 27.667969 25.292969 27.980469 C 25.238281 28.441406 25.199219 28.546875 25.066406 28.546875 C 24.753906 28.546875 24.617188 28.800781 24.617188 29.371094 L 24.617188 29.910156 L 23.980469 29.910156 L 23.980469 31.183594 L 23.664062 31.183594 C 23.351562 31.183594 23.34375 31.191406 23.34375 31.546875 C 23.34375 31.871094 23.320312 31.910156 23.121094 31.910156 C 22.847656 31.910156 22.75 32.082031 22.664062 32.703125 C 22.605469 33.132812 22.578125 33.179688 22.378906 33.179688 C 22.113281 33.179688 21.980469 33.46875 21.980469 34.046875 C 21.980469 34.425781 21.96875 34.445312 21.6875 34.472656 L 21.390625 34.5 L 21.335938 35.820312 L 20.710938 35.820312 L 20.710938 37.265625 C 20.710938 38.925781 20.726562 39 21.078125 39 C 21.308594 39 21.335938 39.035156 21.363281 39.339844 C 21.386719 39.652344 21.417969 39.683594 21.683594 39.710938 L 21.972656 39.738281 L 22 40.347656 C 22.027344 40.953125 22.027344 40.953125 22.308594 40.980469 C 22.589844 41.007812 22.59375 41.015625 22.640625 41.605469 C 22.691406 42.230469 22.777344 42.359375 23.140625 42.363281 C 23.332031 42.363281 23.34375 42.402344 23.34375 42.945312 C 23.34375 43.550781 23.402344 43.636719 23.804688 43.636719 C 23.9375 43.636719 23.980469 43.699219 23.980469 43.898438 C 23.980469 44.46875 24.089844 44.75 24.351562 44.847656 C 24.554688 44.925781 24.613281 45.011719 24.632812 45.269531 C 24.660156 45.558594 24.691406 45.59375 24.957031 45.621094 C 25.25 45.648438 25.25 45.652344 25.25 46.132812 C 25.25 46.808594 25.304688 46.910156 25.671875 46.910156 L 25.976562 46.910156 L 25.976562 48.171875 L 26.273438 48.199219 C 26.554688 48.226562 26.570312 48.246094 26.59375 48.636719 C 26.632812 49.324219 26.683594 49.433594 26.976562 49.5 C 27.214844 49.550781 27.25 49.597656 27.25 49.871094 C 27.25 50.164062 27.265625 50.183594 27.566406 50.183594 L 27.886719 50.183594 L 27.886719 50.808594 C 27.886719 51.460938 27.9375 51.546875 28.34375 51.546875 C 28.519531 51.546875 28.582031 51.746094 28.632812 52.453125 C 28.65625 52.742188 28.6875 52.777344 28.953125 52.800781 C 29.246094 52.828125 29.25 52.832031 29.25 53.324219 L 29.25 53.820312 L 30.203125 53.820312 C 31.09375 53.820312 31.15625 53.808594 31.15625 53.636719 C 31.15625 53.492188 31.214844 53.453125 31.460938 53.453125 L 31.769531 53.453125 L 31.832031 52.816406 C 31.890625 52.195312 31.898438 52.183594 32.152344 52.183594 C 32.464844 52.183594 32.519531 52.058594 32.519531 51.355469 L 32.519531 50.820312 L 32.835938 50.820312 C 33.140625 50.820312 33.152344 50.800781 33.152344 50.503906 C 33.152344 50.238281 33.191406 50.175781 33.386719 50.125 C 33.65625 50.058594 33.789062 49.777344 33.789062 49.277344 C 33.789062 48.953125 33.808594 48.925781 34.109375 48.871094 C 34.40625 48.8125 34.425781 48.789062 34.425781 48.460938 C 34.425781 47.769531 34.515625 47.546875 34.789062 47.546875 C 35.09375 47.546875 35.152344 47.417969 35.152344 46.769531 C 35.152344 46.289062 35.15625 46.285156 35.449219 46.253906 L 35.742188 46.226562 L 35.769531 45.570312 L 35.796875 44.910156 L 36.109375 44.910156 C 36.410156 44.910156 36.425781 44.894531 36.425781 44.589844 C 36.425781 44.320312 36.453125 44.273438 36.632812 44.273438 C 36.960938 44.273438 37.058594 44.097656 37.058594 43.527344 C 37.058594 43 37.058594 43 37.335938 43 C 37.667969 43 37.785156 42.757812 37.785156 42.089844 C 37.785156 41.65625 37.792969 41.648438 38.082031 41.621094 L 38.378906 41.589844 L 38.402344 40.976562 L 38.429688 40.363281 L 38.746094 40.363281 C 39.050781 40.363281 39.058594 40.355469 39.058594 40 C 39.058594 39.660156 39.074219 39.636719 39.320312 39.636719 C 39.636719 39.636719 39.695312 39.515625 39.695312 38.863281 C 39.695312 38.378906 39.695312 38.375 39.988281 38.347656 C 40.28125 38.320312 40.285156 38.3125 40.363281 37.703125 C 40.4375 37.113281 40.449219 37.089844 40.695312 37.089844 C 41.003906 37.089844 41.054688 36.964844 41.054688 36.265625 L 41.054688 35.726562 L 41.375 35.726562 C 41.675781 35.726562 41.691406 35.710938 41.691406 35.410156 C 41.691406 35.148438 41.730469 35.085938 41.925781 35.035156 C 42.195312 34.96875 42.328125 34.6875 42.328125 34.1875 C 42.328125 33.878906 42.355469 33.835938 42.625 33.761719 C 42.914062 33.675781 42.917969 33.667969 42.945312 33.066406 L 42.972656 32.453125 L 43.277344 32.453125 C 43.621094 32.453125 43.6875 32.324219 43.6875 31.621094 C 43.691406 31.207031 43.699219 31.191406 43.984375 31.164062 L 44.28125 31.136719 L 44.308594 30.476562 L 44.335938 29.820312 L 44.648438 29.820312 C 44.945312 29.820312 44.960938 29.800781 44.960938 29.5 C 44.960938 29.230469 44.992188 29.183594 45.171875 29.183594 C 45.496094 29.183594 45.597656 29.007812 45.597656 28.445312 C 45.597656 27.929688 45.597656 27.929688 45.90625 27.871094 C 46.214844 27.8125 46.214844 27.8125 46.277344 27.183594 C 46.34375 26.5625 46.34375 26.554688 46.628906 26.527344 L 46.914062 26.5 L 46.941406 25.890625 L 46.96875 25.285156 L 47.261719 25.253906 L 47.550781 25.226562 L 47.578125 23.757812 C 47.601562 22.191406 47.554688 22 47.136719 22 C 46.996094 22 46.960938 21.933594 46.960938 21.683594 C 46.960938 21.378906 46.945312 21.363281 46.644531 21.363281 L 46.324219 21.363281 L 46.324219 20.824219 C 46.324219 20.097656 46.277344 20 45.910156 20 L 45.605469 20 L 45.578125 19.386719 L 45.554688 18.773438 L 45.257812 18.742188 C 44.988281 18.71875 44.960938 18.691406 44.960938 18.402344 L 44.960938 18.089844 L 30.519531 18.089844 L 30.519531 17.734375 C 30.519531 17.394531 30.535156 17.375 30.816406 17.347656 L 31.109375 17.316406 L 31.136719 16.710938 L 31.164062 16.101562 L 31.453125 16.074219 C 31.777344 16.042969 31.859375 15.867188 31.875 15.160156 C 31.882812 14.730469 31.882812 14.726562 32.195312 14.726562 C 32.488281 14.726562 32.507812 14.707031 32.535156 14.390625 C 32.558594 14.117188 32.605469 14.042969 32.789062 14 C 32.988281 13.953125 33.027344 13.878906 33.101562 13.390625 C 33.175781 12.875 33.203125 12.832031 33.464844 12.757812 C 33.738281 12.675781 33.746094 12.660156 33.769531 12.066406 L 33.796875 11.453125 L 34.113281 11.453125 C 34.414062 11.453125 34.425781 11.445312 34.425781 11.101562 C 34.425781 10.394531 34.511719 10.195312 34.820312 10.164062 C 35.078125 10.140625 35.109375 10.101562 35.132812 9.8125 C 35.15625 9.554688 35.210938 9.472656 35.425781 9.390625 C 35.660156 9.300781 35.691406 9.242188 35.75 8.738281 C 35.804688 8.246094 35.835938 8.183594 36.007812 8.183594 C 36.324219 8.183594 36.425781 8 36.425781 7.4375 C 36.425781 6.976562 36.445312 6.910156 36.597656 6.910156 C 37.007812 6.910156 37.058594 6.828125 37.058594 6.171875 L 37.058594 5.546875 L 37.367188 5.546875 C 37.71875 5.546875 37.785156 5.417969 37.785156 4.710938 C 37.785156 4.296875 37.796875 4.285156 38.082031 4.253906 C 38.351562 4.230469 38.378906 4.199219 38.40625 3.886719 C 38.429688 3.59375 38.464844 3.546875 38.652344 3.546875 C 38.9375 3.546875 39.058594 3.304688 39.058594 2.738281 C 39.058594 2.292969 39.0625 2.285156 39.351562 2.257812 L 39.648438 2.226562 L 39.675781 1.613281 C 39.703125 1.003906 39.703125 1 39.964844 1 C 40.28125 1 40.292969 0.980469 40.375 0.433594 L 40.441406 0 L 20.074219 0 L 20.074219 0.214844 M 172.515625 12.878906 C 172.453125 12.902344 172.402344 13.042969 172.402344 13.191406 C 172.402344 13.429688 172.375 13.453125 172.09375 13.453125 C 171.785156 13.453125 171.675781 13.570312 171.675781 13.898438 C 171.675781 13.996094 171.5625 14.085938 171.378906 14.140625 L 171.085938 14.226562 L 171.058594 16.226562 C 171.027344 18.550781 171.035156 18.601562 171.398438 18.679688 C 171.617188 18.730469 171.679688 18.800781 171.726562 19.050781 C 171.78125 19.335938 171.816406 19.363281 172.09375 19.363281 C 172.359375 19.363281 172.402344 19.394531 172.402344 19.585938 C 172.402344 19.964844 172.628906 20.003906 174.511719 19.980469 L 176.261719 19.953125 L 176.289062 19.660156 C 176.320312 19.367188 176.324219 19.363281 176.804688 19.363281 C 177.558594 19.363281 177.578125 19.34375 177.578125 18.625 L 177.578125 18 L 177.886719 18 C 178.292969 18 178.304688 17.953125 178.304688 16.410156 C 178.304688 14.984375 178.277344 14.820312 178.03125 14.820312 C 177.640625 14.820312 177.578125 14.726562 177.578125 14.136719 C 177.578125 13.480469 177.550781 13.453125 176.800781 13.453125 L 176.308594 13.453125 L 176.308594 12.816406 L 174.46875 12.824219 C 173.457031 12.828125 172.578125 12.851562 172.515625 12.878906 M 137.707031 14.792969 C 137.003906 14.828125 136.890625 14.890625 136.886719 15.25 C 136.886719 15.449219 136.863281 15.453125 135.816406 15.453125 C 134.675781 15.453125 134.34375 15.558594 134.34375 15.910156 C 134.34375 16.039062 134.265625 16.085938 134 16.109375 C 133.691406 16.132812 133.660156 16.160156 133.632812 16.433594 C 133.605469 16.714844 133.589844 16.726562 133.207031 16.726562 C 132.589844 16.726562 132.34375 16.855469 132.34375 17.171875 C 132.34375 17.410156 132.308594 17.445312 132.050781 17.472656 C 131.789062 17.496094 131.75 17.535156 131.726562 17.789062 C 131.703125 18.027344 131.648438 18.089844 131.433594 18.136719 C 131.144531 18.199219 130.984375 18.570312 130.980469 19.160156 C 130.980469 19.386719 130.941406 19.453125 130.8125 19.453125 C 130.414062 19.453125 130.394531 19.597656 130.363281 22.648438 C 130.335938 25.722656 130.355469 25.910156 130.753906 25.910156 C 130.933594 25.910156 130.976562 25.960938 131 26.203125 C 131.023438 26.460938 131.0625 26.503906 131.3125 26.527344 C 131.59375 26.554688 131.597656 26.566406 131.660156 27.140625 C 131.734375 27.820312 131.710938 27.800781 132.421875 27.875 C 132.953125 27.933594 132.972656 27.941406 132.996094 28.21875 C 133.023438 28.46875 133.058594 28.503906 133.355469 28.527344 C 133.636719 28.550781 133.695312 28.59375 133.738281 28.8125 C 133.800781 29.128906 134.019531 29.183594 135.300781 29.183594 L 136.238281 29.183594 L 136.265625 29.476562 L 136.296875 29.773438 L 137.589844 29.796875 C 138.859375 29.824219 138.882812 29.828125 138.886719 30.023438 C 138.886719 30.449219 138.980469 30.484375 140.285156 30.527344 L 141.519531 30.570312 L 141.519531 30.820312 C 141.519531 31.074219 141.652344 31.183594 141.980469 31.183594 C 142.136719 31.183594 142.152344 31.25 142.152344 31.816406 L 142.152344 32.453125 L 141.621094 32.453125 C 140.476562 32.453125 140.25 32.527344 140.234375 32.898438 L 140.222656 33.226562 L 140.167969 32.910156 C 140.105469 32.554688 139.855469 32.480469 138.679688 32.460938 C 138.164062 32.453125 138.15625 32.453125 138.15625 32.1875 C 138.15625 31.953125 138.117188 31.910156 137.84375 31.859375 C 137.574219 31.808594 137.527344 31.761719 137.503906 31.511719 C 137.480469 31.265625 137.4375 31.222656 137.1875 31.199219 C 136.933594 31.175781 136.894531 31.132812 136.867188 30.882812 L 136.839844 30.589844 L 133.398438 30.566406 C 130.933594 30.550781 129.921875 30.574219 129.835938 30.644531 C 129.742188 30.722656 129.710938 31.042969 129.710938 31.921875 L 129.710938 33.089844 L 130.339844 33.089844 L 130.367188 34.066406 L 130.390625 35.046875 L 130.675781 35.074219 C 130.949219 35.101562 130.957031 35.117188 131.015625 35.648438 C 131.082031 36.320312 131.109375 36.363281 131.421875 36.363281 C 131.625 36.363281 131.6875 36.417969 131.757812 36.660156 C 131.839844 36.9375 131.875 36.960938 132.414062 37.039062 C 132.976562 37.121094 132.980469 37.125 132.980469 37.425781 L 132.980469 37.726562 L 134.238281 37.726562 L 134.269531 38.023438 L 134.296875 38.316406 L 136.25 38.371094 L 136.25 38.972656 L 136.863281 39.03125 C 137.632812 39.105469 142.632812 39.089844 143.425781 39.011719 C 144.011719 38.957031 144.015625 38.953125 144.042969 38.664062 L 144.074219 38.371094 L 145.042969 38.34375 L 146.015625 38.316406 L 146.042969 38.035156 C 146.070312 37.761719 146.089844 37.75 146.570312 37.699219 C 147.117188 37.644531 147.332031 37.523438 147.332031 37.265625 C 147.332031 37.140625 147.414062 37.09375 147.671875 37.074219 C 147.980469 37.046875 148.015625 37.019531 148.042969 36.753906 C 148.066406 36.5 148.113281 36.453125 148.382812 36.402344 C 148.664062 36.347656 148.695312 36.3125 148.695312 36.039062 C 148.695312 35.765625 148.722656 35.734375 148.988281 35.710938 C 149.28125 35.683594 149.285156 35.675781 149.363281 35.078125 C 149.433594 34.511719 149.457031 34.46875 149.695312 34.421875 C 150.050781 34.351562 150.070312 34.152344 150.039062 30.773438 L 150.011719 27.953125 L 149.726562 27.925781 C 149.453125 27.898438 149.4375 27.878906 149.378906 27.402344 C 149.3125 26.875 149.152344 26.636719 148.871094 26.636719 C 148.730469 26.636719 148.695312 26.570312 148.695312 26.328125 C 148.695312 25.964844 148.59375 25.910156 147.921875 25.910156 C 147.4375 25.910156 147.433594 25.90625 147.40625 25.613281 C 147.378906 25.34375 147.347656 25.316406 147.035156 25.289062 C 146.753906 25.265625 146.695312 25.226562 146.695312 25.058594 C 146.695312 24.683594 146.542969 24.636719 145.316406 24.636719 C 144.230469 24.636719 144.152344 24.625 144.152344 24.460938 C 144.152344 24.011719 144.121094 24 142.789062 24 L 141.539062 24 L 141.480469 23.695312 C 141.414062 23.332031 141.167969 23.273438 139.734375 23.273438 C 138.90625 23.273438 138.882812 23.265625 138.882812 23.0625 C 138.882812 22.796875 138.722656 22.636719 138.457031 22.636719 C 138.257812 22.636719 138.25 22.605469 138.25 22 L 138.25 21.363281 L 141.507812 21.363281 L 141.535156 21.613281 C 141.558594 21.804688 141.632812 21.882812 141.855469 21.949219 C 142.089844 22.019531 142.152344 22.089844 142.171875 22.3125 C 142.195312 22.550781 142.238281 22.59375 142.488281 22.617188 C 142.742188 22.644531 142.78125 22.683594 142.808594 22.9375 L 142.835938 23.226562 L 146.328125 23.25 C 150.203125 23.277344 149.960938 23.320312 150.03125 22.566406 C 150.109375 21.710938 150.015625 21.363281 149.703125 21.363281 L 149.449219 21.363281 L 149.398438 20.285156 C 149.34375 19.101562 149.269531 18.867188 148.921875 18.78125 C 148.734375 18.734375 148.695312 18.667969 148.695312 18.40625 C 148.695312 18.105469 148.679688 18.089844 148.375 18.089844 C 148.074219 18.089844 148.058594 18.074219 148.058594 17.78125 C 148.058594 17.46875 147.945312 17.363281 147.601562 17.363281 C 147.480469 17.363281 147.425781 17.285156 147.40625 17.070312 C 147.378906 16.808594 147.339844 16.769531 147.085938 16.746094 C 146.832031 16.71875 146.785156 16.675781 146.734375 16.402344 L 146.675781 16.089844 L 145.425781 16.089844 L 145.425781 15.453125 L 143.4375 15.453125 L 143.410156 15.160156 L 143.378906 14.863281 L 142.425781 14.804688 C 141.429688 14.746094 138.867188 14.742188 137.707031 14.792969 M 101.460938 26.589844 L 101.460938 38.363281 L 108.636719 38.363281 L 108.636719 14.820312 L 101.460938 14.820312 L 101.460938 26.589844 M 152.054688 26.589844 L 152.054688 38.363281 L 159.230469 38.363281 L 159.242188 35.886719 C 159.246094 34.523438 159.269531 33.476562 159.292969 33.5625 C 159.316406 33.648438 159.441406 33.730469 159.578125 33.746094 C 159.777344 33.769531 159.828125 33.828125 159.867188 34.089844 C 159.90625 34.367188 159.949219 34.414062 160.195312 34.4375 C 160.507812 34.46875 160.59375 34.667969 160.59375 35.375 C 160.59375 35.714844 160.601562 35.726562 160.90625 35.726562 L 161.222656 35.726562 L 161.246094 36.339844 C 161.273438 36.945312 161.277344 36.957031 161.570312 37.042969 C 161.824219 37.117188 161.863281 37.167969 161.863281 37.429688 C 161.863281 37.710938 161.882812 37.726562 162.183594 37.726562 C 162.484375 37.726562 162.5 37.742188 162.5 38.046875 L 162.5 38.363281 L 178.304688 38.363281 L 178.304688 20.730469 L 178.101562 20.679688 C 177.988281 20.652344 176.363281 20.644531 174.492188 20.65625 L 171.085938 20.683594 L 171.039062 37.144531 L 170.722656 37.109375 C 170.417969 37.074219 170.402344 37.054688 170.394531 36.695312 C 170.378906 36.070312 170.289062 35.867188 170.015625 35.835938 C 169.8125 35.8125 169.765625 35.761719 169.765625 35.558594 C 169.765625 35.242188 169.617188 35.089844 169.300781 35.089844 C 169.054688 35.089844 169.046875 35.078125 169.023438 34.476562 L 168.996094 33.863281 L 168.699219 33.835938 C 168.429688 33.808594 168.40625 33.78125 168.40625 33.496094 C 168.40625 33.199219 168.386719 33.179688 168.089844 33.179688 L 167.777344 33.179688 L 167.75 32.523438 L 167.722656 31.863281 L 167.441406 31.835938 C 167.164062 31.808594 167.152344 31.792969 167.09375 31.246094 C 167.027344 30.660156 166.949219 30.550781 166.609375 30.546875 C 166.4375 30.546875 166.40625 30.496094 166.40625 30.226562 C 166.40625 29.925781 166.390625 29.910156 166.089844 29.910156 L 165.769531 29.910156 L 165.769531 29.28125 C 165.769531 28.628906 165.71875 28.546875 165.308594 28.546875 C 164.957031 28.546875 165.074219 27.925781 165.429688 27.890625 C 165.691406 27.867188 165.730469 27.828125 165.753906 27.570312 C 165.773438 27.351562 165.828125 27.273438 165.949219 27.273438 C 166.292969 27.273438 166.40625 27.167969 166.40625 26.855469 C 166.40625 26.5625 166.425781 26.546875 166.71875 26.546875 C 167.007812 26.546875 167.039062 26.519531 167.09375 26.226562 C 167.136719 26.007812 167.226562 25.875 167.390625 25.796875 C 167.636719 25.675781 167.746094 25.425781 167.761719 24.9375 C 167.769531 24.679688 167.800781 24.644531 168.0625 24.621094 C 168.335938 24.59375 168.363281 24.5625 168.386719 24.25 C 168.414062 23.925781 168.433594 23.910156 168.726562 23.910156 C 169.023438 23.910156 169.039062 23.890625 169.039062 23.597656 C 169.039062 23.308594 169.066406 23.28125 169.335938 23.257812 C 169.628906 23.226562 169.632812 23.21875 169.710938 22.617188 C 169.785156 22.023438 169.792969 22.007812 170.074219 21.980469 L 170.359375 21.953125 L 170.382812 21.347656 L 170.410156 20.738281 L 170.019531 20.679688 C 169.808594 20.648438 167.921875 20.636719 165.835938 20.652344 C 161.539062 20.6875 161.867188 20.617188 161.867188 21.476562 L 161.863281 22 L 161.546875 22 C 161.246094 22 161.230469 22.015625 161.230469 22.320312 C 161.230469 22.570312 161.195312 22.636719 161.054688 22.636719 C 160.695312 22.636719 160.59375 22.738281 160.59375 23.089844 C 160.59375 23.789062 160.507812 23.988281 160.195312 24.019531 C 159.949219 24.042969 159.910156 24.082031 159.882812 24.339844 C 159.859375 24.601562 159.824219 24.636719 159.589844 24.636719 C 159.441406 24.636719 159.3125 24.6875 159.300781 24.75 C 159.289062 24.8125 159.257812 22.613281 159.230469 19.863281 L 159.183594 14.863281 L 155.621094 14.839844 L 152.054688 14.816406 L 152.054688 26.589844 M 58.769531 26.910156 L 58.769531 38.363281 L 66.671875 38.363281 L 66.671875 29.820312 L 73.210938 29.820312 L 73.210938 38.367188 L 77.140625 38.339844 L 81.070312 38.316406 L 81.070312 15.5 L 73.210938 15.453125 L 73.210938 24 L 66.671875 24 L 66.625 15.5 L 62.699219 15.476562 L 58.769531 15.453125 L 58.769531 26.910156 M 87.957031 20.0625 C 87.824219 20.089844 87.738281 20.191406 87.699219 20.367188 C 87.644531 20.613281 87.605469 20.636719 87.25 20.636719 C 87.039062 20.636719 86.613281 20.664062 86.304688 20.695312 L 85.746094 20.753906 L 85.746094 21.355469 L 85.132812 21.382812 C 84.527344 21.410156 84.519531 21.414062 84.433594 21.703125 C 84.371094 21.914062 84.292969 22 84.15625 22 C 83.910156 22 83.75 22.167969 83.75 22.425781 C 83.75 22.582031 83.675781 22.648438 83.453125 22.707031 C 83.160156 22.78125 83.15625 22.789062 83.132812 23.390625 L 83.105469 24 L 82.832031 24 C 82.445312 24 82.386719 24.242188 82.386719 25.8125 C 82.386719 27.429688 82.15625 27.269531 84.472656 27.273438 C 86.015625 27.273438 86.132812 27.285156 85.949219 27.414062 C 85.835938 27.492188 85.746094 27.632812 85.746094 27.726562 C 85.746094 27.878906 85.664062 27.90625 85.089844 27.929688 L 84.429688 27.953125 L 84.402344 28.25 C 84.375 28.542969 84.367188 28.546875 83.886719 28.546875 C 83.214844 28.546875 83.113281 28.601562 83.113281 28.957031 C 83.113281 29.234375 83.085938 29.261719 82.816406 29.289062 C 82.527344 29.316406 82.519531 29.324219 82.4375 29.933594 L 82.355469 30.546875 L 81.75 30.546875 L 81.75 35.726562 L 82.386719 35.726562 L 82.386719 36.234375 C 82.386719 36.878906 82.496094 37.089844 82.835938 37.089844 C 83.066406 37.089844 83.105469 37.128906 83.128906 37.386719 C 83.15625 37.644531 83.195312 37.683594 83.453125 37.710938 C 83.679688 37.730469 83.761719 37.789062 83.804688 37.96875 C 83.882812 38.269531 84.164062 38.363281 85.019531 38.363281 L 85.734375 38.363281 L 85.761719 38.660156 L 85.792969 38.953125 L 86.722656 39 C 87.234375 39.023438 88.070312 39.023438 88.578125 39 L 89.503906 38.953125 L 89.582031 38.660156 L 89.65625 38.363281 L 90.5 38.363281 C 91.398438 38.363281 91.558594 38.296875 91.558594 37.9375 C 91.558594 37.757812 91.605469 37.726562 91.871094 37.726562 C 92.089844 37.726562 92.195312 37.679688 92.222656 37.566406 C 92.246094 37.480469 92.269531 37.625 92.277344 37.886719 L 92.285156 38.363281 L 99.460938 38.363281 L 99.460938 24 L 98.828125 24 L 98.828125 23.425781 C 98.828125 22.816406 98.730469 22.636719 98.410156 22.636719 C 98.253906 22.636719 98.199219 22.566406 98.152344 22.320312 C 98.097656 22.027344 98.0625 22 97.785156 22 C 97.503906 22 97.472656 21.972656 97.445312 21.703125 L 97.417969 21.410156 L 96.191406 21.355469 L 96.191406 21.054688 C 96.191406 20.710938 95.941406 20.636719 94.773438 20.636719 C 94.195312 20.636719 94.195312 20.636719 94.195312 20.375 C 94.195312 20.21875 94.136719 20.089844 94.050781 20.054688 C 93.890625 19.996094 88.273438 20 87.957031 20.0625 M 116.449219 20.066406 C 116.148438 20.121094 115.992188 20.257812 115.992188 20.464844 C 115.992188 20.601562 115.925781 20.636719 115.652344 20.636719 C 114.839844 20.640625 114.632812 20.722656 114.632812 21.054688 L 114.632812 21.355469 L 113.972656 21.382812 L 113.316406 21.410156 L 113.285156 21.703125 C 113.261719 21.976562 113.230469 22 112.945312 22 C 112.648438 22 112.632812 22.015625 112.632812 22.320312 C 112.632812 22.621094 112.617188 22.636719 112.316406 22.636719 C 112.015625 22.636719 111.996094 22.652344 111.996094 22.945312 C 111.996094 23.222656 111.96875 23.257812 111.683594 23.3125 C 111.417969 23.359375 111.359375 23.417969 111.3125 23.667969 C 111.273438 23.882812 111.1875 23.992188 111.003906 24.058594 C 110.722656 24.167969 110.636719 24.472656 110.636719 25.367188 C 110.636719 25.855469 110.625 25.875 110.339844 25.957031 L 110.042969 26.046875 L 110.042969 33.046875 L 110.636719 33.101562 L 110.636719 33.921875 C 110.636719 34.84375 110.722656 35.089844 111.046875 35.089844 C 111.207031 35.089844 111.269531 35.140625 111.269531 35.265625 C 111.269531 35.609375 111.375 35.726562 111.683594 35.726562 C 111.96875 35.726562 111.988281 35.746094 112.015625 36.066406 C 112.039062 36.378906 112.070312 36.410156 112.332031 36.4375 C 112.585938 36.460938 112.625 36.503906 112.652344 36.753906 C 112.675781 37.007812 112.714844 37.050781 112.96875 37.074219 C 113.222656 37.097656 113.261719 37.140625 113.285156 37.390625 C 113.3125 37.652344 113.347656 37.683594 113.644531 37.710938 C 113.925781 37.734375 113.984375 37.777344 114.027344 37.992188 C 114.089844 38.304688 114.261719 38.359375 115.179688 38.363281 L 115.867188 38.363281 L 115.953125 38.660156 L 116.039062 38.953125 L 116.8125 39.011719 C 117.792969 39.089844 120.863281 39.089844 121.988281 39.011719 C 122.847656 38.953125 122.851562 38.953125 122.988281 38.664062 C 123.121094 38.382812 123.144531 38.371094 123.761719 38.347656 L 124.394531 38.316406 L 124.425781 38.027344 L 124.453125 37.734375 L 125.058594 37.707031 L 125.667969 37.679688 L 125.695312 37.386719 C 125.722656 37.117188 125.75 37.089844 126.039062 37.089844 C 126.285156 37.089844 126.347656 37.054688 126.347656 36.917969 C 126.347656 36.625 126.449219 36.453125 126.625 36.453125 C 126.960938 36.453125 127.074219 36.347656 127.074219 36.042969 C 127.074219 35.765625 127.101562 35.734375 127.371094 35.710938 L 127.667969 35.683594 L 127.691406 35.074219 L 127.71875 34.464844 L 128.011719 34.4375 L 128.300781 34.410156 L 128.328125 33.75 C 128.351562 33.171875 128.375 33.089844 128.527344 33.089844 C 128.957031 33.089844 128.984375 32.894531 128.984375 29.667969 L 128.984375 26.648438 L 128.6875 26.621094 L 128.394531 26.589844 L 128.300781 24.683594 L 128.007812 24.652344 C 127.714844 24.625 127.710938 24.621094 127.710938 24.136719 C 127.710938 23.484375 127.652344 23.363281 127.339844 23.363281 C 127.121094 23.363281 127.074219 23.324219 127.074219 23.144531 C 127.074219 22.75 126.984375 22.636719 126.65625 22.636719 C 126.367188 22.636719 126.347656 22.621094 126.347656 22.320312 C 126.347656 22.015625 126.335938 22 126.03125 22 C 125.761719 22 125.714844 21.96875 125.714844 21.789062 C 125.714844 21.464844 125.539062 21.363281 124.96875 21.363281 C 124.445312 21.363281 124.441406 21.363281 124.441406 21.097656 C 124.441406 20.746094 124.429688 20.738281 123.363281 20.667969 L 122.445312 20.609375 L 122.445312 20.359375 C 122.445312 20.214844 122.382812 20.085938 122.300781 20.054688 C 122.136719 19.992188 116.796875 20.003906 116.449219 20.066406 M 189.796875 20.078125 C 189.589844 20.125 189.515625 20.195312 189.496094 20.375 C 189.46875 20.601562 189.425781 20.621094 188.863281 20.695312 C 188.28125 20.769531 188.253906 20.785156 188.171875 21.066406 C 188.105469 21.3125 188.046875 21.363281 187.832031 21.363281 C 187.6875 21.363281 187.566406 21.414062 187.554688 21.476562 C 187.546875 21.539062 187.519531 21.386719 187.488281 21.136719 L 187.433594 20.683594 L 184.027344 20.65625 C 182.15625 20.644531 180.53125 20.652344 180.417969 20.679688 L 180.214844 20.730469 L 180.214844 38.363281 L 187.476562 38.363281 L 187.5 33.113281 C 187.523438 27.945312 187.527344 27.867188 187.707031 27.835938 C 187.996094 27.785156 188.117188 27.546875 188.117188 27.027344 L 188.117188 26.546875 L 190.101562 26.546875 L 190.132812 26.839844 C 190.15625 27.101562 190.195312 27.140625 190.453125 27.164062 L 190.75 27.191406 L 190.75 32.664062 C 190.753906 35.675781 190.785156 38.1875 190.824219 38.25 C 190.882812 38.339844 191.730469 38.359375 194.753906 38.339844 L 198.605469 38.316406 L 198.628906 31.710938 C 198.65625 24.789062 198.648438 24.636719 198.261719 24.636719 C 198.054688 24.636719 198.042969 24.601562 197.964844 23.703125 L 197.878906 22.773438 L 197.585938 22.6875 C 197.328125 22.609375 197.289062 22.558594 197.289062 22.300781 C 197.289062 22.019531 197.269531 22 196.972656 22 C 196.667969 22 196.652344 21.984375 196.652344 21.683594 C 196.652344 21.378906 196.640625 21.363281 196.335938 21.363281 C 196.066406 21.363281 196.019531 21.332031 196.015625 21.160156 C 196.015625 20.820312 195.910156 20.753906 195.277344 20.6875 C 194.710938 20.628906 194.671875 20.609375 194.625 20.371094 C 194.582031 20.148438 194.523438 20.109375 194.148438 20.058594 C 193.613281 19.984375 190.164062 20 189.796875 20.078125 M 204.714844 20.097656 C 204.628906 20.148438 204.554688 20.285156 204.554688 20.398438 C 204.554688 20.601562 204.519531 20.613281 203.636719 20.667969 C 202.570312 20.738281 202.558594 20.746094 202.558594 21.09375 C 202.558594 21.355469 202.554688 21.355469 201.945312 21.382812 L 201.332031 21.410156 L 201.304688 21.699219 C 201.28125 21.953125 201.238281 21.992188 200.984375 22.015625 C 200.734375 22.042969 200.691406 22.082031 200.667969 22.332031 C 200.644531 22.574219 200.597656 22.625 200.339844 22.675781 C 200.007812 22.738281 199.925781 22.9375 199.925781 23.648438 C 199.925781 23.964844 199.902344 24 199.695312 24 C 199.324219 24 199.273438 24.304688 199.304688 26.328125 C 199.335938 28.242188 199.378906 28.453125 199.753906 28.453125 C 199.886719 28.453125 199.925781 28.523438 199.925781 28.75 C 199.925781 29.351562 200.09375 29.730469 200.382812 29.789062 C 200.613281 29.832031 200.652344 29.882812 200.652344 30.136719 C 200.652344 30.453125 200.867188 30.542969 201.621094 30.542969 C 201.882812 30.546875 201.914062 30.574219 201.9375 30.839844 L 201.96875 31.136719 L 202.582031 31.164062 C 202.984375 31.179688 203.195312 31.226562 203.195312 31.300781 C 203.195312 31.359375 203.222656 31.5 203.25 31.613281 L 203.304688 31.816406 L 201.320312 31.839844 L 199.332031 31.863281 L 199.285156 35.089844 L 199.925781 35.089844 L 199.925781 35.582031 C 199.925781 36.238281 199.976562 36.347656 200.335938 36.414062 C 200.597656 36.464844 200.644531 36.515625 200.667969 36.757812 C 200.691406 37.007812 200.734375 37.050781 200.984375 37.074219 C 201.238281 37.097656 201.28125 37.140625 201.304688 37.390625 L 201.332031 37.679688 L 201.945312 37.707031 C 202.472656 37.730469 202.558594 37.757812 202.558594 37.90625 C 202.558594 38.335938 202.617188 38.363281 203.605469 38.363281 L 204.546875 38.363281 L 204.574219 38.660156 L 204.601562 38.953125 L 205.328125 39.027344 C 205.726562 39.066406 207.265625 39.085938 208.746094 39.070312 C 211.628906 39.039062 211.734375 39.023438 211.734375 38.578125 C 211.734375 38.367188 211.75 38.363281 212.574219 38.363281 C 213.507812 38.359375 213.601562 38.328125 213.683594 37.988281 C 213.738281 37.777344 213.800781 37.746094 214.257812 37.699219 C 214.789062 37.644531 215.003906 37.488281 215.003906 37.164062 C 215.003906 37.050781 215.070312 37 215.226562 37 C 215.5 37 215.628906 36.777344 215.703125 36.179688 C 215.753906 35.738281 215.761719 35.726562 216.054688 35.726562 C 216.335938 35.726562 216.355469 35.707031 216.382812 35.390625 C 216.40625 35.117188 216.453125 35.042969 216.632812 35 C 216.960938 34.921875 217.007812 34.597656 216.980469 32.480469 L 216.957031 30.589844 L 216.664062 30.5625 L 216.375 30.535156 L 216.347656 29.929688 C 216.320312 29.335938 216.3125 29.324219 216.03125 29.242188 C 215.800781 29.175781 215.734375 29.097656 215.6875 28.851562 L 215.628906 28.546875 L 214.367188 28.546875 L 214.367188 27.910156 L 213.742188 27.910156 C 213.167969 27.910156 213.113281 27.890625 213.0625 27.703125 C 212.945312 27.269531 212.929688 27.273438 214.390625 27.261719 C 215.152344 27.253906 215.898438 27.226562 216.046875 27.191406 L 216.320312 27.132812 L 216.320312 24.046875 L 216.023438 24.015625 C 215.734375 23.988281 215.730469 23.980469 215.730469 23.546875 C 215.730469 22.878906 215.609375 22.636719 215.277344 22.636719 C 215.023438 22.636719 215.003906 22.613281 215.003906 22.320312 C 215.003906 22.015625 214.988281 22 214.691406 22 C 214.40625 22 214.375 21.976562 214.347656 21.703125 L 214.320312 21.410156 L 213.714844 21.382812 L 213.105469 21.355469 L 213.078125 21.0625 C 213.042969 20.71875 212.878906 20.664062 211.800781 20.648438 L 211.097656 20.636719 L 211.097656 20.375 C 211.097656 20.21875 211.039062 20.089844 210.953125 20.054688 C 210.699219 19.957031 204.886719 19.996094 204.714844 20.097656 M 207.945312 25.535156 C 208 25.804688 208.246094 25.910156 208.835938 25.910156 C 208.984375 25.910156 209.097656 25.957031 209.097656 26.023438 C 209.101562 26.085938 209.125 26.226562 209.15625 26.339844 C 209.210938 26.542969 209.203125 26.546875 208.210938 26.546875 L 207.210938 26.546875 L 207.167969 26.25 C 207.066406 25.5625 207.179688 25.273438 207.554688 25.273438 C 207.855469 25.273438 207.902344 25.300781 207.945312 25.535156 M 91.597656 26.054688 C 91.625 26.132812 91.652344 26.4375 91.652344 26.734375 L 91.652344 27.273438 L 90.175781 27.265625 C 89.363281 27.261719 88.75 27.238281 88.8125 27.210938 C 88.875 27.1875 88.925781 27.03125 88.925781 26.863281 C 88.925781 26.574219 88.945312 26.554688 89.265625 26.527344 C 89.578125 26.503906 89.609375 26.472656 89.636719 26.203125 L 89.664062 25.910156 L 90.601562 25.910156 C 91.375 25.910156 91.550781 25.933594 91.597656 26.054688 M 119.808594 26.082031 C 119.808594 26.429688 119.914062 26.546875 120.226562 26.546875 C 120.515625 26.546875 120.535156 26.5625 120.535156 26.855469 C 120.535156 27.167969 120.648438 27.273438 120.996094 27.273438 C 121.164062 27.273438 121.171875 27.367188 121.171875 29.546875 L 121.171875 31.816406 L 120.859375 31.816406 C 120.5625 31.816406 120.546875 31.835938 120.519531 32.160156 C 120.492188 32.46875 120.464844 32.503906 120.199219 32.527344 C 119.945312 32.550781 119.898438 32.597656 119.847656 32.867188 C 119.777344 33.242188 119.171875 33.363281 119.171875 33.007812 C 119.171875 32.679688 119.066406 32.546875 118.808594 32.546875 C 118.59375 32.546875 118.550781 32.5 118.496094 32.222656 C 118.449219 31.964844 118.386719 31.894531 118.179688 31.851562 L 117.921875 31.800781 L 117.863281 30.421875 C 117.78125 28.3125 117.882812 27.234375 118.175781 27.195312 C 118.4375 27.160156 118.535156 27.039062 118.535156 26.75 C 118.539062 26.585938 118.589844 26.546875 118.800781 26.546875 C 119.066406 26.546875 119.171875 26.414062 119.171875 26.082031 C 119.171875 25.945312 119.238281 25.910156 119.492188 25.910156 C 119.742188 25.910156 119.808594 25.945312 119.808594 26.082031 M 91.867188 31.90625 C 91.707031 31.972656 91.660156 32.09375 91.609375 32.582031 L 91.546875 33.179688 L 90.28125 33.179688 C 89.585938 33.179688 89.015625 33.144531 89.015625 33.101562 C 89.015625 33.058594 88.992188 32.898438 88.960938 32.746094 C 88.910156 32.484375 88.925781 32.464844 89.207031 32.4375 C 89.457031 32.414062 89.519531 32.363281 89.582031 32.113281 L 89.65625 31.816406 L 90.859375 31.824219 C 91.621094 31.828125 91.988281 31.859375 91.867188 31.90625 M 208.515625 32.773438 C 208.566406 33.042969 208.609375 33.089844 208.820312 33.089844 C 209.140625 33.089844 209.160156 33.117188 209.117188 33.496094 L 209.078125 33.816406 L 208.472656 33.816406 C 207.863281 33.816406 207.863281 33.816406 207.777344 33.523438 C 207.691406 33.230469 207.683594 33.226562 207.078125 33.199219 L 206.464844 33.171875 L 206.464844 32.453125 L 208.453125 32.453125 L 208.515625 32.773438 "/>
<path style=" stroke:none;fill-rule:evenodd;fill:rgb(98.823529%,36.078431%,1.568627%);fill-opacity:1;" d="M 7.792969 21.457031 C 7.6875 21.519531 7.617188 21.726562 7.578125 22.085938 C 7.523438 22.566406 7.492188 22.628906 7.28125 22.683594 C 6.957031 22.761719 6.90625 22.871094 6.90625 23.476562 L 6.902344 24 L 6.265625 24 L 6.265625 25.273438 L 5.949219 25.273438 C 5.652344 25.273438 5.632812 25.292969 5.628906 25.566406 C 5.628906 26.308594 5.539062 26.527344 5.210938 26.585938 C 4.933594 26.640625 4.90625 26.671875 4.90625 26.957031 C 4.90625 27.207031 4.867188 27.273438 4.734375 27.273438 C 4.472656 27.273438 4.351562 27.484375 4.296875 28.039062 C 4.25 28.480469 4.21875 28.546875 4.046875 28.546875 C 3.726562 28.546875 3.632812 28.726562 3.632812 29.335938 L 3.632812 29.910156 L 2.996094 29.910156 L 2.996094 31.171875 L 2.65625 31.199219 C 2.335938 31.226562 2.316406 31.246094 2.289062 31.5625 C 2.265625 31.851562 2.226562 31.902344 2.015625 31.925781 C 1.785156 31.953125 1.765625 31.992188 1.6875 32.566406 C 1.617188 33.109375 1.582031 33.179688 1.410156 33.179688 C 1.101562 33.179688 1 33.363281 1 33.921875 L 1 34.441406 L 0.703125 34.472656 L 0.410156 34.5 L 0.382812 35.160156 C 0.359375 35.742188 0.335938 35.820312 0.175781 35.820312 C 0.0117188 35.820312 0 35.886719 0 36.773438 L 0 37.726562 L 8.984375 37.726562 C 18.984375 37.726562 18.074219 37.789062 18.074219 37.089844 C 18.074219 36.585938 18 36.453125 17.710938 36.453125 C 17.460938 36.453125 17.453125 36.4375 17.390625 35.839844 C 17.324219 35.199219 17.253906 35.09375 16.917969 35.09375 C 16.730469 35.089844 16.714844 35.050781 16.714844 34.5625 C 16.714844 33.992188 16.613281 33.816406 16.285156 33.816406 C 16.109375 33.816406 16.078125 33.769531 16.078125 33.5 C 16.078125 33.195312 16.0625 33.179688 15.757812 33.179688 L 15.441406 33.179688 L 15.441406 32.609375 C 15.441406 31.992188 15.347656 31.816406 15.015625 31.816406 C 14.828125 31.816406 14.804688 31.777344 14.804688 31.386719 C 14.804688 30.675781 14.738281 30.546875 14.386719 30.546875 L 14.078125 30.546875 L 14.078125 29.910156 C 14.078125 29.34375 14.058594 29.273438 13.90625 29.273438 C 13.523438 29.273438 13.445312 29.175781 13.445312 28.71875 C 13.445312 28.253906 13.230469 27.910156 12.945312 27.910156 C 12.847656 27.910156 12.808594 27.8125 12.808594 27.589844 C 12.808594 27.289062 12.792969 27.273438 12.488281 27.273438 L 12.171875 27.273438 L 12.171875 26.699219 C 12.171875 26.0625 12.078125 25.910156 11.699219 25.910156 C 11.445312 25.910156 11.445312 25.910156 11.445312 25.273438 L 11.445312 24.636719 L 10.808594 24.636719 L 10.808594 24.175781 C 10.808594 23.605469 10.6875 23.363281 10.402344 23.363281 C 10.214844 23.363281 10.179688 23.3125 10.15625 23.023438 C 10.128906 22.710938 10.101562 22.679688 9.835938 22.652344 L 9.546875 22.625 L 9.519531 22.015625 L 9.492188 21.410156 L 8.71875 21.386719 C 8.296875 21.375 7.878906 21.40625 7.792969 21.457031 "/>
</g>
</svg>
