<?xml version="1.0" encoding="UTF-8"?>
<svg xmlns="http://www.w3.org/2000/svg" xmlns:xlink="http://www.w3.org/1999/xlink" width="75px" height="75px" viewBox="0 0 75 75" version="1.1">
<g id="surface1">
<path style=" stroke:none;fill-rule:nonzero;fill:rgb(0%,0%,0%);fill-opacity:1;" d="M 31.035156 23.820312 L 21.367188 5.035156 L 0 60.980469 L 11.976562 55.195312 L 21.980469 57.578125 L 29.195312 66.5625 L 36.953125 69.964844 L 44.167969 66.5625 L 51.722656 57.578125 L 61.523438 55.195312 L 73.910156 60.980469 L 52.335938 5.035156 L 42.601562 23.820312 Z M 31.035156 23.820312 "/>
<path style=" stroke:none;fill-rule:nonzero;fill:rgb(100%,44.705882%,0%);fill-opacity:1;" d="M 63.566406 39.761719 L 50.6875 55.757812 L 42.988281 64.898438 L 36.878906 60.636719 L 30.765625 64.894531 L 23.070312 55.757812 L 10.191406 39.761719 L 21.601562 9.9375 L 29.875 25.84375 L 43.882812 25.84375 L 52.15625 9.9375 Z M 63.566406 39.761719 "/>
<path style=" stroke:none;fill-rule:nonzero;fill:rgb(100%,40.392157%,0%);fill-opacity:1;" d="M 26.882812 25.84375 L 18.355469 25.84375 L 21.96875 16.402344 Z M 26.882812 25.84375 "/>
<path style=" stroke:none;fill-rule:nonzero;fill:rgb(100%,40.392157%,0%);fill-opacity:1;" d="M 55.398438 25.84375 L 46.875 25.84375 L 51.785156 16.402344 Z M 55.398438 25.84375 "/>
<path style=" stroke:none;fill-rule:nonzero;fill:rgb(89.803922%,90.196078%,90.980392%);fill-opacity:1;" d="M 23.070312 55.753906 L 12.128906 53.074219 L 3.605469 56.96875 L 10.191406 39.761719 Z M 23.070312 55.753906 "/>
<path style=" stroke:none;fill-rule:nonzero;fill:rgb(89.803922%,90.196078%,90.980392%);fill-opacity:1;" d="M 70.148438 56.96875 L 61.625 53.074219 L 50.6875 55.753906 L 63.566406 39.761719 Z M 70.148438 56.96875 "/>
<path style=" stroke:none;fill-rule:nonzero;fill:rgb(0%,0%,0%);fill-opacity:1;" d="M 42.988281 64.898438 L 36.90625 67.726562 L 30.765625 64.894531 L 36.878906 60.636719 Z M 42.988281 64.898438 "/>
<path style=" stroke:none;fill-rule:nonzero;fill:rgb(100%,40.392157%,0%);fill-opacity:1;" d="M 30.972656 28.472656 L 36.878906 43.296875 L 42.785156 28.472656 Z M 30.972656 28.472656 "/>
<path style=" stroke:none;fill-rule:nonzero;fill:rgb(0%,0%,0%);fill-opacity:1;" d="M 22.472656 39.46875 L 26.800781 39.46875 L 31 44.15625 L 31 47.585938 L 24.539062 43.003906 Z M 22.472656 39.46875 "/>
<path style=" stroke:none;fill-rule:nonzero;fill:rgb(0%,0%,0%);fill-opacity:1;" d="M 46.953125 39.46875 L 42.757812 44.15625 L 42.757812 47.585938 L 49.214844 43 L 51.28125 39.46875 Z M 46.953125 39.46875 "/>
</g>
</svg>
