<?xml version="1.0" encoding="UTF-8"?>
<!DOCTYPE svg PUBLIC "-//W3C//DTD SVG 1.1//EN" "http://www.w3.org/Graphics/SVG/1.1/DTD/svg11.dtd">
<svg xmlns="http://www.w3.org/2000/svg" version="1.1" width="2048px" height="2048px" style="shape-rendering:geometricPrecision; text-rendering:geometricPrecision; image-rendering:optimizeQuality; fill-rule:evenodd; clip-rule:evenodd" xmlns:xlink="http://www.w3.org/1999/xlink">
<g><path style="opacity:0.999" fill="#877efe" d="M 287.5,283.5 C 779.167,283.5 1270.83,283.5 1762.5,283.5C 1762.67,775.167 1762.5,1266.83 1762,1758.5C 1534.07,1759.17 1306.07,1759.5 1078,1759.5C 814.3,1759.45 550.967,1759.11 288,1758.5C 287.5,1266.83 287.333,775.167 287.5,283.5 Z"/></g>
<g><path style="opacity:0.004" fill="#000000" d="M 1825.5,346.5 C 1826.83,347.167 1826.83,347.167 1825.5,346.5 Z"/></g>
<g><path style="opacity:1" fill="#fefeff" d="M 508.5,391.5 C 542.519,388.399 573.853,395.899 602.5,414C 618.128,425.761 628.961,440.927 635,459.5C 636.988,466.361 637.822,473.361 637.5,480.5C 618.167,480.5 598.833,480.5 579.5,480.5C 578.404,469.809 573.737,460.976 565.5,454C 552.555,444.672 538.055,440.506 522,441.5C 504.29,441.192 489.957,447.858 479,461.5C 470.044,481.629 475.544,496.462 495.5,506C 503.918,509.473 512.585,512.139 521.5,514C 546.789,517.991 571.456,524.324 595.5,533C 631.358,549.195 647.191,577.028 643,616.5C 637.616,652.883 617.783,677.716 583.5,691C 556.875,700.078 529.542,703.078 501.5,700C 471.353,697.193 445.853,685.027 425,663.5C 413.026,648.29 406.859,630.957 406.5,611.5C 426.169,611.333 445.836,611.5 465.5,612C 468.725,628.082 478.059,639.082 493.5,645C 514.843,652.283 536.177,652.283 557.5,645C 580.489,634.556 586.656,618.056 576,595.5C 566.638,587.235 555.804,581.735 543.5,579C 521.5,574 499.5,569 477.5,564C 431.469,550.765 409.969,520.265 413,472.5C 418.054,439.877 435.554,416.71 465.5,403C 479.398,397.111 493.731,393.277 508.5,391.5 Z"/></g>
<g><path style="opacity:1" fill="#bcb7ff" d="M 842.5,399.5 C 865.004,398.171 887.67,398.171 910.5,399.5C 910.376,400.107 910.043,400.44 909.5,400.5C 887.34,399.503 865.006,399.169 842.5,399.5 Z"/></g>
<g><path style="opacity:1" fill="#fefeff" d="M 729.5,399.5 C 729.5,443.167 729.5,486.833 729.5,530.5C 731.099,530.768 732.432,530.434 733.5,529.5C 769.833,486.167 806.167,442.833 842.5,399.5C 865.006,399.169 887.34,399.503 909.5,400.5C 874.294,443.061 838.961,485.561 803.5,528C 841.833,583 880.167,638 918.5,693C 893.833,693.667 869.167,693.667 844.5,693C 815.877,652.254 787.377,611.421 759,570.5C 749.333,581.833 739.667,593.167 730,604.5C 729.5,634.165 729.333,663.831 729.5,693.5C 709.167,693.5 688.833,693.5 668.5,693.5C 668.5,595.5 668.5,497.5 668.5,399.5C 688.833,399.5 709.167,399.5 729.5,399.5 Z"/></g>
<g><path style="opacity:1" fill="#aea7ff" d="M 729.5,399.5 C 730.499,442.663 730.832,485.997 730.5,529.5C 731.5,529.5 732.5,529.5 733.5,529.5C 732.432,530.434 731.099,530.768 729.5,530.5C 729.5,486.833 729.5,443.167 729.5,399.5 Z"/></g>
<g><path style="opacity:1" fill="#fefffe" d="M 932.5,399.5 C 952.833,399.5 973.167,399.5 993.5,399.5C 993.5,497.5 993.5,595.5 993.5,693.5C 973.167,693.5 952.833,693.5 932.5,693.5C 932.5,595.5 932.5,497.5 932.5,399.5 Z"/></g>
<g><path style="opacity:1" fill="#fefeff" d="M 1223.5,582.5 C 1224.5,521.669 1224.83,460.669 1224.5,399.5C 1243.83,399.5 1263.17,399.5 1282.5,399.5C 1282.5,497.5 1282.5,595.5 1282.5,693.5C 1265.5,693.667 1248.5,693.5 1231.5,693C 1186.54,632.256 1141.71,571.422 1097,510.5C 1095.64,509.62 1094.14,509.286 1092.5,509.5C 1092.5,570.833 1092.5,632.167 1092.5,693.5C 1072.83,693.5 1053.17,693.5 1033.5,693.5C 1033.5,595.5 1033.5,497.5 1033.5,399.5C 1050.84,399.333 1068.17,399.5 1085.5,400C 1129.97,460.641 1174.64,521.141 1219.5,581.5C 1220.69,582.429 1222.02,582.762 1223.5,582.5 Z"/></g>
<g><path style="opacity:1" fill="#d6d2ff" d="M 1282.5,399.5 C 1263.17,399.5 1243.83,399.5 1224.5,399.5C 1224.83,460.669 1224.5,521.669 1223.5,582.5C 1223.5,521.167 1223.5,459.833 1223.5,398.5C 1243.34,398.17 1263.01,398.503 1282.5,399.5 Z"/></g>
<g><path style="opacity:0.059" fill="#fefffe" d="M 1959.5,617.5 C 1961,617.415 1962,618.081 1962.5,619.5C 1961.17,620.833 1959.83,620.833 1958.5,619.5C 1958.86,618.817 1959.2,618.15 1959.5,617.5 Z"/></g>
<g><path style="opacity:1" fill="#fefeff" d="M 613.5,719.5 C 633.833,719.5 654.167,719.5 674.5,719.5C 674.5,817.5 674.5,915.5 674.5,1013.5C 654.167,1013.5 633.833,1013.5 613.5,1013.5C 613.5,972.5 613.5,931.5 613.5,890.5C 569.167,890.5 524.833,890.5 480.5,890.5C 480.5,931.5 480.5,972.5 480.5,1013.5C 460.167,1013.5 439.833,1013.5 419.5,1013.5C 419.5,915.5 419.5,817.5 419.5,719.5C 439.833,719.5 460.167,719.5 480.5,719.5C 480.5,758.833 480.5,798.167 480.5,837.5C 524.833,837.5 569.167,837.5 613.5,837.5C 613.5,798.167 613.5,758.833 613.5,719.5 Z"/></g>
<g><path style="opacity:1" fill="#cac6ff" d="M 613.5,719.5 C 633.993,718.503 654.66,718.169 675.5,718.5C 675.833,817.001 675.499,915.335 674.5,1013.5C 674.5,915.5 674.5,817.5 674.5,719.5C 654.167,719.5 633.833,719.5 613.5,719.5 Z"/></g>
<g><path style="opacity:1" fill="#d3cfff" d="M 775.5,719.5 C 755.167,719.5 734.833,719.5 714.5,719.5C 714.5,784.5 714.5,849.5 714.5,914.5C 713.501,849.335 713.168,784.002 713.5,718.5C 734.34,718.169 755.007,718.503 775.5,719.5 Z"/></g>
<g><path style="opacity:1" fill="#fefeff" d="M 775.5,719.5 C 775.333,784.168 775.5,848.834 776,913.5C 780.605,948.432 800.605,966.099 836,966.5C 872.825,966.833 893.659,948.833 898.5,912.5C 899.499,848.335 899.832,784.002 899.5,719.5C 919.833,719.5 940.167,719.5 960.5,719.5C 960.667,787.834 960.5,856.167 960,924.5C 952.976,972.355 926.143,1002.86 879.5,1016C 852.568,1021.58 825.568,1021.91 798.5,1017C 745.29,1003.31 717.29,969.139 714.5,914.5C 714.5,849.5 714.5,784.5 714.5,719.5C 734.833,719.5 755.167,719.5 775.5,719.5 Z"/></g>
<g><path style="opacity:1" fill="#ccc9ff" d="M 960.5,719.5 C 940.167,719.5 919.833,719.5 899.5,719.5C 899.832,784.002 899.499,848.335 898.5,912.5C 898.5,847.833 898.5,783.167 898.5,718.5C 919.34,718.169 940.007,718.503 960.5,719.5 Z"/></g>
<g><path style="opacity:1" fill="#fefeff" d="M 1000.5,719.5 C 1049.5,719.333 1098.5,719.5 1147.5,720C 1170.56,722.446 1190.06,731.946 1206,748.5C 1224.04,774.504 1225.04,801.171 1209,828.5C 1198.61,842.774 1184.78,851.608 1167.5,855C 1166.62,856.356 1166.29,857.856 1166.5,859.5C 1204.33,862.83 1226.83,883.164 1234,920.5C 1236.82,960.05 1220.32,987.883 1184.5,1004C 1175.04,1007.45 1165.37,1010.12 1155.5,1012C 1103.85,1013.45 1052.19,1013.95 1000.5,1013.5C 1000.5,915.5 1000.5,817.5 1000.5,719.5 Z"/></g>
<g><path style="opacity:1" fill="#b2acff" d="M 1062.5,766.5 C 1062.5,791.167 1062.5,815.833 1062.5,840.5C 1079.5,840.5 1096.5,840.5 1113.5,840.5C 1096.34,841.497 1079.01,841.83 1061.5,841.5C 1061.17,816.328 1061.5,791.328 1062.5,766.5 Z"/></g>
<g><path style="opacity:1" fill="#877eff" d="M 1062.5,766.5 C 1083.17,766.333 1103.84,766.5 1124.5,767C 1151.83,771.511 1163,787.344 1158,814.5C 1155.42,824.085 1149.58,830.918 1140.5,835C 1131.79,838.309 1122.79,840.143 1113.5,840.5C 1096.5,840.5 1079.5,840.5 1062.5,840.5C 1062.5,815.833 1062.5,791.167 1062.5,766.5 Z"/></g>
<g><path style="opacity:1" fill="#aba3ff" d="M 1122.5,883.5 C 1102.5,883.5 1082.5,883.5 1062.5,883.5C 1062.5,911.167 1062.5,938.833 1062.5,966.5C 1061.5,938.672 1061.17,910.672 1061.5,882.5C 1082.01,882.17 1102.34,882.503 1122.5,883.5 Z"/></g>
<g><path style="opacity:1" fill="#877eff" d="M 1122.5,883.5 C 1135.61,883.287 1147.61,886.787 1158.5,894C 1170.66,905.8 1174.49,919.966 1170,936.5C 1165.11,952.038 1154.61,961.205 1138.5,964C 1132.2,964.942 1125.86,965.609 1119.5,966C 1100.5,966.5 1081.5,966.667 1062.5,966.5C 1062.5,938.833 1062.5,911.167 1062.5,883.5C 1082.5,883.5 1102.5,883.5 1122.5,883.5 Z"/></g>
<g><path style="opacity:0.004" fill="#2d0f58" d="M 1865.5,932.5 C 1866.66,959.33 1866.83,986.33 1866,1013.5C 1865.5,986.502 1865.33,959.502 1865.5,932.5 Z"/></g>
<g><path style="opacity:1" fill="#fefeff" d="M 825.5,1395.5 C 827.167,1395.5 828.833,1395.5 830.5,1395.5C 830.5,1397.5 830.5,1399.5 830.5,1401.5C 831.5,1401.5 832.5,1401.5 833.5,1401.5C 833.351,1402.55 833.517,1403.55 834,1404.5C 834.743,1402.56 834.576,1400.73 833.5,1399C 836.43,1395.95 840.097,1394.78 844.5,1395.5C 844.5,1400.5 844.5,1405.5 844.5,1410.5C 847.439,1410.92 849.772,1412.42 851.5,1415C 855.821,1415.5 860.154,1415.67 864.5,1415.5C 864.5,1414.5 864.5,1413.5 864.5,1412.5C 869.844,1412.33 875.177,1412.5 880.5,1413C 880.957,1413.41 881.291,1413.91 881.5,1414.5C 886.802,1415.66 892.136,1415.83 897.5,1415C 915.167,1410.67 932.833,1406.33 950.5,1402C 962.213,1401.81 973.879,1401.31 985.5,1400.5C 986.016,1418.73 986.35,1437.07 986.5,1455.5C 973.922,1455.16 961.256,1454.66 948.5,1454C 933.843,1450.33 919.176,1446.67 904.5,1443C 896.881,1441.79 889.214,1441.29 881.5,1441.5C 881.5,1448.83 881.5,1456.17 881.5,1463.5C 883.199,1463.66 884.866,1463.49 886.5,1463C 885.304,1462.35 885.304,1461.85 886.5,1461.5C 888.573,1462.47 890.739,1463.14 893,1463.5C 898.129,1462.63 903.296,1462.3 908.5,1462.5C 908.5,1464.5 908.5,1466.5 908.5,1468.5C 913.021,1468.5 917.521,1468.16 922,1467.5C 925.642,1467.71 929.142,1468.55 932.5,1470C 1125.83,1469.84 1319.17,1469.18 1512.5,1468C 1513.36,1467.31 1514.02,1466.48 1514.5,1465.5C 1523.48,1464.33 1532.48,1464.17 1541.5,1465C 1542.31,1465.31 1542.97,1465.81 1543.5,1466.5C 1557.49,1467.33 1571.49,1467.83 1585.5,1468C 1589.12,1469.97 1590.79,1473.14 1590.5,1477.5C 1590.44,1481.52 1589.11,1485.02 1586.5,1488C 1572.16,1488.17 1557.82,1488.67 1543.5,1489.5C 1540.36,1493.9 1536.03,1495.9 1530.5,1495.5C 1523.51,1496.02 1517.51,1494.02 1512.5,1489.5C 1384.83,1488.32 1257.17,1488.49 1129.5,1490C 1128.51,1500.75 1128.18,1511.59 1128.5,1522.5C 1126.71,1522.21 1125.05,1522.55 1123.5,1523.5C 1124.03,1524.19 1124.69,1524.69 1125.5,1525C 1137.5,1525.5 1149.5,1525.67 1161.5,1525.5C 1161.38,1522.09 1163.05,1520.76 1166.5,1521.5C 1166.67,1522.82 1166.34,1523.99 1165.5,1525C 1166,1525.17 1166.5,1525.33 1167,1525.5C 1179.27,1524.52 1191.44,1523.52 1203.5,1522.5C 1203.5,1523.5 1203.5,1524.5 1203.5,1525.5C 1227.84,1525.83 1252.18,1525.5 1276.5,1524.5C 1276.83,1523.83 1277.17,1523.17 1277.5,1522.5C 1282.6,1522.09 1287.43,1521.09 1292,1519.5C 1293.75,1522.75 1296.25,1525.08 1299.5,1526.5C 1301.37,1526.61 1302.87,1525.94 1304,1524.5C 1306.03,1527.03 1307.86,1529.7 1309.5,1532.5C 1307.64,1534.52 1305.98,1536.69 1304.5,1539C 1299.5,1539.67 1294.5,1539.67 1289.5,1539C 1288.66,1537.99 1288.33,1536.82 1288.5,1535.5C 1262.82,1535.72 1237.16,1536.38 1211.5,1537.5C 1211.29,1538.09 1210.96,1538.59 1210.5,1539C 1207.67,1539.17 1204.83,1539.33 1202,1539.5C 1195.75,1537.98 1189.25,1536.98 1182.5,1536.5C 1179.17,1536.83 1175.83,1537.17 1172.5,1537.5C 1172.17,1538.5 1171.5,1539.17 1170.5,1539.5C 1168.07,1536.88 1165.07,1536.04 1161.5,1537C 1158.19,1542.66 1156.03,1542.49 1155,1536.5C 1154.51,1537.79 1154.34,1539.13 1154.5,1540.5C 1152.05,1540.68 1149.88,1540.01 1148,1538.5C 1143.91,1540.49 1140.91,1539.49 1139,1535.5C 1138.88,1537.57 1137.88,1538.91 1136,1539.5C 1134.37,1538.71 1132.87,1537.71 1131.5,1536.5C 1128.74,1539.07 1125.91,1539.07 1123,1536.5C 1118.93,1537.03 1114.76,1537.03 1110.5,1536.5C 1107.83,1536.83 1105.17,1537.17 1102.5,1537.5C 1101.31,1539.53 1099.64,1541.03 1097.5,1542C 1092.48,1543.92 1087.48,1543.92 1082.5,1542C 1076.73,1536.9 1071.73,1531.24 1067.5,1525C 1025.5,1524.33 983.5,1524.33 941.5,1525C 924.5,1531.33 907.5,1537.67 890.5,1544C 884.565,1545.24 878.565,1545.74 872.5,1545.5C 872.411,1550.53 872.745,1555.53 873.5,1560.5C 873.596,1562.93 872.93,1565.09 871.5,1567C 848.828,1569.28 826.162,1571.45 803.5,1573.5C 803.056,1566.17 802.723,1558.84 802.5,1551.5C 796.794,1551.17 791.128,1551.5 785.5,1552.5C 783.301,1558.2 779.301,1562.03 773.5,1564C 760.173,1564.94 746.839,1565.27 733.5,1565C 729.155,1564.44 725.488,1562.61 722.5,1559.5C 719.741,1566.03 717.241,1572.69 715,1579.5C 713.997,1589.87 712.664,1600.21 711,1610.5C 710.097,1611.7 708.931,1612.53 707.5,1613C 699.145,1613.47 690.811,1613.14 682.5,1612C 673.631,1609.56 664.965,1606.56 656.5,1603C 647.287,1602.21 638.12,1601.05 629,1599.5C 622.856,1600.62 616.689,1601.12 610.5,1601C 605.442,1596.94 600.108,1593.28 594.5,1590C 589.123,1584.33 583.79,1578.66 578.5,1573C 566.5,1572.33 554.5,1572.33 542.5,1573C 539.447,1573.18 536.447,1573.68 533.5,1574.5C 531.848,1581.11 530.515,1587.77 529.5,1594.5C 526.48,1595.72 523.314,1596.72 520,1597.5C 512.701,1596.86 505.367,1596.52 498,1596.5C 482.853,1597.32 467.687,1598.15 452.5,1599C 443.975,1601.04 435.475,1603.21 427,1605.5C 426.228,1605.36 425.561,1605.02 425,1604.5C 424,1598.5 423,1592.5 422,1586.5C 421.573,1555.86 421.406,1525.36 421.5,1495C 420.775,1489.95 422.109,1485.61 425.5,1482C 435.304,1482.47 445.137,1482.97 455,1483.5C 459.855,1483.41 464.688,1483.08 469.5,1482.5C 472.212,1482.45 474.378,1483.45 476,1485.5C 478.69,1483.82 481.523,1482.32 484.5,1481C 520.167,1480.33 555.833,1480.33 591.5,1481C 594.382,1482.61 597.382,1483.94 600.5,1485C 601.198,1487.45 602.198,1489.79 603.5,1492C 642.505,1492.22 681.505,1491.72 720.5,1490.5C 721.242,1489.71 722.075,1489.05 723,1488.5C 723.169,1481.81 723.669,1475.14 724.5,1468.5C 734.803,1467.86 745.136,1467.19 755.5,1466.5C 755.167,1465.83 754.833,1465.17 754.5,1464.5C 756.167,1464.17 757.833,1463.83 759.5,1463.5C 762.841,1463.84 766.175,1464.17 769.5,1464.5C 769.974,1460.84 771.307,1460.68 773.5,1464C 775.134,1464.49 776.801,1464.66 778.5,1464.5C 778.964,1461.3 780.464,1461.3 783,1464.5C 784.067,1463.81 785.234,1463.31 786.5,1463C 786.167,1462.67 785.833,1462.33 785.5,1462C 786.784,1461.32 787.951,1461.48 789,1462.5C 791.104,1455.5 790.938,1449 788.5,1443C 781.5,1442.33 774.5,1442.33 767.5,1443C 761.608,1444.64 755.608,1445.64 749.5,1446C 730.123,1446.82 710.79,1446.65 691.5,1445.5C 690.566,1442.73 689.9,1439.9 689.5,1437C 689.377,1428.96 689.877,1420.79 691,1412.5C 691.5,1412 692,1411.5 692.5,1411C 719.692,1409.3 746.692,1410.63 773.5,1415C 778.489,1415.5 783.489,1415.67 788.5,1415.5C 788.5,1414.5 788.5,1413.5 788.5,1412.5C 794.5,1412.5 800.5,1412.5 806.5,1412.5C 806.5,1413.5 806.5,1414.5 806.5,1415.5C 811.998,1416.31 816.664,1414.81 820.5,1411C 822.134,1410.51 823.801,1410.34 825.5,1410.5C 825.5,1405.5 825.5,1400.5 825.5,1395.5 Z"/></g>
<g><path style="opacity:1" fill="#877eff" d="M 813.5,1441.5 C 816.084,1441.57 818.084,1442.74 819.5,1445C 829.5,1445.67 839.5,1445.67 849.5,1445C 850.5,1444 851.5,1443 852.5,1442C 856.541,1441.17 860.541,1441.34 864.5,1442.5C 865.46,1448.77 865.793,1455.11 865.5,1461.5C 863.339,1461.51 862.006,1462.18 861.5,1463.5C 859.116,1462.99 856.783,1462.32 854.5,1461.5C 853.304,1461.85 853.304,1462.35 854.5,1463C 851.126,1463.57 848.126,1462.74 845.5,1460.5C 844.289,1461.27 844.289,1462.11 845.5,1463C 842.405,1463.31 839.405,1462.81 836.5,1461.5C 835.304,1461.85 835.304,1462.35 836.5,1463C 833.405,1463.31 830.405,1462.81 827.5,1461.5C 826.304,1461.85 826.304,1462.35 827.5,1463C 824.405,1463.31 821.405,1462.81 818.5,1461.5C 817.304,1461.85 817.304,1462.35 818.5,1463C 815.563,1463.36 812.73,1462.86 810,1461.5C 809.333,1462.17 808.667,1462.83 808,1463.5C 807.5,1463.33 807,1463.17 806.5,1463C 807.215,1456.24 807.215,1449.41 806.5,1442.5C 809.059,1442.8 811.393,1442.47 813.5,1441.5 Z"/></g>
<g><path style="opacity:1" fill="#877eff" d="M 659.5,1525.5 C 667.113,1525.05 674.447,1526.21 681.5,1529C 683.359,1530.56 684.859,1532.39 686,1534.5C 688.163,1543.92 686.163,1552.26 680,1559.5C 676.191,1562.64 672.358,1565.8 668.5,1569C 660.939,1570.6 653.272,1570.93 645.5,1570C 636.295,1566.46 631.295,1559.8 630.5,1550C 632.355,1541.95 636.688,1535.62 643.5,1531C 648.844,1528.84 654.177,1527.01 659.5,1525.5 Z"/></g>
<g><path style="opacity:1" fill="#877eff" d="M 729.5,1526.5 C 733.5,1526.5 737.5,1526.5 741.5,1526.5C 741.334,1532.84 741.5,1539.18 742,1545.5C 744.5,1548 747,1550.5 749.5,1553C 753.145,1553.72 756.812,1554.22 760.5,1554.5C 760.719,1553.32 760.386,1552.32 759.5,1551.5C 754.187,1550.93 750.353,1548.26 748,1543.5C 747.333,1538.17 747.333,1532.83 748,1527.5C 756.421,1526.35 764.921,1526.18 773.5,1527C 781.264,1536.07 782.598,1546.07 777.5,1557C 776.728,1558.22 775.728,1559.22 774.5,1560C 762.167,1560.67 749.833,1560.67 737.5,1560C 735.212,1559.05 733.045,1557.89 731,1556.5C 727.119,1551.91 725.619,1546.58 726.5,1540.5C 726.03,1535.45 727.03,1530.78 729.5,1526.5 Z"/></g>
<g><path style="opacity:0.004" fill="#240fa2" d="M 391.5,1801.5 C 392.525,1801.9 392.692,1802.56 392,1803.5C 391.536,1802.91 391.369,1802.24 391.5,1801.5 Z"/></g>
</svg>
