<?xml version="1.0" encoding="UTF-8"?>
<!DOCTYPE svg PUBLIC "-//W3C//DTD SVG 1.1//EN" "http://www.w3.org/Graphics/SVG/1.1/DTD/svg11.dtd">
<svg xmlns="http://www.w3.org/2000/svg" version="1.1" width="2048px" height="2048px" style="shape-rendering:geometricPrecision; text-rendering:geometricPrecision; image-rendering:optimizeQuality; fill-rule:evenodd; clip-rule:evenodd" xmlns:xlink="http://www.w3.org/1999/xlink">
<g><path style="opacity:1" fill="#867dfe" d="M -0.5,-0.5 C 682.167,-0.5 1364.83,-0.5 2047.5,-0.5C 2047.5,682.167 2047.5,1364.83 2047.5,2047.5C 1364.83,2047.5 682.167,2047.5 -0.5,2047.5C -0.5,1364.83 -0.5,682.167 -0.5,-0.5 Z"/></g>
<g><path style="opacity:1" fill="#464375" d="M 1911.5,139.5 C 1911.5,139.833 1911.5,140.167 1911.5,140.5C 1911.17,140.5 1910.83,140.5 1910.5,140.5C 1318.83,140.5 727.167,140.5 135.5,140.5C 135.5,732.833 135.5,1325.17 135.5,1917.5C 135.5,1917.83 135.5,1918.17 135.5,1918.5C 134.5,1325.67 134.167,732.667 134.5,139.5C 726.833,139.5 1319.17,139.5 1911.5,139.5 Z"/></g>
<g><path style="opacity:1" fill="#262530" d="M 1910.5,140.5 C 1910.83,733 1910.5,1325.33 1909.5,1917.5C 1909.5,1325.5 1909.5,733.5 1909.5,141.5C 1318.5,141.5 727.5,141.5 136.5,141.5C 136.5,733.5 136.5,1325.5 136.5,1917.5C 136.167,1917.5 135.833,1917.5 135.5,1917.5C 135.5,1325.17 135.5,732.833 135.5,140.5C 727.167,140.5 1318.83,140.5 1910.5,140.5 Z"/></g>
<g><path style="opacity:1" fill="#1f1f22" d="M 1909.5,1917.5 C 1318.5,1917.5 727.5,1917.5 136.5,1917.5C 136.5,1325.5 136.5,733.5 136.5,141.5C 727.5,141.5 1318.5,141.5 1909.5,141.5C 1909.5,733.5 1909.5,1325.5 1909.5,1917.5 Z"/></g>
<g><path style="opacity:1" fill="#7870df" d="M 1911.5,139.5 C 1912.83,435.666 1913.5,732.166 1913.5,1029C 1913.5,1325.83 1912.83,1622.33 1911.5,1918.5C 1911.5,1325.83 1911.5,733.167 1911.5,140.5C 1911.5,140.167 1911.5,139.833 1911.5,139.5 Z"/></g>
<g><path style="opacity:1" fill="#fdfdfe" d="M 611.5,392.5 C 611.5,394.167 611.5,395.833 611.5,397.5C 586.5,397.5 561.5,397.5 536.5,397.5C 530.025,371.196 513.359,355.029 486.5,349C 467.593,346.215 448.926,347.215 430.5,352C 399.872,364.736 391.039,386.236 404,416.5C 414.656,427.401 427.489,434.567 442.5,438C 466.8,443.546 491.133,448.879 515.5,454C 541.474,459.315 565.14,469.648 586.5,485C 608.49,504.486 619.49,528.986 619.5,558.5C 618.304,621.209 587.638,661.709 527.5,680C 478.951,692.751 430.951,691.085 383.5,675C 336.354,656.022 311.02,621.188 307.5,570.5C 333.509,570.167 359.509,570.5 385.5,571.5C 388.041,585.755 395.041,597.255 406.5,606C 432.576,621.422 460.576,626.089 490.5,620C 511.396,616.415 526.563,605.248 536,586.5C 542.41,565.727 536.244,549.893 517.5,539C 507.548,534.016 497.215,530.016 486.5,527C 459.104,521.318 431.771,515.318 404.5,509C 333.694,488.494 305.527,441.994 320,369.5C 329.727,338.447 348.894,315.28 377.5,300C 415.021,282.457 454.354,276.791 495.5,283C 521.701,287.396 545.701,297.062 567.5,312C 594.085,332.338 608.752,359.171 611.5,392.5 Z"/></g>
<g><path style="opacity:1" fill="#8d8d8e" d="M 882.5,291.5 C 912.336,290.17 942.336,290.17 972.5,291.5C 972.376,292.107 972.043,292.44 971.5,292.5C 942.005,291.502 912.338,291.169 882.5,291.5 Z"/></g>
<g><path style="opacity:1" fill="#fefefe" d="M 653.5,291.5 C 680.5,291.5 707.5,291.5 734.5,291.5C 734.168,349.002 734.501,406.336 735.5,463.5C 739.147,463.378 741.981,461.712 744,458.5C 789.708,402.394 835.875,346.727 882.5,291.5C 912.338,291.169 942.005,291.502 971.5,292.5C 925.045,348.793 878.378,404.96 831.5,461C 881.833,533.333 932.167,605.667 982.5,678C 950.167,678.667 917.833,678.667 885.5,678C 847.63,624.429 810.13,570.595 773,516.5C 759.958,531.207 747.291,546.207 735,561.5C 734.5,600.499 734.333,639.499 734.5,678.5C 707.5,678.5 680.5,678.5 653.5,678.5C 653.5,549.5 653.5,420.5 653.5,291.5 Z"/></g>
<g><path style="opacity:1" fill="#47474a" d="M 653.5,291.5 C 680.662,290.502 707.995,290.169 735.5,290.5C 735.5,348.167 735.5,405.833 735.5,463.5C 734.501,406.336 734.168,349.002 734.5,291.5C 707.5,291.5 680.5,291.5 653.5,291.5 Z"/></g>
<g><path style="opacity:1" fill="#fefffe" d="M 1000.5,291.5 C 1027.5,291.5 1054.5,291.5 1081.5,291.5C 1081.5,420.5 1081.5,549.5 1081.5,678.5C 1054.5,678.5 1027.5,678.5 1000.5,678.5C 1000.5,549.5 1000.5,420.5 1000.5,291.5 Z"/></g>
<g><path style="opacity:1" fill="#3f3f42" d="M 1000.5,291.5 C 1027.66,290.502 1054.99,290.169 1082.5,290.5C 1082.83,420.001 1082.5,549.334 1081.5,678.5C 1081.5,549.5 1081.5,420.5 1081.5,291.5C 1054.5,291.5 1027.5,291.5 1000.5,291.5 Z"/></g>
<g><path style="opacity:1" fill="#fefefe" d="M 1383.5,291.5 C 1409.17,291.5 1434.83,291.5 1460.5,291.5C 1460.5,420.5 1460.5,549.5 1460.5,678.5C 1438.16,678.667 1415.83,678.5 1393.5,678C 1334.3,598.434 1275.47,518.6 1217,438.5C 1215.21,436.771 1213.04,436.104 1210.5,436.5C 1210.5,517.167 1210.5,597.833 1210.5,678.5C 1184.5,678.5 1158.5,678.5 1132.5,678.5C 1132.5,549.167 1132.5,419.833 1132.5,290.5C 1155.18,290.167 1177.84,290.5 1200.5,291.5C 1259.64,371.807 1318.97,451.974 1378.5,532C 1380.13,532.494 1381.8,532.66 1383.5,532.5C 1383.5,452.167 1383.5,371.833 1383.5,291.5 Z"/></g>
<g><path style="opacity:1" fill="#777779" d="M 611.5,392.5 C 612.461,394.265 612.795,396.265 612.5,398.5C 586.995,398.831 561.661,398.498 536.5,397.5C 561.5,397.5 586.5,397.5 611.5,397.5C 611.5,395.833 611.5,394.167 611.5,392.5 Z"/></g>
<g><path style="opacity:1" fill="#7c7c7e" d="M 1383.5,291.5 C 1409.33,290.502 1435.33,290.169 1461.5,290.5C 1461.83,420.001 1461.5,549.334 1460.5,678.5C 1460.5,549.5 1460.5,420.5 1460.5,291.5C 1434.83,291.5 1409.17,291.5 1383.5,291.5 Z"/></g>
<g><path style="opacity:1" fill="#fefefe" d="M 324.5,711.5 C 351.5,711.5 378.5,711.5 405.5,711.5C 405.5,763.5 405.5,815.5 405.5,867.5C 463.5,867.5 521.5,867.5 579.5,867.5C 580.499,815.669 580.832,763.669 580.5,711.5C 607.5,711.5 634.5,711.5 661.5,711.5C 661.5,840.5 661.5,969.5 661.5,1098.5C 634.5,1098.5 607.5,1098.5 580.5,1098.5C 580.5,1044.5 580.5,990.5 580.5,936.5C 522.167,936.5 463.833,936.5 405.5,936.5C 405.5,990.5 405.5,1044.5 405.5,1098.5C 378.5,1098.5 351.5,1098.5 324.5,1098.5C 324.5,969.5 324.5,840.5 324.5,711.5 Z"/></g>
<g><path style="opacity:1" fill="#4a4a4c" d="M 324.5,711.5 C 351.662,710.502 378.995,710.169 406.5,710.5C 406.5,762.5 406.5,814.5 406.5,866.5C 464.167,866.5 521.833,866.5 579.5,866.5C 579.5,866.833 579.5,867.167 579.5,867.5C 521.5,867.5 463.5,867.5 405.5,867.5C 405.5,815.5 405.5,763.5 405.5,711.5C 378.5,711.5 351.5,711.5 324.5,711.5 Z"/></g>
<g><path style="opacity:1" fill="#777779" d="M 661.5,711.5 C 634.5,711.5 607.5,711.5 580.5,711.5C 580.832,763.669 580.499,815.669 579.5,867.5C 579.5,867.167 579.5,866.833 579.5,866.5C 579.5,814.5 579.5,762.5 579.5,710.5C 607.005,710.169 634.338,710.502 661.5,711.5 Z"/></g>
<g><path style="opacity:1" fill="#575759" d="M 794.5,711.5 C 767.5,711.5 740.5,711.5 713.5,711.5C 713.5,796.833 713.5,882.167 713.5,967.5C 712.501,882.002 712.167,796.335 712.5,710.5C 740.005,710.169 767.338,710.502 794.5,711.5 Z"/></g>
<g><path style="opacity:1" fill="#fefefe" d="M 794.5,711.5 C 794.333,796.167 794.5,880.834 795,965.5C 797.311,1000.01 814.811,1022.51 847.5,1033C 874.346,1039.8 900.013,1036.8 924.5,1024C 945.578,1008.68 956.245,987.848 956.5,961.5C 957.499,878.335 957.833,795.002 957.5,711.5C 984.167,711.5 1010.83,711.5 1037.5,711.5C 1037.5,798.167 1037.5,884.833 1037.5,971.5C 1033.3,1035.87 1000.64,1078.37 939.5,1099C 889.639,1113.67 840.639,1111.34 792.5,1092C 741.554,1066.31 715.221,1024.81 713.5,967.5C 713.5,882.167 713.5,796.833 713.5,711.5C 740.5,711.5 767.5,711.5 794.5,711.5 Z"/></g>
<g><path style="opacity:1" fill="#919192" d="M 1037.5,971.5 C 1037.5,884.833 1037.5,798.167 1037.5,711.5C 1010.83,711.5 984.167,711.5 957.5,711.5C 957.833,795.002 957.499,878.335 956.5,961.5C 956.5,877.833 956.5,794.167 956.5,710.5C 983.833,710.5 1011.17,710.5 1038.5,710.5C 1038.83,797.668 1038.5,884.668 1037.5,971.5 Z"/></g>
<g><path style="opacity:1" fill="#fefefe" d="M 1089.5,710.5 C 1152.52,710.053 1215.52,710.553 1278.5,712C 1310.72,713.867 1337.89,726.367 1360,749.5C 1377.9,773.892 1383.24,800.892 1376,830.5C 1365.43,863.409 1343.26,883.242 1309.5,890C 1308.59,891.699 1308.26,893.533 1308.5,895.5C 1357.82,900.328 1387.32,926.994 1397,975.5C 1399.51,1039.33 1369.68,1078.83 1307.5,1094C 1298.19,1095.5 1288.86,1096.83 1279.5,1098C 1216.17,1098.5 1152.83,1098.67 1089.5,1098.5C 1089.5,969.167 1089.5,839.833 1089.5,710.5 Z"/></g>
<g><path style="opacity:1" fill="#1f1f22" d="M 1170.5,773.5 C 1197.84,773.333 1225.17,773.5 1252.5,774C 1289.42,780.256 1304.26,801.756 1297,838.5C 1292.17,851.333 1283.33,860.167 1270.5,865C 1262.99,867.634 1255.33,869.634 1247.5,871C 1221.84,871.5 1196.17,871.667 1170.5,871.5C 1170.5,838.833 1170.5,806.167 1170.5,773.5 Z"/></g>
<g><path style="opacity:1" fill="#1f1f22" d="M 1170.5,926.5 C 1201.85,926.117 1233.19,926.617 1264.5,928C 1303.48,934.812 1319.64,957.646 1313,996.5C 1308.2,1012.62 1298.04,1023.79 1282.5,1030C 1272.76,1033.28 1262.76,1035.28 1252.5,1036C 1225.17,1036.5 1197.84,1036.67 1170.5,1036.5C 1170.5,999.833 1170.5,963.167 1170.5,926.5 Z"/></g>
<g><path style="opacity:1" fill="#404043" d="M 580.5,1098.5 C 579.501,1045 579.168,991.336 579.5,937.5C 521.833,937.5 464.167,937.5 406.5,937.5C 406.832,991.336 406.499,1045 405.5,1098.5C 405.5,1044.5 405.5,990.5 405.5,936.5C 463.833,936.5 522.167,936.5 580.5,936.5C 580.5,990.5 580.5,1044.5 580.5,1098.5 Z"/></g>
<g><path style="opacity:1" fill="#5f5f5f" d="M 808.5,1559.5 C 808.5,1565.5 808.5,1571.5 808.5,1577.5C 806.5,1577.5 804.5,1577.5 802.5,1577.5C 803.919,1576.55 805.585,1576.22 807.5,1576.5C 807.178,1570.64 807.511,1564.98 808.5,1559.5 Z"/></g>
<g><path style="opacity:1" fill="#fdfdfd" d="M 808.5,1559.5 C 810.5,1559.5 812.5,1559.5 814.5,1559.5C 814.5,1561.83 814.5,1564.17 814.5,1566.5C 815.5,1566.5 816.5,1566.5 817.5,1566.5C 817.5,1567.5 817.5,1568.5 817.5,1569.5C 817.56,1570.04 817.893,1570.38 818.5,1570.5C 819.484,1567.57 819.817,1564.57 819.5,1561.5C 822.684,1559.59 826.351,1558.92 830.5,1559.5C 830.5,1565.5 830.5,1571.5 830.5,1577.5C 831.833,1577.5 833.167,1577.5 834.5,1577.5C 835.833,1579.5 837.5,1581.17 839.5,1582.5C 844.305,1583.49 849.305,1583.82 854.5,1583.5C 855.404,1582.79 855.737,1581.79 855.5,1580.5C 861.5,1580.5 867.5,1580.5 873.5,1580.5C 874.167,1580.5 874.5,1580.83 874.5,1581.5C 877.258,1582.82 880.424,1583.48 884,1583.5C 887.352,1583.5 890.518,1583.16 893.5,1582.5C 913.244,1578.13 932.911,1573.46 952.5,1568.5C 967.653,1567.92 982.653,1567.25 997.5,1566.5C 997.56,1565.96 997.893,1565.62 998.5,1565.5C 998.833,1569.67 999.167,1573.83 999.5,1578C 999.241,1595.42 999.241,1612.92 999.5,1630.5C 984.575,1630.16 969.575,1629.66 954.5,1629C 933.963,1624.33 913.63,1619.5 893.5,1614.5C 887.355,1613.51 881.022,1613.18 874.5,1613.5C 874.5,1622.5 874.5,1631.5 874.5,1640.5C 877.417,1640.63 880.084,1639.97 882.5,1638.5C 884.201,1639.73 886.201,1640.4 888.5,1640.5C 894.468,1639.64 900.468,1639.3 906.5,1639.5C 906.5,1641.83 906.5,1644.17 906.5,1646.5C 910.371,1646.81 914.038,1646.48 917.5,1645.5C 923.678,1645.11 929.678,1645.94 935.5,1648C 995.499,1648.5 1055.5,1648.67 1115.5,1648.5C 1205.24,1648.83 1294.9,1648.5 1384.5,1647.5C 1465.17,1647.67 1545.83,1647.5 1626.5,1647C 1627.69,1645.98 1628.69,1644.81 1629.5,1643.5C 1639.81,1642.5 1650.15,1642.17 1660.5,1642.5C 1661.09,1643.15 1661.76,1643.82 1662.5,1644.5C 1679.15,1645.5 1695.82,1645.83 1712.5,1645.5C 1713.72,1646.16 1715.05,1646.83 1716.5,1647.5C 1718.92,1653.43 1719.08,1659.43 1717,1665.5C 1716.34,1667.32 1715.17,1668.66 1713.5,1669.5C 1696.5,1669.5 1679.5,1669.5 1662.5,1669.5C 1662.5,1670.5 1662.5,1671.5 1662.5,1672.5C 1658.57,1676.96 1653.57,1678.96 1647.5,1678.5C 1642.8,1678.33 1638.13,1677.83 1633.5,1677C 1631.82,1674.6 1629.49,1673.44 1626.5,1673.5C 1626.5,1672.5 1626.5,1671.5 1626.5,1670.5C 1474.16,1670.32 1321.83,1670.82 1169.5,1672C 1168.51,1684.75 1168.18,1697.59 1168.5,1710.5C 1166.71,1710.21 1165.05,1710.55 1163.5,1711.5C 1163.98,1712.48 1164.64,1713.31 1165.5,1714C 1179.5,1714.67 1193.5,1714.67 1207.5,1714C 1208.18,1710.08 1210.52,1708.58 1214.5,1709.5C 1214.67,1710.82 1214.34,1711.99 1213.5,1713C 1214.45,1713.48 1215.45,1713.65 1216.5,1713.5C 1223.91,1714.13 1230.91,1713.46 1237.5,1711.5C 1244.17,1711.5 1250.83,1711.5 1257.5,1711.5C 1257.5,1712.83 1257.5,1714.17 1257.5,1715.5C 1287,1715.83 1316.34,1715.5 1345.5,1714.5C 1345.5,1713.5 1345.5,1712.5 1345.5,1711.5C 1351.43,1710.17 1357.43,1708.84 1363.5,1707.5C 1366.02,1709.68 1367.69,1712.34 1368.5,1715.5C 1372.41,1715.75 1376.08,1715.09 1379.5,1713.5C 1380.23,1717 1381.89,1720 1384.5,1722.5C 1382.31,1724.86 1380.31,1727.36 1378.5,1730C 1372.5,1730.67 1366.5,1730.67 1360.5,1730C 1359.66,1728.99 1359.33,1727.82 1359.5,1726.5C 1328.82,1726.72 1298.16,1727.39 1267.5,1728.5C 1267.29,1729.09 1266.96,1729.59 1266.5,1730C 1259.42,1730.79 1252.42,1730.63 1245.5,1729.5C 1245.5,1728.5 1245.5,1727.5 1245.5,1726.5C 1237.32,1726.17 1229.32,1726.51 1221.5,1727.5C 1221.58,1729.25 1220.75,1730.25 1219,1730.5C 1217.14,1728.63 1214.81,1727.63 1212,1727.5C 1210.5,1727.67 1209,1727.83 1207.5,1728C 1206.32,1730.26 1204.65,1732.09 1202.5,1733.5C 1201.89,1733.38 1201.56,1733.04 1201.5,1732.5C 1201.79,1730.71 1201.45,1729.05 1200.5,1727.5C 1199.57,1728.69 1199.24,1730.02 1199.5,1731.5C 1196.71,1731.78 1194.21,1731.11 1192,1729.5C 1187.44,1731.47 1183.77,1730.47 1181,1726.5C 1180.95,1728.89 1179.78,1730.22 1177.5,1730.5C 1175.6,1729.94 1173.93,1728.94 1172.5,1727.5C 1169.27,1729.98 1165.94,1729.98 1162.5,1727.5C 1160.3,1728.3 1158.3,1728.3 1156.5,1727.5C 1150.36,1726.51 1144.02,1726.18 1137.5,1726.5C 1137.5,1727.5 1137.5,1728.5 1137.5,1729.5C 1136.17,1730.17 1135.17,1731.17 1134.5,1732.5C 1131.93,1732.72 1129.6,1733.39 1127.5,1734.5C 1122.85,1735.91 1118.18,1735.57 1113.5,1733.5C 1109.81,1728.98 1105.65,1724.98 1101,1721.5C 1099.21,1719.24 1097.71,1716.91 1096.5,1714.5C 1071.84,1713.17 1046.84,1712.5 1021.5,1712.5C 996.331,1712.5 971.331,1712.83 946.5,1713.5C 930.121,1719.88 913.788,1725.88 897.5,1731.5C 895.447,1731.4 893.78,1732.07 892.5,1733.5C 888.276,1735.24 883.942,1736.58 879.5,1737.5C 874.167,1737.5 868.833,1737.5 863.5,1737.5C 863.181,1742.36 863.514,1747.03 864.5,1751.5C 866.205,1755.96 865.538,1760.13 862.5,1764C 836.803,1766.04 811.137,1768.2 785.5,1770.5C 784.5,1770.5 783.5,1770.5 782.5,1770.5C 782.815,1766.63 782.482,1762.96 781.5,1759.5C 780.514,1755.03 780.181,1750.36 780.5,1745.5C 773.8,1745.17 767.134,1745.5 760.5,1746.5C 757.637,1752.86 752.97,1757.36 746.5,1760C 730.505,1760.95 714.505,1761.28 698.5,1761C 695.956,1759.91 693.289,1759.24 690.5,1759C 688.983,1757.31 687.316,1755.81 685.5,1754.5C 684.316,1756.05 683.316,1757.71 682.5,1759.5C 680.165,1766.89 677.832,1774.23 675.5,1781.5C 674.899,1792.89 673.732,1804.22 672,1815.5C 670.829,1816.89 669.329,1817.73 667.5,1818C 657.481,1818.49 647.481,1818.16 637.5,1817C 627.065,1813.62 616.731,1809.95 606.5,1806C 595.789,1805.26 585.122,1804.09 574.5,1802.5C 567.183,1803.6 559.85,1804.1 552.5,1804C 546.169,1799.37 539.502,1795.04 532.5,1791C 530.768,1789.03 529.435,1786.86 528.5,1784.5C 526.88,1782.59 524.88,1781.25 522.5,1780.5C 519.056,1778.09 516.39,1774.93 514.5,1771C 500.167,1770.33 485.833,1770.33 471.5,1771C 467.789,1771.17 464.122,1771.67 460.5,1772.5C 458.702,1780.49 457.035,1788.49 455.5,1796.5C 452.016,1797.87 448.349,1798.87 444.5,1799.5C 427.525,1798.36 410.525,1798.19 393.5,1799C 392.376,1799.25 391.376,1799.75 390.5,1800.5C 371.632,1800.04 353.299,1802.7 335.5,1808.5C 334.178,1808.67 333.011,1808.34 332,1807.5C 331.142,1800.31 329.976,1793.31 328.5,1786.5C 327.335,1747.34 327.169,1708 328,1668.5C 328.69,1665.8 330.19,1663.64 332.5,1662C 339.665,1661.91 346.665,1662.41 353.5,1663.5C 366.297,1663.89 379.131,1664.89 392,1666.5C 392.765,1666.43 393.265,1666.1 393.5,1665.5C 396.128,1663.52 399.128,1662.02 402.5,1661C 444.833,1660.33 487.167,1660.33 529.5,1661C 532.97,1663.15 536.637,1664.81 540.5,1666C 541.128,1668.8 542.128,1671.47 543.5,1674C 560.83,1674.5 578.163,1674.67 595.5,1674.5C 624.835,1674.67 654.169,1674.5 683.5,1674C 684.71,1672.96 685.71,1671.79 686.5,1670.5C 686.952,1662.15 687.952,1653.82 689.5,1645.5C 701.167,1645.5 712.833,1645.5 724.5,1645.5C 724.579,1644.07 724.246,1642.74 723.5,1641.5C 729.486,1640.5 735.486,1640.5 741.5,1641.5C 741.238,1640.02 741.571,1638.69 742.5,1637.5C 743.981,1638.48 745.315,1639.65 746.5,1641C 748.134,1641.49 749.801,1641.66 751.5,1641.5C 752.467,1640.19 753.801,1639.53 755.5,1639.5C 756.167,1639.5 756.5,1639.83 756.5,1640.5C 757.946,1641.61 759.613,1641.78 761.5,1641C 762.858,1640.07 764.192,1639.23 765.5,1638.5C 765.691,1634.33 766.024,1630.16 766.5,1626C 766.578,1622.59 765.912,1619.43 764.5,1616.5C 760.724,1615.18 756.557,1614.51 752,1614.5C 747.653,1614.5 743.486,1614.83 739.5,1615.5C 732.413,1617.46 725.08,1618.79 717.5,1619.5C 694.833,1620.83 672.167,1620.83 649.5,1619.5C 648.415,1618.22 647.748,1616.72 647.5,1615C 646.283,1603.16 646.45,1591.33 648,1579.5C 648.5,1579 649,1578.5 649.5,1578C 671.833,1577.33 694.167,1577.33 716.5,1578C 726.525,1579.5 736.525,1581 746.5,1582.5C 752.31,1583.49 758.31,1583.82 764.5,1583.5C 764.5,1582.5 764.5,1581.5 764.5,1580.5C 771.167,1580.5 777.833,1580.5 784.5,1580.5C 784.263,1581.79 784.596,1582.79 785.5,1583.5C 789.5,1583.5 793.5,1583.5 797.5,1583.5C 798.316,1580.89 799.983,1578.89 802.5,1577.5C 804.5,1577.5 806.5,1577.5 808.5,1577.5C 808.5,1571.5 808.5,1565.5 808.5,1559.5 Z"/></g>
<g><path style="opacity:1" fill="#5f5f5f" d="M 830.5,1559.5 C 831.489,1564.98 831.822,1570.64 831.5,1576.5C 832.791,1576.26 833.791,1576.6 834.5,1577.5C 833.167,1577.5 831.833,1577.5 830.5,1577.5C 830.5,1571.5 830.5,1565.5 830.5,1559.5 Z"/></g>
<g><path style="opacity:1" fill="#a1a1a1" d="M 819.5,1561.5 C 819.817,1564.57 819.484,1567.57 818.5,1570.5C 817.893,1570.38 817.56,1570.04 817.5,1569.5C 818.754,1567.64 818.754,1565.64 817.5,1563.5C 817.855,1562.48 818.522,1561.81 819.5,1561.5 Z"/></g>
<g><path style="opacity:1" fill="#c0c0c0" d="M 997.5,1566.5 C 982.653,1567.25 967.653,1567.92 952.5,1568.5C 953.609,1567.71 954.942,1567.21 956.5,1567C 970.163,1566.5 983.829,1566.33 997.5,1566.5 Z"/></g>
<g><path style="opacity:1" fill="#bdbdbd" d="M 764.5,1580.5 C 764.5,1580.17 764.5,1579.83 764.5,1579.5C 771.5,1579.5 778.5,1579.5 785.5,1579.5C 785.5,1580.83 785.5,1582.17 785.5,1583.5C 784.596,1582.79 784.263,1581.79 784.5,1580.5C 777.833,1580.5 771.167,1580.5 764.5,1580.5 Z"/></g>
<g><path style="opacity:1" fill="#b9b9b9" d="M 873.5,1580.5 C 867.5,1580.5 861.5,1580.5 855.5,1580.5C 855.737,1581.79 855.404,1582.79 854.5,1583.5C 854.5,1582.5 854.5,1581.5 854.5,1580.5C 860.833,1579.17 867.167,1579.17 873.5,1580.5 Z"/></g>
<g><path style="opacity:1" fill="#595959" d="M 764.5,1579.5 C 764.5,1579.83 764.5,1580.17 764.5,1580.5C 764.5,1581.5 764.5,1582.5 764.5,1583.5C 758.31,1583.82 752.31,1583.49 746.5,1582.5C 752.167,1582.5 757.833,1582.5 763.5,1582.5C 763.263,1581.21 763.596,1580.21 764.5,1579.5 Z"/></g>
<g><path style="opacity:1" fill="#545454" d="M 854.5,1580.5 C 854.5,1581.5 854.5,1582.5 854.5,1583.5C 849.305,1583.82 844.305,1583.49 839.5,1582.5C 844.807,1583.03 849.807,1582.36 854.5,1580.5 Z"/></g>
<g><path style="opacity:1" fill="#585858" d="M 874.5,1581.5 C 880.744,1582.46 887.077,1582.79 893.5,1582.5C 890.518,1583.16 887.352,1583.5 884,1583.5C 880.424,1583.48 877.258,1582.82 874.5,1581.5 Z"/></g>
<g><path style="opacity:1" fill="#969696" d="M 840.5,1614.5 C 845.305,1613.51 850.305,1613.18 855.5,1613.5C 855.5,1614.5 855.5,1615.5 855.5,1616.5C 850.807,1614.64 845.807,1613.97 840.5,1614.5 Z"/></g>
<g><path style="opacity:1" fill="#a8a8a8" d="M 739.5,1615.5 C 743.486,1614.83 747.653,1614.5 752,1614.5C 756.557,1614.51 760.724,1615.18 764.5,1616.5C 756.252,1615.53 747.918,1615.2 739.5,1615.5 Z"/></g>
<g><path style="opacity:1" fill="#222225" d="M 840.5,1614.5 C 845.807,1613.97 850.807,1614.64 855.5,1616.5C 855.5,1623.5 855.5,1630.5 855.5,1637.5C 853.263,1638.45 850.929,1639.12 848.5,1639.5C 846.585,1639.78 844.919,1639.45 843.5,1638.5C 843.44,1637.96 843.107,1637.62 842.5,1637.5C 841.158,1639 839.492,1639.67 837.5,1639.5C 835.901,1639.77 834.568,1639.43 833.5,1638.5C 833.179,1636.95 832.179,1636.29 830.5,1636.5C 830.5,1637.5 830.5,1638.5 830.5,1639.5C 827.303,1639.03 824.137,1638.36 821,1637.5C 817.895,1638.37 814.728,1638.7 811.5,1638.5C 811.44,1637.96 811.107,1637.62 810.5,1637.5C 809.158,1639 807.492,1639.67 805.5,1639.5C 803.708,1639.63 802.042,1639.3 800.5,1638.5C 800.44,1637.96 800.107,1637.62 799.5,1637.5C 798.158,1639 796.492,1639.67 794.5,1639.5C 793.209,1639.74 792.209,1639.4 791.5,1638.5C 790.432,1637.57 789.099,1637.23 787.5,1637.5C 787.813,1633.96 787.479,1630.62 786.5,1627.5C 785.517,1623.7 785.183,1619.7 785.5,1615.5C 788.884,1615.66 792.217,1615.33 795.5,1614.5C 797.556,1615.05 799.223,1616.21 800.5,1618C 812.5,1618.67 824.5,1618.67 836.5,1618C 837.705,1616.62 839.038,1615.46 840.5,1614.5 Z"/></g>
<g><path style="opacity:1" fill="#676767" d="M 893.5,1614.5 C 887.5,1614.5 881.5,1614.5 875.5,1614.5C 875.5,1622.83 875.5,1631.17 875.5,1639.5C 877.57,1639.55 879.403,1638.88 881,1637.5C 881.765,1637.57 882.265,1637.9 882.5,1638.5C 880.084,1639.97 877.417,1640.63 874.5,1640.5C 874.5,1631.5 874.5,1622.5 874.5,1613.5C 881.022,1613.18 887.355,1613.51 893.5,1614.5 Z"/></g>
<g><path style="opacity:1" fill="#6e6e6e" d="M 755.5,1639.5 C 753.801,1639.53 752.467,1640.19 751.5,1641.5C 751.323,1637.09 752.657,1636.42 755.5,1639.5 Z"/></g>
<g><path style="opacity:1" fill="#747474" d="M 786.5,1627.5 C 787.479,1630.62 787.813,1633.96 787.5,1637.5C 789.099,1637.23 790.432,1637.57 791.5,1638.5C 790.2,1639.11 788.867,1639.77 787.5,1640.5C 786.833,1640.17 786.167,1639.83 785.5,1639.5C 786.433,1635.57 786.766,1631.57 786.5,1627.5 Z"/></g>
<g><path style="opacity:1" fill="#666666" d="M 800.5,1638.5 C 798.683,1640.51 796.683,1640.84 794.5,1639.5C 796.492,1639.67 798.158,1639 799.5,1637.5C 800.107,1637.62 800.44,1637.96 800.5,1638.5 Z"/></g>
<g><path style="opacity:1" fill="#6c6c6c" d="M 811.5,1638.5 C 809.683,1640.51 807.683,1640.84 805.5,1639.5C 807.492,1639.67 809.158,1639 810.5,1637.5C 811.107,1637.62 811.44,1637.96 811.5,1638.5 Z"/></g>
<g><path style="opacity:1" fill="#6a6a6a" d="M 843.5,1638.5 C 841.683,1640.51 839.683,1640.84 837.5,1639.5C 839.492,1639.67 841.158,1639 842.5,1637.5C 843.107,1637.62 843.44,1637.96 843.5,1638.5 Z"/></g>
<g><path style="opacity:1" fill="#6f6f6f" d="M 855.5,1637.5 C 853.588,1640.14 851.255,1640.81 848.5,1639.5C 850.929,1639.12 853.263,1638.45 855.5,1637.5 Z"/></g>
<g><path style="opacity:1" fill="#aaaaaa" d="M 765.5,1638.5 C 764.192,1639.23 762.858,1640.07 761.5,1641C 759.613,1641.78 757.946,1641.61 756.5,1640.5C 758.672,1640.16 760.505,1639.16 762,1637.5C 763.138,1637.99 764.305,1638.32 765.5,1638.5 Z"/></g>
<g><path style="opacity:1" fill="#afafaf" d="M 833.5,1638.5 C 831.797,1637.34 831.131,1638.01 831.5,1640.5C 827.293,1640.34 823.126,1640.67 819,1641.5C 816.39,1640.46 813.89,1639.46 811.5,1638.5C 814.728,1638.7 817.895,1638.37 821,1637.5C 824.137,1638.36 827.303,1639.03 830.5,1639.5C 830.5,1638.5 830.5,1637.5 830.5,1636.5C 832.179,1636.29 833.179,1636.95 833.5,1638.5 Z"/></g>
<g><path style="opacity:1" fill="#6a6a6a" d="M 1660.5,1642.5 C 1677.88,1644.09 1695.21,1645.09 1712.5,1645.5C 1695.82,1645.83 1679.15,1645.5 1662.5,1644.5C 1661.76,1643.82 1661.09,1643.15 1660.5,1642.5 Z"/></g>
<g><path style="opacity:1" fill="#5d5d5d" d="M 906.5,1639.5 C 907.461,1641.26 907.795,1643.26 907.5,1645.5C 910.833,1645.5 914.167,1645.5 917.5,1645.5C 914.038,1646.48 910.371,1646.81 906.5,1646.5C 906.5,1644.17 906.5,1641.83 906.5,1639.5 Z"/></g>
<g><path style="opacity:1" fill="#d7d7d7" d="M 1660.5,1642.5 C 1650.15,1642.17 1639.81,1642.5 1629.5,1643.5C 1628.69,1644.81 1627.69,1645.98 1626.5,1647C 1545.83,1647.5 1465.17,1647.67 1384.5,1647.5C 1384.5,1647.17 1384.5,1646.83 1384.5,1646.5C 1464.83,1646.67 1545.17,1646.5 1625.5,1646C 1626.69,1644.98 1627.69,1643.81 1628.5,1642.5C 1639.33,1641.18 1649.99,1641.18 1660.5,1642.5 Z"/></g>
<g><path style="opacity:1" fill="#a8a8a8" d="M 689.5,1645.5 C 687.952,1653.82 686.952,1662.15 686.5,1670.5C 686.334,1662.49 686.5,1654.49 687,1646.5C 687.671,1645.75 688.504,1645.41 689.5,1645.5 Z"/></g>
<g><path style="opacity:1" fill="#c1c1c1" d="M 1384.5,1646.5 C 1384.5,1646.83 1384.5,1647.17 1384.5,1647.5C 1294.9,1648.5 1205.24,1648.83 1115.5,1648.5C 1205.04,1647.83 1294.71,1647.16 1384.5,1646.5 Z"/></g>
<g><path style="opacity:1" fill="#939393" d="M 393.5,1665.5 C 393.265,1666.1 392.765,1666.43 392,1666.5C 379.131,1664.89 366.297,1663.89 353.5,1663.5C 363.69,1663.75 373.857,1663.41 384,1662.5C 387.497,1662.66 390.664,1663.66 393.5,1665.5 Z"/></g>
<g><path style="opacity:1" fill="#969696" d="M 1713.5,1669.5 C 1696.44,1669.86 1679.44,1670.86 1662.5,1672.5C 1662.5,1671.5 1662.5,1670.5 1662.5,1669.5C 1679.5,1669.5 1696.5,1669.5 1713.5,1669.5 Z"/></g>
<g><path style="opacity:1" fill="#aaaaaa" d="M 686.5,1670.5 C 685.71,1671.79 684.71,1672.96 683.5,1674C 654.169,1674.5 624.835,1674.67 595.5,1674.5C 624.336,1673.83 653.336,1673.17 682.5,1672.5C 683.577,1671.29 684.91,1670.63 686.5,1670.5 Z"/></g>
<g><path style="opacity:1" fill="#787878" d="M 946.5,1713.5 C 971.331,1712.83 996.331,1712.5 1021.5,1712.5C 1046.84,1712.5 1071.84,1713.17 1096.5,1714.5C 1046.57,1713.5 996.572,1713.17 946.5,1713.5 Z"/></g>
<g><path style="opacity:1" fill="#8a8a8a" d="M 1237.5,1711.5 C 1230.91,1713.46 1223.91,1714.13 1216.5,1713.5C 1223.4,1712.8 1230.4,1712.13 1237.5,1711.5 Z"/></g>
<g><path style="opacity:1" fill="#6c6c6c" d="M 1345.5,1711.5 C 1345.5,1712.5 1345.5,1713.5 1345.5,1714.5C 1316.33,1714.83 1287.33,1714.5 1258.5,1713.5C 1287.72,1714.15 1316.72,1713.48 1345.5,1711.5 Z"/></g>
<g><path style="opacity:1" fill="#202023" d="M 641.5,1724.5 C 642.698,1730.78 642.698,1737.12 641.5,1743.5C 640.155,1745.7 638.989,1748.03 638,1750.5C 634.296,1754.04 630.796,1757.7 627.5,1761.5C 625.147,1762.34 623.147,1763.67 621.5,1765.5C 619.847,1765.66 618.514,1766.33 617.5,1767.5C 608.792,1767.74 600.126,1767.41 591.5,1766.5C 577.969,1758.05 574.135,1746.38 580,1731.5C 589.366,1719.7 601.7,1714.03 617,1714.5C 622.536,1715.07 628.036,1715.91 633.5,1717C 636.855,1718.83 639.522,1721.33 641.5,1724.5 Z"/></g>
<g><path style="opacity:1" fill="#d8d8d8" d="M 1237.5,1711.5 C 1244.31,1710.51 1251.31,1710.18 1258.5,1710.5C 1258.5,1711.5 1258.5,1712.5 1258.5,1713.5C 1287.33,1714.5 1316.33,1714.83 1345.5,1714.5C 1316.34,1715.5 1287,1715.83 1257.5,1715.5C 1257.5,1714.17 1257.5,1712.83 1257.5,1711.5C 1250.83,1711.5 1244.17,1711.5 1237.5,1711.5 Z"/></g>
<g><path style="opacity:1" fill="#202023" d="M 693.5,1715.5 C 698.167,1715.5 702.833,1715.5 707.5,1715.5C 707.175,1723.02 707.508,1730.35 708.5,1737.5C 711.296,1740.8 714.296,1743.96 717.5,1747C 721.813,1747.74 726.147,1748.24 730.5,1748.5C 730.719,1747.32 730.386,1746.32 729.5,1745.5C 723.491,1744.24 718.991,1740.91 716,1735.5C 715.19,1728.92 715.357,1722.42 716.5,1716C 726.5,1715.33 736.5,1715.33 746.5,1716C 748.225,1719.96 750.558,1723.46 753.5,1726.5C 754.458,1732.74 754.791,1739.08 754.5,1745.5C 752.466,1748.73 750.133,1751.89 747.5,1755C 732.833,1755.67 718.167,1755.67 703.5,1755C 701.715,1753.84 699.715,1753.17 697.5,1753C 694.567,1749.96 692.4,1746.46 691,1742.5C 690.333,1735.5 690.333,1728.5 691,1721.5C 691.938,1719.51 692.772,1717.51 693.5,1715.5 Z"/></g>
<g><path style="opacity:1" fill="#7f7f7f" d="M 693.5,1715.5 C 698.305,1714.51 703.305,1714.18 708.5,1714.5C 708.5,1722.17 708.5,1729.83 708.5,1737.5C 707.508,1730.35 707.175,1723.02 707.5,1715.5C 702.833,1715.5 698.167,1715.5 693.5,1715.5 Z"/></g>
<g><path style="opacity:1" fill="#b1b1b1" d="M 1156.5,1727.5 C 1149.88,1726.94 1143.55,1727.61 1137.5,1729.5C 1137.5,1728.5 1137.5,1727.5 1137.5,1726.5C 1144.02,1726.18 1150.36,1726.51 1156.5,1727.5 Z"/></g>
<g><path style="opacity:1" fill="#b3b3b3" d="M 1221.5,1727.5 C 1229.32,1726.51 1237.32,1726.17 1245.5,1726.5C 1245.5,1727.5 1245.5,1728.5 1245.5,1729.5C 1237.77,1727.58 1229.77,1726.92 1221.5,1727.5 Z"/></g>
<g><path style="opacity:1" fill="#bdbdbd" d="M 753.5,1726.5 C 754.818,1729.26 755.485,1732.42 755.5,1736C 755.498,1739.35 755.165,1742.52 754.5,1745.5C 754.791,1739.08 754.458,1732.74 753.5,1726.5 Z"/></g>
<g><path style="opacity:1" fill="#767676" d="M 1201.5,1732.5 C 1200.83,1732.17 1200.17,1731.83 1199.5,1731.5C 1199.24,1730.02 1199.57,1728.69 1200.5,1727.5C 1201.45,1729.05 1201.79,1730.71 1201.5,1732.5 Z"/></g>
<g><path style="opacity:1" fill="#bababa" d="M 641.5,1724.5 C 642.818,1727.26 643.485,1730.42 643.5,1734C 643.485,1737.58 642.818,1740.74 641.5,1743.5C 642.698,1737.12 642.698,1730.78 641.5,1724.5 Z"/></g>
<g><path style="opacity:1" fill="#858585" d="M 897.5,1731.5 C 896.22,1732.93 894.553,1733.6 892.5,1733.5C 893.78,1732.07 895.447,1731.4 897.5,1731.5 Z"/></g>
<g><path style="opacity:1" fill="#a9a9a9" d="M 1134.5,1732.5 C 1132.56,1734.16 1130.23,1734.83 1127.5,1734.5C 1129.6,1733.39 1131.93,1732.72 1134.5,1732.5 Z"/></g>
<g><path style="opacity:1" fill="#838383" d="M 879.5,1737.5 C 874.695,1738.49 869.695,1738.82 864.5,1738.5C 864.5,1742.83 864.5,1747.17 864.5,1751.5C 863.514,1747.03 863.181,1742.36 863.5,1737.5C 868.833,1737.5 874.167,1737.5 879.5,1737.5 Z"/></g>
<g><path style="opacity:1" fill="#8f8f8f" d="M 781.5,1759.5 C 782.482,1762.96 782.815,1766.63 782.5,1770.5C 783.5,1770.5 784.5,1770.5 785.5,1770.5C 784.432,1771.43 783.099,1771.77 781.5,1771.5C 781.5,1767.5 781.5,1763.5 781.5,1759.5 Z"/></g>
<g><path style="opacity:1" fill="#a3a3a3" d="M 627.5,1761.5 C 626.198,1763.82 624.198,1765.16 621.5,1765.5C 623.147,1763.67 625.147,1762.34 627.5,1761.5 Z"/></g>
<g><path style="opacity:1" fill="#a2a2a2" d="M 591.5,1766.5 C 600.126,1767.41 608.792,1767.74 617.5,1767.5C 609.677,1768.66 601.677,1768.82 593.5,1768C 592.584,1767.72 591.918,1767.22 591.5,1766.5 Z"/></g>
<g><path style="opacity:1" fill="#959595" d="M 522.5,1780.5 C 524.88,1781.25 526.88,1782.59 528.5,1784.5C 525.735,1784.29 523.735,1782.96 522.5,1780.5 Z"/></g>
<g><path style="opacity:1" fill="#bdbdbd" d="M 328.5,1786.5 C 329.976,1793.31 331.142,1800.31 332,1807.5C 333.011,1808.34 334.178,1808.67 335.5,1808.5C 334.116,1809.8 332.616,1809.8 331,1808.5C 329.744,1801.21 328.91,1793.87 328.5,1786.5 Z"/></g>
<g><path style="opacity:1" fill="#343351" d="M 1910.5,140.5 C 1910.83,140.5 1911.17,140.5 1911.5,140.5C 1911.5,733.167 1911.5,1325.83 1911.5,1918.5C 1319.5,1918.5 727.5,1918.5 135.5,1918.5C 135.5,1918.17 135.5,1917.83 135.5,1917.5C 135.833,1917.5 136.167,1917.5 136.5,1917.5C 727.5,1917.5 1318.5,1917.5 1909.5,1917.5C 1910.5,1325.33 1910.83,733 1910.5,140.5 Z"/></g>
</svg>
