<?xml version="1.0" encoding="UTF-8"?>
<svg xmlns="http://www.w3.org/2000/svg" xmlns:xlink="http://www.w3.org/1999/xlink" width="54px" height="54px" viewBox="0 0 54 54" version="1.1">
<g id="surface1">
<path style=" stroke:none;fill-rule:evenodd;fill:rgb(100%,100%,100%);fill-opacity:1;" d="M 50.625 5.851562 C 50.625 5.851562 38.695312 0.613281 26.773438 0.613281 C 14.851562 0.613281 3.375 5.851562 3.375 5.851562 L 3.375 17.304688 L 7.09375 17.304688 L 7.09375 8.359375 C 8.484375 7.828125 10.019531 7.300781 11.671875 6.804688 C 16.800781 5.261719 21.964844 4.339844 26.796875 4.339844 C 31.605469 4.34375 36.855469 5.269531 42.125 6.8125 C 43.84375 7.316406 45.449219 7.851562 46.90625 8.390625 L 46.90625 17.304688 L 50.625 17.304688 Z M 50.625 30.917969 L 50.625 42.871094 L 27.03125 53.261719 L 3.375 42.871094 L 3.375 30.917969 L 7.09375 30.917969 L 7.09375 40.433594 L 27.03125 49.1875 L 46.90625 40.4375 L 46.90625 30.917969 Z M 16.496094 14.59375 C 25.378906 12.699219 29.554688 15.582031 30.785156 16.492188 C 30.050781 23.171875 26.078125 25.574219 26.078125 25.449219 C 25.308594 23.929688 24.148438 23.171875 24.148438 23.171875 C 19.898438 26.964844 20.355469 33.566406 20.355469 33.566406 C 27.695312 38.121094 34.261719 33.945312 34.261719 33.945312 C 33.03125 33.566406 31.558594 32.050781 31.558594 32.050781 C 31.558594 32.050781 34.261719 31.554688 36.578125 26.898438 C 38.898438 22.246094 36.578125 14.59375 36.578125 14.59375 C 37.351562 15.355469 40.757812 19.90625 40.757812 25.980469 C 40.757812 31.570312 36.789062 35.179688 34.964844 36.453125 C 32.425781 38.21875 26.308594 39.476562 21.371094 37.679688 C 16.429688 35.882812 13.40625 31.570312 13.40625 26.359375 C 13.40625 19.351562 18.425781 16.113281 18.425781 16.113281 C 18.039062 15.355469 16.496094 14.59375 16.496094 14.59375 Z M 16.496094 14.59375 "/>
</g>
</svg>
