<?xml version="1.0" encoding="UTF-8"?>
<svg xmlns="http://www.w3.org/2000/svg" xmlns:xlink="http://www.w3.org/1999/xlink" width="150px" height="150px" viewBox="0 0 150 150" version="1.1">
<g id="surface1">
<path style=" stroke:none;fill-rule:evenodd;fill:rgb(100%,100%,100%);fill-opacity:1;" d="M 140.625 16.253906 C 140.625 16.253906 107.488281 1.703125 74.371094 1.703125 C 41.253906 1.703125 9.375 16.253906 9.375 16.253906 L 9.375 48.070312 L 19.703125 48.070312 L 19.703125 23.21875 C 23.566406 21.746094 27.832031 20.28125 32.421875 18.902344 C 46.667969 14.617188 61.011719 12.054688 74.4375 12.054688 C 87.792969 12.066406 102.375 14.636719 117.015625 18.921875 C 121.789062 20.324219 126.246094 21.808594 130.296875 23.308594 L 130.296875 48.070312 L 140.625 48.070312 Z M 140.625 85.882812 L 140.625 119.085938 L 75.085938 147.949219 L 9.375 119.085938 L 9.375 85.882812 L 19.703125 85.882812 L 19.703125 112.316406 L 75.085938 136.632812 L 130.296875 112.328125 L 130.296875 85.882812 Z M 45.824219 40.539062 C 70.496094 35.277344 82.097656 43.285156 85.515625 45.8125 C 83.472656 64.367188 72.4375 71.039062 72.4375 70.691406 C 70.300781 66.472656 67.078125 64.367188 67.078125 64.367188 C 55.273438 74.902344 56.542969 93.238281 56.542969 93.238281 C 76.929688 105.890625 95.171875 94.292969 95.171875 94.292969 C 91.753906 93.238281 87.664062 89.03125 87.664062 89.03125 C 87.664062 89.03125 95.171875 87.652344 101.605469 74.71875 C 108.050781 61.792969 101.605469 40.539062 101.605469 40.539062 C 103.753906 42.652344 113.214844 55.296875 113.214844 72.167969 C 113.214844 87.695312 102.191406 97.722656 97.125 101.257812 C 90.070312 106.164062 73.078125 109.65625 59.363281 104.664062 C 45.636719 99.675781 37.238281 87.695312 37.238281 73.21875 C 37.238281 53.753906 51.183594 44.757812 51.183594 44.757812 C 50.109375 42.652344 45.824219 40.539062 45.824219 40.539062 Z M 45.824219 40.539062 "/>
</g>
</svg>
