<?xml version="1.0" encoding="UTF-8"?>
<svg xmlns="http://www.w3.org/2000/svg" xmlns:xlink="http://www.w3.org/1999/xlink" width="75px" height="75px" viewBox="0 0 75 75" version="1.1">
<g id="surface1">
<path style=" stroke:none;fill-rule:evenodd;fill:rgb(100%,100%,100%);fill-opacity:1;" d="M 70.3125 8.125 C 70.3125 8.125 53.742188 0.851562 37.1875 0.851562 C 20.625 0.851562 4.6875 8.125 4.6875 8.125 L 4.6875 24.035156 L 9.851562 24.035156 L 9.851562 11.609375 C 11.78125 10.875 13.914062 10.140625 16.210938 9.453125 C 23.335938 7.308594 30.507812 6.027344 37.21875 6.027344 C 43.898438 6.03125 51.1875 7.320312 58.507812 9.460938 C 60.894531 10.164062 63.125 10.90625 65.148438 11.65625 L 65.148438 24.035156 L 70.3125 24.035156 Z M 70.3125 42.941406 L 70.3125 59.542969 L 37.542969 73.976562 L 4.6875 59.542969 L 4.6875 42.941406 L 9.851562 42.941406 L 9.851562 56.15625 L 37.542969 68.316406 L 65.148438 56.164062 L 65.148438 42.941406 Z M 22.914062 20.269531 C 35.25 17.640625 41.046875 21.640625 42.757812 22.90625 C 41.734375 32.183594 36.21875 35.519531 36.21875 35.34375 C 35.148438 33.234375 33.539062 32.183594 33.539062 32.183594 C 27.636719 37.453125 28.273438 46.617188 28.273438 46.617188 C 38.464844 52.945312 47.585938 47.148438 47.585938 47.148438 C 45.875 46.617188 43.832031 44.515625 43.832031 44.515625 C 43.832031 44.515625 47.585938 43.828125 50.804688 37.359375 C 54.023438 30.898438 50.804688 20.269531 50.804688 20.269531 C 51.875 21.328125 56.609375 27.648438 56.609375 36.085938 C 56.609375 43.847656 51.09375 48.859375 48.5625 50.628906 C 45.035156 53.082031 36.539062 54.828125 29.679688 52.332031 C 22.820312 49.835938 18.617188 43.847656 18.617188 36.609375 C 18.617188 26.875 25.59375 22.378906 25.59375 22.378906 C 25.054688 21.328125 22.914062 20.269531 22.914062 20.269531 Z M 22.914062 20.269531 "/>
</g>
</svg>
