<?xml version="1.0" standalone="no"?>
<!DOCTYPE svg PUBLIC "-//W3C//DTD SVG 20010904//EN"
 "http://www.w3.org/TR/2001/REC-SVG-20010904/DTD/svg10.dtd">
<svg version="1.0" xmlns="http://www.w3.org/2000/svg"
 width="171.000000pt" height="171.000000pt" viewBox="0 0 171.000000 171.000000"
 preserveAspectRatio="xMidYMid meet">

<g transform="translate(0.000000,171.000000) scale(0.100000,-0.100000)"
fill="#FFFFFF" stroke="none">
<path d="M377 1332 l-377 -377 2 -473 3 -472 850 850 850 850 -475 0 -475 0
-378 -378z m573 97 l121 -162 -27 -28 c-15 -16 -32 -29 -37 -29 -6 0 -53 27
-104 61 -52 33 -92 54 -87 47 4 -7 32 -53 62 -101 l55 -88 -28 -29 c-16 -17
-32 -30 -36 -30 -5 0 -300 218 -318 236 -3 3 8 18 25 34 l29 29 93 -75 c50
-41 92 -73 92 -70 0 3 -27 48 -60 100 -33 53 -60 99 -60 104 0 5 9 17 20 27
17 16 22 16 42 3 13 -8 61 -39 107 -68 l85 -52 -54 68 c-30 38 -65 82 -78 98
l-23 29 27 28 c15 16 29 29 31 29 1 0 57 -73 123 -161z m-422 -246 l-52 -53
29 -30 29 -30 41 40 41 40 28 -29 28 -29 -42 -41 -41 -41 28 -25 c15 -13 30
-25 33 -25 3 0 28 22 55 50 l49 50 28 -27 28 -27 -82 -83 -83 -83 -142 142
-143 143 82 82 82 83 28 -27 28 -27 -52 -53z m-94 -210 c60 -60 123 -123 139
-141 l30 -33 -21 -22 -22 -21 -102 34 c-56 19 -107 37 -112 39 -6 2 23 -31 64
-73 l75 -76 -28 -27 -27 -28 -142 142 -142 142 23 25 23 25 111 -40 c61 -21
113 -39 116 -39 2 0 -30 34 -73 76 l-77 76 22 24 c12 13 25 24 28 24 3 0 54
-48 115 -107z"/>
</g>
</svg>
