<?xml version="1.0" encoding="UTF-8"?>
<svg xmlns="http://www.w3.org/2000/svg" xmlns:xlink="http://www.w3.org/1999/xlink" width="150px" height="35px" viewBox="0 0 152 35" version="1.1">
<g id="surface1">
<path style=" stroke:none;fill-rule:evenodd;fill:rgb(100%,100%,100%);fill-opacity:1;" d="M 12.414062 13.195312 C 12.414062 13.164062 12.777344 11.464844 13.503906 8.097656 C 13.582031 7.726562 13.820312 7.542969 14.21875 7.542969 L 23.472656 7.542969 C 23.875 7.542969 24.75 6.992188 26.105469 5.890625 C 26.230469 5.796875 26.292969 5.707031 26.292969 5.613281 C 26.292969 5.523438 26.207031 5.476562 26.03125 5.476562 L 9.894531 5.476562 C 8.714844 5.476562 7.636719 5.882812 6.660156 6.691406 C 5.683594 7.503906 5.066406 8.460938 4.816406 9.566406 L 3.5 15.722656 C 3.425781 15.996094 3.386719 16.273438 3.386719 16.550781 C 3.386719 17.496094 3.707031 18.273438 4.347656 18.867188 C 4.988281 19.464844 5.796875 19.765625 6.773438 19.765625 L 14.558594 19.765625 C 14.859375 19.765625 15.011719 19.917969 15.011719 20.222656 C 15.011719 20.253906 14.644531 21.957031 13.921875 25.324219 C 13.84375 25.722656 13.605469 25.921875 13.203125 25.921875 L 3.953125 25.921875 C 3.550781 25.921875 2.675781 26.453125 1.316406 27.527344 C 1.195312 27.648438 1.132812 27.742188 1.132812 27.804688 C 1.132812 27.898438 1.21875 27.941406 1.394531 27.941406 L 17.53125 27.941406 C 18.710938 27.941406 19.785156 27.542969 20.761719 26.746094 C 21.742188 25.949219 22.359375 24.988281 22.605469 23.851562 L 23.925781 17.742188 C 24 17.46875 24.039062 17.175781 24.039062 16.871094 C 24.039062 15.921875 23.71875 15.144531 23.078125 14.546875 C 22.4375 13.953125 21.628906 13.652344 20.652344 13.652344 L 12.867188 13.652344 C 12.566406 13.652344 12.414062 13.503906 12.414062 13.195312 Z M 47.394531 18.9375 C 47.394531 19.210938 47.371094 19.488281 47.320312 19.765625 L 45.863281 27.21875 L 36.5625 32.300781 C 37.226562 29.898438 39.269531 18.9375 39.269531 18.203125 C 39.269531 17.894531 39.121094 17.742188 38.816406 17.742188 L 35.808594 17.742188 C 35.410156 17.742188 35.171875 17.941406 35.09375 18.339844 L 33.136719 27.390625 C 33.039062 27.757812 32.796875 27.941406 32.425781 27.941406 L 25.242188 27.941406 C 24.914062 27.941406 24.75 27.804688 24.75 27.527344 C 24.75 27.464844 24.75 27.421875 24.75 27.390625 L 28.964844 8.097656 C 28.988281 8.035156 29 7.957031 29 7.863281 C 29 7.5 28.78125 7.070312 28.34375 6.582031 C 27.902344 6.089844 27.683594 5.796875 27.683594 5.707031 C 27.683594 5.550781 27.800781 5.476562 28.023438 5.476562 L 37.3125 5.476562 C 37.613281 5.476562 37.765625 5.628906 37.765625 5.933594 C 37.765625 5.96875 37.765625 6.011719 37.765625 6.074219 L 35.769531 15.125 C 35.769531 15.15625 35.769531 15.199219 35.769531 15.261719 C 35.769531 15.566406 35.921875 15.722656 36.222656 15.722656 C 36.574219 15.722656 36.875 15.539062 37.125 15.167969 L 44.007812 5.984375 C 44.285156 5.644531 44.609375 5.476562 44.984375 5.476562 L 51.90625 5.476562 C 52.132812 5.476562 52.242188 5.550781 52.242188 5.707031 C 52.242188 5.796875 52.207031 5.90625 52.132812 6.027344 L 44.984375 15.816406 C 46.589844 16.210938 47.394531 17.253906 47.394531 18.9375 Z M 58.566406 27.941406 C 58.9375 27.941406 59.179688 27.757812 59.277344 27.390625 L 63.902344 6.074219 C 63.902344 6.011719 63.902344 5.96875 63.902344 5.933594 C 63.902344 5.628906 63.753906 5.476562 63.453125 5.476562 L 54.160156 5.476562 C 53.9375 5.476562 53.824219 5.550781 53.824219 5.707031 C 53.824219 5.796875 54.039062 6.089844 54.464844 6.582031 C 54.890625 7.070312 55.101562 7.5 55.101562 7.863281 C 55.101562 7.957031 55.101562 8.035156 55.101562 8.097656 L 50.890625 27.390625 C 50.890625 27.421875 50.890625 27.464844 50.890625 27.527344 C 50.890625 27.804688 51.054688 27.941406 51.378906 27.941406 Z M 67.402344 7.863281 C 67.402344 7.5 67.1875 7.070312 66.761719 6.582031 C 66.335938 6.089844 66.121094 5.796875 66.121094 5.707031 C 66.121094 5.550781 66.234375 5.476562 66.460938 5.476562 L 75.714844 5.476562 C 76.117188 5.476562 76.378906 5.644531 76.503906 5.984375 L 81.242188 20.316406 C 81.265625 20.40625 81.316406 20.484375 81.390625 20.546875 C 81.46875 20.546875 81.507812 20.449219 81.542969 20.269531 L 85.046875 3.460938 C 85.128906 3.066406 85.566406 2.410156 85.9375 2.21875 L 89.300781 0.480469 C 89.597656 0.328125 89.785156 0.636719 89.785156 0.941406 C 89.785156 0.972656 89.765625 1.011719 89.75 1.078125 L 84.101562 27.390625 C 84.023438 27.757812 83.785156 27.941406 83.386719 27.941406 L 76.203125 27.941406 C 75.800781 27.941406 75.550781 27.773438 75.449219 27.4375 L 70.675781 13.101562 C 70.648438 13.011719 70.601562 12.949219 70.523438 12.921875 C 70.472656 12.921875 70.421875 13.011719 70.371094 13.195312 L 67.402344 27.390625 C 67.300781 27.757812 67.0625 27.941406 66.6875 27.941406 L 63.679688 27.941406 C 63.351562 27.941406 63.191406 27.804688 63.191406 27.527344 C 63.191406 27.464844 63.191406 27.421875 63.191406 27.390625 L 67.402344 8.097656 C 67.402344 8.035156 67.402344 7.957031 67.402344 7.863281 Z M 110.691406 18.9375 C 110.691406 18.324219 110.292969 17.589844 109.488281 16.734375 C 110.917969 15.691406 111.730469 14.664062 111.933594 13.652344 L 112.835938 9.566406 C 112.886719 9.289062 112.910156 9.015625 112.910156 8.738281 C 112.910156 7.789062 112.589844 7.007812 111.953125 6.394531 C 111.3125 5.785156 110.503906 5.476562 109.527344 5.476562 L 91.320312 5.476562 C 91.097656 5.476562 90.984375 5.550781 90.984375 5.707031 C 90.984375 5.796875 91.195312 6.089844 91.625 6.582031 C 92.050781 7.070312 92.261719 7.5 92.261719 7.863281 C 92.261719 7.957031 92.261719 8.035156 92.261719 8.097656 L 88.050781 27.390625 C 88.050781 27.421875 88.050781 27.464844 88.050781 27.527344 C 88.050781 27.804688 88.214844 27.941406 88.539062 27.941406 L 104.636719 27.941406 C 105.816406 27.941406 106.898438 27.542969 107.890625 26.746094 C 108.878906 25.949219 109.488281 24.988281 109.714844 23.851562 L 110.617188 19.765625 C 110.667969 19.488281 110.691406 19.210938 110.691406 18.9375 Z M 101.34375 7.542969 L 104.335938 7.542969 C 104.660156 7.542969 104.824219 7.683594 104.824219 7.957031 C 104.824219 8.019531 104.308594 10.410156 103.277344 15.125 C 103.175781 15.519531 102.9375 15.722656 102.5625 15.722656 L 99.566406 15.722656 C 99.238281 15.722656 99.082031 15.566406 99.082031 15.261719 C 99.082031 15.230469 99.59375 12.84375 100.632812 8.101562 C 100.707031 7.726562 100.945312 7.542969 101.34375 7.542969 Z M 97.355469 25.921875 C 97.035156 25.921875 96.871094 25.769531 96.871094 25.46875 C 96.871094 25.4375 97.382812 23.0625 98.410156 18.347656 C 98.488281 17.941406 98.726562 17.742188 99.121094 17.742188 L 102.117188 17.742188 C 102.417969 17.742188 102.566406 17.894531 102.566406 18.203125 C 102.566406 18.234375 102.066406 20.605469 101.0625 25.324219 C 100.964844 25.722656 100.722656 25.921875 100.351562 25.921875 Z M 130.347656 7.863281 C 130.347656 7.957031 130.347656 8.035156 130.347656 8.097656 L 126.132812 27.390625 C 126.132812 27.421875 126.132812 27.464844 126.132812 27.527344 C 126.132812 27.804688 126.292969 27.941406 126.621094 27.941406 L 142.753906 27.941406 C 143.910156 27.941406 144.980469 27.542969 145.972656 26.746094 C 146.960938 25.949219 147.570312 24.988281 147.796875 23.851562 L 150.917969 9.566406 C 150.96875 9.289062 150.992188 9.015625 150.992188 8.738281 C 150.992188 7.789062 150.671875 7.007812 150.035156 6.394531 C 149.394531 5.785156 148.585938 5.476562 147.605469 5.476562 L 129.40625 5.476562 C 129.179688 5.476562 129.066406 5.550781 129.066406 5.707031 C 129.066406 5.796875 129.28125 6.089844 129.703125 6.582031 C 130.132812 7.070312 130.347656 7.5 130.347656 7.863281 Z M 139.421875 7.542969 L 142.417969 7.542969 C 142.742188 7.542969 142.90625 7.683594 142.90625 7.957031 C 142.90625 8.019531 142.894531 8.0625 142.867188 8.097656 L 139.144531 25.324219 C 139.042969 25.722656 138.808594 25.921875 138.429688 25.921875 L 135.421875 25.921875 C 135.097656 25.921875 134.933594 25.769531 134.933594 25.460938 C 134.9375 25.429688 134.945312 25.386719 134.945312 25.324219 L 138.707031 8.097656 C 138.78125 7.726562 139.019531 7.542969 139.421875 7.542969 "/>
<path style=" stroke:none;fill-rule:evenodd;fill:rgb(44.313725%,72.54902%,26.666667%);fill-opacity:1;" d="M 116.234375 5.476562 L 124.03125 5.476562 C 124.203125 5.476562 124.355469 5.570312 124.457031 5.742188 C 124.558594 5.910156 124.585938 6.113281 124.53125 6.316406 L 122.429688 14.375 C 122.375 14.574219 122.398438 14.773438 122.5 14.945312 C 122.59375 15.113281 122.738281 15.207031 122.910156 15.214844 L 123.554688 15.242188 C 123.753906 15.253906 123.917969 15.382812 124.007812 15.601562 C 124.09375 15.816406 124.058594 16.042969 123.964844 16.257812 L 116.175781 34.117188 C 116.058594 34.390625 115.761719 34.460938 115.527344 34.335938 C 115.296875 34.207031 115.203125 33.914062 115.230469 33.601562 L 116.449219 20.238281 C 116.46875 20.046875 116.457031 19.871094 116.363281 19.714844 C 116.269531 19.558594 116.140625 19.46875 115.984375 19.453125 L 115.105469 19.351562 C 114.945312 19.332031 114.8125 19.242188 114.722656 19.078125 C 114.628906 18.917969 114.605469 18.730469 114.648438 18.539062 L 117 8.070312 C 117.0625 7.800781 116.976562 7.527344 116.789062 7.367188 L 115.9375 6.652344 C 115.742188 6.488281 115.664062 6.203125 115.734375 5.929688 C 115.800781 5.65625 116 5.476562 116.234375 5.476562 "/>
</g>
</svg>
