<?xml version="1.0" encoding="UTF-8"?>
<svg xmlns="http://www.w3.org/2000/svg" xmlns:xlink="http://www.w3.org/1999/xlink" width="150px" height="19px" viewBox="0 0 152 19" version="1.1">
<g id="surface1">
<path style=" stroke:none;fill-rule:nonzero;fill:rgb(98.039216%,28.627451%,3.921569%);fill-opacity:1;" d="M 31.355469 0.734375 L 35.910156 0.734375 L 35.910156 5.289062 L 31.355469 5.289062 Z M 31.355469 0.734375 "/>
<path style=" stroke:none;fill-rule:nonzero;fill:rgb(100%,100%,100%);fill-opacity:1;" d="M 42.167969 0.734375 L 46.097656 0.734375 L 46.097656 18.304688 L 42.167969 18.304688 Z M 66.226562 12.046875 L 57.597656 0.734375 L 53.9375 0.734375 L 53.9375 18.304688 L 57.867188 18.304688 L 57.867188 7.304688 L 66.25 18.304688 L 70.179688 18.304688 L 70.179688 0.734375 L 66.25 0.734375 L 66.25 12.046875 Z M 8.691406 7.765625 C 7.027344 7.347656 5.96875 6.996094 5.488281 6.703125 C 5.03125 6.390625 4.804688 5.996094 4.804688 5.476562 C 4.804688 4.957031 4.992188 4.5625 5.363281 4.25 C 5.738281 3.9375 6.257812 3.792969 6.902344 3.792969 C 8.527344 3.792969 10.105469 4.375 11.625 5.519531 L 13.597656 2.648438 C 12.726562 1.921875 11.707031 1.339844 10.542969 0.941406 C 9.378906 0.546875 8.214844 0.339844 7.027344 0.339844 C 5.238281 0.339844 3.742188 0.796875 2.558594 1.691406 C 1.351562 2.605469 0.769531 3.875 0.769531 5.558594 C 0.769531 7.222656 1.246094 8.449219 2.183594 9.21875 C 3.140625 9.988281 4.617188 10.632812 6.675781 11.109375 C 7.964844 11.421875 8.835938 11.734375 9.273438 12.046875 C 9.710938 12.359375 9.917969 12.773438 9.917969 13.292969 C 9.917969 13.8125 9.710938 14.25 9.296875 14.542969 C 8.878906 14.855469 8.316406 15 7.589844 15 C 5.988281 15 4.222656 14.167969 2.328125 12.503906 L 0 15.414062 C 2.226562 17.472656 4.742188 18.511719 7.507812 18.511719 C 9.441406 18.511719 10.980469 18.015625 12.164062 17.039062 C 13.351562 16.058594 13.929688 14.769531 13.929688 13.210938 C 13.929688 11.632812 13.476562 10.445312 12.558594 9.613281 C 11.644531 8.804688 10.355469 8.179688 8.691406 7.765625 Z M 113.742188 9.550781 C 113.742188 4.476562 109.6875 0.402344 104.609375 0.402344 C 99.558594 0.402344 95.484375 4.476562 95.503906 9.550781 C 95.503906 14.605469 99.578125 18.660156 104.609375 18.636719 C 109.664062 18.660156 113.742188 14.585938 113.742188 9.550781 Z M 109.914062 9.511719 C 109.933594 12.441406 107.523438 14.875 104.609375 14.875 C 101.699219 14.875 99.308594 12.441406 99.332031 9.511719 C 99.351562 6.601562 101.722656 4.230469 104.632812 4.230469 C 107.542969 4.207031 109.914062 6.578125 109.914062 9.511719 Z M 152 0.757812 L 137.757812 0.757812 L 137.757812 4.207031 L 143.121094 4.207031 L 143.121094 18.304688 L 147.050781 18.304688 L 147.050781 4.207031 L 152 4.207031 Z M 91.742188 7.054688 C 91.742188 11.300781 88.996094 13.730469 84.460938 13.730469 L 81.90625 13.730469 L 81.90625 18.304688 L 77.976562 18.304688 L 77.976562 0.757812 L 84.234375 0.757812 C 88.914062 0.757812 91.742188 3.042969 91.742188 7.054688 Z M 87.976562 7.246094 C 87.976562 5.914062 87.351562 4.207031 83.941406 4.207031 L 81.925781 4.207031 L 81.925781 10.300781 L 84.171875 10.300781 C 87.207031 10.300781 87.976562 8.574219 87.976562 7.246094 Z M 24.785156 8.949219 L 31.480469 18.304688 L 36.222656 18.304688 L 29.527344 8.949219 Z M 20.855469 0.734375 L 20.855469 18.304688 L 24.785156 18.304688 L 24.785156 0.734375 Z M 129.378906 18.304688 L 126.089844 13.730469 L 123.324219 13.730469 L 123.324219 18.304688 L 119.394531 18.304688 L 119.394531 0.734375 L 125.675781 0.757812 C 130.332031 0.757812 133.160156 3.042969 133.160156 7.054688 C 133.160156 9.78125 132.039062 11.753906 130.023438 12.816406 L 133.949219 18.304688 Z M 123.347656 10.300781 L 125.59375 10.300781 C 128.648438 10.300781 129.398438 8.574219 129.398438 7.265625 C 129.398438 5.957031 128.773438 4.230469 125.363281 4.230469 L 123.347656 4.230469 Z M 123.347656 10.300781 "/>
</g>
</svg>
