<?xml version="1.0" encoding="UTF-8"?>
<svg xmlns="http://www.w3.org/2000/svg" xmlns:xlink="http://www.w3.org/1999/xlink" width="150px" height="35px" viewBox="0 0 149 35" version="1.1">
<g id="surface1">
<path style=" stroke:none;fill-rule:evenodd;fill:rgb(100%,100%,100%);fill-opacity:1;" d="M 12.167969 13.25 C 12.167969 13.222656 12.523438 11.546875 13.238281 8.222656 C 13.3125 7.855469 13.546875 7.675781 13.9375 7.675781 L 23.007812 7.675781 C 23.40625 7.675781 24.261719 7.128906 25.589844 6.042969 C 25.710938 5.949219 25.773438 5.859375 25.773438 5.769531 C 25.773438 5.679688 25.691406 5.636719 25.519531 5.636719 L 9.699219 5.636719 C 8.542969 5.636719 7.484375 6.035156 6.527344 6.832031 C 5.570312 7.636719 4.964844 8.582031 4.722656 9.671875 L 3.433594 15.746094 C 3.359375 16.015625 3.320312 16.289062 3.320312 16.5625 C 3.320312 17.496094 3.632812 18.261719 4.261719 18.847656 C 4.890625 19.4375 5.683594 19.734375 6.640625 19.734375 L 14.269531 19.734375 C 14.566406 19.734375 14.714844 19.886719 14.714844 20.1875 C 14.714844 20.214844 14.355469 21.898438 13.644531 25.222656 C 13.570312 25.613281 13.335938 25.8125 12.941406 25.8125 L 3.875 25.8125 C 3.480469 25.8125 2.621094 26.335938 1.289062 27.394531 C 1.171875 27.515625 1.109375 27.605469 1.109375 27.671875 C 1.109375 27.761719 1.195312 27.804688 1.367188 27.804688 L 17.1875 27.804688 C 18.34375 27.804688 19.394531 27.410156 20.351562 26.625 C 21.3125 25.835938 21.917969 24.890625 22.160156 23.769531 L 23.453125 17.738281 C 23.527344 17.46875 23.5625 17.179688 23.5625 16.878906 C 23.5625 15.941406 23.25 15.175781 22.625 14.585938 C 21.992188 14 21.203125 13.703125 20.246094 13.703125 L 12.613281 13.703125 C 12.320312 13.703125 12.167969 13.554688 12.167969 13.25 Z M 46.460938 18.917969 C 46.460938 19.1875 46.4375 19.460938 46.386719 19.734375 L 44.957031 27.089844 L 35.839844 32.105469 C 36.492188 29.734375 38.496094 18.917969 38.496094 18.195312 C 38.496094 17.890625 38.347656 17.738281 38.050781 17.738281 L 35.101562 17.738281 C 34.710938 17.738281 34.476562 17.933594 34.398438 18.328125 L 32.484375 27.261719 C 32.386719 27.621094 32.148438 27.804688 31.785156 27.804688 L 24.746094 27.804688 C 24.421875 27.804688 24.261719 27.671875 24.261719 27.394531 C 24.261719 27.332031 24.261719 27.289062 24.261719 27.261719 L 28.394531 8.222656 C 28.417969 8.160156 28.429688 8.082031 28.429688 7.992188 C 28.429688 7.632812 28.210938 7.207031 27.785156 6.722656 C 27.351562 6.242188 27.136719 5.949219 27.136719 5.859375 C 27.136719 5.707031 27.253906 5.636719 27.472656 5.636719 L 36.578125 5.636719 C 36.871094 5.636719 37.019531 5.785156 37.019531 6.085938 C 37.019531 6.121094 37.019531 6.164062 37.019531 6.226562 L 35.0625 15.15625 C 35.0625 15.1875 35.0625 15.230469 35.0625 15.292969 C 35.0625 15.589844 35.210938 15.746094 35.507812 15.746094 C 35.851562 15.746094 36.144531 15.566406 36.394531 15.199219 L 43.136719 6.136719 C 43.410156 5.800781 43.726562 5.636719 44.097656 5.636719 L 50.882812 5.636719 C 51.101562 5.636719 51.210938 5.707031 51.210938 5.859375 C 51.210938 5.949219 51.175781 6.058594 51.101562 6.175781 L 44.097656 15.839844 C 45.671875 16.230469 46.460938 17.257812 46.460938 18.917969 Z M 57.410156 27.804688 C 57.773438 27.804688 58.011719 27.621094 58.105469 27.261719 L 62.640625 6.226562 C 62.640625 6.164062 62.640625 6.121094 62.640625 6.085938 C 62.640625 5.785156 62.496094 5.636719 62.203125 5.636719 L 53.089844 5.636719 C 52.875 5.636719 52.761719 5.707031 52.761719 5.859375 C 52.761719 5.949219 52.972656 6.242188 53.390625 6.722656 C 53.804688 7.207031 54.011719 7.632812 54.011719 7.992188 C 54.011719 8.082031 54.011719 8.160156 54.011719 8.222656 L 49.886719 27.261719 C 49.886719 27.289062 49.886719 27.332031 49.886719 27.394531 C 49.886719 27.671875 50.046875 27.804688 50.363281 27.804688 Z M 66.070312 7.992188 C 66.070312 7.632812 65.859375 7.207031 65.445312 6.722656 C 65.027344 6.242188 64.816406 5.949219 64.816406 5.859375 C 64.816406 5.707031 64.929688 5.636719 65.148438 5.636719 L 74.21875 5.636719 C 74.617188 5.636719 74.871094 5.800781 74.992188 6.136719 L 79.636719 20.28125 C 79.664062 20.367188 79.710938 20.445312 79.785156 20.507812 C 79.863281 20.507812 79.898438 20.410156 79.933594 20.230469 L 83.367188 3.644531 C 83.449219 3.257812 83.878906 2.609375 84.242188 2.421875 L 87.539062 0.703125 C 87.828125 0.554688 88.011719 0.859375 88.011719 1.160156 C 88.011719 1.191406 87.996094 1.226562 87.976562 1.292969 L 82.441406 27.261719 C 82.367188 27.621094 82.132812 27.804688 81.742188 27.804688 L 74.699219 27.804688 C 74.304688 27.804688 74.058594 27.636719 73.960938 27.304688 L 69.28125 13.160156 C 69.253906 13.070312 69.207031 13.007812 69.128906 12.984375 C 69.082031 12.984375 69.03125 13.070312 68.980469 13.25 L 66.070312 27.261719 C 65.972656 27.621094 65.738281 27.804688 65.371094 27.804688 L 62.421875 27.804688 C 62.101562 27.804688 61.945312 27.671875 61.945312 27.394531 C 61.945312 27.332031 61.945312 27.289062 61.945312 27.261719 L 66.070312 8.222656 C 66.070312 8.160156 66.070312 8.082031 66.070312 7.992188 Z M 108.507812 18.917969 C 108.507812 18.3125 108.117188 17.589844 107.328125 16.746094 C 108.730469 15.714844 109.523438 14.703125 109.722656 13.703125 L 110.609375 9.671875 C 110.660156 9.398438 110.683594 9.128906 110.683594 8.855469 C 110.683594 7.917969 110.367188 7.144531 109.746094 6.539062 C 109.113281 5.941406 108.324219 5.636719 107.367188 5.636719 L 89.515625 5.636719 C 89.300781 5.636719 89.1875 5.707031 89.1875 5.859375 C 89.1875 5.949219 89.394531 6.242188 89.816406 6.722656 C 90.234375 7.207031 90.441406 7.632812 90.441406 7.992188 C 90.441406 8.082031 90.441406 8.160156 90.441406 8.222656 L 86.3125 27.261719 C 86.3125 27.289062 86.3125 27.332031 86.3125 27.394531 C 86.3125 27.671875 86.472656 27.804688 86.789062 27.804688 L 102.570312 27.804688 C 103.726562 27.804688 104.789062 27.410156 105.761719 26.625 C 106.730469 25.835938 107.328125 24.890625 107.550781 23.769531 L 108.433594 19.734375 C 108.484375 19.460938 108.507812 19.1875 108.507812 18.917969 Z M 99.34375 7.675781 L 102.277344 7.675781 C 102.59375 7.675781 102.753906 7.8125 102.753906 8.082031 C 102.753906 8.144531 102.25 10.503906 101.238281 15.15625 C 101.140625 15.546875 100.90625 15.746094 100.539062 15.746094 L 97.601562 15.746094 C 97.28125 15.746094 97.125 15.589844 97.125 15.292969 C 97.125 15.257812 97.628906 12.90625 98.644531 8.226562 C 98.71875 7.855469 98.953125 7.675781 99.34375 7.675781 Z M 95.433594 25.8125 C 95.121094 25.8125 94.960938 25.660156 94.960938 25.363281 C 94.960938 25.332031 95.460938 22.988281 96.46875 18.335938 C 96.542969 17.933594 96.777344 17.738281 97.164062 17.738281 L 100.101562 17.738281 C 100.398438 17.738281 100.542969 17.890625 100.542969 18.195312 C 100.542969 18.222656 100.050781 20.5625 99.070312 25.222656 C 98.972656 25.613281 98.734375 25.8125 98.371094 25.8125 Z M 127.773438 7.992188 C 127.773438 8.082031 127.773438 8.160156 127.773438 8.222656 L 123.644531 27.261719 C 123.644531 27.289062 123.644531 27.332031 123.644531 27.394531 C 123.644531 27.671875 123.800781 27.804688 124.121094 27.804688 L 139.9375 27.804688 C 141.070312 27.804688 142.117188 27.410156 143.089844 26.625 C 144.0625 25.835938 144.660156 24.890625 144.878906 23.769531 L 147.9375 9.671875 C 147.988281 9.398438 148.011719 9.128906 148.011719 8.855469 C 148.011719 7.917969 147.699219 7.144531 147.074219 6.539062 C 146.445312 5.941406 145.652344 5.636719 144.691406 5.636719 L 126.851562 5.636719 C 126.628906 5.636719 126.519531 5.707031 126.519531 5.859375 C 126.519531 5.949219 126.730469 6.242188 127.140625 6.722656 C 127.566406 7.207031 127.773438 7.632812 127.773438 7.992188 Z M 136.667969 7.675781 L 139.605469 7.675781 C 139.925781 7.675781 140.085938 7.8125 140.085938 8.082031 C 140.085938 8.144531 140.074219 8.1875 140.046875 8.222656 L 136.398438 25.222656 C 136.296875 25.613281 136.070312 25.8125 135.695312 25.8125 L 132.75 25.8125 C 132.429688 25.8125 132.269531 25.660156 132.269531 25.355469 C 132.273438 25.324219 132.28125 25.28125 132.28125 25.222656 L 135.96875 8.222656 C 136.042969 7.855469 136.277344 7.675781 136.667969 7.675781 "/>
<path style=" stroke:none;fill-rule:evenodd;fill:rgb(44.313725%,72.54902%,26.666667%);fill-opacity:1;" d="M 113.941406 5.636719 L 121.585938 5.636719 C 121.753906 5.636719 121.902344 5.726562 122 5.898438 C 122.101562 6.0625 122.125 6.265625 122.074219 6.464844 L 120.015625 14.417969 C 119.957031 14.613281 119.980469 14.808594 120.082031 14.976562 C 120.171875 15.144531 120.316406 15.238281 120.484375 15.242188 L 121.117188 15.273438 C 121.3125 15.285156 121.472656 15.410156 121.5625 15.625 C 121.644531 15.839844 121.609375 16.0625 121.519531 16.273438 L 113.882812 33.898438 C 113.769531 34.167969 113.476562 34.238281 113.246094 34.113281 C 113.023438 33.988281 112.929688 33.699219 112.957031 33.390625 L 114.152344 20.203125 C 114.167969 20.015625 114.160156 19.839844 114.066406 19.683594 C 113.976562 19.53125 113.847656 19.441406 113.695312 19.425781 L 112.832031 19.328125 C 112.675781 19.308594 112.546875 19.21875 112.457031 19.058594 C 112.367188 18.898438 112.34375 18.714844 112.386719 18.523438 L 114.691406 8.195312 C 114.75 7.925781 114.667969 7.660156 114.484375 7.5 L 113.648438 6.796875 C 113.457031 6.632812 113.378906 6.351562 113.449219 6.082031 C 113.515625 5.8125 113.710938 5.636719 113.941406 5.636719 "/>
</g>
</svg>
