<?xml version="1.0" encoding="UTF-8"?>
<svg xmlns="http://www.w3.org/2000/svg" xmlns:xlink="http://www.w3.org/1999/xlink" width="231px" height="54px" viewBox="0 0 231 54" version="1.1">
<g id="surface1">
<path style=" stroke:none;fill-rule:evenodd;fill:rgb(100%,100%,100%);fill-opacity:1;" d="M 18.867188 20.445312 C 18.867188 20.398438 19.417969 17.8125 20.523438 12.683594 C 20.640625 12.121094 21.003906 11.839844 21.609375 11.839844 L 35.671875 11.839844 C 36.285156 11.839844 37.613281 11 39.671875 9.324219 C 39.863281 9.179688 39.957031 9.042969 39.957031 8.902344 C 39.957031 8.765625 39.828125 8.695312 39.5625 8.695312 L 15.035156 8.695312 C 13.246094 8.695312 11.605469 9.3125 10.121094 10.542969 C 8.636719 11.78125 7.699219 13.238281 7.320312 14.921875 L 5.320312 24.292969 C 5.207031 24.710938 5.148438 25.132812 5.148438 25.554688 C 5.148438 26.992188 5.632812 28.175781 6.605469 29.082031 C 7.582031 29.992188 8.808594 30.449219 10.292969 30.449219 L 22.125 30.449219 C 22.582031 30.449219 22.8125 30.679688 22.8125 31.144531 C 22.8125 31.191406 22.253906 33.785156 21.15625 38.914062 C 21.039062 39.519531 20.675781 39.824219 20.066406 39.824219 L 6.007812 39.824219 C 5.394531 39.824219 4.066406 40.632812 2 42.265625 C 1.816406 42.453125 1.722656 42.59375 1.722656 42.691406 C 1.722656 42.832031 1.851562 42.898438 2.121094 42.898438 L 26.644531 42.898438 C 28.4375 42.898438 30.066406 42.289062 31.550781 41.078125 C 33.042969 39.863281 33.980469 38.402344 34.355469 36.671875 L 36.359375 27.367188 C 36.472656 26.953125 36.53125 26.507812 36.53125 26.042969 C 36.53125 24.597656 36.046875 23.414062 35.074219 22.503906 C 34.097656 21.601562 32.871094 21.140625 31.386719 21.140625 L 19.554688 21.140625 C 19.097656 21.140625 18.867188 20.914062 18.867188 20.445312 Z M 72.027344 29.1875 C 72.027344 29.605469 71.992188 30.027344 71.914062 30.449219 L 69.699219 41.796875 L 55.566406 49.535156 C 56.574219 45.878906 59.679688 29.1875 59.679688 28.070312 C 59.679688 27.601562 59.453125 27.367188 58.992188 27.367188 L 54.417969 27.367188 C 53.8125 27.367188 53.453125 27.671875 53.332031 28.277344 L 50.359375 42.058594 C 50.210938 42.617188 49.84375 42.898438 49.277344 42.898438 L 38.363281 42.898438 C 37.863281 42.898438 37.613281 42.691406 37.613281 42.265625 C 37.613281 42.171875 37.613281 42.105469 37.613281 42.058594 L 44.019531 12.683594 C 44.054688 12.589844 44.074219 12.46875 44.074219 12.328125 C 44.074219 11.773438 43.738281 11.121094 43.074219 10.375 C 42.402344 9.628906 42.070312 9.179688 42.070312 9.042969 C 42.070312 8.804688 42.25 8.695312 42.589844 8.695312 L 56.707031 8.695312 C 57.164062 8.695312 57.394531 8.925781 57.394531 9.390625 C 57.394531 9.441406 57.394531 9.507812 57.394531 9.605469 L 54.359375 23.382812 C 54.359375 23.429688 54.359375 23.496094 54.359375 23.59375 C 54.359375 24.054688 54.589844 24.292969 55.050781 24.292969 C 55.582031 24.292969 56.039062 24.015625 56.421875 23.449219 L 66.878906 9.46875 C 67.300781 8.949219 67.792969 8.695312 68.363281 8.695312 L 78.882812 8.695312 C 79.226562 8.695312 79.394531 8.804688 79.394531 9.042969 C 79.394531 9.179688 79.339844 9.347656 79.226562 9.53125 L 68.363281 24.4375 C 70.804688 25.039062 72.027344 26.625 72.027344 29.1875 Z M 89.003906 42.898438 C 89.570312 42.898438 89.9375 42.617188 90.085938 42.058594 L 97.113281 9.605469 C 97.113281 9.507812 97.113281 9.441406 97.113281 9.390625 C 97.113281 8.925781 96.890625 8.695312 96.433594 8.695312 L 82.308594 8.695312 C 81.972656 8.695312 81.796875 8.804688 81.796875 9.042969 C 81.796875 9.179688 82.125 9.628906 82.773438 10.375 C 83.417969 11.121094 83.738281 11.773438 83.738281 12.328125 C 83.738281 12.46875 83.738281 12.589844 83.738281 12.683594 L 77.339844 42.058594 C 77.339844 42.105469 77.339844 42.171875 77.339844 42.265625 C 77.339844 42.691406 77.589844 42.898438 78.082031 42.898438 Z M 102.433594 12.328125 C 102.433594 11.773438 102.105469 11.121094 101.460938 10.375 C 100.8125 9.628906 100.488281 9.179688 100.488281 9.042969 C 100.488281 8.804688 100.660156 8.695312 101.003906 8.695312 L 115.066406 8.695312 C 115.679688 8.695312 116.074219 8.949219 116.265625 9.46875 L 123.464844 31.289062 C 123.503906 31.425781 123.578125 31.542969 123.691406 31.640625 C 123.8125 31.640625 123.871094 31.492188 123.925781 31.214844 L 129.25 5.625 C 129.375 5.023438 130.039062 4.023438 130.601562 3.734375 L 135.714844 1.085938 C 136.164062 0.855469 136.449219 1.324219 136.449219 1.789062 C 136.449219 1.835938 136.421875 1.894531 136.394531 1.996094 L 127.8125 42.058594 C 127.695312 42.617188 127.332031 42.898438 126.726562 42.898438 L 115.808594 42.898438 C 115.195312 42.898438 114.816406 42.640625 114.664062 42.128906 L 107.410156 20.304688 C 107.367188 20.167969 107.296875 20.070312 107.175781 20.03125 C 107.101562 20.03125 107.023438 20.167969 106.945312 20.445312 L 102.433594 42.058594 C 102.28125 42.617188 101.917969 42.898438 101.347656 42.898438 L 96.777344 42.898438 C 96.277344 42.898438 96.035156 42.691406 96.035156 42.265625 C 96.035156 42.171875 96.035156 42.105469 96.035156 42.058594 L 102.433594 12.683594 C 102.433594 12.589844 102.433594 12.46875 102.433594 12.328125 Z M 168.222656 29.1875 C 168.222656 28.253906 167.617188 27.136719 166.394531 25.835938 C 168.566406 24.246094 169.800781 22.683594 170.109375 21.140625 L 171.480469 14.921875 C 171.558594 14.5 171.59375 14.082031 171.59375 13.660156 C 171.59375 12.214844 171.105469 11.023438 170.140625 10.089844 C 169.164062 9.164062 167.9375 8.695312 166.453125 8.695312 L 138.78125 8.695312 C 138.445312 8.695312 138.273438 8.804688 138.273438 9.042969 C 138.273438 9.179688 138.59375 9.628906 139.246094 10.375 C 139.894531 11.121094 140.214844 11.773438 140.214844 12.328125 C 140.214844 12.46875 140.214844 12.589844 140.214844 12.683594 L 133.8125 42.058594 C 133.8125 42.105469 133.8125 42.171875 133.8125 42.265625 C 133.8125 42.691406 134.0625 42.898438 134.554688 42.898438 L 159.019531 42.898438 C 160.8125 42.898438 162.457031 42.289062 163.964844 41.078125 C 165.46875 39.863281 166.394531 38.402344 166.738281 36.671875 L 168.109375 30.449219 C 168.1875 30.027344 168.222656 29.605469 168.222656 29.1875 Z M 154.015625 11.839844 L 158.5625 11.839844 C 159.054688 11.839844 159.304688 12.054688 159.304688 12.46875 C 159.304688 12.566406 158.523438 16.207031 156.953125 23.382812 C 156.800781 23.984375 156.4375 24.292969 155.867188 24.292969 L 151.316406 24.292969 C 150.816406 24.292969 150.578125 24.054688 150.578125 23.59375 C 150.578125 23.542969 151.355469 19.910156 152.933594 12.691406 C 153.046875 12.121094 153.410156 11.839844 154.015625 11.839844 Z M 147.953125 39.824219 C 147.46875 39.824219 147.21875 39.589844 147.21875 39.132812 C 147.21875 39.085938 147.996094 35.46875 149.558594 28.289062 C 149.675781 27.671875 150.039062 27.367188 150.636719 27.367188 L 155.191406 27.367188 C 155.648438 27.367188 155.875 27.601562 155.875 28.070312 C 155.875 28.117188 155.113281 31.726562 153.589844 38.914062 C 153.441406 39.519531 153.070312 39.824219 152.507812 39.824219 Z M 198.09375 12.328125 C 198.09375 12.46875 198.09375 12.589844 198.09375 12.683594 L 191.6875 42.058594 C 191.6875 42.105469 191.6875 42.171875 191.6875 42.265625 C 191.6875 42.691406 191.933594 42.898438 192.429688 42.898438 L 216.949219 42.898438 C 218.707031 42.898438 220.332031 42.289062 221.839844 41.078125 C 223.34375 39.863281 224.269531 38.402344 224.613281 36.671875 L 229.355469 14.921875 C 229.433594 14.5 229.46875 14.082031 229.46875 13.660156 C 229.46875 12.214844 228.980469 11.023438 228.015625 10.089844 C 227.039062 9.164062 225.8125 8.695312 224.320312 8.695312 L 196.664062 8.695312 C 196.320312 8.695312 196.148438 8.804688 196.148438 9.042969 C 196.148438 9.179688 196.472656 9.628906 197.113281 10.375 C 197.769531 11.121094 198.09375 11.773438 198.09375 12.328125 Z M 211.882812 11.839844 L 216.4375 11.839844 C 216.929688 11.839844 217.179688 12.054688 217.179688 12.46875 C 217.179688 12.566406 217.160156 12.632812 217.121094 12.683594 L 211.464844 38.914062 C 211.308594 39.519531 210.953125 39.824219 210.375 39.824219 L 205.804688 39.824219 C 205.3125 39.824219 205.0625 39.589844 205.0625 39.121094 C 205.070312 39.074219 205.082031 39.007812 205.082031 38.914062 L 210.796875 12.683594 C 210.910156 12.121094 211.273438 11.839844 211.882812 11.839844 "/>
<path style=" stroke:none;fill-rule:evenodd;fill:rgb(44.313725%,72.54902%,26.666667%);fill-opacity:1;" d="M 176.644531 8.695312 L 188.496094 8.695312 C 188.757812 8.695312 188.988281 8.835938 189.140625 9.097656 C 189.296875 9.355469 189.335938 9.664062 189.253906 9.972656 L 186.0625 22.242188 C 185.976562 22.546875 186.011719 22.847656 186.167969 23.109375 C 186.308594 23.367188 186.53125 23.507812 186.792969 23.519531 L 187.769531 23.5625 C 188.074219 23.582031 188.324219 23.777344 188.460938 24.109375 C 188.589844 24.4375 188.535156 24.78125 188.394531 25.109375 L 176.554688 52.300781 C 176.378906 52.71875 175.925781 52.824219 175.570312 52.632812 C 175.222656 52.4375 175.078125 51.992188 175.121094 51.515625 L 176.972656 31.167969 C 177 30.878906 176.984375 30.609375 176.839844 30.371094 C 176.699219 30.132812 176.503906 29.996094 176.265625 29.972656 L 174.929688 29.820312 C 174.6875 29.789062 174.484375 29.652344 174.347656 29.402344 C 174.207031 29.160156 174.171875 28.875 174.234375 28.582031 L 177.808594 12.644531 C 177.902344 12.230469 177.773438 11.816406 177.488281 11.570312 L 176.195312 10.484375 C 175.898438 10.234375 175.777344 9.800781 175.886719 9.382812 C 175.988281 8.96875 176.289062 8.695312 176.644531 8.695312 "/>
</g>
</svg>
