<?xml version="1.0" encoding="UTF-8"?>
<svg xmlns="http://www.w3.org/2000/svg" xmlns:xlink="http://www.w3.org/1999/xlink" width="432px" height="54px" viewBox="0 0 432 54" version="1.1">
<g id="surface1">
<path style=" stroke:none;fill-rule:nonzero;fill:rgb(98.039216%,28.627451%,3.921569%);fill-opacity:1;" d="M 89.117188 2.089844 L 102.0625 2.089844 L 102.0625 15.03125 L 89.117188 15.03125 Z M 89.117188 2.089844 "/>
<path style=" stroke:none;fill-rule:nonzero;fill:rgb(100%,100%,100%);fill-opacity:1;" d="M 119.847656 2.089844 L 131.019531 2.089844 L 131.019531 52.027344 L 119.847656 52.027344 Z M 188.222656 34.238281 L 163.699219 2.089844 L 153.296875 2.089844 L 153.296875 52.027344 L 164.46875 52.027344 L 164.46875 20.765625 L 188.285156 52.027344 L 199.453125 52.027344 L 199.453125 2.089844 L 188.285156 2.089844 L 188.285156 34.238281 Z M 24.703125 22.066406 C 19.976562 20.882812 16.960938 19.878906 15.601562 19.050781 C 14.300781 18.164062 13.652344 17.042969 13.652344 15.566406 C 13.652344 14.085938 14.183594 12.964844 15.246094 12.078125 C 16.3125 11.191406 17.789062 10.777344 19.621094 10.777344 C 24.230469 10.777344 28.722656 12.433594 33.035156 15.683594 L 38.648438 7.527344 C 36.167969 5.460938 33.273438 3.804688 29.960938 2.679688 C 26.652344 1.558594 23.34375 0.96875 19.976562 0.96875 C 14.890625 0.96875 10.636719 2.269531 7.269531 4.808594 C 3.839844 7.410156 2.1875 11.015625 2.1875 15.800781 C 2.1875 20.527344 3.546875 24.015625 6.207031 26.203125 C 8.921875 28.390625 13.121094 30.222656 18.96875 31.578125 C 22.632812 32.464844 25.117188 33.351562 26.355469 34.238281 C 27.597656 35.125 28.1875 36.308594 28.1875 37.785156 C 28.1875 39.261719 27.597656 40.503906 26.417969 41.332031 C 25.234375 42.21875 23.640625 42.632812 21.570312 42.632812 C 17.019531 42.632812 11.996094 40.265625 6.617188 35.539062 L 0 43.8125 C 6.324219 49.664062 13.472656 52.617188 21.335938 52.617188 C 26.832031 52.617188 31.203125 51.199219 34.570312 48.421875 C 37.941406 45.644531 39.59375 41.980469 39.59375 37.550781 C 39.59375 33.058594 38.296875 29.6875 35.695312 27.324219 C 33.09375 25.019531 29.429688 23.246094 24.703125 22.066406 Z M 323.261719 27.148438 C 323.261719 12.726562 311.738281 1.144531 297.316406 1.144531 C 282.957031 1.144531 271.375 12.726562 271.433594 27.148438 C 271.433594 41.507812 283.015625 53.03125 297.316406 52.972656 C 311.679688 53.03125 323.261719 41.449219 323.261719 27.148438 Z M 312.386719 27.03125 C 312.445312 35.363281 305.589844 42.277344 297.316406 42.277344 C 289.042969 42.277344 282.246094 35.363281 282.308594 27.03125 C 282.367188 18.757812 289.101562 12.019531 297.375 12.019531 C 305.648438 11.960938 312.386719 18.695312 312.386719 27.03125 Z M 432 2.148438 L 391.519531 2.148438 L 391.519531 11.960938 L 406.765625 11.960938 L 406.765625 52.027344 L 417.933594 52.027344 L 417.933594 11.960938 L 432 11.960938 Z M 260.738281 20.054688 C 260.738281 32.113281 252.9375 39.027344 240.050781 39.027344 L 232.785156 39.027344 L 232.785156 52.027344 L 221.613281 52.027344 L 221.613281 2.148438 L 239.402344 2.148438 C 252.699219 2.148438 260.738281 8.648438 260.738281 20.054688 Z M 250.039062 20.589844 C 250.039062 16.804688 248.265625 11.960938 238.574219 11.960938 L 232.84375 11.960938 L 232.84375 29.273438 L 239.226562 29.273438 C 247.851562 29.273438 250.039062 24.371094 250.039062 20.589844 Z M 70.445312 25.433594 L 89.472656 52.027344 L 102.945312 52.027344 L 83.917969 25.433594 Z M 59.273438 2.089844 L 59.273438 52.027344 L 70.445312 52.027344 L 70.445312 2.089844 Z M 367.703125 52.027344 L 358.363281 39.027344 L 350.503906 39.027344 L 350.503906 52.027344 L 339.335938 52.027344 L 339.335938 2.089844 L 357.183594 2.148438 C 370.421875 2.148438 378.457031 8.648438 378.457031 20.054688 C 378.457031 27.796875 375.265625 33.410156 369.535156 36.425781 L 380.703125 52.027344 Z M 350.5625 29.273438 L 356.945312 29.273438 C 365.632812 29.273438 367.761719 24.371094 367.761719 20.648438 C 367.761719 16.925781 365.988281 12.019531 356.296875 12.019531 L 350.5625 12.019531 Z M 350.5625 29.273438 "/>
</g>
</svg>
