<?xml version="1.0" encoding="UTF-8"?>
<svg version="1.1" xmlns="http://www.w3.org/2000/svg" width="100" height="100">
<path d="M0 0 C4.32280721 3.49667072 5.60706239 5.99269644 6.375 11.4375 C7.83253841 19.28005042 10.4343858 26.40315336 15 33 C17.52167562 34.3479227 19.15533635 35 22 35 C24.6769128 29.71787743 27.32218863 24.39493349 28.9375 18.6875 C30.33159578 15.16125774 31.68989984 13.83894453 35 12 C38.78916088 12 41.01505815 12.11355233 43.875 14.6875 C45.28295877 17.58163748 45.86828528 19.77298936 46 23 C44.56823134 26.98849842 41.98110199 28.85757238 38.6875 31.3125 C30.93056141 37.18057368 27.57604962 42.98621546 25.0546875 52.36328125 C23.84276596 55.39308511 22.81103288 56.40584146 20 58 C16.28144646 58.55382712 14.59324486 58.37211018 11.390625 56.36328125 C8.44135868 53.44774837 8.23124565 51.81627181 7.6875 47.75 C5.42292313 35.49313761 -0.33133321 24.92026397 -9 16 C-11.55068614 12.73193338 -12.01096234 11.6248533 -11.9375 7.4375 C-10.10362468 0.71329049 -6.88513187 -1.08712608 0 0 Z " fill="#FFFFFF" transform="translate(13,21)"/>
<path d="M0 0 C3.28573474 2.16166759 3.90007665 3.63361438 4.9375 7.4375 C5.01096234 11.6248533 4.55068614 12.73193338 2 16 C1.51144531 16.50273438 1.02289063 17.00546875 0.51953125 17.5234375 C-8.36136352 26.83110295 -13.44324346 38.44512503 -15.13671875 51.109375 C-16.24313459 54.81411582 -17.77325779 55.96333063 -21 58 C-24 58.5625 -24 58.5625 -27 58 C-29.85801731 56.01181405 -31.61901083 54.52395669 -32.484375 51.0625 C-32.74325839 47.26554367 -32.48029009 45.55306132 -29.9375 42.625 C-28.968125 41.75875 -27.99875 40.8925 -27 40 C-18.72330979 29.97173116 -14.00592762 18.39715432 -11.8359375 5.64453125 C-9.97453332 -0.24411654 -5.63557448 -0.70444681 0 0 Z " fill="#FFFFFF" transform="translate(94,21)"/>
</svg>
