<?xml version="1.0" encoding="UTF-8"?>
<svg xmlns="http://www.w3.org/2000/svg" xmlns:xlink="http://www.w3.org/1999/xlink" width="75px" height="75px" viewBox="0 0 75 75" version="1.1">
<g id="surface1">
<path style=" stroke:none;fill-rule:nonzero;fill:rgb(100%,100%,100%);fill-opacity:1;" d="M 9.75 15.75 C 12.992188 18.371094 13.957031 20.246094 14.53125 24.328125 C 15.625 30.210938 17.574219 35.550781 21 40.5 C 22.890625 41.511719 24.117188 42 26.25 42 C 28.257812 38.039062 30.242188 34.046875 31.453125 29.765625 C 32.5 27.121094 33.515625 26.128906 36 24.75 C 38.84375 24.75 40.511719 24.835938 42.65625 26.765625 C 43.710938 28.9375 44.152344 30.578125 44.25 33 C 43.175781 35.992188 41.234375 37.394531 38.765625 39.234375 C 32.949219 43.636719 30.433594 47.988281 28.539062 55.023438 C 27.632812 57.292969 26.859375 58.054688 24.75 59.25 C 21.960938 59.664062 20.695312 59.527344 18.292969 58.023438 C 16.082031 55.835938 15.921875 54.613281 15.515625 51.5625 C 13.816406 42.371094 9.5 34.441406 3 27.75 C 1.085938 25.300781 0.742188 24.46875 0.796875 21.328125 C 2.171875 16.285156 4.585938 14.933594 9.75 15.75 Z M 9.75 15.75 "/>
<path style=" stroke:none;fill-rule:nonzero;fill:rgb(100%,100%,100%);fill-opacity:1;" d="M 70.5 15.75 C 72.964844 17.371094 73.425781 18.476562 74.203125 21.328125 C 74.257812 24.46875 73.914062 25.300781 72 27.75 C 71.632812 28.128906 71.265625 28.503906 70.890625 28.890625 C 64.230469 35.875 60.417969 44.582031 59.148438 54.082031 C 58.316406 56.859375 57.171875 57.722656 54.75 59.25 C 52.5 59.671875 52.5 59.671875 50.25 59.25 C 48.105469 57.757812 46.785156 56.644531 46.136719 54.046875 C 45.941406 51.199219 46.140625 49.914062 48.046875 47.71875 C 48.773438 47.070312 49.5 46.417969 50.25 45.75 C 56.457031 38.230469 59.996094 29.546875 61.625 19.984375 C 63.019531 15.566406 66.273438 15.222656 70.5 15.75 Z M 70.5 15.75 "/>
</g>
</svg>
