<?xml version="1.0" encoding="utf-8"?>
<svg version="1.1" width="150" height="54" viewBox="0 0 150 54" xmlns="http://www.w3.org/2000/svg">
  <desc>Created with Fabric.js 5.2.4</desc>
  <defs/>
  <g transform="matrix(0.294854, 0.000579, 0, 0.294854, 75.00087, 27.000061)" style="transform-origin: -0.000869751px -6.10352e-05px;">
    <g style="" vector-effect="non-scaling-stroke">
      <g transform="matrix(1 0 0 1 -194.73 -9.11)">
        <path style="stroke: none; stroke-width: 1; stroke-dasharray: none; stroke-linecap: butt; stroke-dashoffset: 0; stroke-linejoin: miter; stroke-miterlimit: 4; fill: rgb(255,255,255); fill-rule: nonzero; opacity: 1;" vector-effect="non-scaling-stroke" transform=" translate(-52.48, -233.24)" d="M 26.36 191.051 C 29.567 193.409 31.476 196.125 32.244 200.034 C 32.384 201.21 32.513 202.386 32.635 203.564 C 33.543 211.911 36.78 219.589 40.45 227.066 C 40.613 227.399 40.776 227.733 40.945 228.076 C 42.684 231.58 44.632 234.956 46.726 238.26 C 46.909 238.562 47.091 238.863 47.28 239.174 C 48.98 241.766 51.165 243.084 54.192 243.736 C 56.923 243.694 59.048 243.288 61.208 241.548 C 66.573 235.834 71.214 227.878 72.28 220.037 C 73.022 215.809 74.581 213.271 77.898 210.508 C 80.887 208.414 84.16 207.802 87.758 208.241 C 91.433 208.891 93.99 210.788 96.447 213.551 C 98.512 216.697 99.28 219.948 98.861 223.687 C 97.946 226.99 96.54 230.09 93.581 232.02 C 92.059 232.882 90.502 233.663 88.931 234.432 C 80.845 238.557 74.861 245.324 70.38 253.133 C 70.09 253.627 69.803 254.122 69.506 254.629 C 67.471 258.372 66.337 261.946 65.528 266.117 C 64.628 270.373 62.336 273.262 58.794 275.732 C 55.764 277.531 52.409 277.674 49.015 277.08 C 45.652 276.172 42.786 274.071 40.881 271.139 C 39.453 268.563 39.139 266.17 38.882 263.271 C 37.149 248.149 29.32 233.715 20.176 221.756 C 19.88 221.369 19.88 221.369 19.58 220.975 C 17.087 217.739 14.453 215.112 11.24 212.598 C 8.898 210.69 7.098 208.739 6.176 205.827 C 5.729 201.18 5.873 197.526 8.835 193.812 C 13.352 188.813 20.454 187.593 26.36 191.051 Z" stroke-linecap="round"/>
      </g>
      <g transform="matrix(1 0 0 1 -112.43 -9.08)">
        <path style="stroke: none; stroke-width: 1; stroke-dasharray: none; stroke-linecap: butt; stroke-dashoffset: 0; stroke-linejoin: miter; stroke-miterlimit: 4; fill: rgb(255,255,255); fill-rule: nonzero; opacity: 1;" vector-effect="non-scaling-stroke" transform=" translate(-134.77, -233.27)" d="M 158.629 191.048 C 161.558 193.211 163.802 195.924 164.511 199.552 C 165.011 203.602 164.525 206.834 162.098 210.172 C 160.471 211.874 158.665 213.315 156.818 214.769 C 143.979 225.307 133.907 245.544 131.685 261.823 C 131.631 262.398 131.576 262.974 131.519 263.568 C 131.032 268.308 130.054 271.116 126.738 274.524 C 123.264 276.656 119.858 277.901 115.755 277.27 C 111.299 276.037 108.502 273.95 106.091 270.012 C 104.534 266.891 104.567 262.781 105.539 259.493 C 106.911 256.491 108.84 254.649 111.411 252.651 C 125.136 241.271 136.19 220.27 137.932 202.539 C 138.371 198.393 139.677 194.913 142.808 192.073 C 147.404 188.539 153.58 188.102 158.629 191.048 Z" stroke-linecap="round"/>
      </g>
      <g transform="matrix(1 0 0 1 65.45 19.5)">
        <path style="stroke: none; stroke-width: 1; stroke-dasharray: none; stroke-linecap: butt; stroke-dashoffset: 0; stroke-linejoin: miter; stroke-miterlimit: 4; fill: rgb(255,255,255); fill-rule: nonzero; opacity: 1;" vector-effect="non-scaling-stroke" transform=" translate(-312.65, -261.85)" d="M 323.329 230.445 C 323.737 230.645 324.147 230.844 324.567 231.05 C 330.416 234.191 334.036 239.495 335.945 245.763 C 337.598 252.829 336.597 260.452 333.134 266.77 C 329.737 271.986 324.855 275.851 318.773 277.482 C 312.363 278.542 306.837 277.82 301.516 274.086 C 300.64 273.408 300.64 273.408 299.675 272.443 C 299.515 280.089 299.357 287.736 299.192 295.614 C 295.688 295.614 292.183 295.614 288.572 295.614 C 288.572 273.79 288.572 251.965 288.572 229.48 C 292.076 229.48 295.582 229.48 299.192 229.48 C 299.352 230.914 299.51 232.347 299.675 233.824 C 299.893 233.603 300.109 233.381 300.333 233.153 C 306.36 227.404 315.977 226.632 323.329 230.445 Z M 301.636 242.906 C 298.743 246.553 297.951 250.752 298.33 255.358 C 298.997 259.446 300.741 263.012 304.05 265.579 C 307.651 267.844 311.678 268.147 315.806 267.407 C 319.035 266.511 321.605 264.629 323.481 261.846 C 325.837 257.431 326.339 252.782 325.14 247.935 C 323.792 243.928 321.039 241.383 317.536 239.195 C 311.819 237.053 305.733 238.589 301.636 242.906 Z" stroke-linecap="round"/>
      </g>
      <g transform="matrix(1 0 0 1 -48.99 10.67)">
        <path style="stroke: none; stroke-width: 1; stroke-dasharray: none; stroke-linecap: butt; stroke-dashoffset: 0; stroke-linejoin: miter; stroke-miterlimit: 4; fill: rgb(255,255,255); fill-rule: nonzero; opacity: 1;" vector-effect="non-scaling-stroke" transform=" translate(-198.21, -253.02)" d="M 208.277 231.327 C 209.329 232.128 210.342 232.952 211.335 233.824 C 211.495 232.391 211.655 230.957 211.818 229.48 C 215.323 229.48 218.827 229.48 222.438 229.48 C 222.438 244.932 222.438 260.385 222.438 276.305 C 218.934 276.305 215.43 276.305 211.818 276.305 C 211.58 274.154 211.58 274.154 211.335 271.96 C 210.994 272.292 210.994 272.292 210.643 272.632 C 206.154 276.797 201.826 277.943 195.775 277.887 C 189.434 277.419 183.878 274.438 179.529 269.88 C 175.588 264.852 173.992 259.243 174.015 252.952 C 174.007 252.527 174 252.101 173.991 251.662 C 173.986 244.823 176.857 239.276 181.407 234.307 C 188.287 227.849 200.265 225.84 208.277 231.327 Z M 188.196 242.937 C 185.371 246.518 184.708 250.082 184.786 254.582 C 185.32 258.865 186.731 262.08 189.951 264.973 C 193.334 267.597 197.032 267.975 201.199 267.615 C 204.855 267.012 207.485 265.083 209.887 262.305 C 212.14 258.574 212.713 254.536 212.3 250.237 C 211.233 246.057 209.571 242.667 206.014 240.138 C 200.017 236.867 192.788 238.027 188.196 242.937 Z" stroke-linecap="round"/>
      </g>
      <g transform="matrix(1 0 0 1 120.48 10.63)">
        <path style="stroke: none; stroke-width: 1; stroke-dasharray: none; stroke-linecap: butt; stroke-dashoffset: 0; stroke-linejoin: miter; stroke-miterlimit: 4; fill: rgb(255,255,255); fill-rule: nonzero; opacity: 1;" vector-effect="non-scaling-stroke" transform=" translate(-367.68, -252.98)" d="M 379.932 231.1 C 380.916 231.797 381.807 232.539 382.705 233.341 C 383.134 233.689 383.134 233.689 383.572 234.042 C 387.459 237.456 389.207 242.46 390.429 247.341 C 390.429 250.526 390.429 253.712 390.429 256.995 C 373.702 257.234 373.702 257.234 356.637 257.478 C 358.474 262.529 359.496 264.683 364.014 266.968 C 368.959 268.75 374.648 267.862 379.326 265.685 C 379.9 265.33 380.465 264.96 381.015 264.568 C 382.222 263.754 382.222 263.754 383.119 263.751 C 384.729 264.507 385.498 265.901 386.445 267.344 C 386.645 267.634 386.843 267.922 387.047 268.22 C 388.498 270.37 388.498 270.37 388.498 271.477 C 381.578 276.818 373.891 278.377 365.327 277.753 C 359.188 276.908 353.66 274.031 349.879 269.064 C 347.35 265.053 345.372 260.808 345.052 256.03 C 345.018 255.576 344.986 255.122 344.951 254.655 C 344.692 247.376 346.753 240.611 351.509 235.062 C 358.561 227.739 371.066 225.776 379.932 231.1 Z M 358.357 242.393 C 357.379 244.424 356.802 246.63 356.155 248.789 C 363.961 248.789 371.767 248.789 379.809 248.789 C 378.131 243.04 378.131 243.04 374.016 239.134 C 368.49 236.44 362.327 237.913 358.357 242.393 Z" stroke-linecap="round"/>
      </g>
      <g transform="matrix(1 0 0 1 174.83 10.66)">
        <path style="stroke: none; stroke-width: 1; stroke-dasharray: none; stroke-linecap: butt; stroke-dashoffset: 0; stroke-linejoin: miter; stroke-miterlimit: 4; fill: rgb(255,255,255); fill-rule: nonzero; opacity: 1;" vector-effect="non-scaling-stroke" transform=" translate(-422.03, -253.01)" d="M 433.998 231.1 C 434.982 231.797 435.871 232.539 436.77 233.341 C 437.199 233.689 437.199 233.689 437.638 234.042 C 442.971 238.726 444.449 245.745 444.952 252.474 C 444.976 254.099 444.976 254.099 444.493 256.995 C 427.767 257.234 427.767 257.234 410.704 257.478 C 412.539 262.526 413.559 264.672 418.066 266.967 C 420.023 267.669 421.742 267.874 423.797 267.856 C 424.33 267.855 424.33 267.855 424.873 267.853 C 428.613 267.743 432.434 266.782 435.373 264.366 C 436.287 263.754 436.287 263.754 437.23 263.709 C 438.778 264.535 439.572 265.913 440.511 267.344 C 440.709 267.634 440.909 267.922 441.113 268.22 C 442.562 270.37 442.562 270.37 442.562 271.477 C 435.643 276.818 427.956 278.377 419.391 277.753 C 413.219 276.903 407.784 274.013 403.945 269.064 C 399.631 262.191 398.2 254.824 399.66 246.888 C 401.122 240.675 404.168 235.545 409.345 231.742 C 416.483 227.392 426.708 226.723 433.998 231.1 Z M 413.796 241.289 C 411.438 243.741 411.296 245.201 410.221 248.789 C 418.025 248.789 425.831 248.789 433.873 248.789 C 432.669 243.971 431.374 241.292 427.206 238.562 C 422.405 236.778 417.517 237.863 413.796 241.289 Z" stroke-linecap="round"/>
      </g>
      <g transform="matrix(1 0 0 1 8.06 10.67)">
        <path style="stroke: none; stroke-width: 1; stroke-dasharray: none; stroke-linecap: butt; stroke-dashoffset: 0; stroke-linejoin: miter; stroke-miterlimit: 4; fill: rgb(255,255,255); fill-rule: nonzero; opacity: 1;" vector-effect="non-scaling-stroke" transform=" translate(-255.26, -253.02)" d="M 231.61 229.48 C 233.621 229.339 235.63 229.254 237.645 229.178 C 238.494 229.117 238.494 229.117 239.361 229.056 C 243.506 228.939 243.506 228.939 245.342 230.454 C 246.341 231.692 247.191 232.953 248.023 234.307 C 248.467 234.922 248.916 235.533 249.372 236.139 C 249.759 236.684 250.144 237.229 250.528 237.777 C 250.719 238.048 250.913 238.321 251.111 238.601 C 251.495 239.145 251.878 239.687 252.261 240.231 C 253.256 241.639 254.26 243.042 255.264 244.444 C 255.731 243.849 256.197 243.252 256.66 242.653 C 257.085 242.107 257.516 241.563 257.951 241.024 C 259.273 239.357 260.374 237.701 261.368 235.818 C 264.058 231.013 264.058 231.013 266.366 229.48 C 270.457 228.438 274.777 228.937 278.917 229.48 C 278.223 230.986 277.384 232.234 276.373 233.545 C 276.056 233.958 275.741 234.369 275.415 234.794 C 275.077 235.231 274.74 235.667 274.392 236.118 C 273.691 237.03 272.992 237.943 272.292 238.856 C 271.943 239.309 271.596 239.762 271.236 240.229 C 269.566 242.416 267.918 244.621 266.273 246.827 C 265.951 247.261 265.951 247.261 265.62 247.703 C 265.322 248.107 265.322 248.107 265.016 248.519 C 264.469 249.229 263.877 249.901 263.283 250.569 C 262.387 251.588 262.387 251.588 262.623 252.611 C 263.015 253.692 263.49 254.457 264.17 255.383 C 264.417 255.722 264.664 256.062 264.918 256.411 C 265.188 256.773 265.456 257.135 265.733 257.509 C 266.012 257.888 266.289 258.267 266.575 258.657 C 267.164 259.461 267.757 260.266 268.349 261.069 C 269.258 262.298 270.161 263.531 271.064 264.765 C 273.581 268.197 276.1 271.614 278.774 274.93 C 279.4 275.822 279.4 275.822 279.4 276.787 C 267.917 277.409 267.917 277.409 264.863 275.75 C 263.309 274.308 262.459 272.495 261.583 270.588 C 260.58 268.602 259.22 266.848 257.919 265.051 C 257.543 264.51 257.543 264.51 257.161 263.959 C 256.928 263.624 256.695 263.289 256.456 262.945 C 256.249 262.647 256.042 262.348 255.828 262.04 C 255.285 261.267 255.285 261.267 254.298 260.857 C 254.164 261.139 254.03 261.421 253.893 261.71 C 253.36 262.738 252.777 263.644 252.107 264.585 C 251.869 264.923 251.632 265.26 251.386 265.607 C 250.866 266.335 250.339 267.06 249.809 267.781 C 248.63 269.397 247.593 270.88 246.74 272.697 C 245.919 274.36 245.143 275.172 243.678 276.305 C 242.236 276.646 242.236 276.646 240.651 276.733 C 240.083 276.766 239.515 276.798 238.931 276.833 C 236.326 276.9 233.731 276.883 231.127 276.787 C 231.891 274.764 232.819 273.326 234.176 271.628 C 236.199 269.058 238.147 266.441 240.058 263.784 C 240.322 263.419 240.585 263.052 240.856 262.675 C 241.637 261.588 242.417 260.498 243.195 259.409 C 243.443 259.063 243.692 258.718 243.946 258.361 C 245.307 256.459 246.666 254.556 248.023 252.651 C 246.14 249.742 244.142 246.977 241.989 244.263 C 239.472 241.058 236.996 237.823 234.567 234.549 C 234.271 234.153 233.976 233.759 233.67 233.351 C 233.4 232.984 233.129 232.618 232.851 232.24 C 232.61 231.918 232.371 231.593 232.123 231.26 C 231.61 230.445 231.61 230.445 231.61 229.48 Z" stroke-linecap="round"/>
      </g>
      <g transform="matrix(1 0 0 1 225.29 9.83)">
        <path style="stroke: none; stroke-width: 1; stroke-dasharray: none; stroke-linecap: butt; stroke-dashoffset: 0; stroke-linejoin: miter; stroke-miterlimit: 4; fill: rgb(255,255,255); fill-rule: nonzero; opacity: 1;" vector-effect="non-scaling-stroke" transform=" translate(-472.49, -252.18)" d="M 488.422 229.48 C 488.127 233.163 487.071 236.577 486.008 240.1 C 485.421 239.941 484.833 239.781 484.228 239.617 C 479.876 238.679 475.539 238.434 471.574 240.704 C 468.817 243.004 467.99 246.313 467.665 249.754 C 467.572 251.799 467.541 253.846 467.512 255.893 C 467.502 256.478 467.491 257.061 467.482 257.664 C 467.45 259.523 467.421 261.381 467.394 263.24 C 467.372 264.504 467.351 265.768 467.33 267.032 C 467.278 270.124 467.229 273.213 467.182 276.305 C 463.676 276.305 460.172 276.305 456.562 276.305 C 456.562 260.853 456.562 245.401 456.562 229.48 C 460.066 229.48 463.571 229.48 467.182 229.48 C 467.34 230.754 467.5 232.029 467.665 233.341 C 468.123 232.904 468.58 232.466 469.052 232.015 C 474.159 227.763 482.255 226.961 488.422 229.48 Z" stroke-linecap="round"/>
      </g>
    </g>
  </g>
</svg>