<?xml version="1.0" encoding="UTF-8"?>
<svg xmlns="http://www.w3.org/2000/svg" xmlns:xlink="http://www.w3.org/1999/xlink" width="75px" height="75px" viewBox="0 0 75 75" version="1.1">
<g id="surface1">
<path style="fill-rule:nonzero;fill:rgb(100%,100%,100%);fill-opacity:1;stroke-width:1;stroke-linecap:butt;stroke-linejoin:miter;stroke:rgb(100%,100%,100%);stroke-opacity:1;stroke-miterlimit:4;" d="M 40.812904 10.23078 C 40.870564 9.814351 40.195735 9.889095 39.79639 9.880552 C 38.00254 9.839977 36.204419 9.886959 34.410569 9.850655 C 33.763502 9.837842 33.374835 10.04926 33.050233 10.619448 C 30.857039 14.469818 28.633946 18.303104 26.419396 22.140661 C 26.35533 22.247437 26.286993 22.349943 26.212249 22.448178 C 26.133235 22.559226 25.943172 22.516515 25.93463 22.373434 L 25.93463 22.371298 C 25.750974 18.514522 25.569453 14.657745 25.392204 10.798833 C 25.353764 9.893366 25.332409 9.863468 24.39918 9.863468 C 21.808776 9.867739 19.216236 9.897637 16.625831 9.863468 C 15.938189 9.857062 15.562335 10.100513 15.229191 10.687785 C 12.794681 14.97594 10.328138 19.24701 7.870137 23.520216 L 7.846646 23.556521 C 7.735598 23.742312 7.447301 23.626993 7.494282 23.415575 L 7.496418 23.409169 L 12.647329 1.099231 C 12.854476 0.202306 12.724208 0.0229214 11.825148 0.0143793 C 10.439186 0.00370159 9.051088 0.0357346 7.665125 -0.000569476 C 7.033007 -0.0155182 6.778878 0.259966 6.665695 0.842967 C 6.390211 2.27164 6.076287 3.691771 5.773041 5.111902 C 3.872415 14.089692 1.967517 23.065347 0.0668907 32.043138 C -0.116765 32.914436 0.0455353 33.119448 0.933918 33.123719 C 2.83668 33.132261 4.741577 33.117312 6.646475 33.132261 C 7.058633 33.134396 7.440894 32.916572 7.645905 32.559937 C 9.862591 28.696754 12.09209 24.839977 14.321589 20.9832 L 14.323724 20.976794 C 14.394197 20.859339 14.530871 20.799544 14.663274 20.825171 C 14.797813 20.852933 14.900319 20.963981 14.917403 21.098519 C 14.925945 21.177534 14.930216 21.254413 14.934487 21.329157 C 15.092517 24.89123 15.24414 28.455438 15.406441 32.019647 C 15.453423 33.038297 15.558064 33.12799 16.587392 33.12799 C 19.179932 33.121583 21.7682 33.098092 24.36074 33.117312 C 24.915979 33.121583 25.229903 32.912301 25.496845 32.444618 C 27.952711 28.14365 32.896475 19.554527 32.896475 19.554527 L 32.907153 19.535308 C 33.033149 19.334567 33.344937 19.464835 33.291549 19.695473 L 33.289413 19.704015 L 28.189755 41.815347 C 27.961253 42.8041 28.104334 42.98135 29.137933 42.987756 C 30.432067 42.994163 31.730473 42.96213 33.024607 43.000569 C 33.725063 43.019789 34.015495 42.752847 34.160712 42.060934 C 36.270621 32.01324 38.408292 21.971953 40.545962 11.930666 " transform="matrix(1.829167,0,0,1.829167,0.166708,-1.827083)"/>
</g>
</svg>
